<svg width="314" height="293" viewBox="0 0 314 293" fill="none" xmlns="http://www.w3.org/2000/svg">
<g clip-path="url(#clip0_59_1182)">
<rect width="1.02022" height="544.798" transform="translate(9.25586 -163.647)" fill="#222222"/>
<rect width="1.02022" height="544.798" transform="translate(40.8828 -163.647)" fill="#222222"/>
<rect width="1.02022" height="544.798" transform="translate(72.5098 -163.647)" fill="#222222"/>
<rect width="1.02022" height="544.798" transform="translate(104.137 -163.647)" fill="#222222"/>
<rect width="1.02022" height="544.798" transform="translate(135.764 -163.647)" fill="#222222"/>
<rect width="1.02022" height="544.798" transform="translate(167.391 -163.647)" fill="#222222"/>
<rect width="1.02022" height="544.798" transform="translate(199.016 -163.647)" fill="#222222"/>
<rect width="1.02022" height="544.798" transform="translate(230.643 -163.647)" fill="#222222"/>
<rect width="1.02022" height="544.798" transform="translate(262.27 -163.647)" fill="#222222"/>
<rect width="1.02022" height="544.798" transform="translate(293.896 -163.647)" fill="#222222"/>
<rect width="1.02026" height="1469.12" transform="translate(1351.87 8.77026) rotate(90)" fill="#222222"/>
<rect width="1.02026" height="1469.12" transform="translate(1351.87 40.397) rotate(90)" fill="#222222"/>
<rect width="1.02026" height="1469.12" transform="translate(1351.87 72.0239) rotate(90)" fill="#222222"/>
<rect width="1.02026" height="1469.12" transform="translate(1351.87 103.651) rotate(90)" fill="#222222"/>
<rect width="1.02026" height="1469.12" transform="translate(1351.87 135.278) rotate(90)" fill="#222222"/>
<rect width="1.02026" height="1469.12" transform="translate(1351.87 166.904) rotate(90)" fill="#222222"/>
<rect width="1.02026" height="1469.12" transform="translate(1351.87 198.531) rotate(90)" fill="#222222"/>
<rect width="1.02026" height="1469.12" transform="translate(1351.87 230.158) rotate(90)" fill="#222222"/>
<rect width="1.02026" height="1469.12" transform="translate(1351.87 261.785) rotate(90)" fill="#222222"/>
</g>
<defs>
<clipPath id="clip0_59_1182">
<rect width="570.303" height="618.254" fill="white" transform="translate(-117.252 -200.375)"/>
</clipPath>
</defs>
</svg>
