<svg width="1440" height="367" viewBox="0 0 1440 367" fill="none" xmlns="http://www.w3.org/2000/svg">
<g opacity="0.7" clip-path="url(#clip0_169_3021)">
<g clip-path="url(#clip1_169_3021)">
<rect width="1" height="534" transform="translate(0 -84)" fill="#222222"/>
<rect width="1" height="534" transform="translate(31 -84)" fill="#222222"/>
<rect width="1" height="534" transform="translate(62 -84)" fill="#222222"/>
<rect width="1" height="534" transform="translate(93 -84)" fill="#222222"/>
<rect width="1" height="534" transform="translate(124 -84)" fill="#222222"/>
<rect width="1" height="534" transform="translate(155 -84)" fill="#222222"/>
<rect width="1" height="534" transform="translate(186 -84)" fill="#222222"/>
<rect width="1" height="534" transform="translate(217 -84)" fill="#222222"/>
<rect width="1" height="534" transform="translate(248 -84)" fill="#222222"/>
<rect width="1" height="534" transform="translate(279 -84)" fill="#222222"/>
<rect width="1" height="534" transform="translate(310 -84)" fill="#222222"/>
<rect width="1" height="534" transform="translate(341 -84)" fill="#222222"/>
<rect width="1" height="534" transform="translate(372 -84)" fill="#222222"/>
<rect width="1" height="534" transform="translate(403 -84)" fill="#222222"/>
<rect width="1" height="534" transform="translate(434 -84)" fill="#222222"/>
<rect width="1" height="534" transform="translate(465 -84)" fill="#222222"/>
<rect width="1" height="534" transform="translate(496 -84)" fill="#222222"/>
<rect width="1" height="534" transform="translate(527 -84)" fill="#222222"/>
<rect width="1" height="534" transform="translate(558 -84)" fill="#222222"/>
<rect width="1" height="534" transform="translate(589 -84)" fill="#222222"/>
<rect width="1" height="534" transform="translate(620 -84)" fill="#222222"/>
<rect width="1" height="534" transform="translate(651 -84)" fill="#222222"/>
<rect width="1" height="534" transform="translate(682 -84)" fill="#222222"/>
<rect width="1" height="534" transform="translate(713 -84)" fill="#222222"/>
<rect width="1" height="534" transform="translate(744 -84)" fill="#222222"/>
<rect width="1" height="534" transform="translate(775 -84)" fill="#222222"/>
<rect width="1" height="534" transform="translate(806 -84)" fill="#222222"/>
<rect width="1" height="534" transform="translate(837 -84)" fill="#222222"/>
<rect width="1" height="534" transform="translate(868 -84)" fill="#222222"/>
<rect width="1" height="534" transform="translate(899 -84)" fill="#222222"/>
<rect width="1" height="534" transform="translate(930 -84)" fill="#222222"/>
<rect width="1" height="534" transform="translate(961 -84)" fill="#222222"/>
<rect width="1" height="534" transform="translate(992 -84)" fill="#222222"/>
<rect width="1" height="534" transform="translate(1023 -84)" fill="#222222"/>
<rect width="1" height="534" transform="translate(1054 -84)" fill="#222222"/>
<rect width="1" height="534" transform="translate(1085 -84)" fill="#222222"/>
<rect width="1" height="534" transform="translate(1116 -84)" fill="#222222"/>
<rect width="1" height="534" transform="translate(1147 -84)" fill="#222222"/>
<rect width="1" height="534" transform="translate(1178 -84)" fill="#222222"/>
<rect width="1" height="534" transform="translate(1209 -84)" fill="#222222"/>
<rect width="1" height="534" transform="translate(1240 -84)" fill="#222222"/>
<rect width="1" height="534" transform="translate(1271 -84)" fill="#222222"/>
<rect width="1" height="534" transform="translate(1302 -84)" fill="#222222"/>
<rect width="1" height="534" transform="translate(1333 -84)" fill="#222222"/>
<rect width="1" height="534" transform="translate(1364 -84)" fill="#222222"/>
<rect width="1" height="534" transform="translate(1395 -84)" fill="#222222"/>
<rect width="1" height="534" transform="translate(1426 -84)" fill="#222222"/>
<rect width="1.00003" height="1440" transform="translate(1440 23) rotate(90)" fill="#222222"/>
<rect width="1.00003" height="1440" transform="translate(1440 54) rotate(90)" fill="#222222"/>
<rect width="1.00003" height="1440" transform="translate(1440 85) rotate(90)" fill="#222222"/>
<rect width="1.00003" height="1440" transform="translate(1440 116) rotate(90)" fill="#222222"/>
<rect width="1.00003" height="1440" transform="translate(1440 147) rotate(90)" fill="#222222"/>
<rect width="1.00003" height="1440" transform="translate(1440 178) rotate(90)" fill="#222222"/>
<rect width="1.00003" height="1440" transform="translate(1440 209) rotate(90)" fill="#222222"/>
<rect width="1.00003" height="1440" transform="translate(1440 240) rotate(90)" fill="#222222"/>
<rect width="1.00003" height="1440" transform="translate(1440 271) rotate(90)" fill="#222222"/>
<rect width="1.00003" height="1440" transform="translate(1440 302) rotate(90)" fill="#222222"/>
<rect width="1.00003" height="1440" transform="translate(1440 333) rotate(90)" fill="#222222"/>
<rect width="1.00003" height="1440" transform="translate(1440 364) rotate(90)" fill="#222222"/>
</g>
<rect y="167" width="1440" height="200" fill="url(#paint0_linear_169_3021)"/>
<rect width="1438" height="200" transform="matrix(1 0 0 -1 1 200)" fill="url(#paint1_linear_169_3021)"/>
<rect width="632" height="200" transform="matrix(0 1 1 0 1240 -132)" fill="url(#paint2_linear_169_3021)"/>
<rect x="200" y="-132" width="632" height="200" transform="rotate(90 200 -132)" fill="url(#paint3_linear_169_3021)"/>
</g>
<defs>
<linearGradient id="paint0_linear_169_3021" x1="720" y1="167" x2="720" y2="367" gradientUnits="userSpaceOnUse">
<stop stop-color="#101010" stop-opacity="0"/>
<stop offset="1" stop-color="#101010"/>
</linearGradient>
<linearGradient id="paint1_linear_169_3021" x1="719" y1="0" x2="719" y2="200" gradientUnits="userSpaceOnUse">
<stop stop-color="#101010" stop-opacity="0"/>
<stop offset="1" stop-color="#101010"/>
</linearGradient>
<linearGradient id="paint2_linear_169_3021" x1="316" y1="0" x2="316" y2="200" gradientUnits="userSpaceOnUse">
<stop stop-color="#101010" stop-opacity="0"/>
<stop offset="1" stop-color="#101010"/>
</linearGradient>
<linearGradient id="paint3_linear_169_3021" x1="516" y1="-132" x2="516" y2="68" gradientUnits="userSpaceOnUse">
<stop stop-color="#101010" stop-opacity="0"/>
<stop offset="1" stop-color="#101010"/>
</linearGradient>
<clipPath id="clip0_169_3021">
<rect width="1440" height="367" fill="white"/>
</clipPath>
<clipPath id="clip1_169_3021">
<rect width="1440" height="606" fill="white" transform="translate(0 -120)"/>
</clipPath>
</defs>
</svg>
