<svg width="390" height="218" viewBox="0 0 390 218" fill="none" xmlns="http://www.w3.org/2000/svg">
<g opacity="0.7" clip-path="url(#clip0_169_3104)">
<g clip-path="url(#clip1_169_3104)">
<rect width="1" height="534" transform="translate(2 -196)" fill="#222222"/>
<rect width="1" height="534" transform="translate(33 -196)" fill="#222222"/>
<rect width="1" height="534" transform="translate(64 -196)" fill="#222222"/>
<rect width="1" height="534" transform="translate(95 -196)" fill="#222222"/>
<rect width="1" height="534" transform="translate(126 -196)" fill="#222222"/>
<rect width="1" height="534" transform="translate(157 -196)" fill="#222222"/>
<rect width="1" height="534" transform="translate(188 -196)" fill="#222222"/>
<rect width="1" height="534" transform="translate(219 -196)" fill="#222222"/>
<rect width="1" height="534" transform="translate(250 -196)" fill="#222222"/>
<rect width="1" height="534" transform="translate(281 -196)" fill="#222222"/>
<rect width="1" height="534" transform="translate(312 -196)" fill="#222222"/>
<rect width="1" height="534" transform="translate(343 -196)" fill="#222222"/>
<rect width="1" height="534" transform="translate(374 -196)" fill="#222222"/>
<rect width="1.00003" height="1440" transform="translate(915 4) rotate(90)" fill="#222222"/>
<rect width="1.00003" height="1440" transform="translate(915 35) rotate(90)" fill="#222222"/>
<rect width="1.00003" height="1440" transform="translate(915 66) rotate(90)" fill="#222222"/>
<rect width="1.00003" height="1440" transform="translate(915 97) rotate(90)" fill="#222222"/>
<rect width="1.00003" height="1440" transform="translate(915 128) rotate(90)" fill="#222222"/>
<rect width="1.00003" height="1440" transform="translate(915 159) rotate(90)" fill="#222222"/>
<rect width="1.00003" height="1440" transform="translate(915 190) rotate(90)" fill="#222222"/>
</g>
<rect x="-525" y="18" width="1440" height="200" fill="url(#paint0_linear_169_3104)"/>
<rect width="1438" height="200" transform="matrix(1 0 0 -1 -524 125)" fill="url(#paint1_linear_169_3104)"/>
</g>
<defs>
<linearGradient id="paint0_linear_169_3104" x1="195" y1="18" x2="195" y2="218" gradientUnits="userSpaceOnUse">
<stop stop-color="#101010" stop-opacity="0"/>
<stop offset="1" stop-color="#101010"/>
</linearGradient>
<linearGradient id="paint1_linear_169_3104" x1="719" y1="0" x2="719" y2="200" gradientUnits="userSpaceOnUse">
<stop stop-color="#101010" stop-opacity="0"/>
<stop offset="1" stop-color="#101010"/>
</linearGradient>
<clipPath id="clip0_169_3104">
<rect width="390" height="218" fill="white"/>
</clipPath>
<clipPath id="clip1_169_3104">
<rect width="1440" height="606" fill="white" transform="translate(-525 -232)"/>
</clipPath>
</defs>
</svg>
