<svg width="111" height="21" viewBox="0 0 111 21" fill="none" xmlns="http://www.w3.org/2000/svg">
<path d="M13.0032 0.78285C13.156 0.413053 12.8978 0 12.5139 0H0.533333C0.238781 0 0 0.250721 0 0.56V20.44C0 20.7493 0.238781 21 0.533333 21H4.30119C4.51368 21 4.70591 20.8675 4.79047 20.6628L6.06287 17.5829C6.21564 17.2131 5.95748 16.8 5.57358 16.8H4.53333C4.23878 16.8 4 16.5493 4 16.24V4.76C4 4.45072 4.23878 4.2 4.53333 4.2H11.2415C11.454 4.2 11.6463 4.06755 11.7308 3.86285L13.0032 0.78285Z" fill="url(#paint0_linear_223_3175)"/>
<path d="M8.42705 17.1371C8.51161 16.9325 8.70383 16.8 8.91633 16.8H15.4667C15.7612 16.8 16 16.5493 16 16.24V4.76C16 4.45072 15.7612 4.2 15.4667 4.2H14.5843C14.2004 4.2 13.9422 3.78695 14.095 3.41715L15.3674 0.33715C15.452 0.132454 15.6442 0 15.8567 0H19.4667C19.7612 0 20 0.250721 20 0.56V20.44C20 20.7493 19.7612 21 19.4667 21H7.64393C7.26004 21 7.00188 20.5869 7.15465 20.2171L8.42705 17.1371Z" fill="url(#paint1_linear_223_3175)"/>
<path d="M40.5465 15.356V17.3539H33.7759V15.356H40.5465ZM34.5436 3.8866V17.3539H32V3.8866H34.5436Z" fill="#101010"/>
<path d="M41.6287 12.4516V12.2574C41.6287 11.5236 41.7336 10.8484 41.9432 10.2318C42.1529 9.60896 42.4581 9.0694 42.8589 8.61309C43.2597 8.15678 43.75 7.80222 44.3296 7.5494C44.9092 7.29041 45.569 7.16092 46.309 7.16092C47.0613 7.16092 47.7272 7.29041 48.3069 7.5494C48.8927 7.80222 49.386 8.15678 49.7868 8.61309C50.1876 9.0694 50.4928 9.60896 50.7025 10.2318C50.9121 10.8484 51.017 11.5236 51.017 12.2574V12.4516C51.017 13.1793 50.9121 13.8545 50.7025 14.4773C50.4928 15.0939 50.1876 15.6335 49.7868 16.0959C49.386 16.5522 48.8958 16.9068 48.3161 17.1596C47.7365 17.4125 47.0736 17.5389 46.3275 17.5389C45.5875 17.5389 44.9246 17.4125 44.3388 17.1596C43.753 16.9068 43.2597 16.5522 42.8589 16.0959C42.4581 15.6335 42.1529 15.0939 41.9432 14.4773C41.7336 13.8545 41.6287 13.1793 41.6287 12.4516ZM44.0706 12.2574V12.4516C44.0706 12.8894 44.1138 13.2995 44.2001 13.6818C44.2864 14.0641 44.419 14.4002 44.5978 14.69C44.7766 14.9798 45.0079 15.208 45.2915 15.3745C45.5814 15.5348 45.9267 15.615 46.3275 15.615C46.7221 15.615 47.0613 15.5348 47.3449 15.3745C47.6286 15.208 47.8598 14.9798 48.0386 14.69C48.2236 14.4002 48.3593 14.0641 48.4456 13.6818C48.5319 13.2995 48.5751 12.8894 48.5751 12.4516V12.2574C48.5751 11.8258 48.5319 11.4219 48.4456 11.0457C48.3593 10.6634 48.2236 10.3273 48.0386 10.0375C47.8598 9.74153 47.6255 9.51029 47.3357 9.3438C47.052 9.17115 46.7098 9.08482 46.309 9.08482C45.9143 9.08482 45.5752 9.17115 45.2915 9.3438C45.0079 9.51029 44.7766 9.74153 44.5978 10.0375C44.419 10.3273 44.2864 10.6634 44.2001 11.0457C44.1138 11.4219 44.0706 11.8258 44.0706 12.2574Z" fill="#101010"/>
<path d="M52.3582 12.4516V12.2574C52.3582 11.5236 52.463 10.8484 52.6726 10.2318C52.8823 9.60896 53.1875 9.0694 53.5883 8.61309C53.9891 8.15678 54.4794 7.80222 55.059 7.5494C55.6386 7.29041 56.2984 7.16092 57.0384 7.16092C57.7907 7.16092 58.4567 7.29041 59.0363 7.5494C59.6221 7.80222 60.1154 8.15678 60.5162 8.61309C60.917 9.0694 61.2223 9.60896 61.4319 10.2318C61.6416 10.8484 61.7464 11.5236 61.7464 12.2574V12.4516C61.7464 13.1793 61.6416 13.8545 61.4319 14.4773C61.2223 15.0939 60.917 15.6335 60.5162 16.0959C60.1154 16.5522 59.6252 16.9068 59.0455 17.1596C58.4659 17.4125 57.803 17.5389 57.0569 17.5389C56.3169 17.5389 55.6541 17.4125 55.0683 17.1596C54.4825 16.9068 53.9891 16.5522 53.5883 16.0959C53.1875 15.6335 52.8823 15.0939 52.6726 14.4773C52.463 13.8545 52.3582 13.1793 52.3582 12.4516ZM54.8 12.2574V12.4516C54.8 12.8894 54.8432 13.2995 54.9295 13.6818C55.0158 14.0641 55.1484 14.4002 55.3272 14.69C55.5061 14.9798 55.7373 15.208 56.021 15.3745C56.3108 15.5348 56.6561 15.615 57.0569 15.615C57.4515 15.615 57.7907 15.5348 58.0743 15.3745C58.358 15.208 58.5892 14.9798 58.7681 14.69C58.953 14.4002 59.0887 14.0641 59.175 13.6818C59.2614 13.2995 59.3045 12.8894 59.3045 12.4516V12.2574C59.3045 11.8258 59.2614 11.4219 59.175 11.0457C59.0887 10.6634 58.953 10.3273 58.7681 10.0375C58.5892 9.74153 58.3549 9.51029 58.0651 9.3438C57.7814 9.17115 57.4392 9.08482 57.0384 9.08482C56.6438 9.08482 56.3046 9.17115 56.021 9.3438C55.7373 9.51029 55.5061 9.74153 55.3272 10.0375C55.1484 10.3273 55.0158 10.6634 54.9295 11.0457C54.8432 11.4219 54.8 11.8258 54.8 12.2574Z" fill="#101010"/>
<path d="M65.9179 9.48255V17.3539H63.4761V7.34591H65.7699L65.9179 9.48255ZM65.5294 11.9892H64.808C64.8142 11.2615 64.9128 10.6017 65.104 10.0098C65.2951 9.4178 65.5634 8.90908 65.9087 8.4836C66.2602 8.05812 66.6764 7.73131 67.1574 7.50315C67.6383 7.275 68.1748 7.16092 68.7668 7.16092C69.2477 7.16092 69.6825 7.22875 70.0709 7.36441C70.4594 7.50007 70.7924 7.71589 71.0699 8.01188C71.3535 8.30786 71.5694 8.69634 71.7174 9.17731C71.8715 9.65212 71.9486 10.2379 71.9486 10.9347V17.3539H69.4882V10.9162C69.4882 10.4599 69.4204 10.0992 69.2847 9.83403C69.1553 9.56888 68.9641 9.3808 68.7113 9.26981C68.4646 9.15881 68.1594 9.10332 67.7956 9.10332C67.4194 9.10332 67.0895 9.1804 66.8059 9.33455C66.5284 9.48255 66.2941 9.68912 66.1029 9.95427C65.9179 10.2194 65.7761 10.5247 65.6774 10.87C65.5788 11.2153 65.5294 11.5883 65.5294 11.9892Z" fill="#101010"/>
<path d="M76.6936 7.34591V17.3539H74.2425V7.34591H76.6936ZM74.076 4.7283C74.076 4.36449 74.1993 4.06234 74.446 3.82185C74.6988 3.58136 75.0379 3.46112 75.4634 3.46112C75.8889 3.46112 76.225 3.58136 76.4716 3.82185C76.7244 4.06234 76.8508 4.36449 76.8508 4.7283C76.8508 5.08595 76.7244 5.38502 76.4716 5.6255C76.225 5.86599 75.8889 5.98623 75.4634 5.98623C75.0379 5.98623 74.6988 5.86599 74.446 5.6255C74.1993 5.38502 74.076 5.08595 74.076 4.7283Z" fill="#101010"/>
<path d="M83.5197 17.5389C82.7613 17.5389 82.0799 17.4155 81.4756 17.1689C80.8713 16.9222 80.3564 16.58 79.9309 16.1422C79.5116 15.6982 79.1879 15.1833 78.9597 14.5975C78.7377 14.0056 78.6267 13.3704 78.6267 12.6921V12.3221C78.6267 11.5514 78.7377 10.8515 78.9597 10.2225C79.1817 9.58737 79.4962 9.04165 79.9032 8.58534C80.3102 8.12904 80.7973 7.77755 81.3646 7.5309C81.9319 7.28425 82.5578 7.16092 83.2422 7.16092C83.9514 7.16092 84.5773 7.28116 85.1199 7.52165C85.6625 7.75597 86.1158 8.08895 86.4796 8.5206C86.8434 8.95224 87.1178 9.47021 87.3028 10.0745C87.4878 10.6726 87.5803 11.3355 87.5803 12.0632V13.0899H79.7367V11.4064H85.1754V11.2215C85.1631 10.833 85.0891 10.4784 84.9534 10.1578C84.8177 9.83094 84.6081 9.57196 84.3244 9.3808C84.0408 9.18348 83.6739 9.08482 83.2237 9.08482C82.8599 9.08482 82.5424 9.16498 82.271 9.3253C82.0059 9.47946 81.7839 9.70145 81.6051 9.99127C81.4324 10.2749 81.3029 10.6141 81.2166 11.0087C81.1303 11.4034 81.0871 11.8412 81.0871 12.3221V12.6921C81.0871 13.1114 81.1426 13.4999 81.2536 13.8576C81.3708 14.2152 81.5403 14.5266 81.7623 14.7918C81.9905 15.0507 82.2618 15.2542 82.5763 15.4022C82.8969 15.5441 83.2607 15.615 83.6677 15.615C84.1795 15.615 84.642 15.5163 85.0551 15.319C85.4745 15.1155 85.8383 14.8164 86.1466 14.4218L87.3768 15.6982C87.1671 16.0065 86.8835 16.3025 86.5258 16.5862C86.1743 16.8698 85.7489 17.1011 85.2494 17.2799C84.7499 17.4525 84.1734 17.5389 83.5197 17.5389Z" fill="#101010"/>
<path d="M94.5636 11.3509H91.1228L91.1043 9.55654H94.0549C94.5606 9.55654 94.9829 9.48563 95.3221 9.3438C95.6612 9.20198 95.9171 8.99541 96.0898 8.72409C96.2686 8.45277 96.358 8.12287 96.358 7.73439C96.358 7.30275 96.2748 6.95127 96.1083 6.67995C95.948 6.40863 95.6952 6.21131 95.3498 6.08798C95.0045 5.95849 94.5667 5.89374 94.0364 5.89374H91.946V17.3539H89.4024V3.8866H94.0364C94.801 3.8866 95.4824 3.96059 96.0806 4.10859C96.6849 4.25041 97.1967 4.4724 97.616 4.77455C98.0353 5.0767 98.3528 5.45593 98.5687 5.91224C98.7907 6.36855 98.9016 6.91118 98.9016 7.54015C98.9016 8.09512 98.7722 8.60693 98.5132 9.07557C98.2604 9.53804 97.8688 9.91419 97.3385 10.204C96.8143 10.4938 96.1484 10.6603 95.3406 10.7035L94.5636 11.3509ZM94.4526 17.3539H90.3736L91.4373 15.356H94.4526C94.9583 15.356 95.3745 15.2727 95.7013 15.1062C96.0343 14.9398 96.281 14.7116 96.4413 14.4218C96.6078 14.1258 96.691 13.7866 96.691 13.4043C96.691 12.985 96.617 12.6212 96.469 12.3129C96.3272 12.0046 96.0991 11.7672 95.7846 11.6007C95.4762 11.4342 95.0693 11.3509 94.5636 11.3509H91.9183L91.9368 9.55654H95.3036L95.8863 10.2503C96.6633 10.2564 97.2953 10.4106 97.7825 10.7127C98.2758 11.0149 98.6396 11.4034 98.8739 11.8782C99.1082 12.353 99.2254 12.8648 99.2254 13.4136C99.2254 14.2769 99.0373 15.0014 98.6612 15.5872C98.2912 16.173 97.7485 16.6139 97.0332 16.9099C96.3241 17.2059 95.4639 17.3539 94.4526 17.3539Z" fill="#101010"/>
<path d="M103.832 7.34591V17.3539H101.381V7.34591H103.832ZM101.214 4.7283C101.214 4.36449 101.337 4.06234 101.584 3.82185C101.837 3.58136 102.176 3.46112 102.601 3.46112C103.027 3.46112 103.363 3.58136 103.61 3.82185C103.862 4.06234 103.989 4.36449 103.989 4.7283C103.989 5.08595 103.862 5.38502 103.61 5.6255C103.363 5.86599 103.027 5.98623 102.601 5.98623C102.176 5.98623 101.837 5.86599 101.584 5.6255C101.337 5.38502 101.214 5.08595 101.214 4.7283Z" fill="#101010"/>
<path d="M110.898 7.34591V9.10332H105.164V7.34591H110.898ZM106.699 4.88554H109.15V14.468C109.15 14.764 109.19 14.9922 109.27 15.1525C109.351 15.3128 109.471 15.4207 109.631 15.4762C109.791 15.5317 109.983 15.5595 110.205 15.5595C110.365 15.5595 110.513 15.5502 110.649 15.5317C110.784 15.5132 110.898 15.4947 110.991 15.4762L111 17.3076C110.797 17.3755 110.565 17.431 110.306 17.4741C110.053 17.5173 109.767 17.5389 109.446 17.5389C108.897 17.5389 108.416 17.4464 108.003 17.2614C107.59 17.0702 107.269 16.765 107.041 16.3457C106.813 15.9202 106.699 15.3591 106.699 14.6623V4.88554Z" fill="#101010"/>
<defs>
<linearGradient id="paint0_linear_223_3175" x1="10" y1="0" x2="10" y2="21" gradientUnits="userSpaceOnUse">
<stop stop-color="#72FFB1"/>
<stop offset="1" stop-color="#44996A"/>
</linearGradient>
<linearGradient id="paint1_linear_223_3175" x1="10" y1="0" x2="10" y2="21" gradientUnits="userSpaceOnUse">
<stop stop-color="#72FFB1"/>
<stop offset="1" stop-color="#44996A"/>
</linearGradient>
</defs>
</svg>
