<svg width="134" height="37" viewBox="0 0 134 37" fill="none" xmlns="http://www.w3.org/2000/svg">
<rect y="0.5" width="61" height="36" rx="6" fill="white"/>
<path d="M31.2186 16.3363C31.1974 18.0079 32.7084 18.9407 33.8466 19.4954C35.016 20.0644 35.4088 20.4293 35.4041 20.9382C35.3954 21.717 34.4713 22.0607 33.6066 22.0741C32.098 22.0975 31.2208 21.6668 30.5234 21.3411L29.98 23.8841C30.6796 24.2065 31.9752 24.4877 33.3186 24.5C36.4722 24.5 38.5353 22.9433 38.5465 20.5298C38.5589 17.4666 34.3096 17.2971 34.3387 15.9279C34.3487 15.5128 34.7448 15.0697 35.6129 14.9571C36.0425 14.9002 37.2286 14.8567 38.5734 15.4759L39.1012 13.0155C38.378 12.7521 37.4485 12.5 36.2913 12.5C33.3231 12.5 31.2354 14.0779 31.2186 16.3363ZM44.1727 12.7119C43.5969 12.7119 43.1116 13.0478 42.895 13.5633L38.3903 24.3193H41.5416L42.1687 22.5862H46.0195L46.3832 24.3193H49.1607L46.737 12.7119H44.1727ZM44.6136 15.8475L45.523 20.2062H43.0324L44.6136 15.8475ZM27.3979 12.7121L24.9139 24.3191H27.9168L30.3996 12.7118L27.3979 12.7121ZM22.9556 12.7121L19.83 20.6124L18.5657 13.8948C18.4173 13.1449 17.8315 12.7119 17.1809 12.7119H12.0716L12 13.049C13.0489 13.2766 14.2407 13.6437 14.9627 14.0365C15.4046 14.2765 15.5306 14.4862 15.6757 15.0564L18.0704 24.3193H21.2437L26.1089 12.7119L22.9556 12.7121Z" fill="url(#paint0_linear_171_3205)"/>
<rect x="73" width="61" height="37" rx="6" fill="white"/>
<g clip-path="url(#clip0_171_3205)">
<path d="M99.7227 10.9862H107.849V25.587H99.7227V10.9862Z" fill="#FF5F00"/>
<path d="M100.237 18.2867C100.237 15.3202 101.63 12.6889 103.771 10.9863C102.198 9.74807 100.212 9 98.0447 9C92.911 9 88.7578 13.1532 88.7578 18.2867C88.7578 23.4203 92.911 27.5735 98.0446 27.5735C100.211 27.5735 102.198 26.8254 103.771 25.5871C101.63 23.9103 100.237 21.2533 100.237 18.2867Z" fill="#EB001B"/>
<path d="M118.812 18.2867C118.812 23.4202 114.659 27.5735 109.526 27.5735C107.359 27.5735 105.372 26.8254 103.799 25.5871C105.966 23.8846 107.333 21.2533 107.333 18.2867C107.333 15.3202 105.94 12.6889 103.799 10.9863C105.372 9.74807 107.359 9 109.526 9C114.659 9 118.812 13.179 118.812 18.2867Z" fill="#F79E1B"/>
</g>
<defs>
<linearGradient id="paint0_linear_171_3205" x1="1720.43" y1="48.572" x2="1755.16" y2="-1183.85" gradientUnits="userSpaceOnUse">
<stop stop-color="#222357"/>
<stop offset="1" stop-color="#254AA5"/>
</linearGradient>
<clipPath id="clip0_171_3205">
<rect width="30.6923" height="19" fill="white" transform="translate(88.1543 9)"/>
</clipPath>
</defs>
</svg>
