<svg width="625" height="532" viewBox="0 0 625 532" fill="none" xmlns="http://www.w3.org/2000/svg">
<mask id="mask0_141_9891" style="mask-type:alpha" maskUnits="userSpaceOnUse" x="-1" y="0" width="626" height="555">
<g opacity="0.7" clip-path="url(#clip0_141_9891)">
<g clip-path="url(#clip1_141_9891)">
<rect width="1.02022" height="544.798" transform="translate(37.5605 -32.647)" fill="#222222"/>
<rect width="1.02022" height="544.798" transform="translate(69.1875 -32.647)" fill="#222222"/>
<rect width="1.02022" height="544.798" transform="translate(100.814 -32.647)" fill="#222222"/>
<rect width="1.02022" height="544.798" transform="translate(132.441 -32.647)" fill="#222222"/>
<rect width="1.02022" height="544.798" transform="translate(164.068 -32.647)" fill="#222222"/>
<rect width="1.02022" height="544.798" transform="translate(195.695 -32.647)" fill="#222222"/>
<rect width="1.02022" height="544.798" transform="translate(227.322 -32.647)" fill="#222222"/>
<rect width="1.02022" height="544.798" transform="translate(258.949 -32.647)" fill="#222222"/>
<rect width="1.02022" height="544.798" transform="translate(290.576 -32.647)" fill="#222222"/>
<rect width="1.02022" height="544.798" transform="translate(322.203 -32.647)" fill="#222222"/>
<rect width="1.02022" height="544.798" transform="translate(353.828 -32.647)" fill="#222222"/>
<rect width="1.02022" height="544.798" transform="translate(385.455 -32.647)" fill="#222222"/>
<rect width="1.02022" height="544.798" transform="translate(417.082 -32.647)" fill="#222222"/>
<rect width="1.02022" height="544.798" transform="translate(448.709 -32.647)" fill="#222222"/>
<rect width="1.02022" height="544.798" transform="translate(480.336 -32.647)" fill="#222222"/>
<rect width="1.02022" height="544.798" transform="translate(511.963 -32.647)" fill="#222222"/>
<rect width="1.02022" height="544.798" transform="translate(543.59 -32.647)" fill="#222222"/>
<rect width="1.02022" height="544.798" transform="translate(575.217 -32.647)" fill="#222222"/>
<rect width="1.02022" height="544.798" transform="translate(606.844 -32.647)" fill="#222222"/>
<rect width="1.02026" height="1469.12" transform="translate(1506.68 13.2629) rotate(90)" fill="#222222"/>
<rect width="1.02026" height="1469.12" transform="translate(1506.68 44.8896) rotate(90)" fill="#222222"/>
<rect width="1.02026" height="1469.12" transform="translate(1506.68 76.5166) rotate(90)" fill="#222222"/>
<rect width="1.02026" height="1469.12" transform="translate(1506.68 108.143) rotate(90)" fill="#222222"/>
<rect width="1.02026" height="1469.12" transform="translate(1506.68 139.77) rotate(90)" fill="#222222"/>
<rect width="1.02026" height="1469.12" transform="translate(1506.68 171.397) rotate(90)" fill="#222222"/>
<rect width="1.02026" height="1469.12" transform="translate(1506.68 203.024) rotate(90)" fill="#222222"/>
<rect width="1.02026" height="1469.12" transform="translate(1506.68 234.651) rotate(90)" fill="#222222"/>
<rect width="1.02026" height="1469.12" transform="translate(1506.68 266.278) rotate(90)" fill="#222222"/>
<rect width="1.02026" height="1469.12" transform="translate(1506.68 297.904) rotate(90)" fill="#222222"/>
<rect width="1.02026" height="1469.12" transform="translate(1506.68 329.531) rotate(90)" fill="#222222"/>
<rect width="1.02026" height="1469.12" transform="translate(1506.68 361.158) rotate(90)" fill="#222222"/>
<rect width="1.02026" height="1469.12" transform="translate(1506.68 392.785) rotate(90)" fill="#222222"/>
<rect width="1.02026" height="1469.12" transform="translate(1506.68 424.412) rotate(90)" fill="#222222"/>
<rect width="1.02026" height="1469.12" transform="translate(1506.68 456.039) rotate(90)" fill="#222222"/>
<rect width="1.02026" height="1469.12" transform="translate(1506.68 487.666) rotate(90)" fill="#222222"/>
</g>
</g>
</mask>
<g mask="url(#mask0_141_9891)">
<g filter="url(#filter0_f_141_9891)">
<ellipse cx="313.507" cy="203.938" rx="109.257" ry="123.341" fill="#72F1FF" fill-opacity="0.4"/>
</g>
</g>
<defs>
<filter id="filter0_f_141_9891" x="0.205795" y="-123.447" width="626.602" height="654.771" filterUnits="userSpaceOnUse" color-interpolation-filters="sRGB">
<feFlood flood-opacity="0" result="BackgroundImageFix"/>
<feBlend mode="normal" in="SourceGraphic" in2="BackgroundImageFix" result="shape"/>
<feGaussianBlur stdDeviation="102.022" result="effect1_foregroundBlur_141_9891"/>
</filter>
<clipPath id="clip0_141_9891">
<rect width="624.375" height="555" fill="white" transform="translate(-0.1875)"/>
</clipPath>
<clipPath id="clip1_141_9891">
<rect width="570.303" height="618.254" fill="white" transform="translate(37.5605 -69.375)"/>
</clipPath>
</defs>
</svg>
