<svg width="48" height="48" viewBox="0 0 48 48" fill="none" xmlns="http://www.w3.org/2000/svg">
<rect width="48" height="48" rx="4" fill="#FF5286" fill-opacity="0.15"/>
<g clip-path="url(#clip0_51_3881)">
<path d="M35.9741 21.1857C35.6123 16.0598 31.3269 12 26.1108 12H21.8888C16.6725 12 12.3873 16.0598 12.0253 21.1857H12V28.2211H14.8953V22.51C14.8953 22.0603 14.9286 21.6181 14.9919 21.1857H13.4355C13.7942 16.836 17.4483 13.4062 21.8888 13.4062H26.1106C30.5511 13.4062 34.2052 16.836 34.5637 21.1857H33.0075C33.0708 21.6181 33.1041 22.0603 33.1041 22.51V28.2211H35.9994V21.1857H35.9741Z" fill="#FF5286"/>
<path d="M31.6981 23.7526C29.9983 23.4191 28.4361 22.5986 27.1924 21.3872C25.5291 23.0057 23.2967 23.9205 20.9566 23.9205C19.3085 23.9205 17.6955 23.4622 16.3015 22.6127V28.3014C16.3015 32.5464 19.7549 35.9997 23.9998 35.9997C26.7297 35.9997 29.1321 34.5713 30.4991 32.4228H26.7392C26.4589 33.1327 25.7671 33.6351 24.9574 33.6351H23.042C21.984 33.6351 21.1263 32.7774 21.1263 31.7195C21.1263 30.6617 21.984 29.804 23.042 29.804H24.9574C25.7671 29.804 26.4589 30.3064 26.7392 31.0165H31.2032C31.5227 30.1717 31.6981 29.2567 31.6981 28.3014V23.7526Z" fill="#FF5286"/>
<path d="M23.9999 14.812C20.266 14.812 17.145 17.4841 16.4475 21.0163C17.7439 21.9848 19.33 22.5145 20.9567 22.5145C23.1475 22.5145 25.2265 21.5629 26.6606 19.9034L27.1927 19.288L27.7246 19.9034C28.7714 21.1147 30.1601 21.9527 31.6956 22.314C31.591 18.1594 28.1791 14.812 23.9999 14.812Z" fill="#FF5286"/>
</g>
<defs>
<clipPath id="clip0_51_3881">
<rect width="24" height="24" fill="white" transform="translate(12 12)"/>
</clipPath>
</defs>
</svg>
