<svg width="48" height="48" viewBox="0 0 48 48" fill="none" xmlns="http://www.w3.org/2000/svg">
<rect width="48" height="48" rx="4" fill="#FF5286" fill-opacity="0.15"/>
<path d="M23.9661 32.6268C23.7211 31.9048 23.6021 31.2258 23.6021 30.5488C23.6021 29.8718 23.7211 29.1928 23.9661 28.4718C24.0801 28.1338 24.3121 27.8478 24.6181 27.6648C24.7671 27.5758 24.8601 27.4158 24.8621 27.2418C24.8671 26.8848 24.9991 26.5398 25.2351 26.2708C26.1971 25.1758 27.4411 24.4518 28.8291 24.1748C29.1841 24.1078 29.5491 24.1648 29.8571 24.3388C30.0121 24.4258 30.2021 24.4248 30.3551 24.3348C30.5081 24.2448 30.6021 24.0818 30.6021 23.9038V18.5488C30.6021 18.2728 30.3781 18.0488 30.1021 18.0488H16.1021C15.4981 18.0488 14.9101 17.8848 14.3541 17.5608C14.2001 17.4698 14.0091 17.4708 13.8531 17.5588C13.6981 17.6478 13.6021 17.8138 13.6021 17.9928V31.5488C13.6021 32.9278 14.7241 34.0488 16.1021 34.0488H23.9731C24.1751 34.0488 24.3571 33.9278 24.4341 33.7408C24.5111 33.5538 24.4701 33.3398 24.3281 33.1958C24.1581 33.0258 24.0361 32.8338 23.9661 32.6268ZM16.1021 17.0488H30.1221C30.3981 17.0488 30.6221 16.8248 30.6221 16.5488C30.6221 16.3978 30.5541 16.2608 30.4481 16.1688C30.3691 16.0358 30.2001 15.6708 30.1341 15.0488H16.1021C15.8261 15.0488 15.6021 14.8248 15.6021 14.5488C15.6021 14.2728 15.8261 14.0488 16.1021 14.0488H30.1301C30.2151 13.2348 30.4821 12.8738 30.4821 12.8738C30.6091 12.7268 30.6381 12.5178 30.5571 12.3398C30.4761 12.1618 30.2971 12.0488 30.1021 12.0488H16.1021C14.7241 12.0488 13.6021 13.1698 13.6021 14.5488C13.6021 15.9278 14.7241 17.0488 16.1021 17.0488ZM35.2911 28.7928C35.2461 28.6608 35.1491 28.5538 35.0221 28.4968C34.8961 28.4398 34.7511 28.4378 34.6221 28.4928C34.3921 28.5908 34.1181 28.5068 33.9981 28.2988C33.8741 28.0848 33.9351 27.8178 34.1421 27.6608C34.2531 27.5768 34.3251 27.4508 34.3391 27.3118C34.3531 27.1728 34.3091 27.0358 34.2171 26.9308C33.4021 26.0028 32.3511 25.3888 31.1781 25.1568C31.0411 25.1278 30.8971 25.1618 30.7841 25.2448C30.6711 25.3288 30.5981 25.4558 30.5831 25.5968C30.5581 25.8548 30.3511 26.0488 30.1021 26.0488C29.8531 26.0488 29.6461 25.8548 29.6201 25.5968C29.6051 25.4558 29.5331 25.3288 29.4191 25.2448C29.3061 25.1618 29.1651 25.1278 29.0251 25.1568C27.8531 25.3888 26.8021 26.0038 25.9861 26.9308C25.8941 27.0348 25.8501 27.1728 25.8641 27.3118C25.8781 27.4508 25.9491 27.5768 26.0601 27.6608C26.2671 27.8168 26.3281 28.0848 26.2051 28.2988C26.0841 28.5068 25.8111 28.5898 25.5811 28.4928C25.4521 28.4378 25.3071 28.4388 25.1811 28.4968C25.0541 28.5538 24.9571 28.6608 24.9121 28.7928C24.7041 29.4088 24.6021 29.9838 24.6021 30.5488C24.6021 31.1138 24.7041 31.6888 24.9131 32.3048C24.9581 32.4368 25.0551 32.5438 25.1821 32.6008C25.3081 32.6578 25.4531 32.6598 25.5821 32.6048C25.8131 32.5058 26.0851 32.5908 26.2061 32.7988C26.3301 33.0128 26.2691 33.2798 26.0611 33.4368C25.9501 33.5208 25.8791 33.6468 25.8651 33.7858C25.8511 33.9248 25.8951 34.0618 25.9871 34.1668C26.8021 35.0948 27.8531 35.7088 29.0261 35.9408C29.1651 35.9708 29.3071 35.9358 29.4201 35.8528C29.5331 35.7688 29.6061 35.6418 29.6211 35.5008C29.6471 35.2428 29.8551 35.0488 30.1031 35.0488C30.3511 35.0488 30.5591 35.2428 30.5851 35.5008C30.6001 35.6418 30.6721 35.7688 30.7861 35.8528C30.8721 35.9158 30.9771 35.9508 31.0831 35.9508C31.1151 35.9508 31.1481 35.9478 31.1801 35.9408C32.3521 35.7088 33.4031 35.0938 34.2191 34.1668C34.3111 34.0628 34.3551 33.9248 34.3411 33.7858C34.3271 33.6468 34.2561 33.5208 34.1441 33.4368C33.9371 33.2808 33.8761 33.0128 34.0001 32.7988C34.1201 32.5898 34.3921 32.5058 34.6241 32.6048C34.7521 32.6588 34.8961 32.6568 35.0241 32.6008C35.1511 32.5438 35.2481 32.4368 35.2931 32.3048C35.5021 31.6888 35.6041 31.1148 35.6041 30.5488C35.6041 29.9828 35.5001 29.4088 35.2911 28.7928ZM30.1021 32.0488C29.2751 32.0488 28.6021 31.3758 28.6021 30.5488C28.6021 29.7218 29.2751 29.0488 30.1021 29.0488C30.9291 29.0488 31.6021 29.7218 31.6021 30.5488C31.6021 31.3758 30.9291 32.0488 30.1021 32.0488Z" fill="#FF5286"/>
</svg>
