<svg width="48" height="48" viewBox="0 0 48 48" fill="none" xmlns="http://www.w3.org/2000/svg">
<rect width="48" height="48" rx="4" fill="#FF5286" fill-opacity="0.15"/>
<g clip-path="url(#clip0_51_3894)">
<path d="M30.1365 16.4395L30.0104 18.039C29.9911 18.2828 30.0999 18.5195 30.2982 18.6634C30.4965 18.8077 30.7558 18.837 30.9807 18.744L32.4629 18.1295L33.945 18.744C34.1715 18.8378 34.4297 18.8069 34.6275 18.6634C34.8258 18.5195 34.9346 18.2828 34.9154 18.039L34.7893 16.4395L35.8313 15.2192C35.9902 15.0331 36.0413 14.778 35.9658 14.5451C35.8899 14.3126 35.6991 14.1358 35.461 14.0786L33.9005 13.704L33.0624 12.3356C32.9349 12.127 32.7075 12 32.4629 12C32.2182 12 31.9913 12.127 31.8633 12.3357L31.0252 13.7041L29.4647 14.0787C29.2271 14.1359 29.0358 14.3126 28.9604 14.5451C28.8844 14.7781 28.9355 15.0331 29.0944 15.2192L30.1365 16.4395Z" fill="#FF5286"/>
<path d="M21.6736 16.4395L21.5475 18.039C21.5282 18.2828 21.637 18.5195 21.8353 18.6634C22.0331 18.8069 22.2914 18.8378 22.5178 18.744L24 18.1295L25.4822 18.7441C25.7071 18.837 25.9667 18.8077 26.1647 18.6635C26.3629 18.5196 26.4717 18.2828 26.4525 18.039L26.3264 16.4395L27.3684 15.2192C27.5273 15.0331 27.5784 14.7781 27.5025 14.5451C27.427 14.3126 27.2357 14.1359 26.9981 14.0787L25.4376 13.7041L24.5995 12.3357C24.4715 12.127 24.2446 12 24 12C23.7553 12 23.5284 12.127 23.4004 12.3357L22.5623 13.7041L21.0018 14.0787C20.7642 14.1359 20.5729 14.3126 20.4975 14.5451C20.4215 14.7781 20.4726 15.0331 20.6315 15.2192L21.6736 16.4395Z" fill="#FF5286"/>
<path d="M13.2107 16.4395L13.0846 18.039C13.0654 18.2828 13.1741 18.5195 13.3724 18.6634C13.5702 18.8069 13.8285 18.8378 14.0549 18.744L15.5371 18.1295L17.0193 18.744C17.2442 18.837 17.5038 18.8076 17.7018 18.6634C17.9 18.5195 18.0088 18.2828 17.9896 18.039L17.8635 16.4395L18.9055 15.2192C19.0644 15.0331 19.1155 14.778 19.0396 14.5451C18.9641 14.3126 18.7729 14.1358 18.5352 14.0786L16.9747 13.704L16.1366 12.3357C16.0086 12.127 15.7817 12 15.5371 12C15.2924 12 15.0655 12.127 14.9375 12.3357L14.0994 13.7041L12.539 14.0787C12.3013 14.1359 12.11 14.3126 12.0346 14.5451C11.9586 14.7781 12.0097 15.0331 12.1686 15.2192L13.2107 16.4395Z" fill="#FF5286"/>
<path d="M33.9529 20.251H14.047C12.9183 20.251 12 21.1694 12 22.2982V30.5799C12 31.7088 12.9183 32.6271 14.047 32.6271H20.7712L23.467 35.7582C23.7319 36.0808 24.2681 36.0808 24.5329 35.7582L27.2287 32.6271H33.9529C35.0817 32.6271 36 31.7088 36 30.5799V22.2982C36 21.1694 35.0817 20.251 33.9529 20.251ZM25.6875 28.2809C25.2994 28.2809 24.9844 27.9659 24.9844 27.5778C24.9844 27.1891 25.2994 26.8746 25.6875 26.8746H31.0781C31.4662 26.8746 31.7812 27.1892 31.7812 27.5778C31.7812 27.9659 31.4662 28.2809 31.0781 28.2809H25.6875ZM31.0781 25.4682H16.9219C16.5338 25.4682 16.2188 25.1532 16.2188 24.765C16.2188 24.3769 16.5338 24.0619 16.9219 24.0619H31.0781C31.4662 24.0619 31.7812 24.3769 31.7812 24.765C31.7812 25.1532 31.4662 25.4682 31.0781 25.4682ZM23.0156 27.5778C23.0156 27.9659 22.7006 28.2809 22.3125 28.2809H16.9219C16.5338 28.2809 16.2188 27.9659 16.2188 27.5778C16.2188 27.1891 16.5338 26.8746 16.9219 26.8746H22.3125C22.7006 26.8746 23.0156 27.1891 23.0156 27.5778Z" fill="#FF5286"/>
</g>
<defs>
<clipPath id="clip0_51_3894">
<rect width="24" height="24" fill="white" transform="translate(12 12)"/>
</clipPath>
</defs>
</svg>
