<svg width="48" height="48" viewBox="0 0 48 48" fill="none" xmlns="http://www.w3.org/2000/svg">
<rect width="48" height="48" rx="4" fill="#FF5286" fill-opacity="0.15"/>
<path d="M16.2857 13.7142C13.9263 13.7142 12 15.6405 12 18V19.7142H36V18C36 15.6405 34.0737 13.7142 31.7143 13.7142H16.2857ZM12 21.4285V30C12 32.3594 13.9263 34.2857 16.2857 34.2857H31.7143C34.0737 34.2857 36 32.3594 36 30V21.4285H12ZM17.1428 28.2857H19.7143C20.1877 28.2857 20.5714 28.6695 20.5714 29.1429C20.5714 29.6162 20.1877 30 19.7143 30H17.1428C16.6695 30 16.2857 29.6162 16.2857 29.1428C16.2857 28.6694 16.6695 28.2857 17.1428 28.2857Z" fill="#FF5286"/>
</svg>
