<svg width="48" height="48" viewBox="0 0 48 48" fill="none" xmlns="http://www.w3.org/2000/svg">
<rect width="48" height="48" rx="4" fill="#FF5286" fill-opacity="0.15"/>
<g clip-path="url(#clip0_51_1102)">
<path fill-rule="evenodd" clip-rule="evenodd" d="M24 12C33.882 12 36 14.118 36 24C34 34 24 36 24 36C24 36 14 34 12 24C12 14.118 14.118 12 24 12ZM28.7071 20.2929C29.0976 20.6834 29.0976 21.3166 28.7071 21.7071L23.7071 26.7071C23.3166 27.0976 22.6834 27.0976 22.2929 26.7071L20.2929 24.7071C19.9024 24.3166 19.9024 23.6834 20.2929 23.2929C20.6834 22.9024 21.3166 22.9024 21.7071 23.2929L23 24.5858L27.2929 20.2929C27.6834 19.9024 28.3166 19.9024 28.7071 20.2929Z" fill="#FF5286"/>
</g>
<defs>
<clipPath id="clip0_51_1102">
<rect width="24" height="24" fill="white" transform="translate(12 12)"/>
</clipPath>
</defs>
</svg>
