<svg width="48" height="48" viewBox="0 0 48 48" fill="none" xmlns="http://www.w3.org/2000/svg">
<rect width="48" height="48" rx="4" fill="#FF5286" fill-opacity="0.15"/>
<g clip-path="url(#clip0_51_2672)">
<path d="M31.6416 33.1808C31.5272 32.8573 31.3345 32.5639 31.0786 32.329L33.743 26.112C34.9425 26.1978 35.9972 25.2345 35.9972 24.0017C35.9972 22.7722 34.9458 21.8056 33.743 21.8914L31.0786 15.6744C32.4956 14.368 31.5591 12.0045 29.647 12.0045C28.7273 12.0045 27.9427 12.5947 27.652 13.4164H20.348C20.0573 12.5947 19.2727 12.0045 18.353 12.0045C16.4372 12.0045 15.5062 14.3712 16.9214 15.6744L14.257 21.8914C13.0552 21.8056 12.0028 22.7712 12.0028 24.0017C12.0028 25.234 13.057 26.1978 14.257 26.112L16.9214 32.329C16.6659 32.5639 16.4728 32.8573 16.3584 33.1808H12V34.587H16.358C17.0217 36.4644 19.6837 36.4658 20.348 34.587H27.652C28.3162 36.4644 30.9778 36.4653 31.642 34.587H36V33.1808H31.6416ZM27.6525 33.1808H20.3475C20.0306 32.284 19.1475 31.7075 18.2137 31.774L15.5489 25.557C16.4587 24.7194 16.4616 23.2869 15.5489 22.4464L18.2137 16.2294C19.147 16.2959 20.0306 15.7194 20.3475 14.8226H27.6525C27.9717 15.7245 28.8581 16.2959 29.7863 16.2294L32.4511 22.4464C31.5413 23.284 31.5384 24.7165 32.4511 25.557L29.7863 31.774C28.853 31.7075 27.9694 32.284 27.6525 33.1808Z" fill="#FF5286"/>
<path d="M18.7087 21.1109V24.3547C18.7087 27.2722 21.0825 29.6459 24 29.6459C26.9175 29.6459 29.2912 27.2722 29.2912 24.3547V21.1109L24 18.2618L18.7087 21.1109ZM26.4937 23.2512L23.5008 26.2437L21.5062 24.2492L22.5005 23.255L23.5008 24.2553L25.4995 22.2565L26.4937 23.2512Z" fill="#FF5286"/>
</g>
<defs>
<clipPath id="clip0_51_2672">
<rect width="24" height="24" fill="white" transform="translate(12 12)"/>
</clipPath>
</defs>
</svg>
