<svg width="48" height="48" viewBox="0 0 48 48" fill="none" xmlns="http://www.w3.org/2000/svg">
<rect width="48" height="48" rx="4" fill="#FF5286" fill-opacity="0.15"/>
<path d="M35.25 16.5C35.25 14.8431 33.9069 13.5 32.25 13.5H15.75C14.0931 13.5 12.75 14.8431 12.75 16.5V21.75C12.75 23.4069 14.0931 24.75 15.75 24.75H16.125V21.75C16.125 19.6789 17.8039 18 19.875 18C21.946 18 23.625 19.6789 23.625 21.75V24.75H32.25C33.9069 24.75 35.25 23.4069 35.25 21.75V16.5Z" fill="#FF5286"/>
<path d="M17.5291 21.7302C17.5291 20.4836 18.5569 19.5 19.7911 19.5C21.0253 19.5 22.0531 20.4836 22.0531 21.7302V25.5822L26.1932 26.5939C28.2078 27.0862 29.625 28.8914 29.625 30.9653V33.75C29.625 34.1642 29.2892 34.5 28.875 34.5H15.6289C15.3429 34.5 15.0818 34.3374 14.9557 34.0807L12.9588 30.0161C12.8788 29.8532 12.7652 29.5946 12.7519 29.2829C12.7013 28.093 13.6682 27.0862 14.891 27.0862C15.9756 27.0862 16.9052 27.7698 17.5291 28.3474V21.7302Z" fill="#FF5286"/>
</svg>
