<svg width="48" height="48" viewBox="0 0 48 48" fill="none" xmlns="http://www.w3.org/2000/svg">
<rect width="48" height="48" rx="4" fill="#FF5286" fill-opacity="0.15"/>
<g clip-path="url(#clip0_51_2692)">
<path d="M35.9999 28.2421C35.9999 25.2639 34.2913 22.6059 31.7324 21.313C31.653 27.0233 27.0233 31.653 21.313 31.7324C22.6059 34.2913 25.2639 35.9999 28.2421 35.9999C29.6384 35.9999 30.9963 35.628 32.1895 34.9214L35.966 35.966L34.9214 32.1895C35.628 30.9963 35.9999 29.6384 35.9999 28.2421Z" fill="#FF5286"/>
<path d="M30.3281 21.1641C30.3281 16.1109 26.2172 12 21.1641 12C16.1109 12 12 16.1109 12 21.1641C12 22.8109 12.4384 24.4144 13.2708 25.8221L12.0337 30.2943L16.506 29.0574C17.9138 29.8898 19.5172 30.3281 21.1641 30.3281C26.2172 30.3281 30.3281 26.2172 30.3281 21.1641ZM19.7578 19.0312H18.3516C18.3516 17.4803 19.6132 16.2188 21.1641 16.2188C22.715 16.2188 23.9766 17.4803 23.9766 19.0312C23.9766 19.8184 23.6433 20.575 23.062 21.1068L21.8672 22.2003V23.2969H20.4609V21.581L22.1125 20.0693C22.4077 19.7992 22.5703 19.4306 22.5703 19.0312C22.5703 18.2558 21.9395 17.625 21.1641 17.625C20.3886 17.625 19.7578 18.2558 19.7578 19.0312ZM20.4609 24.7031H21.8672V26.1094H20.4609V24.7031Z" fill="#FF5286"/>
</g>
<defs>
<clipPath id="clip0_51_2692">
<rect width="24" height="24" fill="white" transform="translate(12 12)"/>
</clipPath>
</defs>
</svg>
