<svg width="1440" height="632" viewBox="0 0 1440 632" fill="none" xmlns="http://www.w3.org/2000/svg">
<g opacity="0.2" clip-path="url(#clip0_51_4580)">
<rect width="1.00035" height="2273.78" transform="matrix(0.707352 -0.706861 0.707352 0.706861 -1203.89 258.844)" fill="#242424"/>
<rect width="1.00035" height="2273.78" transform="matrix(0.707352 -0.706861 0.707352 0.706861 -357.274 -72.2114)" fill="#242424"/>
<rect width="1.00035" height="2273.78" transform="matrix(0.707352 -0.706861 0.707352 0.706861 613.336 -281.3)" fill="#242424"/>
<rect width="1.00035" height="2273.78" transform="matrix(0.707352 -0.706861 0.707352 0.706861 -1201.36 249.366)" fill="#242424"/>
<rect width="1.00035" height="2273.78" transform="matrix(0.707352 -0.706861 0.707352 0.706861 -354.737 -81.6897)" fill="#242424"/>
<rect width="1.00035" height="2273.78" transform="matrix(0.707352 -0.706861 0.707352 0.706861 615.874 -290.778)" fill="#242424"/>
<rect width="1.00035" height="2273.78" transform="matrix(0.707352 -0.706861 0.707352 0.706861 -1198.82 239.889)" fill="#242424"/>
<rect width="1.00035" height="2273.78" transform="matrix(0.707352 -0.706861 0.707352 0.706861 -352.198 -91.1672)" fill="#242424"/>
<rect width="1.00035" height="2273.78" transform="matrix(0.707352 -0.706861 0.707352 0.706861 618.412 -300.255)" fill="#242424"/>
<rect width="1.00035" height="2273.78" transform="matrix(0.707352 -0.706861 0.707352 0.706861 -1196.28 230.41)" fill="#242424"/>
<rect width="1.00035" height="2273.78" transform="matrix(0.707352 -0.706861 0.707352 0.706861 -349.661 -100.646)" fill="#242424"/>
<rect width="1.00035" height="2273.78" transform="matrix(0.707352 -0.706861 0.707352 0.706861 620.949 -309.734)" fill="#242424"/>
<rect width="1.00035" height="2273.78" transform="matrix(0.707352 -0.706861 0.707352 0.706861 -1193.74 220.932)" fill="#242424"/>
<rect width="1.00035" height="2273.78" transform="matrix(0.707352 -0.706861 0.707352 0.706861 -347.123 -110.124)" fill="#242424"/>
<rect width="1.00035" height="2273.78" transform="matrix(0.707352 -0.706861 0.707352 0.706861 623.487 -319.212)" fill="#242424"/>
<rect width="1.00035" height="2273.78" transform="matrix(0.707352 -0.706861 0.707352 0.706861 -1191.21 211.454)" fill="#242424"/>
<rect width="1.00035" height="2273.78" transform="matrix(0.707352 -0.706861 0.707352 0.706861 -344.585 -119.602)" fill="#242424"/>
<rect width="1.00035" height="2273.78" transform="matrix(0.707352 -0.706861 0.707352 0.706861 626.025 -328.69)" fill="#242424"/>
<rect width="1.00035" height="2273.78" transform="matrix(0.707352 -0.706861 0.707352 0.706861 -1188.67 201.976)" fill="#242424"/>
<rect width="1.00035" height="2273.78" transform="matrix(0.707352 -0.706861 0.707352 0.706861 -342.048 -129.08)" fill="#242424"/>
<rect width="1.00035" height="2273.78" transform="matrix(0.707352 -0.706861 0.707352 0.706861 628.562 -338.168)" fill="#242424"/>
<rect width="1.00035" height="2273.78" transform="matrix(0.707352 -0.706861 0.707352 0.706861 -1186.13 192.498)" fill="#242424"/>
<rect width="1.00035" height="2273.78" transform="matrix(0.707352 -0.706861 0.707352 0.706861 -339.51 -138.558)" fill="#242424"/>
<rect width="1.00035" height="2273.78" transform="matrix(0.707352 -0.706861 0.707352 0.706861 631.1 -347.646)" fill="#242424"/>
<rect width="1.00035" height="2273.78" transform="matrix(0.707352 -0.706861 0.707352 0.706861 -1183.59 183.02)" fill="#242424"/>
<rect width="1.00035" height="2273.78" transform="matrix(0.707352 -0.706861 0.707352 0.706861 -336.972 -148.036)" fill="#242424"/>
<rect width="1.00035" height="2273.78" transform="matrix(0.707352 -0.706861 0.707352 0.706861 633.638 -357.124)" fill="#242424"/>
<rect width="1.00035" height="2273.78" transform="matrix(0.707352 -0.706861 0.707352 0.706861 -1181.05 173.542)" fill="#242424"/>
<rect width="1.00035" height="2273.78" transform="matrix(0.707352 -0.706861 0.707352 0.706861 -334.435 -157.514)" fill="#242424"/>
<rect width="1.00035" height="2273.78" transform="matrix(0.707352 -0.706861 0.707352 0.706861 636.175 -366.602)" fill="#242424"/>
<rect width="1.00035" height="2273.78" transform="matrix(0.707352 -0.706861 0.707352 0.706861 -1178.52 164.064)" fill="#242424"/>
<rect width="1.00035" height="2273.78" transform="matrix(0.707352 -0.706861 0.707352 0.706861 -331.896 -166.992)" fill="#242424"/>
<rect width="1.00035" height="2273.78" transform="matrix(0.707352 -0.706861 0.707352 0.706861 638.713 -376.08)" fill="#242424"/>
<rect width="1.00035" height="2273.78" transform="matrix(0.707352 -0.706861 0.707352 0.706861 -1175.98 154.586)" fill="#242424"/>
<rect width="1.00035" height="2273.78" transform="matrix(0.707352 -0.706861 0.707352 0.706861 -329.359 -176.47)" fill="#242424"/>
<rect width="1.00035" height="2273.78" transform="matrix(0.707352 -0.706861 0.707352 0.706861 641.251 -385.558)" fill="#242424"/>
<rect width="1.00035" height="2273.78" transform="matrix(0.707352 -0.706861 0.707352 0.706861 -1173.44 145.108)" fill="#242424"/>
<rect width="1.00035" height="2273.78" transform="matrix(0.707352 -0.706861 0.707352 0.706861 -326.822 -185.948)" fill="#242424"/>
<rect width="1.00035" height="2273.78" transform="matrix(0.707352 -0.706861 0.707352 0.706861 643.789 -395.036)" fill="#242424"/>
<rect width="1.00035" height="2273.78" transform="matrix(0.707352 -0.706861 0.707352 0.706861 -1170.9 135.63)" fill="#242424"/>
<rect width="1.00035" height="2273.78" transform="matrix(0.707352 -0.706861 0.707352 0.706861 -324.284 -195.426)" fill="#242424"/>
<rect width="1.00035" height="2273.78" transform="matrix(0.707352 -0.706861 0.707352 0.706861 646.326 -404.514)" fill="#242424"/>
<rect width="1.00035" height="2273.78" transform="matrix(0.707352 -0.706861 0.707352 0.706861 -1168.37 126.152)" fill="#242424"/>
<rect width="1.00035" height="2273.78" transform="matrix(0.707352 -0.706861 0.707352 0.706861 -321.746 -204.904)" fill="#242424"/>
<rect width="1.00035" height="2273.78" transform="matrix(0.707352 -0.706861 0.707352 0.706861 648.864 -413.992)" fill="#242424"/>
<rect width="1.00035" height="2273.78" transform="matrix(0.707352 -0.706861 0.707352 0.706861 -1165.83 116.674)" fill="#242424"/>
<rect width="1.00035" height="2273.78" transform="matrix(0.707352 -0.706861 0.707352 0.706861 -319.208 -214.382)" fill="#242424"/>
<rect width="1.00035" height="2273.78" transform="matrix(0.707352 -0.706861 0.707352 0.706861 651.402 -423.47)" fill="#242424"/>
<rect width="1.00035" height="2273.78" transform="matrix(0.707352 -0.706861 0.707352 0.706861 -1163.29 107.196)" fill="#242424"/>
<rect width="1.00035" height="2273.78" transform="matrix(0.707352 -0.706861 0.707352 0.706861 -316.67 -223.86)" fill="#242424"/>
<rect width="1.00035" height="2273.78" transform="matrix(0.707352 -0.706861 0.707352 0.706861 653.94 -432.948)" fill="#242424"/>
<rect width="1.00035" height="2273.78" transform="matrix(0.707352 -0.706861 0.707352 0.706861 -1160.75 97.7178)" fill="#242424"/>
<rect width="1.00035" height="2273.78" transform="matrix(0.707352 -0.706861 0.707352 0.706861 -314.133 -233.338)" fill="#242424"/>
<rect width="1.00035" height="2273.78" transform="matrix(0.707352 -0.706861 0.707352 0.706861 656.477 -442.426)" fill="#242424"/>
<rect width="1.00035" height="2273.78" transform="matrix(0.707352 -0.706861 0.707352 0.706861 -1158.22 88.2395)" fill="#242424"/>
<rect width="1.00035" height="2273.78" transform="matrix(0.707352 -0.706861 0.707352 0.706861 -311.595 -242.816)" fill="#242424"/>
<rect width="1.00035" height="2273.78" transform="matrix(0.707352 -0.706861 0.707352 0.706861 659.015 -451.904)" fill="#242424"/>
<rect width="1.00035" height="2273.78" transform="matrix(0.707352 -0.706861 0.707352 0.706861 -1155.68 78.7617)" fill="#242424"/>
<rect width="1.00035" height="2273.78" transform="matrix(0.707352 -0.706861 0.707352 0.706861 -309.057 -252.294)" fill="#242424"/>
<rect width="1.00035" height="2273.78" transform="matrix(0.707352 -0.706861 0.707352 0.706861 661.553 -461.382)" fill="#242424"/>
<rect width="1.00035" height="2273.78" transform="matrix(0.707352 -0.706861 0.707352 0.706861 -1153.14 69.2834)" fill="#242424"/>
<rect width="1.00035" height="2273.78" transform="matrix(0.707352 -0.706861 0.707352 0.706861 -306.52 -261.772)" fill="#242424"/>
<rect width="1.00035" height="2273.78" transform="matrix(0.707352 -0.706861 0.707352 0.706861 664.09 -470.861)" fill="#242424"/>
<rect width="1.00035" height="2273.78" transform="matrix(0.707352 -0.706861 0.707352 0.706861 -1150.6 59.8052)" fill="#242424"/>
<rect width="1.00035" height="2273.78" transform="matrix(0.707352 -0.706861 0.707352 0.706861 -303.981 -271.251)" fill="#242424"/>
<rect width="1.00035" height="2273.78" transform="matrix(0.707352 -0.706861 0.707352 0.706861 666.628 -480.339)" fill="#242424"/>
<rect width="1.00035" height="2273.78" transform="matrix(0.707352 -0.706861 0.707352 0.706861 -1148.06 50.3274)" fill="#242424"/>
<rect width="1.00035" height="2273.78" transform="matrix(0.707352 -0.706861 0.707352 0.706861 -301.444 -280.729)" fill="#242424"/>
<rect width="1.00035" height="2273.78" transform="matrix(0.707352 -0.706861 0.707352 0.706861 669.166 -489.816)" fill="#242424"/>
<rect width="1.00035" height="2273.78" transform="matrix(0.707352 -0.706861 0.707352 0.706861 -1145.53 40.8494)" fill="#242424"/>
<rect width="1.00035" height="2273.78" transform="matrix(0.707352 -0.706861 0.707352 0.706861 -298.906 -290.207)" fill="#242424"/>
<rect width="1.00035" height="2273.78" transform="matrix(0.707352 -0.706861 0.707352 0.706861 671.704 -499.295)" fill="#242424"/>
<rect width="1.00035" height="2273.78" transform="matrix(0.707352 -0.706861 0.707352 0.706861 -1140.45 21.8928)" fill="#242424"/>
<rect width="1.00035" height="2273.78" transform="matrix(0.707352 -0.706861 0.707352 0.706861 -293.831 -309.163)" fill="#242424"/>
<rect width="1.00035" height="2273.78" transform="matrix(0.707352 -0.706861 0.707352 0.706861 676.779 -518.251)" fill="#242424"/>
<rect width="1.00035" height="2273.78" transform="matrix(0.707352 -0.706861 0.707352 0.706861 -1142.99 31.3711)" fill="#242424"/>
<rect width="1.00035" height="2273.78" transform="matrix(0.707352 -0.706861 0.707352 0.706861 -296.368 -299.685)" fill="#242424"/>
<rect width="1.00035" height="2273.78" transform="matrix(0.707352 -0.706861 0.707352 0.706861 674.242 -508.773)" fill="#242424"/>
<rect width="1.00035" height="2273.78" transform="matrix(0.707352 -0.706861 0.707352 0.706861 -1137.91 12.4148)" fill="#242424"/>
<rect width="1.00035" height="2273.78" transform="matrix(0.707352 -0.706861 0.707352 0.706861 -291.293 -318.641)" fill="#242424"/>
<rect width="1.00035" height="2273.78" transform="matrix(0.707352 -0.706861 0.707352 0.706861 679.317 -527.729)" fill="#242424"/>
<rect width="1.00035" height="2273.78" transform="matrix(0.707352 -0.706861 0.707352 0.706861 -1135.38 2.93652)" fill="#242424"/>
<rect width="1.00035" height="2273.78" transform="matrix(0.707352 -0.706861 0.707352 0.706861 -288.755 -328.12)" fill="#242424"/>
<rect width="1.00035" height="2273.78" transform="matrix(0.707352 -0.706861 0.707352 0.706861 681.855 -537.207)" fill="#242424"/>
<rect width="1.00035" height="2273.78" transform="matrix(0.707352 -0.706861 0.707352 0.706861 -1132.84 -6.54102)" fill="#242424"/>
<rect width="1.00035" height="2273.78" transform="matrix(0.707352 -0.706861 0.707352 0.706861 -286.218 -337.597)" fill="#242424"/>
<rect width="1.00035" height="2273.78" transform="matrix(0.707352 -0.706861 0.707352 0.706861 684.392 -546.686)" fill="#242424"/>
<rect width="1.00035" height="2273.78" transform="matrix(0.707352 -0.706861 0.707352 0.706861 -1130.3 -16.0193)" fill="#242424"/>
<rect width="1.00035" height="2273.78" transform="matrix(0.707352 -0.706861 0.707352 0.706861 -283.68 -347.075)" fill="#242424"/>
<rect width="1.00035" height="2273.78" transform="matrix(0.707352 -0.706861 0.707352 0.706861 686.93 -556.164)" fill="#242424"/>
<rect width="1.00035" height="2273.78" transform="matrix(0.707352 -0.706861 0.707352 0.706861 -1127.76 -25.4976)" fill="#242424"/>
<rect width="1.00035" height="2273.78" transform="matrix(0.707352 -0.706861 0.707352 0.706861 -281.142 -356.554)" fill="#242424"/>
<rect width="1.00035" height="2273.78" transform="matrix(0.707352 -0.706861 0.707352 0.706861 689.468 -565.641)" fill="#242424"/>
<rect width="1.00035" height="2273.78" transform="matrix(0.707352 -0.706861 0.707352 0.706861 -1125.22 -34.9756)" fill="#242424"/>
<rect width="1.00035" height="2273.78" transform="matrix(0.707352 -0.706861 0.707352 0.706861 -278.604 -366.031)" fill="#242424"/>
<rect width="1.00035" height="2273.78" transform="matrix(0.707352 -0.706861 0.707352 0.706861 692.006 -575.12)" fill="#242424"/>
<rect width="1.00035" height="2273.78" transform="matrix(0.707352 -0.706861 0.707352 0.706861 -1122.69 -44.4534)" fill="#242424"/>
<rect width="1.00035" height="2273.78" transform="matrix(0.707352 -0.706861 0.707352 0.706861 -276.066 -375.509)" fill="#242424"/>
<rect width="1.00035" height="2273.78" transform="matrix(0.707352 -0.706861 0.707352 0.706861 694.543 -584.597)" fill="#242424"/>
<rect width="1.00035" height="2273.78" transform="matrix(0.707352 -0.706861 0.707352 0.706861 -1120.15 -53.9316)" fill="#242424"/>
<rect width="1.00035" height="2273.78" transform="matrix(0.707352 -0.706861 0.707352 0.706861 -273.529 -384.988)" fill="#242424"/>
<rect width="1.00035" height="2273.78" transform="matrix(0.707352 -0.706861 0.707352 0.706861 697.081 -594.075)" fill="#242424"/>
<rect width="1.00035" height="2273.78" transform="matrix(0.707352 -0.706861 0.707352 0.706861 -1117.61 -63.4094)" fill="#242424"/>
<rect width="1.00035" height="2273.78" transform="matrix(0.707352 -0.706861 0.707352 0.706861 -270.991 -394.466)" fill="#242424"/>
<rect width="1.00035" height="2273.78" transform="matrix(0.707352 -0.706861 0.707352 0.706861 699.619 -603.554)" fill="#242424"/>
<rect width="1.00035" height="2273.78" transform="matrix(0.707352 -0.706861 0.707352 0.706861 -1115.07 -72.8877)" fill="#242424"/>
<rect width="1.00035" height="2273.78" transform="matrix(0.707352 -0.706861 0.707352 0.706861 -268.453 -403.944)" fill="#242424"/>
<rect width="1.00035" height="2273.78" transform="matrix(0.707352 -0.706861 0.707352 0.706861 702.157 -613.032)" fill="#242424"/>
<rect width="1.00035" height="2273.78" transform="matrix(0.707352 -0.706861 0.707352 0.706861 -1112.54 -82.366)" fill="#242424"/>
<rect width="1.00035" height="2273.78" transform="matrix(0.707352 -0.706861 0.707352 0.706861 -265.915 -413.422)" fill="#242424"/>
<rect width="1.00035" height="2273.78" transform="matrix(0.707352 -0.706861 0.707352 0.706861 704.695 -622.51)" fill="#242424"/>
<rect width="1.00035" height="2273.78" transform="matrix(0.707352 -0.706861 0.707352 0.706861 -1110 -91.8442)" fill="#242424"/>
<rect width="1.00035" height="2273.78" transform="matrix(0.707352 -0.706861 0.707352 0.706861 -263.378 -422.9)" fill="#242424"/>
<rect width="1.00035" height="2273.78" transform="matrix(0.707352 -0.706861 0.707352 0.706861 707.232 -631.988)" fill="#242424"/>
<rect width="1.00035" height="2273.78" transform="matrix(0.707352 -0.706861 0.707352 0.706861 -1107.46 -101.323)" fill="#242424"/>
<rect width="1.00035" height="2273.78" transform="matrix(0.707352 -0.706861 0.707352 0.706861 -260.84 -432.378)" fill="#242424"/>
<rect width="1.00035" height="2273.78" transform="matrix(0.707352 -0.706861 0.707352 0.706861 709.771 -641.466)" fill="#242424"/>
<rect width="1.00035" height="2273.78" transform="matrix(0.707352 -0.706861 0.707352 0.706861 -1104.92 -110.8)" fill="#242424"/>
<rect width="1.00035" height="2273.78" transform="matrix(0.707352 -0.706861 0.707352 0.706861 -258.302 -441.856)" fill="#242424"/>
<rect width="1.00035" height="2273.78" transform="matrix(0.707352 -0.706861 0.707352 0.706861 712.308 -650.945)" fill="#242424"/>
<rect width="1.00035" height="2273.78" transform="matrix(0.707352 -0.706861 0.707352 0.706861 -1102.38 -120.279)" fill="#242424"/>
<rect width="1.00035" height="2273.78" transform="matrix(0.707352 -0.706861 0.707352 0.706861 -255.764 -451.335)" fill="#242424"/>
<rect width="1.00035" height="2273.78" transform="matrix(0.707352 -0.706861 0.707352 0.706861 714.846 -660.423)" fill="#242424"/>
<rect width="1.00035" height="2273.78" transform="matrix(0.707352 -0.706861 0.707352 0.706861 -1099.85 -129.757)" fill="#242424"/>
<rect width="1.00035" height="2273.78" transform="matrix(0.707352 -0.706861 0.707352 0.706861 -253.227 -460.812)" fill="#242424"/>
<rect width="1.00035" height="2273.78" transform="matrix(0.707352 -0.706861 0.707352 0.706861 717.384 -669.9)" fill="#242424"/>
<rect width="1.00035" height="2273.78" transform="matrix(0.707352 -0.706861 0.707352 0.706861 -1097.31 -139.235)" fill="#242424"/>
<rect width="1.00035" height="2273.78" transform="matrix(0.707352 -0.706861 0.707352 0.706861 -250.689 -470.291)" fill="#242424"/>
<rect width="1.00035" height="2273.78" transform="matrix(0.707352 -0.706861 0.707352 0.706861 719.921 -679.378)" fill="#242424"/>
<rect width="1.00035" height="2273.78" transform="matrix(0.707352 -0.706861 0.707352 0.706861 -1094.77 -148.713)" fill="#242424"/>
<rect width="1.00035" height="2273.78" transform="matrix(0.707352 -0.706861 0.707352 0.706861 -248.151 -479.769)" fill="#242424"/>
<rect width="1.00035" height="2273.78" transform="matrix(0.707352 -0.706861 0.707352 0.706861 722.459 -688.857)" fill="#242424"/>
<rect width="1.00035" height="2273.78" transform="matrix(0.707352 -0.706861 0.707352 0.706861 -1092.23 -158.191)" fill="#242424"/>
<rect width="1.00035" height="2273.78" transform="matrix(0.707352 -0.706861 0.707352 0.706861 -245.613 -489.247)" fill="#242424"/>
<rect width="1.00035" height="2273.78" transform="matrix(0.707352 -0.706861 0.707352 0.706861 724.997 -698.335)" fill="#242424"/>
<rect width="1.00035" height="2273.78" transform="matrix(0.707352 -0.706861 0.707352 0.706861 -1089.7 -167.669)" fill="#242424"/>
<rect width="1.00035" height="2273.78" transform="matrix(0.707352 -0.706861 0.707352 0.706861 -243.076 -498.725)" fill="#242424"/>
<rect width="1.00035" height="2273.78" transform="matrix(0.707352 -0.706861 0.707352 0.706861 727.534 -707.812)" fill="#242424"/>
<rect width="1.00035" height="2273.78" transform="matrix(0.707352 -0.706861 0.707352 0.706861 -1087.16 -177.147)" fill="#242424"/>
<rect width="1.00035" height="2273.78" transform="matrix(0.707352 -0.706861 0.707352 0.706861 -240.538 -508.203)" fill="#242424"/>
<rect width="1.00035" height="2273.78" transform="matrix(0.707352 -0.706861 0.707352 0.706861 730.072 -717.291)" fill="#242424"/>
<rect width="1.00035" height="2273.78" transform="matrix(0.707352 -0.706861 0.707352 0.706861 -1084.62 -186.625)" fill="#242424"/>
<rect width="1.00035" height="2273.78" transform="matrix(0.707352 -0.706861 0.707352 0.706861 -238 -517.681)" fill="#242424"/>
<rect width="1.00035" height="2273.78" transform="matrix(0.707352 -0.706861 0.707352 0.706861 732.61 -726.769)" fill="#242424"/>
<rect width="1.00035" height="2273.78" transform="matrix(0.707352 -0.706861 0.707352 0.706861 -1082.08 -196.103)" fill="#242424"/>
<rect width="1.00035" height="2273.78" transform="matrix(0.707352 -0.706861 0.707352 0.706861 -235.463 -527.159)" fill="#242424"/>
<rect width="1.00035" height="2273.78" transform="matrix(0.707352 -0.706861 0.707352 0.706861 735.147 -736.247)" fill="#242424"/>
<rect width="1.00035" height="2273.78" transform="matrix(0.707352 -0.706861 0.707352 0.706861 -775.741 98.1567)" fill="#242424"/>
<rect width="1.00035" height="2273.78" transform="matrix(0.707352 -0.706861 0.707352 0.706861 70.8792 -232.899)" fill="#242424"/>
<rect width="1.00035" height="2273.78" transform="matrix(0.707352 -0.706861 0.707352 0.706861 1041.49 -441.988)" fill="#242424"/>
<rect width="1.00035" height="2273.78" transform="matrix(0.707352 -0.706861 0.707352 0.706861 -773.203 88.6785)" fill="#242424"/>
<rect width="1.00035" height="2273.78" transform="matrix(0.707352 -0.706861 0.707352 0.706861 73.4167 -242.378)" fill="#242424"/>
<rect width="1.00035" height="2273.78" transform="matrix(0.707352 -0.706861 0.707352 0.706861 1044.03 -451.466)" fill="#242424"/>
<rect width="1.00035" height="2273.78" transform="matrix(0.707352 -0.706861 0.707352 0.706861 -770.665 79.2004)" fill="#242424"/>
<rect width="1.00035" height="2273.78" transform="matrix(0.707352 -0.706861 0.707352 0.706861 75.9548 -251.855)" fill="#242424"/>
<rect width="1.00035" height="2273.78" transform="matrix(0.707352 -0.706861 0.707352 0.706861 1046.56 -460.943)" fill="#242424"/>
<rect width="1.00035" height="2273.78" transform="matrix(0.707352 -0.706861 0.707352 0.706861 -768.127 69.7227)" fill="#242424"/>
<rect width="1.00035" height="2273.78" transform="matrix(0.707352 -0.706861 0.707352 0.706861 78.4924 -261.333)" fill="#242424"/>
<rect width="1.00035" height="2273.78" transform="matrix(0.707352 -0.706861 0.707352 0.706861 1049.1 -470.421)" fill="#242424"/>
<rect width="1.00035" height="2273.78" transform="matrix(0.707352 -0.706861 0.707352 0.706861 -765.59 60.2444)" fill="#242424"/>
<rect width="1.00035" height="2273.78" transform="matrix(0.707352 -0.706861 0.707352 0.706861 81.03 -270.812)" fill="#242424"/>
<rect width="1.00035" height="2273.78" transform="matrix(0.707352 -0.706861 0.707352 0.706861 1051.64 -479.9)" fill="#242424"/>
<rect width="1.00035" height="2273.78" transform="matrix(0.707352 -0.706861 0.707352 0.706861 -763.052 50.7661)" fill="#242424"/>
<rect width="1.00035" height="2273.78" transform="matrix(0.707352 -0.706861 0.707352 0.706861 83.5679 -280.29)" fill="#242424"/>
<rect width="1.00035" height="2273.78" transform="matrix(0.707352 -0.706861 0.707352 0.706861 1054.18 -489.378)" fill="#242424"/>
<rect width="1.00035" height="2273.78" transform="matrix(0.707352 -0.706861 0.707352 0.706861 -760.514 41.2883)" fill="#242424"/>
<rect width="1.00035" height="2273.78" transform="matrix(0.707352 -0.706861 0.707352 0.706861 86.1055 -289.767)" fill="#242424"/>
<rect width="1.00035" height="2273.78" transform="matrix(0.707352 -0.706861 0.707352 0.706861 1056.72 -498.855)" fill="#242424"/>
<rect width="1.00035" height="2273.78" transform="matrix(0.707352 -0.706861 0.707352 0.706861 -757.977 31.8103)" fill="#242424"/>
<rect width="1.00035" height="2273.78" transform="matrix(0.707352 -0.706861 0.707352 0.706861 88.6431 -299.246)" fill="#242424"/>
<rect width="1.00035" height="2273.78" transform="matrix(0.707352 -0.706861 0.707352 0.706861 1059.25 -508.334)" fill="#242424"/>
<rect width="1.00035" height="2273.78" transform="matrix(0.707352 -0.706861 0.707352 0.706861 -755.439 22.332)" fill="#242424"/>
<rect width="1.00035" height="2273.78" transform="matrix(0.707352 -0.706861 0.707352 0.706861 91.1812 -308.724)" fill="#242424"/>
<rect width="1.00035" height="2273.78" transform="matrix(0.707352 -0.706861 0.707352 0.706861 1061.79 -517.812)" fill="#242424"/>
<rect width="1.00035" height="2273.78" transform="matrix(0.707352 -0.706861 0.707352 0.706861 -752.901 12.8538)" fill="#242424"/>
<rect width="1.00035" height="2273.78" transform="matrix(0.707352 -0.706861 0.707352 0.706861 93.7188 -318.202)" fill="#242424"/>
<rect width="1.00035" height="2273.78" transform="matrix(0.707352 -0.706861 0.707352 0.706861 1064.33 -527.29)" fill="#242424"/>
<rect width="1.00035" height="2273.78" transform="matrix(0.707352 -0.706861 0.707352 0.706861 -750.363 3.37622)" fill="#242424"/>
<rect width="1.00035" height="2273.78" transform="matrix(0.707352 -0.706861 0.707352 0.706861 96.2568 -327.68)" fill="#242424"/>
<rect width="1.00035" height="2273.78" transform="matrix(0.707352 -0.706861 0.707352 0.706861 1066.87 -536.768)" fill="#242424"/>
<rect width="1.00035" height="2273.78" transform="matrix(0.707352 -0.706861 0.707352 0.706861 -747.826 -6.10181)" fill="#242424"/>
<rect width="1.00035" height="2273.78" transform="matrix(0.707352 -0.706861 0.707352 0.706861 98.7942 -337.158)" fill="#242424"/>
<rect width="1.00035" height="2273.78" transform="matrix(0.707352 -0.706861 0.707352 0.706861 1069.4 -546.246)" fill="#242424"/>
<rect width="1.00035" height="2273.78" transform="matrix(0.707352 -0.706861 0.707352 0.706861 -745.288 -15.5801)" fill="#242424"/>
<rect width="1.00035" height="2273.78" transform="matrix(0.707352 -0.706861 0.707352 0.706861 101.332 -346.636)" fill="#242424"/>
<rect width="1.00035" height="2273.78" transform="matrix(0.707352 -0.706861 0.707352 0.706861 1071.94 -555.724)" fill="#242424"/>
<rect width="1.00035" height="2273.78" transform="matrix(0.707352 -0.706861 0.707352 0.706861 -742.75 -25.0583)" fill="#242424"/>
<rect width="1.00035" height="2273.78" transform="matrix(0.707352 -0.706861 0.707352 0.706861 103.869 -356.115)" fill="#242424"/>
<rect width="1.00035" height="2273.78" transform="matrix(0.707352 -0.706861 0.707352 0.706861 1074.48 -565.202)" fill="#242424"/>
<rect width="1.00035" height="2273.78" transform="matrix(0.707352 -0.706861 0.707352 0.706861 -740.212 -34.5359)" fill="#242424"/>
<rect width="1.00035" height="2273.78" transform="matrix(0.707352 -0.706861 0.707352 0.706861 106.407 -365.592)" fill="#242424"/>
<rect width="1.00035" height="2273.78" transform="matrix(0.707352 -0.706861 0.707352 0.706861 1077.02 -574.68)" fill="#242424"/>
<rect width="1.00035" height="2273.78" transform="matrix(0.707352 -0.706861 0.707352 0.706861 -737.675 -44.0142)" fill="#242424"/>
<rect width="1.00035" height="2273.78" transform="matrix(0.707352 -0.706861 0.707352 0.706861 108.945 -375.07)" fill="#242424"/>
<rect width="1.00035" height="2273.78" transform="matrix(0.707352 -0.706861 0.707352 0.706861 1079.56 -584.158)" fill="#242424"/>
<rect width="1.00035" height="2273.78" transform="matrix(0.707352 -0.706861 0.707352 0.706861 -735.137 -53.4924)" fill="#242424"/>
<rect width="1.00035" height="2273.78" transform="matrix(0.707352 -0.706861 0.707352 0.706861 111.483 -384.548)" fill="#242424"/>
<rect width="1.00035" height="2273.78" transform="matrix(0.707352 -0.706861 0.707352 0.706861 1082.09 -593.637)" fill="#242424"/>
<rect width="1.00035" height="2273.78" transform="matrix(0.707352 -0.706861 0.707352 0.706861 -732.599 -62.97)" fill="#242424"/>
<rect width="1.00035" height="2273.78" transform="matrix(0.707352 -0.706861 0.707352 0.706861 114.021 -394.026)" fill="#242424"/>
<rect width="1.00035" height="2273.78" transform="matrix(0.707352 -0.706861 0.707352 0.706861 1084.63 -603.114)" fill="#242424"/>
<rect width="1.00035" height="2273.78" transform="matrix(0.707352 -0.706861 0.707352 0.706861 -730.062 -72.4482)" fill="#242424"/>
<rect width="1.00035" height="2273.78" transform="matrix(0.707352 -0.706861 0.707352 0.706861 116.558 -403.504)" fill="#242424"/>
<rect width="1.00035" height="2273.78" transform="matrix(0.707352 -0.706861 0.707352 0.706861 1087.17 -612.592)" fill="#242424"/>
<rect width="1.00035" height="2273.78" transform="matrix(0.707352 -0.706861 0.707352 0.706861 -727.524 -81.9265)" fill="#242424"/>
<rect width="1.00035" height="2273.78" transform="matrix(0.707352 -0.706861 0.707352 0.706861 119.096 -412.982)" fill="#242424"/>
<rect width="1.00035" height="2273.78" transform="matrix(0.707352 -0.706861 0.707352 0.706861 1089.71 -622.071)" fill="#242424"/>
<rect width="1.00035" height="2273.78" transform="matrix(0.707352 -0.706861 0.707352 0.706861 -724.986 -91.4048)" fill="#242424"/>
<rect width="1.00035" height="2273.78" transform="matrix(0.707352 -0.706861 0.707352 0.706861 121.634 -422.461)" fill="#242424"/>
<rect width="1.00035" height="2273.78" transform="matrix(0.707352 -0.706861 0.707352 0.706861 1092.24 -631.549)" fill="#242424"/>
<rect width="1.00035" height="2273.78" transform="matrix(0.707352 -0.706861 0.707352 0.706861 -722.448 -100.883)" fill="#242424"/>
<rect width="1.00035" height="2273.78" transform="matrix(0.707352 -0.706861 0.707352 0.706861 124.172 -431.939)" fill="#242424"/>
<rect width="1.00035" height="2273.78" transform="matrix(0.707352 -0.706861 0.707352 0.706861 1094.78 -641.027)" fill="#242424"/>
<rect width="1.00035" height="2273.78" transform="matrix(0.707352 -0.706861 0.707352 0.706861 -719.911 -110.361)" fill="#242424"/>
<rect width="1.00035" height="2273.78" transform="matrix(0.707352 -0.706861 0.707352 0.706861 126.709 -441.417)" fill="#242424"/>
<rect width="1.00035" height="2273.78" transform="matrix(0.707352 -0.706861 0.707352 0.706861 1097.32 -650.505)" fill="#242424"/>
<rect width="1.00035" height="2273.78" transform="matrix(0.707352 -0.706861 0.707352 0.706861 -717.373 -119.839)" fill="#242424"/>
<rect width="1.00035" height="2273.78" transform="matrix(0.707352 -0.706861 0.707352 0.706861 129.247 -450.895)" fill="#242424"/>
<rect width="1.00035" height="2273.78" transform="matrix(0.707352 -0.706861 0.707352 0.706861 1099.86 -659.983)" fill="#242424"/>
<rect width="1.00035" height="2273.78" transform="matrix(0.707352 -0.706861 0.707352 0.706861 -712.297 -138.795)" fill="#242424"/>
<rect width="1.00035" height="2273.78" transform="matrix(0.707352 -0.706861 0.707352 0.706861 134.323 -469.851)" fill="#242424"/>
<rect width="1.00035" height="2273.78" transform="matrix(0.707352 -0.706861 0.707352 0.706861 1104.93 -678.939)" fill="#242424"/>
<rect width="1.00035" height="2273.78" transform="matrix(0.707352 -0.706861 0.707352 0.706861 -714.835 -129.317)" fill="#242424"/>
<rect width="1.00035" height="2273.78" transform="matrix(0.707352 -0.706861 0.707352 0.706861 131.785 -460.373)" fill="#242424"/>
<rect width="1.00035" height="2273.78" transform="matrix(0.707352 -0.706861 0.707352 0.706861 1102.4 -669.461)" fill="#242424"/>
<rect width="1.00035" height="2273.78" transform="matrix(0.707352 -0.706861 0.707352 0.706861 -709.76 -148.273)" fill="#242424"/>
<rect width="1.00035" height="2273.78" transform="matrix(0.707352 -0.706861 0.707352 0.706861 136.86 -479.329)" fill="#242424"/>
<rect width="1.00035" height="2273.78" transform="matrix(0.707352 -0.706861 0.707352 0.706861 1107.47 -688.417)" fill="#242424"/>
<rect width="1.00035" height="2273.78" transform="matrix(0.707352 -0.706861 0.707352 0.706861 -707.222 -157.751)" fill="#242424"/>
<rect width="1.00035" height="2273.78" transform="matrix(0.707352 -0.706861 0.707352 0.706861 139.398 -488.807)" fill="#242424"/>
<rect width="1.00035" height="2273.78" transform="matrix(0.707352 -0.706861 0.707352 0.706861 1110.01 -697.896)" fill="#242424"/>
<rect width="1.00035" height="2273.78" transform="matrix(0.707352 -0.706861 0.707352 0.706861 -704.684 -167.229)" fill="#242424"/>
<rect width="1.00035" height="2273.78" transform="matrix(0.707352 -0.706861 0.707352 0.706861 141.936 -498.286)" fill="#242424"/>
<rect width="1.00035" height="2273.78" transform="matrix(0.707352 -0.706861 0.707352 0.706861 1112.55 -707.373)" fill="#242424"/>
<rect width="1.00035" height="2273.78" transform="matrix(0.707352 -0.706861 0.707352 0.706861 -702.146 -176.707)" fill="#242424"/>
<rect width="1.00035" height="2273.78" transform="matrix(0.707352 -0.706861 0.707352 0.706861 144.474 -507.763)" fill="#242424"/>
<rect width="1.00035" height="2273.78" transform="matrix(0.707352 -0.706861 0.707352 0.706861 1115.08 -716.851)" fill="#242424"/>
<rect width="1.00035" height="2273.78" transform="matrix(0.707352 -0.706861 0.707352 0.706861 -699.609 -186.185)" fill="#242424"/>
<rect width="1.00035" height="2273.78" transform="matrix(0.707352 -0.706861 0.707352 0.706861 147.011 -517.241)" fill="#242424"/>
<rect width="1.00035" height="2273.78" transform="matrix(0.707352 -0.706861 0.707352 0.706861 1117.62 -726.33)" fill="#242424"/>
<rect width="1.00035" height="2273.78" transform="matrix(0.707352 -0.706861 0.707352 0.706861 -697.071 -195.664)" fill="#242424"/>
<rect width="1.00035" height="2273.78" transform="matrix(0.707352 -0.706861 0.707352 0.706861 149.549 -526.72)" fill="#242424"/>
<rect width="1.00035" height="2273.78" transform="matrix(0.707352 -0.706861 0.707352 0.706861 1120.16 -735.808)" fill="#242424"/>
<rect width="1.00035" height="2273.78" transform="matrix(0.707352 -0.706861 0.707352 0.706861 -694.533 -205.141)" fill="#242424"/>
<rect width="1.00035" height="2273.78" transform="matrix(0.707352 -0.706861 0.707352 0.706861 152.087 -536.197)" fill="#242424"/>
<rect width="1.00035" height="2273.78" transform="matrix(0.707352 -0.706861 0.707352 0.706861 1122.7 -745.285)" fill="#242424"/>
<rect width="1.00035" height="2273.78" transform="matrix(0.707352 -0.706861 0.707352 0.706861 -691.995 -214.619)" fill="#242424"/>
<rect width="1.00035" height="2273.78" transform="matrix(0.707352 -0.706861 0.707352 0.706861 154.625 -545.676)" fill="#242424"/>
<rect width="1.00035" height="2273.78" transform="matrix(0.707352 -0.706861 0.707352 0.706861 1125.23 -754.764)" fill="#242424"/>
<rect width="1.00035" height="2273.78" transform="matrix(0.707352 -0.706861 0.707352 0.706861 -689.458 -224.098)" fill="#242424"/>
<rect width="1.00035" height="2273.78" transform="matrix(0.707352 -0.706861 0.707352 0.706861 157.162 -555.154)" fill="#242424"/>
<rect width="1.00035" height="2273.78" transform="matrix(0.707352 -0.706861 0.707352 0.706861 1127.77 -764.241)" fill="#242424"/>
<rect width="1.00035" height="2273.78" transform="matrix(0.707352 -0.706861 0.707352 0.706861 -686.92 -233.576)" fill="#242424"/>
<rect width="1.00035" height="2273.78" transform="matrix(0.707352 -0.706861 0.707352 0.706861 159.7 -564.632)" fill="#242424"/>
<rect width="1.00035" height="2273.78" transform="matrix(0.707352 -0.706861 0.707352 0.706861 1130.31 -773.72)" fill="#242424"/>
<rect width="1.00035" height="2273.78" transform="matrix(0.707352 -0.706861 0.707352 0.706861 -684.382 -243.054)" fill="#242424"/>
<rect width="1.00035" height="2273.78" transform="matrix(0.707352 -0.706861 0.707352 0.706861 162.238 -574.11)" fill="#242424"/>
<rect width="1.00035" height="2273.78" transform="matrix(0.707352 -0.706861 0.707352 0.706861 1132.85 -783.198)" fill="#242424"/>
<rect width="1.00035" height="2273.78" transform="matrix(0.707352 -0.706861 0.707352 0.706861 -681.844 -252.532)" fill="#242424"/>
<rect width="1.00035" height="2273.78" transform="matrix(0.707352 -0.706861 0.707352 0.706861 164.776 -583.588)" fill="#242424"/>
<rect width="1.00035" height="2273.78" transform="matrix(0.707352 -0.706861 0.707352 0.706861 1135.39 -792.676)" fill="#242424"/>
<rect width="1.00035" height="2273.78" transform="matrix(0.707352 -0.706861 0.707352 0.706861 -679.306 -262.01)" fill="#242424"/>
<rect width="1.00035" height="2273.78" transform="matrix(0.707352 -0.706861 0.707352 0.706861 167.314 -593.066)" fill="#242424"/>
<rect width="1.00035" height="2273.78" transform="matrix(0.707352 -0.706861 0.707352 0.706861 1137.92 -802.155)" fill="#242424"/>
<rect width="1.00035" height="2273.78" transform="matrix(0.707352 -0.706861 0.707352 0.706861 -676.769 -271.489)" fill="#242424"/>
<rect width="1.00035" height="2273.78" transform="matrix(0.707352 -0.706861 0.707352 0.706861 169.851 -602.545)" fill="#242424"/>
<rect width="1.00035" height="2273.78" transform="matrix(0.707352 -0.706861 0.707352 0.706861 1140.46 -811.632)" fill="#242424"/>
<rect width="1.00035" height="2273.78" transform="matrix(0.707352 -0.706861 0.707352 0.706861 -674.231 -280.967)" fill="#242424"/>
<rect width="1.00035" height="2273.78" transform="matrix(0.707352 -0.706861 0.707352 0.706861 172.389 -612.023)" fill="#242424"/>
<rect width="1.00035" height="2273.78" transform="matrix(0.707352 -0.706861 0.707352 0.706861 1143 -821.111)" fill="#242424"/>
<rect width="1.00035" height="2273.78" transform="matrix(0.707352 -0.706861 0.707352 0.706861 -671.693 -290.444)" fill="#242424"/>
<rect width="1.00035" height="2273.78" transform="matrix(0.707352 -0.706861 0.707352 0.706861 174.927 -621.5)" fill="#242424"/>
<rect width="1.00035" height="2273.78" transform="matrix(0.707352 -0.706861 0.707352 0.706861 1145.54 -830.589)" fill="#242424"/>
<rect width="1.00035" height="2273.78" transform="matrix(0.707352 -0.706861 0.707352 0.706861 -669.156 -299.923)" fill="#242424"/>
<rect width="1.00035" height="2273.78" transform="matrix(0.707352 -0.706861 0.707352 0.706861 177.464 -630.979)" fill="#242424"/>
<rect width="1.00035" height="2273.78" transform="matrix(0.707352 -0.706861 0.707352 0.706861 1148.07 -840.067)" fill="#242424"/>
<rect width="1.00035" height="2273.78" transform="matrix(0.707352 -0.706861 0.707352 0.706861 -666.618 -309.401)" fill="#242424"/>
<rect width="1.00035" height="2273.78" transform="matrix(0.707352 -0.706861 0.707352 0.706861 180.002 -640.457)" fill="#242424"/>
<rect width="1.00035" height="2273.78" transform="matrix(0.707352 -0.706861 0.707352 0.706861 1150.61 -849.545)" fill="#242424"/>
<rect width="1.00035" height="2273.78" transform="matrix(0.707352 -0.706861 0.707352 0.706861 -664.08 -318.879)" fill="#242424"/>
<rect width="1.00035" height="2273.78" transform="matrix(0.707352 -0.706861 0.707352 0.706861 182.54 -649.935)" fill="#242424"/>
<rect width="1.00035" height="2273.78" transform="matrix(0.707352 -0.706861 0.707352 0.706861 1153.15 -859.023)" fill="#242424"/>
<rect width="1.00035" height="2273.78" transform="matrix(0.707352 -0.706861 0.707352 0.706861 -661.542 -328.357)" fill="#242424"/>
<rect width="1.00035" height="2273.78" transform="matrix(0.707352 -0.706861 0.707352 0.706861 185.078 -659.413)" fill="#242424"/>
<rect width="1.00035" height="2273.78" transform="matrix(0.707352 -0.706861 0.707352 0.706861 1155.69 -868.501)" fill="#242424"/>
<rect width="1.00035" height="2273.78" transform="matrix(0.707352 -0.706861 0.707352 0.706861 -659.004 -337.835)" fill="#242424"/>
<rect width="1.00035" height="2273.78" transform="matrix(0.707352 -0.706861 0.707352 0.706861 187.616 -668.891)" fill="#242424"/>
<rect width="1.00035" height="2273.78" transform="matrix(0.707352 -0.706861 0.707352 0.706861 1158.23 -877.979)" fill="#242424"/>
<rect width="1.00035" height="2273.78" transform="matrix(0.707352 -0.706861 0.707352 0.706861 -656.467 -347.313)" fill="#242424"/>
<rect width="1.00035" height="2273.78" transform="matrix(0.707352 -0.706861 0.707352 0.706861 190.153 -678.369)" fill="#242424"/>
<rect width="1.00035" height="2273.78" transform="matrix(0.707352 -0.706861 0.707352 0.706861 1160.76 -887.457)" fill="#242424"/>
<rect width="1.00035" height="2273.78" transform="matrix(0.707352 -0.706861 0.707352 0.706861 -653.929 -356.792)" fill="#242424"/>
<rect width="1.00035" height="2273.78" transform="matrix(0.707352 -0.706861 0.707352 0.706861 192.691 -687.847)" fill="#242424"/>
<rect width="1.00035" height="2273.78" transform="matrix(0.707352 -0.706861 0.707352 0.706861 1163.3 -896.935)" fill="#242424"/>
</g>
<defs>
<clipPath id="clip0_51_4580">
<rect width="1440" height="651" fill="white"/>
</clipPath>
</defs>
</svg>
