<svg width="555" height="168" viewBox="0 0 555 168" fill="none" xmlns="http://www.w3.org/2000/svg">
<g clip-path="url(#clip0_51_2943)">
<g opacity="0.5" clip-path="url(#clip1_51_2943)">
<rect x="-715" y="-32.2993" width="1" height="1174.06" transform="rotate(-45 -715 -32.2993)" fill="#242424"/>
<rect x="-278" y="-203.299" width="1" height="1174.06" transform="rotate(-45 -278 -203.299)" fill="#242424"/>
<rect x="223" y="-311.299" width="1" height="1174.06" transform="rotate(-45 223 -311.299)" fill="#242424"/>
<rect x="-713.69" y="-37.1948" width="1" height="1174.06" transform="rotate(-45 -713.69 -37.1948)" fill="#242424"/>
<rect x="-276.69" y="-208.195" width="1" height="1174.06" transform="rotate(-45 -276.69 -208.195)" fill="#242424"/>
<rect x="224.31" y="-316.195" width="1" height="1174.06" transform="rotate(-45 224.31 -316.195)" fill="#242424"/>
<rect x="-712.38" y="-42.0908" width="1" height="1174.06" transform="rotate(-45 -712.38 -42.0908)" fill="#242424"/>
<rect x="-275.38" y="-213.091" width="1" height="1174.06" transform="rotate(-45 -275.38 -213.091)" fill="#242424"/>
<rect x="225.62" y="-321.091" width="1" height="1174.06" transform="rotate(-45 225.62 -321.091)" fill="#242424"/>
<rect x="-711.07" y="-46.9863" width="1" height="1174.06" transform="rotate(-45 -711.07 -46.9863)" fill="#242424"/>
<rect x="-274.07" y="-217.986" width="1" height="1174.06" transform="rotate(-45 -274.07 -217.986)" fill="#242424"/>
<rect x="226.93" y="-325.986" width="1" height="1174.06" transform="rotate(-45 226.93 -325.986)" fill="#242424"/>
<rect x="-709.76" y="-51.8818" width="1" height="1174.06" transform="rotate(-45 -709.76 -51.8818)" fill="#242424"/>
<rect x="-272.76" y="-222.882" width="1" height="1174.06" transform="rotate(-45 -272.76 -222.882)" fill="#242424"/>
<rect x="228.239" y="-330.882" width="1" height="1174.06" transform="rotate(-45 228.239 -330.882)" fill="#242424"/>
<rect x="-708.45" y="-56.7778" width="1" height="1174.06" transform="rotate(-45 -708.45 -56.7778)" fill="#242424"/>
<rect x="-271.45" y="-227.778" width="1" height="1174.06" transform="rotate(-45 -271.45 -227.778)" fill="#242424"/>
<rect x="229.55" y="-335.778" width="1" height="1174.06" transform="rotate(-45 229.55 -335.778)" fill="#242424"/>
<rect x="-707.141" y="-61.6733" width="1" height="1174.06" transform="rotate(-45 -707.141 -61.6733)" fill="#242424"/>
<rect x="-270.141" y="-232.673" width="1" height="1174.06" transform="rotate(-45 -270.141 -232.673)" fill="#242424"/>
<rect x="230.859" y="-340.673" width="1" height="1174.06" transform="rotate(-45 230.859 -340.673)" fill="#242424"/>
<rect x="-705.831" y="-66.5693" width="1" height="1174.06" transform="rotate(-45 -705.831 -66.5693)" fill="#242424"/>
<rect x="-268.831" y="-237.569" width="1" height="1174.06" transform="rotate(-45 -268.831 -237.569)" fill="#242424"/>
<rect x="232.169" y="-345.569" width="1" height="1174.06" transform="rotate(-45 232.169 -345.569)" fill="#242424"/>
<rect x="-704.521" y="-71.4648" width="1" height="1174.06" transform="rotate(-45 -704.521 -71.4648)" fill="#242424"/>
<rect x="-267.521" y="-242.465" width="1" height="1174.06" transform="rotate(-45 -267.521 -242.465)" fill="#242424"/>
<rect x="233.479" y="-350.465" width="1" height="1174.06" transform="rotate(-45 233.479 -350.465)" fill="#242424"/>
<rect x="-703.211" y="-76.3604" width="1" height="1174.06" transform="rotate(-45 -703.211 -76.3604)" fill="#242424"/>
<rect x="-266.211" y="-247.36" width="1" height="1174.06" transform="rotate(-45 -266.211 -247.36)" fill="#242424"/>
<rect x="234.789" y="-355.36" width="1" height="1174.06" transform="rotate(-45 234.789 -355.36)" fill="#242424"/>
<rect x="-701.901" y="-81.2563" width="1" height="1174.06" transform="rotate(-45 -701.901 -81.2563)" fill="#242424"/>
<rect x="-264.901" y="-252.256" width="1" height="1174.06" transform="rotate(-45 -264.901 -252.256)" fill="#242424"/>
<rect x="236.099" y="-360.256" width="1" height="1174.06" transform="rotate(-45 236.099 -360.256)" fill="#242424"/>
<rect x="-700.591" y="-86.1519" width="1" height="1174.06" transform="rotate(-45 -700.591 -86.1519)" fill="#242424"/>
<rect x="-263.591" y="-257.152" width="1" height="1174.06" transform="rotate(-45 -263.591 -257.152)" fill="#242424"/>
<rect x="237.409" y="-365.152" width="1" height="1174.06" transform="rotate(-45 237.409 -365.152)" fill="#242424"/>
<rect x="-699.281" y="-91.0474" width="1" height="1174.06" transform="rotate(-45 -699.281 -91.0474)" fill="#242424"/>
<rect x="-262.281" y="-262.047" width="1" height="1174.06" transform="rotate(-45 -262.281 -262.047)" fill="#242424"/>
<rect x="238.719" y="-370.047" width="1" height="1174.06" transform="rotate(-45 238.719 -370.047)" fill="#242424"/>
<rect x="-697.971" y="-95.9434" width="1" height="1174.06" transform="rotate(-45 -697.971 -95.9434)" fill="#242424"/>
<rect x="-260.971" y="-266.943" width="1" height="1174.06" transform="rotate(-45 -260.971 -266.943)" fill="#242424"/>
<rect x="240.028" y="-374.943" width="1" height="1174.06" transform="rotate(-45 240.028 -374.943)" fill="#242424"/>
<rect x="-696.661" y="-100.839" width="1" height="1174.06" transform="rotate(-45 -696.661 -100.839)" fill="#242424"/>
<rect x="-259.661" y="-271.839" width="1" height="1174.06" transform="rotate(-45 -259.661 -271.839)" fill="#242424"/>
<rect x="241.339" y="-379.839" width="1" height="1174.06" transform="rotate(-45 241.339 -379.839)" fill="#242424"/>
<rect x="-695.352" y="-105.735" width="1" height="1174.06" transform="rotate(-45 -695.352 -105.735)" fill="#242424"/>
<rect x="-258.352" y="-276.735" width="1" height="1174.06" transform="rotate(-45 -258.352 -276.735)" fill="#242424"/>
<rect x="242.648" y="-384.735" width="1" height="1174.06" transform="rotate(-45 242.648 -384.735)" fill="#242424"/>
<rect x="-694.042" y="-110.63" width="1" height="1174.06" transform="rotate(-45 -694.042 -110.63)" fill="#242424"/>
<rect x="-257.042" y="-281.63" width="1" height="1174.06" transform="rotate(-45 -257.042 -281.63)" fill="#242424"/>
<rect x="243.958" y="-389.63" width="1" height="1174.06" transform="rotate(-45 243.958 -389.63)" fill="#242424"/>
<rect x="-692.732" y="-115.526" width="1" height="1174.06" transform="rotate(-45 -692.732 -115.526)" fill="#242424"/>
<rect x="-255.732" y="-286.526" width="1" height="1174.06" transform="rotate(-45 -255.732 -286.526)" fill="#242424"/>
<rect x="245.269" y="-394.526" width="1" height="1174.06" transform="rotate(-45 245.269 -394.526)" fill="#242424"/>
<rect x="-691.422" y="-120.422" width="1" height="1174.06" transform="rotate(-45 -691.422 -120.422)" fill="#242424"/>
<rect x="-254.422" y="-291.422" width="1" height="1174.06" transform="rotate(-45 -254.422 -291.422)" fill="#242424"/>
<rect x="246.578" y="-399.422" width="1" height="1174.06" transform="rotate(-45 246.578 -399.422)" fill="#242424"/>
<rect x="-690.112" y="-125.317" width="1" height="1174.06" transform="rotate(-45 -690.112 -125.317)" fill="#242424"/>
<rect x="-253.112" y="-296.317" width="1" height="1174.06" transform="rotate(-45 -253.112 -296.317)" fill="#242424"/>
<rect x="247.888" y="-404.317" width="1" height="1174.06" transform="rotate(-45 247.888 -404.317)" fill="#242424"/>
<rect x="-688.802" y="-130.213" width="1" height="1174.06" transform="rotate(-45 -688.802 -130.213)" fill="#242424"/>
<rect x="-251.802" y="-301.213" width="1" height="1174.06" transform="rotate(-45 -251.802 -301.213)" fill="#242424"/>
<rect x="249.198" y="-409.213" width="1" height="1174.06" transform="rotate(-45 249.198 -409.213)" fill="#242424"/>
<rect x="-687.492" y="-135.109" width="1" height="1174.06" transform="rotate(-45 -687.492 -135.109)" fill="#242424"/>
<rect x="-250.492" y="-306.109" width="1" height="1174.06" transform="rotate(-45 -250.492 -306.109)" fill="#242424"/>
<rect x="250.508" y="-414.109" width="1" height="1174.06" transform="rotate(-45 250.508 -414.109)" fill="#242424"/>
<rect x="-686.182" y="-140.004" width="1" height="1174.06" transform="rotate(-45 -686.182 -140.004)" fill="#242424"/>
<rect x="-249.182" y="-311.004" width="1" height="1174.06" transform="rotate(-45 -249.182 -311.004)" fill="#242424"/>
<rect x="251.818" y="-419.004" width="1" height="1174.06" transform="rotate(-45 251.818 -419.004)" fill="#242424"/>
<rect x="-684.872" y="-144.9" width="1" height="1174.06" transform="rotate(-45 -684.872 -144.9)" fill="#242424"/>
<rect x="-247.872" y="-315.9" width="1" height="1174.06" transform="rotate(-45 -247.872 -315.9)" fill="#242424"/>
<rect x="253.128" y="-423.9" width="1" height="1174.06" transform="rotate(-45 253.128 -423.9)" fill="#242424"/>
<rect x="-682.252" y="-154.691" width="1" height="1174.06" transform="rotate(-45 -682.252 -154.691)" fill="#242424"/>
<rect x="-245.252" y="-325.691" width="1" height="1174.06" transform="rotate(-45 -245.252 -325.691)" fill="#242424"/>
<rect x="255.748" y="-433.691" width="1" height="1174.06" transform="rotate(-45 255.748 -433.691)" fill="#242424"/>
<rect x="-683.562" y="-149.796" width="1" height="1174.06" transform="rotate(-45 -683.562 -149.796)" fill="#242424"/>
<rect x="-246.562" y="-320.796" width="1" height="1174.06" transform="rotate(-45 -246.562 -320.796)" fill="#242424"/>
<rect x="254.438" y="-428.796" width="1" height="1174.06" transform="rotate(-45 254.438 -428.796)" fill="#242424"/>
<rect x="-680.943" y="-159.587" width="1" height="1174.06" transform="rotate(-45 -680.943 -159.587)" fill="#242424"/>
<rect x="-243.943" y="-330.587" width="1" height="1174.06" transform="rotate(-45 -243.943 -330.587)" fill="#242424"/>
<rect x="257.058" y="-438.587" width="1" height="1174.06" transform="rotate(-45 257.058 -438.587)" fill="#242424"/>
<rect x="-679.633" y="-164.483" width="1" height="1174.06" transform="rotate(-45 -679.633 -164.483)" fill="#242424"/>
<rect x="-242.633" y="-335.483" width="1" height="1174.06" transform="rotate(-45 -242.633 -335.483)" fill="#242424"/>
<rect x="258.367" y="-443.483" width="1" height="1174.06" transform="rotate(-45 258.367 -443.483)" fill="#242424"/>
<rect x="-678.323" y="-169.379" width="1" height="1174.06" transform="rotate(-45 -678.323 -169.379)" fill="#242424"/>
<rect x="-241.323" y="-340.379" width="1" height="1174.06" transform="rotate(-45 -241.323 -340.379)" fill="#242424"/>
<rect x="259.677" y="-448.379" width="1" height="1174.06" transform="rotate(-45 259.677 -448.379)" fill="#242424"/>
<rect x="-677.013" y="-174.274" width="1" height="1174.06" transform="rotate(-45 -677.013 -174.274)" fill="#242424"/>
<rect x="-240.013" y="-345.274" width="1" height="1174.06" transform="rotate(-45 -240.013 -345.274)" fill="#242424"/>
<rect x="260.987" y="-453.274" width="1" height="1174.06" transform="rotate(-45 260.987 -453.274)" fill="#242424"/>
<rect x="-675.703" y="-179.17" width="1" height="1174.06" transform="rotate(-45 -675.703 -179.17)" fill="#242424"/>
<rect x="-238.703" y="-350.17" width="1" height="1174.06" transform="rotate(-45 -238.703 -350.17)" fill="#242424"/>
<rect x="262.297" y="-458.17" width="1" height="1174.06" transform="rotate(-45 262.297 -458.17)" fill="#242424"/>
<rect x="-674.393" y="-184.066" width="1" height="1174.06" transform="rotate(-45 -674.393 -184.066)" fill="#242424"/>
<rect x="-237.393" y="-355.066" width="1" height="1174.06" transform="rotate(-45 -237.393 -355.066)" fill="#242424"/>
<rect x="263.607" y="-463.066" width="1" height="1174.06" transform="rotate(-45 263.607 -463.066)" fill="#242424"/>
<rect x="-673.083" y="-188.961" width="1" height="1174.06" transform="rotate(-45 -673.083 -188.961)" fill="#242424"/>
<rect x="-236.083" y="-359.961" width="1" height="1174.06" transform="rotate(-45 -236.083 -359.961)" fill="#242424"/>
<rect x="264.917" y="-467.961" width="1" height="1174.06" transform="rotate(-45 264.917 -467.961)" fill="#242424"/>
<rect x="-671.773" y="-193.857" width="1" height="1174.06" transform="rotate(-45 -671.773 -193.857)" fill="#242424"/>
<rect x="-234.773" y="-364.857" width="1" height="1174.06" transform="rotate(-45 -234.773 -364.857)" fill="#242424"/>
<rect x="266.227" y="-472.857" width="1" height="1174.06" transform="rotate(-45 266.227 -472.857)" fill="#242424"/>
<rect x="-670.463" y="-198.753" width="1" height="1174.06" transform="rotate(-45 -670.463 -198.753)" fill="#242424"/>
<rect x="-233.463" y="-369.753" width="1" height="1174.06" transform="rotate(-45 -233.463 -369.753)" fill="#242424"/>
<rect x="267.537" y="-477.753" width="1" height="1174.06" transform="rotate(-45 267.537 -477.753)" fill="#242424"/>
<rect x="-669.153" y="-203.649" width="1" height="1174.06" transform="rotate(-45 -669.153 -203.649)" fill="#242424"/>
<rect x="-232.153" y="-374.649" width="1" height="1174.06" transform="rotate(-45 -232.153 -374.649)" fill="#242424"/>
<rect x="268.847" y="-482.649" width="1" height="1174.06" transform="rotate(-45 268.847 -482.649)" fill="#242424"/>
<rect x="-667.843" y="-208.544" width="1" height="1174.06" transform="rotate(-45 -667.843 -208.544)" fill="#242424"/>
<rect x="-230.843" y="-379.544" width="1" height="1174.06" transform="rotate(-45 -230.843 -379.544)" fill="#242424"/>
<rect x="270.157" y="-487.544" width="1" height="1174.06" transform="rotate(-45 270.157 -487.544)" fill="#242424"/>
<rect x="-666.533" y="-213.44" width="1" height="1174.06" transform="rotate(-45 -666.533 -213.44)" fill="#242424"/>
<rect x="-229.533" y="-384.44" width="1" height="1174.06" transform="rotate(-45 -229.533 -384.44)" fill="#242424"/>
<rect x="271.467" y="-492.44" width="1" height="1174.06" transform="rotate(-45 271.467 -492.44)" fill="#242424"/>
<rect x="-665.223" y="-218.336" width="1" height="1174.06" transform="rotate(-45 -665.223 -218.336)" fill="#242424"/>
<rect x="-228.223" y="-389.336" width="1" height="1174.06" transform="rotate(-45 -228.223 -389.336)" fill="#242424"/>
<rect x="272.776" y="-497.336" width="1" height="1174.06" transform="rotate(-45 272.776 -497.336)" fill="#242424"/>
<rect x="-663.914" y="-223.231" width="1" height="1174.06" transform="rotate(-45 -663.914 -223.231)" fill="#242424"/>
<rect x="-226.914" y="-394.231" width="1" height="1174.06" transform="rotate(-45 -226.914 -394.231)" fill="#242424"/>
<rect x="274.086" y="-502.231" width="1" height="1174.06" transform="rotate(-45 274.086 -502.231)" fill="#242424"/>
<rect x="-662.604" y="-228.127" width="1" height="1174.06" transform="rotate(-45 -662.604 -228.127)" fill="#242424"/>
<rect x="-225.604" y="-399.127" width="1" height="1174.06" transform="rotate(-45 -225.604 -399.127)" fill="#242424"/>
<rect x="275.396" y="-507.127" width="1" height="1174.06" transform="rotate(-45 275.396 -507.127)" fill="#242424"/>
<rect x="-661.294" y="-233.023" width="1" height="1174.06" transform="rotate(-45 -661.294 -233.023)" fill="#242424"/>
<rect x="-224.294" y="-404.023" width="1" height="1174.06" transform="rotate(-45 -224.294 -404.023)" fill="#242424"/>
<rect x="276.706" y="-512.023" width="1" height="1174.06" transform="rotate(-45 276.706 -512.023)" fill="#242424"/>
<rect x="-659.984" y="-237.919" width="1" height="1174.06" transform="rotate(-45 -659.984 -237.919)" fill="#242424"/>
<rect x="-222.984" y="-408.919" width="1" height="1174.06" transform="rotate(-45 -222.984 -408.919)" fill="#242424"/>
<rect x="278.016" y="-516.919" width="1" height="1174.06" transform="rotate(-45 278.016 -516.919)" fill="#242424"/>
<rect x="-658.674" y="-242.814" width="1" height="1174.06" transform="rotate(-45 -658.674 -242.814)" fill="#242424"/>
<rect x="-221.674" y="-413.814" width="1" height="1174.06" transform="rotate(-45 -221.674 -413.814)" fill="#242424"/>
<rect x="279.326" y="-521.814" width="1" height="1174.06" transform="rotate(-45 279.326 -521.814)" fill="#242424"/>
<rect x="-657.364" y="-247.71" width="1" height="1174.06" transform="rotate(-45 -657.364 -247.71)" fill="#242424"/>
<rect x="-220.364" y="-418.71" width="1" height="1174.06" transform="rotate(-45 -220.364 -418.71)" fill="#242424"/>
<rect x="280.636" y="-526.71" width="1" height="1174.06" transform="rotate(-45 280.636 -526.71)" fill="#242424"/>
<rect x="-656.054" y="-252.606" width="1" height="1174.06" transform="rotate(-45 -656.054 -252.606)" fill="#242424"/>
<rect x="-219.054" y="-423.606" width="1" height="1174.06" transform="rotate(-45 -219.054 -423.606)" fill="#242424"/>
<rect x="281.946" y="-531.606" width="1" height="1174.06" transform="rotate(-45 281.946 -531.606)" fill="#242424"/>
<rect x="-654.744" y="-257.501" width="1" height="1174.06" transform="rotate(-45 -654.744 -257.501)" fill="#242424"/>
<rect x="-217.744" y="-428.501" width="1" height="1174.06" transform="rotate(-45 -217.744 -428.501)" fill="#242424"/>
<rect x="283.256" y="-536.501" width="1" height="1174.06" transform="rotate(-45 283.256 -536.501)" fill="#242424"/>
<rect x="-653.434" y="-262.397" width="1" height="1174.06" transform="rotate(-45 -653.434 -262.397)" fill="#242424"/>
<rect x="-216.434" y="-433.397" width="1" height="1174.06" transform="rotate(-45 -216.434 -433.397)" fill="#242424"/>
<rect x="284.565" y="-541.397" width="1" height="1174.06" transform="rotate(-45 284.565 -541.397)" fill="#242424"/>
<rect x="-652.125" y="-267.293" width="1" height="1174.06" transform="rotate(-45 -652.125 -267.293)" fill="#242424"/>
<rect x="-215.125" y="-438.293" width="1" height="1174.06" transform="rotate(-45 -215.125 -438.293)" fill="#242424"/>
<rect x="285.875" y="-546.293" width="1" height="1174.06" transform="rotate(-45 285.875 -546.293)" fill="#242424"/>
<rect x="-494" y="-115.299" width="1" height="1174.06" transform="rotate(-45 -494 -115.299)" fill="#242424"/>
<rect x="-57" y="-286.299" width="1" height="1174.06" transform="rotate(-45 -57 -286.299)" fill="#242424"/>
<rect x="444" y="-394.299" width="1" height="1174.06" transform="rotate(-45 444 -394.299)" fill="#242424"/>
<rect x="-492.69" y="-120.195" width="1" height="1174.06" transform="rotate(-45 -492.69 -120.195)" fill="#242424"/>
<rect x="-55.6902" y="-291.195" width="1" height="1174.06" transform="rotate(-45 -55.6902 -291.195)" fill="#242424"/>
<rect x="445.31" y="-399.195" width="1" height="1174.06" transform="rotate(-45 445.31 -399.195)" fill="#242424"/>
<rect x="-491.38" y="-125.091" width="1" height="1174.06" transform="rotate(-45 -491.38 -125.091)" fill="#242424"/>
<rect x="-54.3801" y="-296.091" width="1" height="1174.06" transform="rotate(-45 -54.3801 -296.091)" fill="#242424"/>
<rect x="446.62" y="-404.091" width="1" height="1174.06" transform="rotate(-45 446.62 -404.091)" fill="#242424"/>
<rect x="-490.07" y="-129.986" width="1" height="1174.06" transform="rotate(-45 -490.07 -129.986)" fill="#242424"/>
<rect x="-53.0703" y="-300.986" width="1" height="1174.06" transform="rotate(-45 -53.0703 -300.986)" fill="#242424"/>
<rect x="447.93" y="-408.986" width="1" height="1174.06" transform="rotate(-45 447.93 -408.986)" fill="#242424"/>
<rect x="-488.76" y="-134.882" width="1" height="1174.06" transform="rotate(-45 -488.76 -134.882)" fill="#242424"/>
<rect x="-51.7605" y="-305.882" width="1" height="1174.06" transform="rotate(-45 -51.7605 -305.882)" fill="#242424"/>
<rect x="449.239" y="-413.882" width="1" height="1174.06" transform="rotate(-45 449.239 -413.882)" fill="#242424"/>
<rect x="-487.45" y="-139.778" width="1" height="1174.06" transform="rotate(-45 -487.45 -139.778)" fill="#242424"/>
<rect x="-50.4504" y="-310.778" width="1" height="1174.06" transform="rotate(-45 -50.4504 -310.778)" fill="#242424"/>
<rect x="450.55" y="-418.778" width="1" height="1174.06" transform="rotate(-45 450.55 -418.778)" fill="#242424"/>
<rect x="-486.141" y="-144.673" width="1" height="1174.06" transform="rotate(-45 -486.141 -144.673)" fill="#242424"/>
<rect x="-49.1406" y="-315.673" width="1" height="1174.06" transform="rotate(-45 -49.1406 -315.673)" fill="#242424"/>
<rect x="451.859" y="-423.673" width="1" height="1174.06" transform="rotate(-45 451.859 -423.673)" fill="#242424"/>
<rect x="-484.831" y="-149.569" width="1" height="1174.06" transform="rotate(-45 -484.831 -149.569)" fill="#242424"/>
<rect x="-47.8308" y="-320.569" width="1" height="1174.06" transform="rotate(-45 -47.8308 -320.569)" fill="#242424"/>
<rect x="453.169" y="-428.569" width="1" height="1174.06" transform="rotate(-45 453.169 -428.569)" fill="#242424"/>
<rect x="-483.521" y="-154.465" width="1" height="1174.06" transform="rotate(-45 -483.521 -154.465)" fill="#242424"/>
<rect x="-46.5208" y="-325.465" width="1" height="1174.06" transform="rotate(-45 -46.5208 -325.465)" fill="#242424"/>
<rect x="454.479" y="-433.465" width="1" height="1174.06" transform="rotate(-45 454.479 -433.465)" fill="#242424"/>
<rect x="-482.211" y="-159.36" width="1" height="1174.06" transform="rotate(-45 -482.211 -159.36)" fill="#242424"/>
<rect x="-45.2109" y="-330.36" width="1" height="1174.06" transform="rotate(-45 -45.2109 -330.36)" fill="#242424"/>
<rect x="455.789" y="-438.36" width="1" height="1174.06" transform="rotate(-45 455.789 -438.36)" fill="#242424"/>
<rect x="-480.901" y="-164.256" width="1" height="1174.06" transform="rotate(-45 -480.901 -164.256)" fill="#242424"/>
<rect x="-43.9009" y="-335.256" width="1" height="1174.06" transform="rotate(-45 -43.9009 -335.256)" fill="#242424"/>
<rect x="457.099" y="-443.256" width="1" height="1174.06" transform="rotate(-45 457.099 -443.256)" fill="#242424"/>
<rect x="-479.591" y="-169.152" width="1" height="1174.06" transform="rotate(-45 -479.591 -169.152)" fill="#242424"/>
<rect x="-42.5911" y="-340.152" width="1" height="1174.06" transform="rotate(-45 -42.5911 -340.152)" fill="#242424"/>
<rect x="458.409" y="-448.152" width="1" height="1174.06" transform="rotate(-45 458.409 -448.152)" fill="#242424"/>
<rect x="-478.281" y="-174.047" width="1" height="1174.06" transform="rotate(-45 -478.281 -174.047)" fill="#242424"/>
<rect x="-41.2812" y="-345.047" width="1" height="1174.06" transform="rotate(-45 -41.2812 -345.047)" fill="#242424"/>
<rect x="459.719" y="-453.048" width="1" height="1174.06" transform="rotate(-45 459.719 -453.048)" fill="#242424"/>
<rect x="-476.971" y="-178.943" width="1" height="1174.06" transform="rotate(-45 -476.971 -178.943)" fill="#242424"/>
<rect x="-39.9714" y="-349.943" width="1" height="1174.06" transform="rotate(-45 -39.9714 -349.943)" fill="#242424"/>
<rect x="461.028" y="-457.943" width="1" height="1174.06" transform="rotate(-45 461.028 -457.943)" fill="#242424"/>
<rect x="-475.661" y="-183.839" width="1" height="1174.06" transform="rotate(-45 -475.661 -183.839)" fill="#242424"/>
<rect x="-38.6614" y="-354.839" width="1" height="1174.06" transform="rotate(-45 -38.6614 -354.839)" fill="#242424"/>
<rect x="462.339" y="-462.839" width="1" height="1174.06" transform="rotate(-45 462.339 -462.839)" fill="#242424"/>
<rect x="-474.352" y="-188.735" width="1" height="1174.06" transform="rotate(-45 -474.352 -188.735)" fill="#242424"/>
<rect x="-37.3516" y="-359.735" width="1" height="1174.06" transform="rotate(-45 -37.3516 -359.735)" fill="#242424"/>
<rect x="463.648" y="-467.735" width="1" height="1174.06" transform="rotate(-45 463.648 -467.735)" fill="#242424"/>
<rect x="-473.042" y="-193.63" width="1" height="1174.06" transform="rotate(-45 -473.042 -193.63)" fill="#242424"/>
<rect x="-36.0415" y="-364.63" width="1" height="1174.06" transform="rotate(-45 -36.0415 -364.63)" fill="#242424"/>
<rect x="464.958" y="-472.63" width="1" height="1174.06" transform="rotate(-45 464.958 -472.63)" fill="#242424"/>
<rect x="-471.732" y="-198.526" width="1" height="1174.06" transform="rotate(-45 -471.732 -198.526)" fill="#242424"/>
<rect x="-34.7317" y="-369.526" width="1" height="1174.06" transform="rotate(-45 -34.7317 -369.526)" fill="#242424"/>
<rect x="466.269" y="-477.526" width="1" height="1174.06" transform="rotate(-45 466.269 -477.526)" fill="#242424"/>
<rect x="-470.422" y="-203.422" width="1" height="1174.06" transform="rotate(-45 -470.422 -203.422)" fill="#242424"/>
<rect x="-33.4219" y="-374.422" width="1" height="1174.06" transform="rotate(-45 -33.4219 -374.422)" fill="#242424"/>
<rect x="467.578" y="-482.422" width="1" height="1174.06" transform="rotate(-45 467.578 -482.422)" fill="#242424"/>
<rect x="-469.112" y="-208.317" width="1" height="1174.06" transform="rotate(-45 -469.112 -208.317)" fill="#242424"/>
<rect x="-32.1118" y="-379.317" width="1" height="1174.06" transform="rotate(-45 -32.1118 -379.317)" fill="#242424"/>
<rect x="468.888" y="-487.317" width="1" height="1174.06" transform="rotate(-45 468.888 -487.317)" fill="#242424"/>
<rect x="-467.802" y="-213.213" width="1" height="1174.06" transform="rotate(-45 -467.802 -213.213)" fill="#242424"/>
<rect x="-30.802" y="-384.213" width="1" height="1174.06" transform="rotate(-45 -30.802 -384.213)" fill="#242424"/>
<rect x="470.198" y="-492.213" width="1" height="1174.06" transform="rotate(-45 470.198 -492.213)" fill="#242424"/>
<rect x="-466.492" y="-218.109" width="1" height="1174.06" transform="rotate(-45 -466.492 -218.109)" fill="#242424"/>
<rect x="-29.4919" y="-389.109" width="1" height="1174.06" transform="rotate(-45 -29.4919 -389.109)" fill="#242424"/>
<rect x="471.508" y="-497.109" width="1" height="1174.06" transform="rotate(-45 471.508 -497.109)" fill="#242424"/>
<rect x="-465.182" y="-223.004" width="1" height="1174.06" transform="rotate(-45 -465.182 -223.004)" fill="#242424"/>
<rect x="-28.1821" y="-394.004" width="1" height="1174.06" transform="rotate(-45 -28.1821 -394.004)" fill="#242424"/>
<rect x="472.818" y="-502.004" width="1" height="1174.06" transform="rotate(-45 472.818 -502.004)" fill="#242424"/>
<rect x="-463.872" y="-227.9" width="1" height="1174.06" transform="rotate(-45 -463.872 -227.9)" fill="#242424"/>
<rect x="-26.8723" y="-398.9" width="1" height="1174.06" transform="rotate(-45 -26.8723 -398.9)" fill="#242424"/>
<rect x="474.128" y="-506.9" width="1" height="1174.06" transform="rotate(-45 474.128 -506.9)" fill="#242424"/>
<rect x="-461.252" y="-237.691" width="1" height="1174.06" transform="rotate(-45 -461.252 -237.691)" fill="#242424"/>
<rect x="-24.2524" y="-408.691" width="1" height="1174.06" transform="rotate(-45 -24.2524 -408.691)" fill="#242424"/>
<rect x="476.748" y="-516.691" width="1" height="1174.06" transform="rotate(-45 476.748 -516.691)" fill="#242424"/>
<rect x="-462.562" y="-232.796" width="1" height="1174.06" transform="rotate(-45 -462.562 -232.796)" fill="#242424"/>
<rect x="-25.5623" y="-403.796" width="1" height="1174.06" transform="rotate(-45 -25.5623 -403.796)" fill="#242424"/>
<rect x="475.438" y="-511.796" width="1" height="1174.06" transform="rotate(-45 475.438 -511.796)" fill="#242424"/>
<rect x="-459.943" y="-242.587" width="1" height="1174.06" transform="rotate(-45 -459.943 -242.587)" fill="#242424"/>
<rect x="-22.9426" y="-413.587" width="1" height="1174.06" transform="rotate(-45 -22.9426 -413.587)" fill="#242424"/>
<rect x="478.058" y="-521.587" width="1" height="1174.06" transform="rotate(-45 478.058 -521.587)" fill="#242424"/>
<rect x="-458.633" y="-247.483" width="1" height="1174.06" transform="rotate(-45 -458.633 -247.483)" fill="#242424"/>
<rect x="-21.6326" y="-418.483" width="1" height="1174.06" transform="rotate(-45 -21.6326 -418.483)" fill="#242424"/>
<rect x="479.367" y="-526.483" width="1" height="1174.06" transform="rotate(-45 479.367 -526.483)" fill="#242424"/>
<rect x="-457.323" y="-252.379" width="1" height="1174.06" transform="rotate(-45 -457.323 -252.379)" fill="#242424"/>
<rect x="-20.3228" y="-423.379" width="1" height="1174.06" transform="rotate(-45 -20.3228 -423.379)" fill="#242424"/>
<rect x="480.677" y="-531.379" width="1" height="1174.06" transform="rotate(-45 480.677 -531.379)" fill="#242424"/>
<rect x="-456.013" y="-257.274" width="1" height="1174.06" transform="rotate(-45 -456.013 -257.274)" fill="#242424"/>
<rect x="-19.0127" y="-428.274" width="1" height="1174.06" transform="rotate(-45 -19.0127 -428.274)" fill="#242424"/>
<rect x="481.987" y="-536.274" width="1" height="1174.06" transform="rotate(-45 481.987 -536.274)" fill="#242424"/>
<rect x="-454.703" y="-262.17" width="1" height="1174.06" transform="rotate(-45 -454.703 -262.17)" fill="#242424"/>
<rect x="-17.7029" y="-433.17" width="1" height="1174.06" transform="rotate(-45 -17.7029 -433.17)" fill="#242424"/>
<rect x="483.297" y="-541.17" width="1" height="1174.06" transform="rotate(-45 483.297 -541.17)" fill="#242424"/>
<rect x="-453.393" y="-267.066" width="1" height="1174.06" transform="rotate(-45 -453.393 -267.066)" fill="#242424"/>
<rect x="-16.3931" y="-438.066" width="1" height="1174.06" transform="rotate(-45 -16.3931 -438.066)" fill="#242424"/>
<rect x="484.607" y="-546.066" width="1" height="1174.06" transform="rotate(-45 484.607 -546.066)" fill="#242424"/>
<rect x="-452.083" y="-271.961" width="1" height="1174.06" transform="rotate(-45 -452.083 -271.961)" fill="#242424"/>
<rect x="-15.083" y="-442.961" width="1" height="1174.06" transform="rotate(-45 -15.083 -442.961)" fill="#242424"/>
<rect x="485.917" y="-550.961" width="1" height="1174.06" transform="rotate(-45 485.917 -550.961)" fill="#242424"/>
<rect x="-450.773" y="-276.857" width="1" height="1174.06" transform="rotate(-45 -450.773 -276.857)" fill="#242424"/>
<rect x="-13.7732" y="-447.857" width="1" height="1174.06" transform="rotate(-45 -13.7732 -447.857)" fill="#242424"/>
<rect x="487.227" y="-555.857" width="1" height="1174.06" transform="rotate(-45 487.227 -555.857)" fill="#242424"/>
<rect x="-449.463" y="-281.753" width="1" height="1174.06" transform="rotate(-45 -449.463 -281.753)" fill="#242424"/>
<rect x="-12.4634" y="-452.753" width="1" height="1174.06" transform="rotate(-45 -12.4634 -452.753)" fill="#242424"/>
<rect x="488.537" y="-560.753" width="1" height="1174.06" transform="rotate(-45 488.537 -560.753)" fill="#242424"/>
<rect x="-448.153" y="-286.649" width="1" height="1174.06" transform="rotate(-45 -448.153 -286.649)" fill="#242424"/>
<rect x="-11.1533" y="-457.649" width="1" height="1174.06" transform="rotate(-45 -11.1533 -457.649)" fill="#242424"/>
<rect x="489.847" y="-565.649" width="1" height="1174.06" transform="rotate(-45 489.847 -565.649)" fill="#242424"/>
<rect x="-446.843" y="-291.544" width="1" height="1174.06" transform="rotate(-45 -446.843 -291.544)" fill="#242424"/>
<rect x="-9.84326" y="-462.544" width="1" height="1174.06" transform="rotate(-45 -9.84326 -462.544)" fill="#242424"/>
<rect x="491.157" y="-570.544" width="1" height="1174.06" transform="rotate(-45 491.157 -570.544)" fill="#242424"/>
<rect x="-445.533" y="-296.44" width="1" height="1174.06" transform="rotate(-45 -445.533 -296.44)" fill="#242424"/>
<rect x="-8.53345" y="-467.44" width="1" height="1174.06" transform="rotate(-45 -8.53345 -467.44)" fill="#242424"/>
<rect x="492.467" y="-575.44" width="1" height="1174.06" transform="rotate(-45 492.467 -575.44)" fill="#242424"/>
<rect x="-444.223" y="-301.336" width="1" height="1174.06" transform="rotate(-45 -444.223 -301.336)" fill="#242424"/>
<rect x="-7.22339" y="-472.336" width="1" height="1174.06" transform="rotate(-45 -7.22339 -472.336)" fill="#242424"/>
<rect x="493.776" y="-580.336" width="1" height="1174.06" transform="rotate(-45 493.776 -580.336)" fill="#242424"/>
<rect x="-442.914" y="-306.231" width="1" height="1174.06" transform="rotate(-45 -442.914 -306.231)" fill="#242424"/>
<rect x="-5.91382" y="-477.231" width="1" height="1174.06" transform="rotate(-45 -5.91382 -477.231)" fill="#242424"/>
<rect x="495.086" y="-585.231" width="1" height="1174.06" transform="rotate(-45 495.086 -585.231)" fill="#242424"/>
<rect x="-441.604" y="-311.127" width="1" height="1174.06" transform="rotate(-45 -441.604 -311.127)" fill="#242424"/>
<rect x="-4.60352" y="-482.127" width="1" height="1174.06" transform="rotate(-45 -4.60352 -482.127)" fill="#242424"/>
<rect x="496.396" y="-590.127" width="1" height="1174.06" transform="rotate(-45 496.396 -590.127)" fill="#242424"/>
<rect x="-440.294" y="-316.023" width="1" height="1174.06" transform="rotate(-45 -440.294 -316.023)" fill="#242424"/>
<rect x="-3.2937" y="-487.023" width="1" height="1174.06" transform="rotate(-45 -3.2937 -487.023)" fill="#242424"/>
<rect x="497.706" y="-595.023" width="1" height="1174.06" transform="rotate(-45 497.706 -595.023)" fill="#242424"/>
<rect x="-438.984" y="-320.919" width="1" height="1174.06" transform="rotate(-45 -438.984 -320.919)" fill="#242424"/>
<rect x="-1.98389" y="-491.919" width="1" height="1174.06" transform="rotate(-45 -1.98389 -491.919)" fill="#242424"/>
<rect x="499.016" y="-599.919" width="1" height="1174.06" transform="rotate(-45 499.016 -599.919)" fill="#242424"/>
<rect x="-437.674" y="-325.814" width="1" height="1174.06" transform="rotate(-45 -437.674 -325.814)" fill="#242424"/>
<rect x="-0.674072" y="-496.814" width="1" height="1174.06" transform="rotate(-45 -0.674072 -496.814)" fill="#242424"/>
<rect x="500.326" y="-604.814" width="1" height="1174.06" transform="rotate(-45 500.326 -604.814)" fill="#242424"/>
<rect x="-436.364" y="-330.71" width="1" height="1174.06" transform="rotate(-45 -436.364 -330.71)" fill="#242424"/>
<rect x="0.635986" y="-501.71" width="1" height="1174.06" transform="rotate(-45 0.635986 -501.71)" fill="#242424"/>
<rect x="501.636" y="-609.71" width="1" height="1174.06" transform="rotate(-45 501.636 -609.71)" fill="#242424"/>
<rect x="-435.054" y="-335.606" width="1" height="1174.06" transform="rotate(-45 -435.054 -335.606)" fill="#242424"/>
<rect x="1.9458" y="-506.606" width="1" height="1174.06" transform="rotate(-45 1.9458 -506.606)" fill="#242424"/>
<rect x="502.946" y="-614.606" width="1" height="1174.06" transform="rotate(-45 502.946 -614.606)" fill="#242424"/>
<rect x="-433.744" y="-340.501" width="1" height="1174.06" transform="rotate(-45 -433.744 -340.501)" fill="#242424"/>
<rect x="3.25586" y="-511.501" width="1" height="1174.06" transform="rotate(-45 3.25586 -511.501)" fill="#242424"/>
<rect x="504.256" y="-619.501" width="1" height="1174.06" transform="rotate(-45 504.256 -619.501)" fill="#242424"/>
<rect x="-432.434" y="-345.397" width="1" height="1174.06" transform="rotate(-45 -432.434 -345.397)" fill="#242424"/>
<rect x="4.56567" y="-516.397" width="1" height="1174.06" transform="rotate(-45 4.56567 -516.397)" fill="#242424"/>
<rect x="505.565" y="-624.397" width="1" height="1174.06" transform="rotate(-45 505.565 -624.397)" fill="#242424"/>
<rect x="-431.125" y="-350.293" width="1" height="1174.06" transform="rotate(-45 -431.125 -350.293)" fill="#242424"/>
<rect x="5.87549" y="-521.293" width="1" height="1174.06" transform="rotate(-45 5.87549 -521.293)" fill="#242424"/>
<rect x="506.875" y="-629.293" width="1" height="1174.06" transform="rotate(-45 506.875 -629.293)" fill="#242424"/>
</g>
</g>
<defs>
<clipPath id="clip0_51_2943">
<rect width="555" height="168" fill="white"/>
</clipPath>
<clipPath id="clip1_51_2943">
<rect width="1110" height="500" fill="white" transform="translate(-277 -166)"/>
</clipPath>
</defs>
</svg>
