<svg width="48" height="48" viewBox="0 0 48 48" fill="none" xmlns="http://www.w3.org/2000/svg">
<rect width="48" height="48" rx="4" fill="#FF3E3E" fill-opacity="0.15"/>
<path d="M18.375 24.375C15.687 24.375 13.5 26.5618 13.5 29.25C13.5 31.9382 15.687 34.125 18.375 34.125C21.063 34.125 23.25 31.9382 23.25 29.25C23.25 26.5618 21.063 24.375 18.375 24.375ZM20.3276 28.3901L18.0776 30.6401C18.0044 30.7134 17.9084 30.75 17.8125 30.75C17.7166 30.75 17.6206 30.7134 17.5474 30.6401L16.4224 29.5151C16.2759 29.3687 16.2759 29.1313 16.4224 28.9849C16.5688 28.8384 16.8062 28.8384 16.9526 28.9849L17.8125 29.8447L19.7974 27.8599C19.9438 27.7134 20.1812 27.7134 20.3276 27.8599C20.4741 28.0063 20.4741 28.2437 20.3276 28.3901Z" fill="#FF3E3E"/>
<path d="M27.75 23.25C27.75 21.8025 28.9275 20.625 30.375 20.625H31.875V18C31.875 17.3812 31.3688 16.875 30.75 16.875H17.625C17.0062 16.875 16.5 16.3687 16.5 15.75C16.5 15.5438 16.3312 15.375 16.125 15.375C15.9188 15.375 15.75 15.5438 15.75 15.75V24.2788C16.5344 23.863 17.427 23.625 18.375 23.625C21.4768 23.625 24 26.1484 24 29.25C24 29.3766 23.9893 29.5005 23.981 29.625H30.75C31.3688 29.625 31.875 29.1187 31.875 28.5V25.875H30.375C28.9275 25.875 27.75 24.6975 27.75 23.25Z" fill="#FF3E3E"/>
<path d="M17.25 15.75C17.25 15.9525 17.4225 16.125 17.625 16.125H30.375V15C30.375 14.3812 29.8688 13.875 29.25 13.875H17.625C17.0138 13.875 16.4662 14.1712 16.125 14.625C16.7438 14.625 17.25 15.1312 17.25 15.75Z" fill="#FF3E3E"/>
<path d="M34.125 19.875C33.9188 19.875 33.75 20.0438 33.75 20.25C33.75 20.8687 33.2438 21.375 32.625 21.375H30.375C29.34 21.375 28.5 22.215 28.5 23.25C28.5 24.285 29.34 25.125 30.375 25.125H32.625C33.66 25.125 34.5 24.285 34.5 23.25V20.25C34.5 20.0438 34.3312 19.875 34.125 19.875ZM30.375 23.625C30.1688 23.625 30 23.4562 30 23.25C30 23.0438 30.1688 22.875 30.375 22.875C30.5812 22.875 30.75 23.0438 30.75 23.25C30.75 23.4562 30.5812 23.625 30.375 23.625Z" fill="#FF3E3E"/>
<path d="M33 20.25C33 19.6312 33.5062 19.125 34.125 19.125C33.7838 18.6712 33.2362 18.375 32.625 18.375V20.625C32.8275 20.625 33 20.4525 33 20.25Z" fill="#FF3E3E"/>
</svg>
