<svg width="48" height="48" viewBox="0 0 48 48" fill="none" xmlns="http://www.w3.org/2000/svg">
<rect width="48" height="48" rx="4" fill="#FF3E3E" fill-opacity="0.15"/>
<g clip-path="url(#clip0_51_723)">
<path d="M24.6367 17.1052C24.9282 17.1045 25.165 16.8672 25.165 16.5756C25.165 16.4354 25.1096 16.3028 25.0089 16.2021C24.9081 16.1014 24.7755 16.0459 24.6354 16.0459H23.5205V17.1053L24.6367 17.1052Z" fill="#FF3E3E"/>
<path d="M25.1778 19.921C25.4289 19.8024 25.6035 19.5474 25.6035 19.2517C25.6035 19.0555 25.5262 18.8701 25.3856 18.7295C25.245 18.5889 25.0595 18.5115 24.8634 18.5115L23.5208 18.5115V19.921H25.1778Z" fill="#FF3E3E"/>
<path d="M22.1143 16.0459H21.6932V14.6397H23.2967V13.9502H24.7029V14.6413C25.1934 14.6581 25.653 14.8574 26.0033 15.2077C26.3696 15.5741 26.5713 16.0599 26.5713 16.5757C26.5713 16.9624 26.4569 17.3226 26.2607 17.6253C26.3015 17.6604 26.3415 17.6967 26.3799 17.7352C26.7862 18.1414 27.0099 18.6801 27.0098 19.2518C27.0098 19.4855 26.9715 19.7103 26.902 19.921H28.4488C28.932 19.1309 29.2108 18.2029 29.2108 17.211C29.2108 14.3376 26.8733 12 23.9999 12C21.1266 12 18.7891 14.3376 18.7891 17.2109C18.7891 18.2029 19.0679 19.1309 19.551 19.9209H22.1146L22.1143 16.0459Z" fill="#FF3E3E"/>
<path d="M30.6171 17.2108C30.6171 18.176 30.409 19.0933 30.0359 19.9209H34.8875C34.85 17.6132 32.9617 15.7473 30.6453 15.7473C30.5814 15.7473 30.5179 15.7491 30.4547 15.7519C30.5608 16.2215 30.6171 16.7097 30.6171 17.2108Z" fill="#FF3E3E"/>
<path d="M12 21.3271H35.9998V23.8685H12V21.3271Z" fill="#FF3E3E"/>
<path d="M17.964 19.9209C17.5909 19.0933 17.3828 18.176 17.3828 17.2108C17.3828 16.7097 17.4391 16.2215 17.5451 15.7519C17.4819 15.7491 17.4185 15.7473 17.3546 15.7473C15.0382 15.7473 13.1499 17.6132 13.1123 19.9209H17.964Z" fill="#FF3E3E"/>
<path d="M15.2906 33.9989H16.6885C16.9472 32.6898 18.1037 31.6995 19.4875 31.6995C20.8713 31.6995 22.0278 32.6898 22.2865 33.9989H25.9717C26.2304 32.6898 27.3869 31.6995 28.7708 31.6995C30.1546 31.6995 31.311 32.6898 31.5697 33.9989H32.9816L34.4829 25.2749H13.5337L15.2906 33.9989Z" fill="#FF3E3E"/>
<path d="M28.7707 33.1057C27.9727 33.1057 27.3235 33.7549 27.3235 34.5529C27.3235 35.3509 27.9727 36.0002 28.7707 36.0002C29.5687 36.0002 30.2179 35.3509 30.2179 34.5529C30.2179 33.7549 29.5687 33.1057 28.7707 33.1057Z" fill="#FF3E3E"/>
<path d="M19.4877 33.1057C18.6897 33.1057 18.0405 33.7549 18.0405 34.5529C18.0405 35.3509 18.6897 36.0002 19.4877 36.0002C20.2857 36.0002 20.9349 35.3509 20.9349 34.5529C20.9349 33.7549 20.2857 33.1057 19.4877 33.1057Z" fill="#FF3E3E"/>
</g>
<defs>
<clipPath id="clip0_51_723">
<rect width="24" height="24" fill="white" transform="translate(12 12)"/>
</clipPath>
</defs>
</svg>
