<svg width="48" height="48" viewBox="0 0 48 48" fill="none" xmlns="http://www.w3.org/2000/svg">
<rect width="48" height="48" rx="4" fill="#FF3E3E" fill-opacity="0.15"/>
<path fill-rule="evenodd" clip-rule="evenodd" d="M19.2907 30.5603C19.7092 31.6673 20.2297 32.6116 20.8199 33.3398C21.2647 33.8888 21.7514 34.4933 22.2659 34.9718C19.7999 34.5923 17.6009 33.3998 15.9502 31.6771C16.8449 31.2128 17.9842 30.8311 19.2907 30.5603ZM28.7092 30.5603C29.9939 30.8266 31.1174 31.2001 32.0054 31.6538C30.3704 33.3706 28.1924 34.5646 25.7474 34.9598C26.2574 34.4828 26.7397 33.8836 27.1799 33.3398C27.7702 32.6116 28.2907 31.6673 28.7092 30.5603ZM24.5624 30.1096C25.6207 30.1321 26.6362 30.2191 27.5842 30.3601C27.2279 31.2563 26.7967 32.0266 26.3062 32.6318C25.7819 33.2783 25.1962 33.7306 24.5624 33.9016V30.1096ZM23.4374 30.1096V33.9016C22.8037 33.7306 22.2179 33.2783 21.6937 32.6318C21.2032 32.0266 20.7719 31.2563 20.4157 30.3601C21.3637 30.2191 22.3792 30.1321 23.4374 30.1096ZM15.1972 30.8048C15.2167 30.7936 15.2369 30.7823 15.2572 30.7711C16.2239 30.2431 17.4809 29.8021 18.9329 29.4893C18.6892 28.6598 18.4987 27.7621 18.3719 26.8126H18.3089C17.7622 26.8126 17.2372 26.5951 16.8502 26.2088C16.4639 25.8218 16.2464 25.2968 16.2464 24.7501V24.5821H12.8804C13.0012 26.9206 13.8472 29.0686 15.1972 30.8048ZM29.0669 29.4893C30.5189 29.8021 31.7759 30.2431 32.7427 30.7711L32.7562 30.7793C34.0949 29.0468 34.9327 26.9086 35.0534 24.5821H31.6874V24.7501C31.6874 25.2968 31.4699 25.8218 31.0837 26.2088C30.6974 26.5943 30.1739 26.8118 29.6279 26.8126C29.5012 27.7621 29.3107 28.6598 29.0669 29.4893ZM23.4374 28.9846C22.2442 29.0093 21.1019 29.1136 20.0414 29.2823C19.8119 28.5196 19.6312 27.6901 19.5074 26.8126H23.4374V28.9846ZM24.5624 28.9846V26.8126H28.4924C28.3687 27.6901 28.1879 28.5196 27.9584 29.2823C26.8979 29.1136 25.7557 29.0093 24.5624 28.9846ZM18.3089 22.3516H29.6249C29.8739 22.3516 30.1117 22.4506 30.2879 22.6261C30.4634 22.8023 30.5624 23.0408 30.5624 23.2891V24.7501C30.5624 24.9991 30.4634 25.2368 30.2879 25.4131C30.1117 25.5886 29.8739 25.6876 29.6249 25.6876H18.3089C18.0599 25.6876 17.8214 25.5886 17.6459 25.4131C17.4704 25.2368 17.3714 24.9991 17.3714 24.7501V24.1478C17.3857 24.1066 17.3932 24.0638 17.3932 24.0196C17.3932 23.9753 17.3857 23.9326 17.3714 23.8913V23.2891C17.3714 23.0408 17.4704 22.8023 17.6459 22.6261C17.8214 22.4506 18.0599 22.3516 18.3089 22.3516ZM20.8417 23.2696C21.2557 23.2696 21.5917 23.6056 21.5917 24.0196C21.5917 24.4336 21.2557 24.7696 20.8417 24.7696C20.4277 24.7696 20.0917 24.4336 20.0917 24.0196C20.0917 23.6056 20.4277 23.2696 20.8417 23.2696ZM23.9669 23.2696C24.3809 23.2696 24.7169 23.6056 24.7169 24.0196C24.7169 24.4336 24.3809 24.7696 23.9669 24.7696C23.5529 24.7696 23.2169 24.4336 23.2169 24.0196C23.2169 23.6056 23.5529 23.2696 23.9669 23.2696ZM27.0922 23.2696C27.5062 23.2696 27.8422 23.6056 27.8422 24.0196C27.8422 24.4336 27.5062 24.7696 27.0922 24.7696C26.6782 24.7696 26.3422 24.4336 26.3422 24.0196C26.3422 23.6056 26.6782 23.2696 27.0922 23.2696ZM32.7029 17.1526C31.7324 17.6708 30.4799 18.1036 29.0369 18.4088C29.2979 19.2773 29.5012 20.2238 29.6332 21.2266C30.1777 21.2288 30.6989 21.4463 31.0837 21.8311C31.4699 22.2181 31.6874 22.7423 31.6874 23.2891V23.4571H35.0557C34.9409 21.0848 34.0807 18.9061 32.7029 17.1526ZM15.2684 17.1046C13.8689 18.8663 12.9937 21.0631 12.8782 23.4571H16.2464V23.2891C16.2464 22.7423 16.4639 22.2181 16.8502 21.8311C17.2372 21.4441 17.7622 21.2266 18.3089 21.2266H18.3667C18.4994 20.2193 18.7034 19.2691 18.9667 18.3968C17.5132 18.0848 16.2547 17.6431 15.2872 17.1143L15.2684 17.1046ZM20.0759 18.6038C21.1267 18.7718 22.2569 18.8746 23.4374 18.9008V21.2266H19.5014C19.6319 20.2906 19.8269 19.4093 20.0759 18.6038ZM27.9262 18.6128C28.1744 19.4161 28.3679 20.2943 28.4984 21.2266H24.5624V18.9023C25.7429 18.8783 26.8747 18.7778 27.9262 18.6128ZM24.5624 17.7766V14.0986C25.1984 14.2696 25.7864 14.7248 26.3122 15.3758C26.7809 15.9563 27.1957 16.6876 27.5429 17.5366C26.6062 17.6723 25.6049 17.7556 24.5624 17.7766ZM23.4374 17.7758C22.3957 17.7518 21.3959 17.6663 20.4607 17.5276C20.8064 16.6831 21.2204 15.9541 21.6877 15.3758C22.2134 14.7248 22.8014 14.2696 23.4374 14.0986V17.7758ZM28.6709 17.3401C28.2607 16.2803 27.7567 15.3736 27.1874 14.6693C26.7449 14.1218 26.2612 13.5196 25.7489 13.0411C28.1609 13.4311 30.3142 14.5988 31.9409 16.2796C31.0522 16.7198 29.9384 17.0821 28.6709 17.3401ZM16.0342 16.2368C17.6744 14.5613 19.8404 13.4026 22.2644 13.0283C21.7469 13.5091 21.2587 14.1166 20.8124 14.6693C20.2454 15.3713 19.7429 16.2743 19.3334 17.3288C18.0479 17.0626 16.9237 16.6898 16.0342 16.2368Z" fill="#FF3E3E"/>
</svg>
