<svg width="49" height="48" viewBox="0 0 49 48" fill="none" xmlns="http://www.w3.org/2000/svg">
<rect x="0.5" width="48" height="48" rx="4" fill="#FF7F3E" fill-opacity="0.15"/>
<g clip-path="url(#clip0_51_2726)">
<path d="M25.4901 23.6642C26.4152 23.4433 27.1032 22.6118 27.1032 21.619C27.1032 20.4574 26.1616 19.5159 25.0001 19.5159C23.8386 19.5159 22.897 20.4575 22.897 21.619C22.897 22.6117 23.585 23.4433 24.5101 23.6642C22.8719 23.9017 21.6133 25.3112 21.6133 27.0152V28.4843H28.3869V27.0152C28.3869 25.3112 27.1283 23.9017 25.4901 23.6642Z" fill="#FF7F3E"/>
<path d="M23.5063 12H26.4939V16.4813H23.5063V12Z" fill="#FF7F3E"/>
<path d="M23.5063 31.5186H26.4939V35.9999H23.5063V31.5186Z" fill="#FF7F3E"/>
<path d="M32.5186 22.5063H36.9999V25.4939H32.5186V22.5063Z" fill="#FF7F3E"/>
<path d="M13 22.5063H17.4813V25.4939H13V22.5063Z" fill="#FF7F3E"/>
<path d="M32.5186 19.4688V19.5185H35.5061V19.4688C35.5061 16.1688 32.8309 13.4937 29.531 13.4937H29.4812V16.4812H29.531C31.181 16.4812 32.5186 17.8188 32.5186 19.4688Z" fill="#FF7F3E"/>
<path d="M17.4812 28.5312V28.4814H14.4937V28.5312C14.4937 31.8312 17.1688 34.5063 20.4688 34.5063H20.5185V31.5188H20.4688C18.8188 31.5188 17.4812 30.1812 17.4812 28.5312Z" fill="#FF7F3E"/>
<path d="M32.5188 28.5312C32.5188 30.1812 31.1812 31.5188 29.5312 31.5188H29.4814V34.5063H29.5312C32.8312 34.5063 35.5063 31.8312 35.5063 28.5312V28.4814H32.5188L32.5188 28.5312Z" fill="#FF7F3E"/>
<path d="M14.4937 19.4688V19.5185H17.4812V19.4688C17.4812 17.8188 18.8188 16.4812 20.4687 16.4812H20.5185V13.4937H20.4687C17.1688 13.4937 14.4937 16.1688 14.4937 19.4688Z" fill="#FF7F3E"/>
</g>
<defs>
<clipPath id="clip0_51_2726">
<rect width="24" height="24" fill="white" transform="translate(13 12)"/>
</clipPath>
</defs>
</svg>
