<svg width="49" height="48" viewBox="0 0 49 48" fill="none" xmlns="http://www.w3.org/2000/svg">
<rect x="0.5" width="48" height="48" rx="4" fill="#FF7F3E" fill-opacity="0.15"/>
<path d="M25.19 32.25C24.2499 30.9989 23.7442 29.4749 23.75 27.91V25C23.748 24.7043 23.8054 24.4112 23.9188 24.1381C24.0322 23.865 24.1992 23.6174 24.41 23.41L25.41 22.41C25.8328 21.9898 26.4039 21.7527 27 21.75H30.75V16C30.7474 15.5367 30.5622 15.0931 30.2345 14.7655C29.9069 14.4378 29.4633 14.2526 29 14.25H17C16.5367 14.2526 16.0931 14.4378 15.7655 14.7655C15.4378 15.0931 15.2526 15.5367 15.25 16V32C15.2526 32.4633 15.4378 32.9069 15.7655 33.2345C16.0931 33.5622 16.5367 33.7474 17 33.75H26.72C26.134 33.3339 25.6177 32.8276 25.19 32.25ZM23 23.75H19C18.8011 23.75 18.6103 23.671 18.4697 23.5303C18.329 23.3897 18.25 23.1989 18.25 23C18.25 22.8011 18.329 22.6103 18.4697 22.4697C18.6103 22.329 18.8011 22.25 19 22.25H23C23.1989 22.25 23.3897 22.329 23.5303 22.4697C23.671 22.6103 23.75 22.8011 23.75 23C23.75 23.1989 23.671 23.3897 23.5303 23.5303C23.3897 23.671 23.1989 23.75 23 23.75ZM27 20.75H19C18.8011 20.75 18.6103 20.671 18.4697 20.5303C18.329 20.3897 18.25 20.1989 18.25 20C18.25 19.8011 18.329 19.6103 18.4697 19.4697C18.6103 19.329 18.8011 19.25 19 19.25H27C27.1989 19.25 27.3897 19.329 27.5303 19.4697C27.671 19.6103 27.75 19.8011 27.75 20C27.75 20.1989 27.671 20.3897 27.5303 20.5303C27.3897 20.671 27.1989 20.75 27 20.75ZM27 17.75H19C18.8011 17.75 18.6103 17.671 18.4697 17.5303C18.329 17.3897 18.25 17.1989 18.25 17C18.25 16.8011 18.329 16.6103 18.4697 16.4697C18.6103 16.329 18.8011 16.25 19 16.25H27C27.1989 16.25 27.3897 16.329 27.5303 16.4697C27.671 16.6103 27.75 16.8011 27.75 17C27.75 17.1989 27.671 17.3897 27.5303 17.5303C27.3897 17.671 27.1989 17.75 27 17.75Z" fill="#FF7F3E"/>
<path d="M34.5299 24.47L33.5299 23.47C33.3893 23.3293 33.1987 23.2502 32.9999 23.25H26.9999C26.801 23.2502 26.6104 23.3293 26.4699 23.47L25.4699 24.47C25.3292 24.6105 25.25 24.8012 25.2499 25V27.91C25.2396 28.0865 25.2396 28.2635 25.2499 28.44C25.2862 28.8935 25.3803 29.3404 25.5299 29.77C25.5794 29.9305 25.6395 30.0875 25.7099 30.24C25.7899 30.42 25.8799 30.59 25.9699 30.76C26.0603 30.9258 26.1605 31.086 26.2699 31.24C26.3799 31.38 26.4799 31.52 26.5999 31.65C26.7403 31.8188 26.8941 31.976 27.0599 32.12C27.4559 32.4826 27.9001 32.7888 28.3799 33.03L29.1699 33.43C29.3156 33.5008 29.4704 33.5513 29.6299 33.58C29.7229 33.5903 29.8168 33.5903 29.9099 33.58C30.1803 33.5811 30.4473 33.5195 30.6899 33.4L31.4799 33C32.437 32.5256 33.2422 31.7928 33.8042 30.8843C34.3662 29.9759 34.6626 28.9282 34.6599 27.86V25C34.6846 24.8133 34.6382 24.6241 34.5299 24.47ZM29.9999 29.53C29.8592 29.6705 29.6686 29.7493 29.4699 29.7493C29.2711 29.7493 29.0805 29.6705 28.9399 29.53L28.4599 29.05L27.9999 28.53C27.8594 28.3894 27.7805 28.1988 27.7805 28C27.7805 27.8012 27.8594 27.6106 27.9999 27.47C28.0803 27.3919 28.1755 27.3307 28.2799 27.29C28.4137 27.2445 28.5577 27.2372 28.6955 27.269C28.8333 27.3008 28.9595 27.3704 29.0599 27.47L29.5299 27.94L30.9999 26.47C31.0691 26.3999 31.1517 26.3443 31.2427 26.3065C31.3337 26.2688 31.4313 26.2495 31.5299 26.25C31.6126 26.2356 31.6971 26.2356 31.7799 26.25C31.8843 26.2907 31.9795 26.3519 32.0599 26.43C32.2003 26.5706 32.2792 26.7612 32.2792 26.96C32.2792 27.1588 32.2003 27.3494 32.0599 27.49L31.7799 27.77L29.9999 29.53Z" fill="#FF7F3E"/>
</svg>
