<svg width="48" height="48" viewBox="0 0 48 48" fill="none" xmlns="http://www.w3.org/2000/svg">
<rect width="48" height="48" rx="4" fill="#FF7F3E" fill-opacity="0.15"/>
<path d="M15.6379 20.7415V14.7573L13.875 12.9944V20.7415C13.875 27.2432 17.5395 33.1197 23.2968 36V33.9997C18.5618 31.2751 15.6379 26.2342 15.6379 20.7415Z" fill="#FF7F3E"/>
<path d="M24.7031 12V13.7629H31.3676L33.1305 12H24.7031Z" fill="#FF7F3E"/>
<path d="M16.6323 13.7629H23.2968V12H14.8694L16.6323 13.7629Z" fill="#FF7F3E"/>
<path d="M34.1249 12.9944L32.362 14.7573V20.7415C32.362 26.2342 29.4381 31.2751 24.7031 33.9997V36C30.4604 33.1197 34.1249 27.2432 34.1249 20.7415V12.9944Z" fill="#FF7F3E"/>
<path d="M30.9557 20.7415V15.1692H17.0442V20.7415C17.0442 25.7303 19.6994 30.3088 23.9999 32.7825C28.3004 30.3088 30.9557 25.7303 30.9557 20.7415ZM26.3768 26.4641H21.623V25.0578H23.2968V19.3518H22.1504V17.9455H24.703V25.0578H26.3768V26.4641Z" fill="#FF7F3E"/>
</svg>
