<svg width="48" height="48" viewBox="0 0 48 48" fill="none" xmlns="http://www.w3.org/2000/svg">
<rect width="48" height="48" rx="4" fill="#FF7F3E" fill-opacity="0.15"/>
<g clip-path="url(#clip0_51_2734)">
<path fill-rule="evenodd" clip-rule="evenodd" d="M30.432 23.1488C30.4149 23.1488 30.3982 23.1462 30.381 23.1462C29.9178 27.7461 25.8904 31.1499 21.2776 30.8401C16.6649 30.5303 13.1288 26.6184 13.2849 21.9979C13.441 17.3774 17.233 13.7131 21.8561 13.7152C22.9755 13.7133 24.0841 13.9333 25.118 14.3623C25.2541 14.1053 25.4087 13.8585 25.5806 13.6239C22.0612 12.1117 17.9769 12.8777 15.2447 15.5625C12.5125 18.2472 11.6749 22.3175 13.1252 25.8629C14.5754 29.4082 18.0256 31.7246 21.8561 31.7247C26.764 31.749 30.8584 27.9809 31.2407 23.0879C30.9729 23.1264 30.7026 23.1468 30.432 23.1488Z" fill="#FF7F3E"/>
<path d="M21.856 14.5728C17.6939 14.5687 14.2782 17.8655 14.1348 22.0251C13.9914 26.1848 17.1719 29.709 21.3244 29.9916C25.4769 30.2742 29.1057 27.2135 29.5272 23.0728C27.7594 22.8103 26.2017 21.7706 25.2812 20.2388C24.3606 18.7069 24.1738 16.8435 24.7718 15.1593C23.848 14.7738 22.8571 14.5745 21.856 14.5728ZM21.856 16.2879C20.5565 16.284 19.2914 16.7057 18.2541 17.4886C18.0647 17.6307 17.7959 17.5922 17.6538 17.4028C17.5117 17.2134 17.5501 16.9446 17.7396 16.8025C18.9252 15.9082 20.3709 15.4263 21.856 15.4304C22.0928 15.4304 22.2848 15.6223 22.2848 15.8592C22.2848 16.096 22.0928 16.2879 21.856 16.2879Z" fill="#FF7F3E"/>
<path d="M30.432 22.2911C33.2738 22.2911 35.5775 19.9874 35.5775 17.1456C35.5775 14.3038 33.2737 12 30.432 12C27.5902 12 25.2864 14.3038 25.2864 17.1455C25.2895 19.9861 27.5914 22.288 30.432 22.2911ZM27.1272 17.7C27.2946 17.5326 27.5661 17.5326 27.7335 17.7L29.1455 19.112L33.1304 15.1272C33.2986 14.9647 33.566 14.967 33.7315 15.1324C33.8969 15.2978 33.8992 15.5653 33.7367 15.7335L29.4487 20.0215C29.2813 20.1889 29.0099 20.1889 28.8424 20.0215L27.1272 18.3063C26.9598 18.1389 26.9598 17.8674 27.1272 17.7Z" fill="#FF7F3E"/>
<path fill-rule="evenodd" clip-rule="evenodd" d="M29.4457 29.2715C29.2519 29.4825 29.0487 29.684 28.8381 29.8782L29.6923 30.7324L30.2995 30.1252L29.4457 29.2715Z" fill="#FF7F3E"/>
<path fill-rule="evenodd" clip-rule="evenodd" d="M33.9357 32.5518L32.1167 34.3707L33.3816 35.6357C33.8907 36.1215 34.6916 36.1215 35.2006 35.6357C35.7028 35.1333 35.7028 34.319 35.2006 33.8167L33.9357 32.5518Z" fill="#FF7F3E"/>
<path fill-rule="evenodd" clip-rule="evenodd" d="M29.6873 31.9451L31.5059 30.1264L32.1122 30.7327L30.2936 32.5514L29.6873 31.9451Z" fill="#FF7F3E"/>
<path fill-rule="evenodd" clip-rule="evenodd" d="M30.8999 33.1582L32.7186 31.3395L33.3249 31.9459L31.5062 33.7645L30.8999 33.1582Z" fill="#FF7F3E"/>
</g>
<defs>
<clipPath id="clip0_51_2734">
<rect width="24" height="24" fill="white" transform="translate(12 12)"/>
</clipPath>
</defs>
</svg>
