<svg width="48" height="48" viewBox="0 0 48 48" fill="none" xmlns="http://www.w3.org/2000/svg">
<rect width="48" height="48" rx="4" fill="#727EFF" fill-opacity="0.15"/>
<g clip-path="url(#clip0_10_435)">
<path d="M13.8235 26.0292C13.3137 25.7498 12.8627 25.3772 12.4951 24.9312C12.5098 26.8282 13 28.6713 13.9215 30.3086C14.0735 29.7988 14.3137 29.3282 14.6225 28.9115C14.2107 27.9949 13.9411 27.0292 13.8235 26.0292Z" fill="#727EFF"/>
<path d="M19.7353 32.7108C19.6961 32.6912 19.6373 32.6814 19.5686 32.6666C19.5 32.6519 19.4265 32.6372 19.353 32.6127C19.152 32.5441 19 32.3872 18.9167 32.1814C18.8088 31.9117 18.8285 31.5784 18.9706 31.3039C19.0932 31.0588 19.3235 30.8823 19.6471 30.7843C19.7696 30.75 19.8922 30.6274 19.9804 30.451C20.1079 30.1961 20.0883 29.8921 19.9216 29.6568C19.8481 29.5588 19.7598 29.4804 19.6471 29.4215C19.2696 29.2304 18.8088 29.3774 18.6177 29.7549C18.5245 29.9363 18.5 30.1176 18.549 30.2647C18.6618 30.6029 18.6079 30.9951 18.4118 31.2696C18.2402 31.5098 17.9608 31.6814 17.6912 31.7157C17.4951 31.7402 17.3039 31.6912 17.1618 31.5686C17.0883 31.5049 17.0294 31.4363 16.9755 31.3774C16.9118 31.3039 16.8579 31.2402 16.7941 31.2059C16.6128 31.1127 16.4069 31.0931 16.2108 31.1568C16.0147 31.2157 15.8579 31.3529 15.7647 31.5343C15.6716 31.7157 15.652 31.9215 15.7157 32.1176C15.7745 32.3137 15.9118 32.4706 16.0932 32.5637C16.2892 32.6617 16.6128 32.7304 17.1765 32.1617C17.3039 32.0343 17.4755 31.9706 17.6716 31.9706C17.8334 31.9706 18.0049 32.0147 18.1765 32.1029C18.5 32.2696 18.7892 32.6127 18.7157 33.0098C18.6422 33.3823 18.6422 33.8725 19.0392 34.0735C19.4167 34.2647 19.8775 34.1176 20.0686 33.7402C20.2647 33.3627 20.1128 32.9019 19.7353 32.7108Z" fill="#727EFF"/>
<path d="M26.0049 34.4609C25.2353 34.6472 24.4412 34.7453 23.6421 34.7453C23.0245 34.7453 22.4118 34.6864 21.8088 34.5737C21.4706 34.9756 21.0686 35.3188 20.6127 35.5835C21.5931 35.858 22.6127 36.0002 23.6421 36.0002C24.8235 36.0002 25.9804 35.8188 27.0931 35.4609C26.6765 35.1864 26.3088 34.8482 26.0049 34.4609Z" fill="#727EFF"/>
<path d="M22.2941 31.6274C22.2941 29.4264 20.5049 27.6372 18.3039 27.6372C16.1029 27.6372 14.3137 29.4264 14.3137 31.6274C14.3137 33.8284 16.1029 35.6225 18.3039 35.6176C20.5049 35.6176 22.2941 33.8284 22.2941 31.6274ZM20.598 34.0147C20.3578 34.4803 19.8823 34.75 19.3922 34.75C19.1814 34.75 18.9706 34.7058 18.7745 34.6029C18.2206 34.3235 17.9853 33.7009 18.1373 32.9068C18.1471 32.8382 18.0588 32.7107 17.9069 32.6323C17.7549 32.5539 17.6225 32.5588 17.598 32.5833C16.9804 33.2107 16.3873 33.3823 15.8284 33.098C15.5049 32.9313 15.2696 32.6568 15.1569 32.3088C15.0441 31.9607 15.0735 31.598 15.2402 31.2745C15.4069 30.9509 15.6863 30.7156 16.0294 30.6029C16.3774 30.4901 16.7402 30.5196 17.0637 30.6862C17.2255 30.7696 17.3333 30.8921 17.4216 30.9901C17.4657 31.0392 17.5049 31.0833 17.5441 31.1176C17.549 31.1225 17.5686 31.1372 17.6225 31.1323C17.7304 31.1176 17.8627 31.0294 17.9412 30.9215C18.0294 30.8039 18.0539 30.6078 18 30.4509C17.902 30.1519 17.9363 29.8088 18.1029 29.4852C18.4461 28.8186 19.2647 28.5588 19.9265 28.897C20.1176 28.9951 20.2892 29.1421 20.4118 29.3186C20.7059 29.7352 20.7451 30.2696 20.5147 30.7205C20.3529 31.0392 20.1078 31.2647 19.8333 31.348C19.6078 31.4166 19.5392 31.5098 19.5049 31.5735C19.4412 31.6911 19.4314 31.8529 19.4755 31.9656C19.5049 32.0392 19.5441 32.0539 19.5588 32.0588C19.5931 32.0686 19.6373 32.0784 19.6863 32.0882C19.7794 32.1029 19.8922 32.1274 20.0098 32.1862C20.6716 32.5245 20.9363 33.3431 20.598 34.0147Z" fill="#727EFF"/>
<path d="M16.0245 26.0097C18.2255 26.0097 20.0147 24.2205 20.0147 22.0195C20.0147 19.8185 18.2255 18.0293 16.0245 18.0293C13.8235 18.0293 12.0343 19.8185 12.0343 22.0195C12.0343 24.2205 13.8235 26.0097 16.0245 26.0097ZM15.1519 22.3185L16.0735 19.0783L16.6372 19.2352L15.8186 22.1273L16.4363 21.9558L16.598 22.5195L15.6323 22.794L15.3088 23.9264H17.8823V24.5146H14.5294L14.9657 22.9852L14.25 23.1862L14.0882 22.6224L15.1519 22.3185Z" fill="#727EFF"/>
<path d="M25.5735 15.1717V14.3335C25.5735 14.1276 25.4069 13.9609 25.201 13.9609H22.7059V15.5443H25.201C25.4069 15.5443 25.5735 15.3776 25.5735 15.1717Z" fill="#727EFF"/>
<path d="M28.549 16.2646C29.2451 16.6617 29.8922 17.1421 30.4706 17.696C30.9412 17.5294 31.4461 17.4411 31.9706 17.4411C30.9657 16.3137 29.75 15.4019 28.3922 14.7646C28.5 15.1568 28.5588 15.5686 28.5588 15.995C28.5588 16.0833 28.5539 16.1764 28.549 16.2646Z" fill="#727EFF"/>
<path d="M23.9706 20.5733C21.6373 20.5733 19.7059 18.8135 19.4265 16.5537C18.7892 16.8772 18.1912 17.2743 17.6422 17.74C19.3677 18.3968 20.598 20.0684 20.598 22.0243C20.598 24.5488 18.5441 26.6027 16.0196 26.6027C15.4706 26.6027 14.9412 26.5047 14.451 26.3233C14.5686 27.0439 14.7647 27.7449 15.0441 28.4165C15.8775 27.5733 17.0294 27.0488 18.2941 27.0586C20.8186 27.0586 22.8726 29.1125 22.8726 31.637C22.8726 32.5194 22.6177 33.3478 22.1814 34.0488C22.6569 34.1223 23.1422 34.1616 23.6275 34.1616C24.3088 34.1616 24.9804 34.0831 25.6373 33.941C25.2451 33.2596 25.0147 32.4753 25.0147 31.6321C25.0147 29.1076 27.0686 27.0537 29.5931 27.0537C30.6471 27.0537 31.6128 27.4067 32.3873 28.0047C32.5588 27.5243 32.6912 27.0341 32.7843 26.5292C32.5196 26.5782 32.2451 26.6027 31.9657 26.6027C29.4412 26.6027 27.3873 24.5488 27.3873 22.0243C27.3873 20.2547 28.3971 18.7155 29.8726 17.9557C29.4363 17.5586 28.9608 17.2057 28.4608 16.9018C28.0392 18.9949 26.1863 20.5733 23.9706 20.5733Z" fill="#727EFF"/>
<path d="M16.9755 17.5439C17.701 16.8821 18.5147 16.338 19.3971 15.9164C19.4069 15.3968 19.5049 14.8968 19.6716 14.4312C17.9657 15.0782 16.4608 16.1272 15.25 17.5096C15.5 17.4704 15.7598 17.4459 16.0196 17.4459C16.348 17.4459 16.6667 17.4802 16.9755 17.5439Z" fill="#727EFF"/>
<path d="M25.5735 17.3431V16.5049C25.5735 16.299 25.4069 16.1323 25.201 16.1323H22.7059V17.7157H25.201C25.4069 17.7157 25.5735 17.549 25.5735 17.3431Z" fill="#727EFF"/>
<path d="M23.9804 19.9853C25.9951 19.9853 27.6667 18.4804 27.9314 16.5343C27.8921 16.451 27.8872 16.348 27.9363 16.2598C27.9461 16.2451 27.9559 16.2304 27.9657 16.2157C27.9657 16.1422 27.9706 16.0637 27.9706 15.9902C27.9706 13.7892 26.1814 12 23.9804 12C21.7794 12 19.9853 13.7892 19.9902 15.9951C19.9902 18.1961 21.7794 19.9853 23.9804 19.9853ZM22.1176 15.8382V13.6667C22.1176 13.5049 22.25 13.3725 22.4118 13.3725H22.848V12.7549H23.4363V13.3725H24.299V12.7549H24.8872V13.3725H25.201C25.7304 13.3725 26.1618 13.8039 26.1618 14.3333V15.1716C26.1618 15.4314 26.0588 15.6667 25.8921 15.8382C26.0588 16.0098 26.1618 16.2451 26.1618 16.5049V17.3431C26.1618 17.8725 25.7304 18.3039 25.201 18.3039H24.8872V18.9216H24.299V18.3039H23.4363V18.9216H22.848V18.3039H22.4118C22.25 18.3039 22.1176 18.1716 22.1176 18.0098V15.8382Z" fill="#727EFF"/>
<path d="M30.6176 31.6275L29.6814 31.2256L28.6569 31.6275L29.6814 32.0295L30.6176 31.6275Z" fill="#727EFF"/>
<path d="M29.6862 32.6419C29.647 32.6419 29.6127 32.637 29.5784 32.6223L28.4608 32.186L29.6764 34.387L30.7745 32.2007L29.8039 32.6174C29.7647 32.6321 29.7255 32.6419 29.6862 32.6419Z" fill="#727EFF"/>
<path d="M29.6078 27.6421C27.4068 27.6421 25.6176 29.4313 25.6176 31.6323C25.6176 33.8333 27.4068 35.6225 29.6078 35.6225C31.8039 35.6225 33.598 33.8333 33.598 31.6323C33.598 29.4313 31.8088 27.6421 29.6078 27.6421ZM31.647 31.7695L29.946 35.147C29.897 35.245 29.799 35.3088 29.6911 35.3088H29.6862C29.5784 35.3088 29.4804 35.2499 29.4264 35.1568L27.5637 31.7793C27.5392 31.7303 27.5294 31.6813 27.5294 31.6274C27.5245 31.5735 27.5392 31.5244 27.5637 31.4754L29.4264 28.098C29.4804 28.0048 29.5784 27.946 29.6862 27.946H29.6911C29.799 27.946 29.897 28.0097 29.946 28.1078L31.647 31.4852C31.6715 31.5293 31.6813 31.5784 31.6764 31.6225V31.6274V31.6323C31.6813 31.6764 31.6666 31.7254 31.647 31.7695Z" fill="#727EFF"/>
<path d="M31.9755 18.0293C29.7745 18.0293 27.9853 19.8185 27.9853 22.0195C27.9853 24.2205 29.7745 26.0097 31.9755 26.0097C34.1765 26.0097 35.9657 24.2205 35.9657 22.0195C35.9657 19.8185 34.1765 18.0293 31.9755 18.0293ZM29.4853 21.7254H31.3431V22.3136H29.4853V21.7254ZM34.7402 21.2597L34.3725 23.2254C34.2647 23.7989 33.7647 24.2107 33.1863 24.2107H29.9559V23.6224H33.1814C33.4804 23.6224 33.7353 23.4117 33.7892 23.1175L34.1569 21.1518C34.1912 20.9705 34.1422 20.7842 34.0245 20.642C33.9069 20.4999 33.7353 20.4166 33.549 20.4166H30.4559V19.8283H33.549C33.9118 19.8283 34.25 19.9852 34.4804 20.2646C34.7108 20.544 34.8088 20.9067 34.7402 21.2597Z" fill="#727EFF"/>
<path d="M32.8676 28.4215C33.2157 28.7695 33.5 29.1764 33.7206 29.6224C34.3088 28.3773 34.6617 27.0293 34.7598 25.6519C34.3578 25.9607 33.9068 26.2058 33.4166 26.3675C33.3088 27.0685 33.1225 27.7597 32.8676 28.4215Z" fill="#727EFF"/>
<path d="M28.4608 31.0735L29.5784 30.6373C29.6519 30.6128 29.7353 30.6128 29.8039 30.6422L30.7745 31.0588L29.6764 28.8726L28.4608 31.0735Z" fill="#727EFF"/>
</g>
<defs>
<clipPath id="clip0_10_435">
<rect width="24" height="24" fill="white" transform="translate(12 12)"/>
</clipPath>
</defs>
</svg>
