<svg width="48" height="48" viewBox="0 0 48 48" fill="none" xmlns="http://www.w3.org/2000/svg">
<rect width="48" height="48" rx="4" fill="#727EFF" fill-opacity="0.15"/>
<g clip-path="url(#clip0_10_424)">
<path d="M17.4099 34.7752C17.6814 34.5037 17.8967 34.1815 18.0437 33.8268C18.1906 33.4721 18.2663 33.0919 18.2663 32.708C18.2663 32.324 18.1907 31.9438 18.0438 31.5891C17.8969 31.2344 17.6816 30.9121 17.4101 30.6406C17.1386 30.3691 16.8163 30.1537 16.4616 30.0068C16.1069 29.8598 15.7268 29.7842 15.3428 29.7842C14.9589 29.7842 14.5787 29.8598 14.224 30.0067C13.8693 30.1536 13.547 30.3689 13.2755 30.6404C12.4622 31.4532 12.1406 32.7136 12.0399 33.8551C11.9821 34.5008 11.9859 35.1506 12.0511 35.7957C12.0685 35.9574 12.2241 35.994 12.2508 35.9986H12.2588C12.3239 35.9986 13.2581 36.0197 13.546 35.108C13.5976 34.938 13.6736 34.7764 13.7714 34.628C13.812 34.5695 13.8711 34.5265 13.9392 34.5058C14.0073 34.4851 14.0804 34.488 14.1466 34.514C14.2129 34.5401 14.2684 34.5877 14.3042 34.6492C14.3399 34.7108 14.3539 34.7826 14.3438 34.853C14.297 35.1993 14.3689 35.5512 14.5477 35.8515C14.5672 35.8849 14.5963 35.9117 14.6313 35.9284C14.6662 35.9451 14.7053 35.951 14.7436 35.9452C15.7224 35.7952 16.7245 35.4605 17.4099 34.7752Z" fill="#727EFF"/>
<path d="M35.977 14.1927C35.9063 12.9698 35.0302 12.0937 33.8072 12.0229C29.6531 11.7754 25.0238 13.537 21.4134 17.1473L20.4506 18.1101C20.1034 18.457 19.7738 18.8129 19.4616 19.1779H16.4259C15.7814 19.2027 15.2114 19.5745 14.8889 20.1201L13.1044 23.6896C13.0567 23.8177 13.0234 23.9507 13.005 24.0862C13.0078 24.3158 13.1004 24.5353 13.2631 24.6974C13.4257 24.8596 13.6453 24.9517 13.875 24.9538H16.1288C15.8363 25.9382 16.0313 26.9071 16.657 27.532L20.4675 31.3424C21.0928 31.9682 22.0613 32.1632 23.0456 31.8707V34.1268C23.0484 34.3561 23.1407 34.5751 23.3029 34.7372C23.465 34.8994 23.684 34.9917 23.9133 34.9945C24.0487 34.9761 24.1817 34.9427 24.3098 34.8951L27.8794 33.1106C28.425 32.7881 28.7967 32.2199 28.8216 31.5735V28.5384C29.1856 28.2259 29.5416 27.8962 29.8894 27.5493L30.8522 26.5865C34.463 22.9762 36.2245 18.3468 35.977 14.1927ZM30.9192 21.426C30.4895 21.8558 29.942 22.1484 29.346 22.267C28.7499 22.3856 28.1321 22.3247 27.5707 22.0921C27.0092 21.8596 26.5293 21.4658 26.1917 20.9605C25.854 20.4552 25.6738 19.8611 25.6738 19.2534C25.6738 18.6457 25.854 18.0516 26.1917 17.5463C26.5293 17.041 27.0092 16.6472 27.5707 16.4146C28.1321 16.182 28.7499 16.1212 29.346 16.2398C29.942 16.3583 30.4895 16.651 30.9192 17.0807C31.4954 17.6569 31.8191 18.4385 31.8191 19.2534C31.8191 20.0683 31.4954 20.8498 30.9192 21.426Z" fill="#727EFF"/>
<path d="M15.7088 16.7913C15.5413 16.6238 15.4472 16.3966 15.4472 16.1597C15.4472 15.9228 15.5413 15.6956 15.7088 15.528L18.0225 13.2143C18.1904 13.0464 18.418 12.9521 18.6553 12.9521C18.8927 12.9521 19.1203 13.0464 19.2881 13.2143C19.456 13.3821 19.5503 13.6097 19.5503 13.8471C19.5503 14.0844 19.456 14.3121 19.2881 14.4799L16.9744 16.7936C16.8912 16.8768 16.7925 16.9427 16.6838 16.9876C16.5751 17.0324 16.4587 17.0554 16.3411 17.0552C16.2235 17.055 16.1071 17.0316 15.9986 16.9863C15.8901 16.941 15.7916 16.8747 15.7088 16.7913Z" fill="#727EFF"/>
<path d="M12.3549 16.2614C12.188 16.094 12.0942 15.8672 12.0942 15.6307C12.0942 15.3943 12.188 15.1675 12.3549 15L13.5413 13.8118C13.7099 13.6495 13.9354 13.5598 14.1694 13.5621C14.4034 13.5643 14.6271 13.6582 14.7926 13.8237C14.9581 13.9892 15.052 14.2129 15.0543 14.4469C15.0565 14.6809 14.9668 14.9064 14.8046 15.075L13.6182 16.2614C13.5354 16.3447 13.437 16.4108 13.3286 16.4559C13.2202 16.501 13.1039 16.5242 12.9865 16.5242C12.8691 16.5242 12.7529 16.501 12.6445 16.4559C12.5361 16.4108 12.4376 16.3447 12.3549 16.2614Z" fill="#727EFF"/>
<path d="M31.133 32.2151C31.0497 32.1323 30.9836 32.0339 30.9385 31.9255C30.8935 31.8171 30.8702 31.7008 30.8702 31.5834C30.8702 31.466 30.8935 31.3498 30.9385 31.2414C30.9836 31.133 31.0497 31.0346 31.133 30.9518L33.4463 28.6404C33.6138 28.4726 33.8411 28.3781 34.0782 28.3779C34.3154 28.3777 34.5429 28.4717 34.7107 28.6392C34.8785 28.8067 34.973 29.0341 34.9732 29.2712C34.9734 29.5083 34.8794 29.7358 34.7119 29.9037L32.3986 32.2174C32.3154 32.3006 32.2167 32.3664 32.108 32.4113C31.9993 32.4562 31.8829 32.4792 31.7653 32.479C31.6477 32.4788 31.5313 32.4554 31.4228 32.4101C31.3143 32.3648 31.2158 32.2985 31.133 32.2151Z" fill="#727EFF"/>
<path d="M31.6627 35.5691C31.4952 35.4015 31.4011 35.1743 31.4011 34.9374C31.4011 34.7005 31.4952 34.4733 31.6627 34.3058L32.8491 33.1194C32.932 33.0363 33.0305 32.9703 33.139 32.9253C33.2474 32.8803 33.3637 32.857 33.4811 32.8569C33.5985 32.8568 33.7148 32.8798 33.8233 32.9247C33.9318 32.9695 34.0304 33.0353 34.1135 33.1182C34.1967 33.2012 34.2626 33.2997 34.3076 33.4081C34.3527 33.5165 34.3759 33.6328 34.376 33.7502C34.3761 33.8676 34.3531 33.9839 34.3083 34.0924C34.2634 34.2009 34.1977 34.2996 34.1147 34.3827L32.9283 35.5691C32.8453 35.6524 32.7467 35.7185 32.6381 35.7637C32.5295 35.8088 32.4131 35.832 32.2955 35.832C32.1779 35.832 32.0615 35.8088 31.9529 35.7637C31.8443 35.7185 31.7457 35.6524 31.6627 35.5691Z" fill="#727EFF"/>
</g>
<defs>
<clipPath id="clip0_10_424">
<rect width="24" height="24" fill="white" transform="translate(12 12)"/>
</clipPath>
</defs>
</svg>
