<svg width="48" height="48" viewBox="0 0 48 48" fill="none" xmlns="http://www.w3.org/2000/svg">
<rect width="48" height="48" rx="4" fill="#727EFF" fill-opacity="0.15"/>
<path d="M28.3166 32.3519L27.0857 34.7177C26.9348 34.9988 26.6434 35.1771 26.3211 35.1771C26.184 35.1771 26.0468 35.1428 25.9268 35.0811C25.5086 34.8617 25.344 34.3439 25.5634 33.9222L25.7314 33.6034C24.9394 33.8091 24.1303 33.9119 23.3143 33.9119C18.0377 33.9119 13.7417 29.6194 13.7417 24.3394C13.7417 22.7142 14.1566 21.1097 14.9451 19.6937C15.0548 19.4948 15.2366 19.3474 15.456 19.2857C15.6788 19.2205 15.9086 19.2479 16.1108 19.3611C16.5223 19.5908 16.6731 20.1119 16.4434 20.5268C15.7988 21.6891 15.456 23.0091 15.456 24.3394C15.456 28.6731 18.984 32.1977 23.3143 32.1977C24.0788 32.1977 24.8297 32.0879 25.56 31.8719L24.8023 31.4742C24.6 31.3679 24.4526 31.1897 24.384 30.9702C24.3154 30.7508 24.336 30.5211 24.4423 30.3154C24.6651 29.8971 25.1828 29.7359 25.6011 29.9554L27.9566 31.1965C28.3714 31.4159 28.5326 31.9337 28.3166 32.3519Z" fill="#727EFF"/>
<path d="M34.2583 23.6537C34.2583 25.2754 33.8434 26.88 33.0583 28.296C32.9074 28.5669 32.6194 28.7349 32.3074 28.7349C32.1634 28.7349 32.0229 28.7006 31.8926 28.6286C31.4811 28.3989 31.3303 27.8777 31.56 27.4629C32.2046 26.3006 32.544 24.984 32.544 23.6537C32.544 19.32 29.0194 15.792 24.6857 15.792C23.9177 15.792 23.16 15.9051 22.4263 16.128L23.1806 16.5257C23.3829 16.632 23.5337 16.8103 23.5989 17.0297C23.6674 17.2491 23.6469 17.4823 23.5406 17.6846C23.328 18.0823 22.8171 18.2606 22.3851 18.0446L20.0263 16.8034C19.824 16.6971 19.6766 16.5189 19.608 16.2994C19.5394 16.08 19.56 15.8503 19.6663 15.648L20.8971 13.2823C21.1166 12.864 21.6343 12.6994 22.0526 12.9189C22.2583 13.0251 22.4057 13.2034 22.4743 13.4229C22.5429 13.6423 22.5257 13.872 22.4194 14.0777L22.2514 14.3966C23.0469 14.1874 23.8629 14.0777 24.6857 14.0777C29.9657 14.0777 34.2583 18.3737 34.2583 23.6537Z" fill="#727EFF"/>
<path d="M23.8971 24.1714H24.7131C24.8811 24.1714 25.0388 24.1062 25.1588 23.9862C25.2788 23.8697 25.344 23.712 25.344 23.5405C25.344 23.1942 25.0628 22.9097 24.7131 22.9097H23.8971V24.1714Z" fill="#727EFF"/>
<path d="M21.3531 24.3187C21.3531 26.0776 22.7862 27.5107 24.5451 27.5107C26.3039 27.5107 27.7371 26.0776 27.7371 24.3187C27.7371 22.5599 26.3039 21.1267 24.5451 21.1267C22.7862 21.1267 21.3531 22.5599 21.3531 24.3187ZM25.6868 23.5404C25.6868 23.8044 25.5839 24.0479 25.3988 24.2296C25.3577 24.2707 25.3097 24.3084 25.2617 24.3427C25.5188 24.5176 25.6868 24.8124 25.6868 25.145C25.6868 25.409 25.5839 25.6524 25.3988 25.8341C25.2171 26.0159 24.9737 26.1187 24.7131 26.1187H24.5451V26.3416C24.5451 26.4376 24.4697 26.513 24.3737 26.513C24.2777 26.513 24.2022 26.4376 24.2022 26.3416V26.1187H23.7257H23.3314C23.2354 26.1187 23.1599 26.0433 23.1599 25.9473C23.1599 25.8513 23.2354 25.7759 23.3314 25.7759H23.5542V24.3427V22.9096H23.3314C23.2354 22.9096 23.1599 22.8341 23.1599 22.7381C23.1599 22.6421 23.2354 22.5667 23.3314 22.5667H23.7257H24.1131V22.3027C24.1131 22.2067 24.1885 22.1313 24.2845 22.1313C24.3805 22.1313 24.4559 22.2067 24.4559 22.3027V22.5667H24.7131C25.2514 22.5667 25.6868 23.0021 25.6868 23.5404Z" fill="#727EFF"/>
<path d="M19.6114 24.3187C19.6114 27.041 21.8262 29.2524 24.5451 29.2524C27.264 29.2524 29.4788 27.0376 29.4788 24.3187C29.4788 21.5999 27.264 19.385 24.5451 19.385C21.8262 19.385 19.6114 21.5999 19.6114 24.3187ZM28.08 24.3187C28.08 26.2662 26.496 27.8536 24.5451 27.8536C22.5942 27.8536 21.0102 26.2696 21.0102 24.3187C21.0102 22.3679 22.5942 20.7839 24.5451 20.7839C26.496 20.7839 28.08 22.3713 28.08 24.3187Z" fill="#727EFF"/>
<path d="M23.8971 25.7725H24.7131C24.8811 25.7725 25.0388 25.7073 25.1588 25.5873C25.2788 25.4707 25.344 25.313 25.344 25.1416C25.344 24.7953 25.0628 24.5107 24.7131 24.5107H23.8971V25.7725Z" fill="#727EFF"/>
<path d="M18.5211 23.6776C18.5211 25.1965 19.2137 26.5953 20.3554 27.5142C19.6765 26.6262 19.2685 25.5222 19.2685 24.3188C19.2685 21.4079 21.6343 19.0422 24.5451 19.0422C24.7988 19.0422 25.0491 19.0662 25.296 19.1005C24.7165 18.8673 24.096 18.7439 23.4548 18.7439C20.736 18.7439 18.5211 20.9588 18.5211 23.6776Z" fill="#727EFF"/>
</svg>
