<svg width="48" height="48" viewBox="0 0 48 48" fill="none" xmlns="http://www.w3.org/2000/svg">
<rect width="48" height="48" rx="4" fill="#727EFF" fill-opacity="0.15"/>
<g clip-path="url(#clip0_10_430)">
<path fill-rule="evenodd" clip-rule="evenodd" d="M23.5362 28.7427V35.6436C22.7506 35.6127 21.985 35.5041 21.2467 35.3249C20.2401 33.4087 19.5035 31.4044 19.037 29.358C20.5229 28.9827 22.0287 28.7777 23.5362 28.7427ZM24.4639 28.7427C25.9713 28.7777 27.4772 28.9827 28.963 29.358C28.4966 31.4039 27.7599 33.4085 26.7534 35.3249C26.0151 35.5041 25.2494 35.6127 24.4639 35.6436V28.7427ZM18.1397 29.606C18.5594 31.4312 19.1865 33.2246 20.0208 34.9545C17.8743 34.1734 16.0218 32.7797 14.6747 30.985C15.8089 30.418 16.9668 29.9582 18.1397 29.606ZM29.8603 29.606C31.033 29.9582 32.1911 30.418 33.3253 30.985C31.9782 32.7797 30.1257 34.1734 27.9793 34.9545C28.8138 33.2239 29.4411 31.4305 29.8603 29.606ZM17.5067 24.4639C17.5331 25.876 17.6792 27.2871 17.9456 28.6831C16.6567 29.0669 15.384 29.5756 14.1396 30.2086C13.0817 28.5327 12.4391 26.5697 12.3564 24.4639H17.5067ZM33.5297 24.4639H35.6436C35.5609 26.5697 34.9183 28.5327 33.8604 30.2086C32.6162 29.5759 31.3438 29.0673 30.0544 28.6833C30.1105 28.3892 30.1614 28.0945 30.2067 27.7991C31.9431 27.5824 33.3196 26.2016 33.5297 24.4639ZM24.4639 26.2159H26.6077C27.2167 27.073 28.1696 27.6682 29.2646 27.8008C29.2306 28.013 29.194 28.2247 29.1543 28.436C27.6052 28.046 26.0353 27.8336 24.4639 27.7987V26.2159ZM19.4056 24.4639C19.4935 24.8795 19.7004 25.2646 20.0058 25.5695C20.4181 25.9825 20.981 26.2159 21.5677 26.2159H23.5362V27.7987C21.9648 27.8334 20.3948 28.0458 18.8457 28.4357C18.5993 27.1214 18.4634 25.7934 18.4377 24.4639H19.4056ZM22.2397 25.2884H21.5677C21.2274 25.2884 20.9007 25.1532 20.6612 24.9132C20.4202 24.6727 20.285 24.346 20.285 24.0057V23.9943C20.285 23.654 20.4202 23.3273 20.6602 23.0875C20.9007 22.8468 21.2274 22.7116 21.5677 22.7116H27.1293C27.6041 21.7561 28.5902 21.0986 29.7289 21.0986C31.3302 21.0986 32.63 22.3987 32.63 24C32.63 25.6014 31.3302 26.9014 29.7289 26.9014C28.5902 26.9014 27.6041 26.2439 27.1293 25.2884H25.5453V24.7863C25.5453 24.5304 25.3376 24.3225 25.0817 24.3225C24.8255 24.3225 24.6178 24.5304 24.6178 24.7863V25.2884H23.1671V24.7863C23.1671 24.5304 22.9595 24.3225 22.7035 24.3225C22.4476 24.3225 22.2397 24.5304 22.2397 24.7863V25.2884ZM29.7655 22.5075C28.9416 22.5075 28.273 23.1762 28.273 24C28.273 24.8239 28.9416 25.4925 29.7655 25.4925C30.5891 25.4925 31.2578 24.8239 31.2578 24C31.2578 23.1762 30.5891 22.5075 29.7655 22.5075ZM29.7655 23.4397C30.0746 23.4397 30.3256 23.6909 30.3256 24C30.3256 24.3092 30.0746 24.5603 29.7655 24.5603C29.4561 24.5603 29.2052 24.3092 29.2052 24C29.2052 23.6909 29.4561 23.4397 29.7655 23.4397ZM12.3564 23.5362C12.4391 21.4303 13.0817 19.4673 14.1396 17.7914C15.3838 18.4242 16.6562 18.9327 17.9456 19.3167C17.6792 20.7125 17.5331 22.1235 17.5067 23.5362H12.3564ZM19.4056 23.5362H18.4377C18.4634 22.2064 18.5993 20.8783 18.8457 19.5641C20.3948 19.954 21.9648 20.1664 23.5362 20.2014V21.7842H21.5677C20.9812 21.7842 20.4183 22.0173 20.0039 22.4324C19.7002 22.7356 19.4935 23.1203 19.4056 23.5362ZM30.2067 20.2009C30.1614 19.9055 30.1105 19.6109 30.0544 19.3169C31.3433 18.9332 32.616 18.4244 33.8604 17.7914C34.9183 19.4673 35.5609 21.4303 35.6436 23.5362H33.5297C33.3194 21.798 31.9428 20.4174 30.2067 20.2009ZM24.4639 21.7842V20.2014C26.0353 20.1667 27.6052 19.9542 29.1543 19.5643C29.194 19.7755 29.2308 19.9873 29.2646 20.1992C28.1696 20.3318 27.2167 20.9271 26.6077 21.7842H24.4639ZM24.4639 12.3564C25.2494 12.3873 26.0151 12.4959 26.7534 12.6751C27.7599 14.5913 28.4966 16.5957 28.963 18.6421C27.4772 19.0173 25.9713 19.2223 24.4639 19.2573V12.3564ZM23.5362 12.3564V19.2573C22.0287 19.2223 20.5229 19.0173 19.037 18.6421C19.5035 16.5961 20.2401 14.5915 21.2467 12.6751C21.985 12.4959 22.7506 12.3873 23.5362 12.3564ZM27.9793 13.0456C30.1257 13.8266 31.9782 15.2203 33.3253 17.0151C32.1911 17.582 31.0332 18.0418 29.8603 18.394C29.4406 16.5688 28.8136 14.7755 27.9793 13.0456ZM20.0208 13.0456C19.1862 14.7762 18.5589 16.5695 18.1397 18.394C16.9671 18.0418 15.8089 17.582 14.6747 17.0151C16.0218 15.2203 17.8743 13.8266 20.0208 13.0456Z" fill="#727EFF"/>
</g>
<defs>
<clipPath id="clip0_10_430">
<rect width="24" height="24" fill="white" transform="translate(12 12)"/>
</clipPath>
</defs>
</svg>
