<svg width="1440" height="632" viewBox="0 0 1440 632" fill="none" xmlns="http://www.w3.org/2000/svg">
<g opacity="0.7" clip-path="url(#clip0_5_356)">
<g clip-path="url(#clip1_5_356)">
<rect width="1" height="534" transform="translate(0 48)" fill="#222222"/>
<rect width="1" height="534" transform="translate(31 48)" fill="#222222"/>
<rect width="1" height="534" transform="translate(62 48)" fill="#222222"/>
<rect width="1" height="534" transform="translate(93 48)" fill="#222222"/>
<rect width="1" height="534" transform="translate(124 48)" fill="#222222"/>
<rect width="1" height="534" transform="translate(155 48)" fill="#222222"/>
<rect width="1" height="534" transform="translate(186 48)" fill="#222222"/>
<rect width="1" height="534" transform="translate(217 48)" fill="#222222"/>
<rect width="1" height="534" transform="translate(248 48)" fill="#222222"/>
<rect width="1" height="534" transform="translate(279 48)" fill="#222222"/>
<rect width="1" height="534" transform="translate(310 48)" fill="#222222"/>
<rect width="1" height="534" transform="translate(341 48)" fill="#222222"/>
<rect width="1" height="534" transform="translate(372 48)" fill="#222222"/>
<rect width="1" height="534" transform="translate(403 48)" fill="#222222"/>
<rect width="1" height="534" transform="translate(434 48)" fill="#222222"/>
<rect width="1" height="534" transform="translate(465 48)" fill="#222222"/>
<rect width="1" height="534" transform="translate(496 48)" fill="#222222"/>
<rect width="1" height="534" transform="translate(527 48)" fill="#222222"/>
<rect width="1" height="534" transform="translate(558 48)" fill="#222222"/>
<rect width="1" height="534" transform="translate(589 48)" fill="#222222"/>
<rect width="1" height="534" transform="translate(620 48)" fill="#222222"/>
<rect width="1" height="534" transform="translate(651 48)" fill="#222222"/>
<rect width="1" height="534" transform="translate(682 48)" fill="#222222"/>
<rect width="1" height="534" transform="translate(713 48)" fill="#222222"/>
<rect width="1" height="534" transform="translate(744 48)" fill="#222222"/>
<rect width="1" height="534" transform="translate(775 48)" fill="#222222"/>
<rect width="1" height="534" transform="translate(806 48)" fill="#222222"/>
<rect width="1" height="534" transform="translate(837 48)" fill="#222222"/>
<rect width="1" height="534" transform="translate(868 48)" fill="#222222"/>
<rect width="1" height="534" transform="translate(899 48)" fill="#222222"/>
<rect width="1" height="534" transform="translate(930 48)" fill="#222222"/>
<rect width="1" height="534" transform="translate(961 48)" fill="#222222"/>
<rect width="1" height="534" transform="translate(992 48)" fill="#222222"/>
<rect width="1" height="534" transform="translate(1023 48)" fill="#222222"/>
<rect width="1" height="534" transform="translate(1054 48)" fill="#222222"/>
<rect width="1" height="534" transform="translate(1085 48)" fill="#222222"/>
<rect width="1" height="534" transform="translate(1116 48)" fill="#222222"/>
<rect width="1" height="534" transform="translate(1147 48)" fill="#222222"/>
<rect width="1" height="534" transform="translate(1178 48)" fill="#222222"/>
<rect width="1" height="534" transform="translate(1209 48)" fill="#222222"/>
<rect width="1" height="534" transform="translate(1240 48)" fill="#222222"/>
<rect width="1" height="534" transform="translate(1271 48)" fill="#222222"/>
<rect width="1" height="534" transform="translate(1302 48)" fill="#222222"/>
<rect width="1" height="534" transform="translate(1333 48)" fill="#222222"/>
<rect width="1" height="534" transform="translate(1364 48)" fill="#222222"/>
<rect width="1" height="534" transform="translate(1395 48)" fill="#222222"/>
<rect width="1" height="534" transform="translate(1426 48)" fill="#222222"/>
<rect width="1.00003" height="1440" transform="translate(1440 31) rotate(90)" fill="#222222"/>
<rect width="1.00003" height="1440" transform="translate(1440 62) rotate(90)" fill="#222222"/>
<rect width="1.00003" height="1440" transform="translate(1440 93) rotate(90)" fill="#222222"/>
<rect width="1.00003" height="1440" transform="translate(1440 124) rotate(90)" fill="#222222"/>
<rect width="1.00003" height="1440" transform="translate(1440 155) rotate(90)" fill="#222222"/>
<rect width="1.00003" height="1440" transform="translate(1440 186) rotate(90)" fill="#222222"/>
<rect width="1.00003" height="1440" transform="translate(1440 217) rotate(90)" fill="#222222"/>
<rect width="1.00003" height="1440" transform="translate(1440 248) rotate(90)" fill="#222222"/>
<rect width="1.00003" height="1440" transform="translate(1440 279) rotate(90)" fill="#222222"/>
<rect width="1.00003" height="1440" transform="translate(1440 310) rotate(90)" fill="#222222"/>
<rect width="1.00003" height="1440" transform="translate(1440 341) rotate(90)" fill="#222222"/>
<rect width="1.00003" height="1440" transform="translate(1440 372) rotate(90)" fill="#222222"/>
<rect width="1.00003" height="1440" transform="translate(1440 403) rotate(90)" fill="#222222"/>
<rect width="1.00003" height="1440" transform="translate(1440 434) rotate(90)" fill="#222222"/>
<rect width="1.00003" height="1440" transform="translate(1440 465) rotate(90)" fill="#222222"/>
<rect width="1.00003" height="1440" transform="translate(1440 496) rotate(90)" fill="#222222"/>
<rect width="1.00003" height="1440" transform="translate(1440 527) rotate(90)" fill="#222222"/>
<rect width="1.00003" height="1440" transform="translate(1440 558) rotate(90)" fill="#222222"/>
<rect width="1.00003" height="1440" transform="translate(1440 589) rotate(90)" fill="#222222"/>
</g>
<rect y="432" width="1440" height="200" fill="url(#paint0_linear_5_356)"/>
<rect width="1438" height="200" transform="matrix(1 0 0 -1 1 200)" fill="url(#paint1_linear_5_356)"/>
<rect width="632" height="200" transform="matrix(0 1 1 0 1240 0)" fill="url(#paint2_linear_5_356)"/>
<rect x="200" width="632" height="200" transform="rotate(90 200 0)" fill="url(#paint3_linear_5_356)"/>
</g>
<defs>
<linearGradient id="paint0_linear_5_356" x1="720" y1="432" x2="720" y2="632" gradientUnits="userSpaceOnUse">
<stop stop-color="#101010" stop-opacity="0"/>
<stop offset="1" stop-color="#101010"/>
</linearGradient>
<linearGradient id="paint1_linear_5_356" x1="719" y1="0" x2="719" y2="200" gradientUnits="userSpaceOnUse">
<stop stop-color="#101010" stop-opacity="0"/>
<stop offset="1" stop-color="#101010"/>
</linearGradient>
<linearGradient id="paint2_linear_5_356" x1="316" y1="0" x2="316" y2="200" gradientUnits="userSpaceOnUse">
<stop stop-color="#101010" stop-opacity="0"/>
<stop offset="1" stop-color="#101010"/>
</linearGradient>
<linearGradient id="paint3_linear_5_356" x1="516" y1="0" x2="516" y2="200" gradientUnits="userSpaceOnUse">
<stop stop-color="#101010" stop-opacity="0"/>
<stop offset="1" stop-color="#101010"/>
</linearGradient>
<clipPath id="clip0_5_356">
<rect width="1440" height="632" fill="white"/>
</clipPath>
<clipPath id="clip1_5_356">
<rect width="1440" height="606" fill="white" transform="translate(0 12)"/>
</clipPath>
</defs>
</svg>
