<svg width="48" height="48" viewBox="0 0 48 48" fill="none" xmlns="http://www.w3.org/2000/svg">
<rect width="48" height="48" rx="4" fill="#72F1FF" fill-opacity="0.15"/>
<path d="M13.5 19.0049V24.9149C13.4836 26.1046 13.7629 27.2796 14.3126 28.3347C14.8624 29.3898 15.6656 30.2918 16.65 30.9599L22.815 34.9049C23.1692 35.1303 23.5802 35.25 24 35.25C24.4198 35.25 24.8308 35.1303 25.185 34.9049L31.35 30.9599C32.3344 30.2918 33.1376 29.3898 33.6873 28.3347C34.2371 27.2796 34.5164 26.1046 34.5 24.9149V19.0049C34.5081 18.4644 34.3241 17.9385 33.9807 17.521C33.6374 17.1034 33.1569 16.8213 32.625 16.7249C31.1937 16.4971 29.8069 16.0467 28.515 15.3899C27.4244 14.8261 26.4068 14.1309 25.485 13.3199C25.0768 12.9542 24.548 12.752 24 12.752C23.4519 12.752 22.9232 12.9542 22.515 13.3199C21.5932 14.1309 20.5756 14.8261 19.485 15.3899C18.193 16.0467 16.8063 16.4971 15.375 16.7249C14.8431 16.8213 14.3626 17.1034 14.0192 17.521C13.6759 17.9385 13.4919 18.4644 13.5 19.0049ZM27.75 26.2499H22.065L22.275 26.4749C22.346 26.5427 22.4026 26.6241 22.4412 26.7144C22.4799 26.8046 22.4998 26.9018 22.4998 26.9999C22.4998 27.0981 22.4799 27.1953 22.4412 27.2855C22.4026 27.3757 22.346 27.4572 22.275 27.5249C22.2073 27.596 22.1258 27.6526 22.0356 27.6912C21.9453 27.7298 21.8482 27.7498 21.75 27.7498C21.6518 27.7498 21.5547 27.7298 21.4644 27.6912C21.3742 27.6526 21.2927 27.596 21.225 27.5249L19.725 26.0249C19.6166 25.9239 19.5424 25.7916 19.5128 25.6464C19.4832 25.5012 19.4997 25.3503 19.56 25.2149C19.6161 25.0778 19.7116 24.9605 19.8344 24.8777C19.9572 24.7949 20.1019 24.7504 20.25 24.7499H27.75C27.9489 24.7499 28.1397 24.829 28.2803 24.9696C28.421 25.1103 28.5 25.301 28.5 25.4999C28.5 25.6989 28.421 25.8896 28.2803 26.0303C28.1397 26.1709 27.9489 26.2499 27.75 26.2499ZM20.25 21.7499H25.935L25.725 21.5249C25.6549 21.4563 25.5991 21.3744 25.5609 21.284C25.5226 21.1936 25.5027 21.0965 25.5022 20.9984C25.5017 20.9003 25.5207 20.803 25.558 20.7122C25.5953 20.6215 25.6503 20.539 25.7197 20.4696C25.7891 20.4002 25.8715 20.3453 25.9623 20.3079C26.053 20.2706 26.1503 20.2517 26.2484 20.2521C26.3466 20.2526 26.4436 20.2726 26.534 20.3108C26.6244 20.3491 26.7063 20.4049 26.775 20.4749L28.275 21.9749C28.3834 22.076 28.4576 22.2083 28.4872 22.3535C28.5168 22.4987 28.5003 22.6496 28.44 22.7849C28.3839 22.922 28.2884 23.0394 28.1656 23.1222C28.0428 23.205 27.8981 23.2494 27.75 23.2499H20.25C20.0511 23.2499 19.8603 23.1709 19.7197 23.0303C19.579 22.8896 19.5 22.6989 19.5 22.4999C19.5 22.301 19.579 22.1103 19.7197 21.9696C19.8603 21.829 20.0511 21.7499 20.25 21.7499Z" fill="#72F1FF"/>
</svg>
