<svg width="49" height="48" viewBox="0 0 49 48" fill="none" xmlns="http://www.w3.org/2000/svg">
<rect x="0.5" width="48" height="48" rx="4" fill="#72F1FF" fill-opacity="0.15"/>
<path d="M30.8105 18.0309C30.1526 15.4317 27.8007 13.5 25 13.5C22.1993 13.5 19.8474 15.4317 19.1895 18.0309C16.5576 18.3117 14.5 20.5446 14.5 23.25C14.5 26.0344 16.6808 28.3131 19.4228 28.4834C19.1551 27.5218 19 26.5229 19 25.5C19 25.0994 19.156 24.7229 19.4395 24.4395L20.9395 22.9395C21.2229 22.656 21.5994 22.5 22 22.5H28C28.4006 22.5 28.7771 22.656 29.0605 22.9395L30.5605 24.4395C30.844 24.7229 31 25.0994 31 25.5C31 26.5229 30.845 27.5218 30.5773 28.4834C33.3192 28.3131 35.5 26.0344 35.5 23.25C35.5 20.5446 33.4424 18.3117 30.8105 18.0309Z" fill="#72F1FF"/>
<path d="M20.7704 31.5H18.8618C18.5512 30.6289 17.7265 30 16.75 30C15.5093 30 14.5 31.0093 14.5 32.25C14.5 33.4907 15.5093 34.5 16.75 34.5C17.7265 34.5 18.5512 33.8711 18.8618 33H21.9281C21.4974 32.5312 21.1112 32.0296 20.7704 31.5Z" fill="#72F1FF"/>
<path d="M33.25 30C32.2735 30 31.4488 30.6289 31.1382 31.5H29.2296C28.8888 32.0296 28.5026 32.5312 28.0719 33H31.1382C31.4488 33.8711 32.2735 34.5 33.25 34.5C34.4907 34.5 35.5 33.4907 35.5 32.25C35.5 31.0093 34.4907 30 33.25 30Z" fill="#72F1FF"/>
<path d="M30.0303 24.9697L28.5303 23.4697C28.3896 23.3291 28.1989 23.25 28 23.25H22C21.8011 23.25 21.6104 23.3291 21.4697 23.4697L19.9697 24.9697C19.8291 25.1104 19.75 25.3011 19.75 25.5C19.75 28.5831 21.1083 31.4835 23.4769 33.457L24.5199 34.326C24.6591 34.4421 24.8293 34.5 25 34.5C25.1707 34.5 25.3409 34.4421 25.4801 34.326L26.5231 33.457C28.8917 31.4835 30.25 28.5831 30.25 25.5C30.25 25.3011 30.1709 25.1104 30.0303 24.9697ZM27.8901 26.8901L24.8901 29.8901C24.8169 29.9634 24.7209 30 24.625 30C24.5291 30 24.4331 29.9634 24.3599 29.8901L22.8599 28.3901C22.7134 28.2437 22.7134 28.0063 22.8599 27.8599C23.0063 27.7134 23.2437 27.7134 23.3901 27.8599L24.625 29.0947L27.3599 26.3599C27.5063 26.2134 27.7437 26.2134 27.8901 26.3599C28.0366 26.5063 28.0366 26.7437 27.8901 26.8901Z" fill="#72F1FF"/>
</svg>
