<svg width="48" height="48" viewBox="0 0 48 48" fill="none" xmlns="http://www.w3.org/2000/svg">
<rect width="48" height="48" rx="4" fill="#72F1FF" fill-opacity="0.15"/>
<path d="M14.625 20.25C14.8313 20.25 15 20.4188 15 20.625C14.9948 21.6027 15.3558 22.5714 15.99 23.3062C16.1437 23.1075 16.32 22.9275 16.5187 22.77C16.0237 22.1737 15.75 21.42 15.75 20.625C15.75 20.4188 15.9188 20.25 16.125 20.25C16.3312 20.25 16.5 20.4188 16.5 20.625C16.5 21.2812 16.74 21.8963 17.175 22.3762C17.4413 22.26 17.7263 22.1812 18.0263 22.1437C16.5724 21.1078 17.3118 18.7446 19.125 18.75C19.8788 18.75 20.5575 19.2 20.8537 19.8937C20.9325 20.085 20.8425 20.3062 20.655 20.385C20.46 20.4675 20.2425 20.3775 20.16 20.1862C19.6935 19.0697 17.998 19.4152 18 20.625C17.9718 21.5991 19.2527 22.1305 19.92 21.4199C20.0663 21.2737 20.3063 21.2737 20.4525 21.42C20.6954 21.6615 20.4949 21.9811 20.25 22.125H21.3975C21.3825 22.0425 21.39 21.9525 21.435 21.8737C21.6413 21.4912 21.75 21.06 21.75 20.625C21.75 20.4187 21.9188 20.25 22.125 20.25C22.867 20.2947 22.337 21.7269 22.1475 22.125H22.965C23.1571 21.801 23.0663 21.0831 23.61 21.165C24.0778 21.2767 23.8632 21.81 23.7637 22.125H25.5V16.125C25.5 14.8837 24.4912 13.875 23.25 13.875H15C13.7588 13.875 12.75 14.8837 12.75 16.125V24.375C12.7466 25.7893 14.0045 26.7721 15.375 26.625C15.3966 25.9044 15.2717 24.6454 15.6 23.9925C14.7389 23.0977 14.2433 21.8714 14.25 20.625C14.25 20.4188 14.4188 20.25 14.625 20.25ZM19.125 18C18.0675 18 17.1188 18.63 16.7063 19.605C16.5132 20.0566 15.8242 19.7619 16.0163 19.3125C16.545 18.06 17.7675 17.25 19.125 17.25C19.3313 17.25 19.5 17.4188 19.5 17.625C19.5 17.8312 19.3313 18 19.125 18ZM21.8963 17.0587C22.035 16.905 22.2713 16.8975 22.425 17.0362C23.295 17.8387 23.8463 18.9262 23.9737 20.1C23.9925 20.3062 23.8463 20.49 23.64 20.5125C23.4394 20.5403 23.2467 20.3868 23.2275 20.1788C23.1188 19.1887 22.6537 18.2662 21.915 17.5875C21.765 17.4487 21.7538 17.2125 21.8963 17.0587ZM19.9463 17.715C20.0287 17.5237 20.25 17.4337 20.4375 17.5162C21.195 17.835 21.81 18.42 22.1663 19.1625C22.3761 19.6054 21.7091 19.9254 21.4913 19.4887C21.2138 18.9112 20.7375 18.4537 20.145 18.2062C19.9575 18.1237 19.8675 17.9062 19.9463 17.715ZM14.4675 19.1737C15.105 17.1262 16.9763 15.75 19.125 15.75C19.3313 15.75 19.5 15.9188 19.5 16.125C19.5 16.3312 19.3313 16.5 19.125 16.5C17.3063 16.5 15.7238 17.6662 15.1838 19.3987C15.0296 19.8686 14.3319 19.6463 14.4675 19.1737Z" fill="#72F1FF"/>
<path d="M31.2979 22.8751C31.2979 21.8412 30.4571 21.0002 29.4233 21.0002C26.9417 21.0883 26.9423 24.6622 29.4233 24.7499C30.4571 24.7499 31.2979 23.9089 31.2979 22.8751Z" fill="#72F1FF"/>
<path d="M28.125 25.5862C30.134 26.5817 32.1886 24.8194 33.1087 23.5649C33.4238 23.16 33.4238 22.59 33.1088 22.185C32.4375 21.3225 31.0688 19.875 29.4225 19.875C27.7763 19.875 26.4075 21.3225 25.7363 22.185C25.9988 22.2412 26.25 22.335 26.4863 22.4512C27.0413 21.78 28.1775 20.625 29.4225 20.625C30.7988 20.625 32.0438 22.0387 32.5163 22.6462C32.625 22.7812 32.625 22.9687 32.5163 23.1037C31.7281 24.1582 29.8752 25.9118 28.0988 24.7237C28.137 24.9611 28.1224 25.3422 28.125 25.5862Z" fill="#72F1FF"/>
<path d="M33 16.5H26.25V17.25H33C33.8288 17.25 34.5 17.9212 34.5 18.75V27C34.5 27.8287 33.8288 28.5 33 28.5H28.125V29.25H33C34.2413 29.25 35.25 28.2413 35.25 27V18.75C35.25 17.5087 34.2413 16.5 33 16.5Z" fill="#72F1FF"/>
<path d="M25.125 22.875H18.375C17.1343 22.875 16.125 23.8843 16.125 25.125V31.875C16.125 33.1157 17.1343 34.125 18.375 34.125H25.125C26.3657 34.125 27.375 33.1157 27.375 31.875V25.125C27.375 23.8843 26.3657 22.875 25.125 22.875ZM26.625 31.875C26.625 32.7023 25.9523 33.375 25.125 33.375H18.375C17.5479 33.375 16.875 32.7023 16.875 31.875V25.125C16.875 24.2979 17.5479 23.625 18.375 23.625H25.125C25.9523 23.625 26.625 24.2979 26.625 25.125V31.875Z" fill="#72F1FF"/>
<path d="M23.8176 26.1233L20.9714 29.2856L19.6553 27.9698C18.9482 27.2847 17.9085 28.3212 18.5948 29.0303C18.5947 29.0303 20.4697 30.9053 20.4697 30.9053C20.7591 31.2069 21.2846 31.1932 21.5576 30.8767C21.5576 30.8768 24.9324 27.1268 24.9324 27.1268C25.5784 26.3844 24.491 25.4008 23.8176 26.1233Z" fill="#72F1FF"/>
</svg>
