<svg width="49" height="48" viewBox="0 0 49 48" fill="none" xmlns="http://www.w3.org/2000/svg">
<rect x="0.5" width="48" height="48" rx="4" fill="#72F1FF" fill-opacity="0.15"/>
<path fill-rule="evenodd" clip-rule="evenodd" d="M14.7812 24.3657V30.6777H16.7569V24.3657H14.7812ZM21.8032 18.2054C21.8032 19.9709 23.2345 21.4022 25 21.4022C26.7655 21.4022 28.1968 19.9709 28.1968 18.2054C28.1968 16.4398 26.7655 15.0085 25 15.0085C23.2345 15.0085 21.8032 16.4398 21.8032 18.2054ZM23.2457 18.343C23.0851 18.1239 23.1325 17.8162 23.3515 17.6556C23.5706 17.4951 23.8783 17.5424 24.0389 17.7615L24.6225 18.5553L25.9612 16.7345C26.1218 16.5155 26.4295 16.4681 26.6486 16.6286C26.8676 16.7892 26.915 17.0969 26.7545 17.316L25.0255 19.6676C24.8325 19.9365 24.428 19.9515 24.2259 19.6762L23.2457 18.343ZM29.7074 19.3534C29.5884 19.8428 29.395 20.3031 29.14 20.7218L29.5378 21.1196C29.6943 21.276 29.6943 21.5313 29.5378 21.6878L28.4825 22.7431C28.326 22.8996 28.0707 22.8996 27.9143 22.7431L27.5167 22.3455C27.098 22.6006 26.6375 22.794 26.148 22.913V23.4747C26.148 23.696 25.9675 23.8765 25.7462 23.8765H24.2538C24.0325 23.8765 23.852 23.696 23.852 23.4747V22.9127C23.3625 22.7938 22.9022 22.6003 22.4836 22.3454L22.0858 22.7431C21.9293 22.8996 21.674 22.8996 21.5176 22.7431L20.4623 21.6878C20.3058 21.5314 20.3058 21.2761 20.4623 21.1196L20.8598 20.722C20.6047 20.3033 20.4114 19.8429 20.2923 19.3534H19.7306C19.5093 19.3534 19.3288 19.1729 19.3288 18.9516V17.4591C19.3288 17.2379 19.5093 17.0573 19.7306 17.0573H20.2923C20.4113 16.5678 20.6047 16.1074 20.8598 15.6887L20.4622 15.2911C20.3057 15.1347 20.3057 14.8794 20.4622 14.7229L21.5175 13.6676C21.674 13.5111 21.9293 13.5111 22.0857 13.6676L22.4834 14.0653C22.9021 13.8103 23.3625 13.6169 23.8519 13.498V12.936C23.8519 12.7147 24.0325 12.5342 24.2537 12.5342H25.7462C25.9675 12.5342 26.148 12.7147 26.148 12.936V13.4977C26.6375 13.6167 27.0979 13.8101 27.5166 14.0652L27.9142 13.6676C28.0706 13.5111 28.3259 13.5111 28.4824 13.6676L29.5377 14.7229C29.6942 14.8793 29.6942 15.1346 29.5377 15.2911L29.14 15.6888C29.395 16.1075 29.5884 16.5678 29.7073 17.0573H30.2693C30.4906 17.0573 30.6711 17.2379 30.6711 17.4591V18.9516C30.6711 19.1729 30.4906 19.3534 30.2693 19.3534H29.7073H29.7074ZM25 14.446C27.076 14.446 28.7593 16.1293 28.7593 18.2054C28.7593 20.2814 27.076 21.9647 25 21.9647C22.924 21.9647 21.2407 20.2814 21.2407 18.2054C21.2407 16.1293 22.924 14.446 25 14.446ZM33.2431 24.3657V30.6777H35.2188V24.3657H33.2431ZM31.1747 30.0388C31.3687 29.9006 31.4944 29.8044 31.7313 29.7286C31.8799 29.6811 32.0327 29.6579 32.1937 29.6579H32.6827V25.3854C32.4223 25.3854 30.4399 25.3942 30.3578 25.3798L27.2103 24.9112C26.7879 24.8483 26.4158 24.9437 26.0766 25.2028L25.1557 25.9062L25.1556 25.9061L25.1551 25.9064L25.1552 25.9065L23.6339 27.0685C23.3367 27.2955 23.5096 27.7497 23.7087 28.0104C23.9067 28.2697 24.3029 28.5554 24.5978 28.3302L25.9765 27.2771C26.4359 26.9262 27.0584 26.9282 27.5159 27.2811L29.8083 29.0493L31.0966 29.9764C31.1244 29.9964 31.1503 30.0172 31.1746 30.0388H31.1747ZM17.3173 29.6579V25.3854H19.586L22.7742 24.9145C23.1978 24.8516 23.5747 24.9493 23.9133 25.2106L24.5244 25.6822L23.2934 26.6225C22.1537 27.493 23.8055 29.6416 24.9385 28.7762L26.3172 27.7231C26.5754 27.5259 26.9156 27.5262 27.1732 27.7249L29.4652 29.4927C29.4704 29.4967 29.4758 29.5006 29.4812 29.5042L30.7693 30.4312C31.1943 30.7371 30.428 31.7049 30.0873 31.4597L30.0872 31.4599L27.4208 29.5123C27.2958 29.4213 27.1207 29.4488 27.0297 29.5738C26.9387 29.6988 26.9663 29.8739 27.0912 29.9649L29.7601 31.9143L29.7599 31.9145C30.24 32.2601 29.4757 33.229 29.0781 32.9429L28.7217 32.6865L28.7216 32.6867L26.1354 30.7977C26.0104 30.7067 25.8353 30.7342 25.7443 30.8592C25.6533 30.9841 25.6809 31.1593 25.8058 31.2502L28.3945 33.141L28.3944 33.1413C28.8072 33.4383 28.0858 34.4383 27.6742 34.1421L27.366 33.9202L27.3658 33.9204L25.1313 32.2883C25.0064 32.1973 24.8313 32.2248 24.7403 32.3498C24.6493 32.4748 24.6768 32.6499 24.8018 32.7409L27.0387 34.3747L27.0386 34.375C27.4514 34.6722 26.7301 35.6722 26.3183 35.3759L25.0642 34.4734C25.09 33.9029 24.5731 33.3113 24.0243 33.1537C24.2433 32.4706 23.5072 31.6191 22.7935 31.5797C22.7477 30.7375 21.5728 29.8684 20.8767 30.5638L20.8761 30.5632L20.6751 30.7643C20.4071 30.0606 19.4605 29.4786 18.8504 30.0544L18.6889 29.9396C18.2259 29.6104 17.8519 29.6579 17.3174 29.6579L17.3173 29.6579ZM20.0976 31.3419C20.4564 30.9831 19.585 30.1124 19.2265 30.4709L19.227 30.4714L18.4809 31.2176C18.2201 31.4783 18.5638 31.9345 18.8663 32.0966C19.0338 32.1863 19.2149 32.2092 19.3379 32.1017L20.0976 31.3419ZM20.5527 33.423L22.1448 31.8311C22.503 31.4729 21.6316 30.6022 21.2732 30.9605L21.2738 30.9611L19.6824 32.5527C19.3239 32.9112 20.1942 33.7816 20.5527 33.4231V33.423ZM22.5421 32.2292L21.2609 33.5103C20.9024 33.8688 21.7729 34.7392 22.1313 34.3808L23.1461 33.3661L23.146 33.3659L23.4125 33.0997C23.771 32.7412 22.9007 31.8706 22.5421 32.2292ZM23.5509 33.7568L22.7826 34.5249C22.6084 34.7127 22.7886 35.0403 22.9629 35.2146C23.142 35.3936 23.4717 35.5779 23.6687 35.381L23.6681 35.3804L24.4143 34.6342C24.7703 34.2782 23.9144 33.4166 23.5509 33.7568Z" fill="#72F1FF"/>
</svg>
