<svg width="48" height="48" viewBox="0 0 48 48" fill="none" xmlns="http://www.w3.org/2000/svg">
<rect width="48" height="48" rx="4" fill="#727EFF" fill-opacity="0.15"/>
<path fill-rule="evenodd" clip-rule="evenodd" d="M23.8855 12.0061C21.5516 11.9299 19.1933 12.5648 17.1575 13.9255C14.8714 15.4537 13.2731 17.7095 12.5375 20.2295C12.3339 20.2065 12.0905 20.2182 11.8019 20.2999C10.7221 20.6057 9.91061 21.4895 9.54571 22.2685C9.07244 23.2818 8.87284 24.625 9.08375 26.0087C9.29284 27.3924 9.87631 28.5309 10.6061 29.2377C11.3377 29.9427 12.1646 30.1744 12.9856 29.9996C14.208 29.7413 14.8141 29.5457 14.643 28.4072L13.8143 22.8863C13.9814 19.8967 15.5282 17.0837 18.115 15.3563C21.5775 13.0439 26.1183 13.1917 29.421 15.7252C31.7187 17.4887 33.0546 20.1288 33.2068 22.8994L32.627 26.7597C31.3349 30.2981 28.1307 32.7484 24.4226 33.0958H21.9537C21.3173 33.0958 20.8043 33.6074 20.8043 34.2437V34.8502C20.8043 35.4866 21.3173 36 21.9537 36H25.0667C25.7034 36 26.2146 35.4866 26.2146 34.8502V34.5346C29.0112 33.8504 31.4531 32.1324 33.0404 29.7376L34.038 30C34.8496 30.2109 35.6859 29.9431 36.4175 29.2381C37.1473 28.5313 37.7308 27.3928 37.9399 26.0091C38.1508 24.6254 37.9457 23.2855 37.4779 22.2689C37.0087 21.2505 36.3092 20.6046 35.5013 20.3743C35.163 20.2773 34.7963 20.2397 34.4807 20.2317C33.8158 17.9507 32.4453 15.8773 30.4708 14.3612C28.5284 12.8728 26.219 12.0842 23.8855 12.0061Z" fill="#727EFF"/>
<path fill-rule="evenodd" clip-rule="evenodd" d="M25.8866 20.5373H27.6388V23.8305H28.4409V25.0715H27.6388V26.3242H26.069V25.0715H23.7388V23.8305L25.8866 20.5373ZM20.8521 20.5373C21.4717 20.5373 21.9752 20.7026 22.365 21.0332C22.7565 21.366 22.9521 21.8068 22.9521 22.3581C22.9521 23.004 22.6481 23.5232 22.1938 23.8615L20.7649 24.9255H22.9864V26.3242H18.5813V25.0131L20.3431 23.7075C20.7495 23.405 20.9948 23.1408 21.1031 22.9642C21.4224 22.4417 21.3159 21.8181 20.7229 21.8181C20.3047 21.8181 20.0712 22.1465 20.0216 22.8044L18.5813 22.5231C18.6875 21.852 18.948 21.3558 19.3659 21.0295C19.7862 20.7008 20.2821 20.5373 20.8521 20.5373ZM23.5111 15.5312C19.1363 15.5312 15.6111 18.9387 15.6111 23.4317C15.6111 25.5889 16.4262 27.493 17.7548 28.892L17.2834 31.0069C17.1276 31.7028 17.6103 32.1702 18.2354 31.8203L20.2993 30.6687C21.2801 31.0945 22.365 31.3299 23.5111 31.3299C27.888 31.3299 31.4115 27.9228 31.4115 23.4313C31.4115 18.939 27.888 15.5312 23.5111 15.5312Z" fill="#727EFF"/>
<path fill-rule="evenodd" clip-rule="evenodd" d="M26.069 22.1279L24.9875 23.8309H26.069V22.1279Z" fill="#727EFF"/>
</svg>
