<svg width="48" height="48" viewBox="0 0 48 48" fill="none" xmlns="http://www.w3.org/2000/svg">
<rect width="48" height="48" rx="4" fill="#727EFF" fill-opacity="0.15"/>
<path d="M22.5 28.1325V26.25H18.75C18.5511 26.25 18.3603 26.171 18.2197 26.0303C18.079 25.8897 18 25.6989 18 25.5C18 25.3011 18.079 25.1103 18.2197 24.9697C18.3603 24.829 18.5511 24.75 18.75 24.75H22.635C22.747 24.4355 22.9276 24.1498 23.1637 23.9137C23.3998 23.6776 23.6855 23.497 24 23.385L28.125 21.885C28.6216 21.7045 29.1659 21.7045 29.6625 21.885L30.7725 22.29V15.75C30.7725 15.1533 30.5354 14.581 30.1135 14.159C29.6915 13.7371 29.1192 13.5 28.5225 13.5H16.5C15.9033 13.5 15.331 13.7371 14.909 14.159C14.4871 14.581 14.25 15.1533 14.25 15.75V32.25C14.25 32.8467 14.4871 33.419 14.909 33.841C15.331 34.2629 15.9033 34.5 16.5 34.5H25.59C24.6287 33.7398 23.8515 32.7724 23.3165 31.6698C22.7814 30.5672 22.5023 29.358 22.5 28.1325ZM18.75 17.25H26.25C26.4489 17.25 26.6397 17.329 26.7803 17.4697C26.921 17.6103 27 17.8011 27 18C27 18.1989 26.921 18.3897 26.7803 18.5303C26.6397 18.671 26.4489 18.75 26.25 18.75H18.75C18.5511 18.75 18.3603 18.671 18.2197 18.5303C18.079 18.3897 18 18.1989 18 18C18 17.8011 18.079 17.6103 18.2197 17.4697C18.3603 17.329 18.5511 17.25 18.75 17.25ZM18.75 21H26.25C26.4489 21 26.6397 21.079 26.7803 21.2197C26.921 21.3603 27 21.5511 27 21.75C27 21.9489 26.921 22.1397 26.7803 22.2803C26.6397 22.421 26.4489 22.5 26.25 22.5H18.75C18.5511 22.5 18.3603 22.421 18.2197 22.2803C18.079 22.1397 18 21.9489 18 21.75C18 21.5511 18.079 21.3603 18.2197 21.2197C18.3603 21.079 18.5511 21 18.75 21ZM21 30.75H18.75C18.5511 30.75 18.3603 30.671 18.2197 30.5303C18.079 30.3897 18 30.1989 18 30C18 29.8011 18.079 29.6103 18.2197 29.4697C18.3603 29.329 18.5511 29.25 18.75 29.25H21C21.1989 29.25 21.3897 29.329 21.5303 29.4697C21.671 29.6103 21.75 29.8011 21.75 30C21.75 30.1989 21.671 30.3897 21.5303 30.5303C21.3897 30.671 21.1989 30.75 21 30.75ZM33.255 24.795L29.13 23.295C28.9652 23.2354 28.7848 23.2354 28.62 23.295L24.495 24.795C24.35 24.8474 24.2248 24.9432 24.1362 25.0693C24.0476 25.1955 24.0001 25.3459 24 25.5V28.1325C24.0034 29.492 24.4237 30.8178 25.2043 31.9309C25.9848 33.0441 27.088 33.891 28.365 34.3575C28.527 34.4229 28.7003 34.456 28.875 34.455C29.0489 34.4548 29.2215 34.4243 29.385 34.365C30.662 33.8962 31.7648 33.0477 32.5452 31.9335C33.3255 30.8193 33.746 29.4928 33.75 28.1325V25.5C33.7499 25.3459 33.7024 25.1955 33.6138 25.0693C33.5252 24.9432 33.4 24.8474 33.255 24.795ZM31.2825 28.2825L29.0325 30.5325C28.9628 30.6028 28.8798 30.6586 28.7884 30.6967C28.697 30.7347 28.599 30.7543 28.5 30.7543C28.401 30.7543 28.303 30.7347 28.2116 30.6967C28.1202 30.6586 28.0372 30.6028 27.9675 30.5325L26.4675 29.0325C26.3263 28.8913 26.2469 28.6997 26.2469 28.5C26.2469 28.3003 26.3263 28.1087 26.4675 27.9675C26.6087 27.8263 26.8003 27.7469 27 27.7469C27.1997 27.7469 27.3913 27.8263 27.5325 27.9675L28.5 28.9425L30.2175 27.2175C30.3587 27.0763 30.5503 26.9969 30.75 26.9969C30.9497 26.9969 31.1413 27.0763 31.2825 27.2175C31.4237 27.3587 31.5031 27.5503 31.5031 27.75C31.5031 27.9497 31.4237 28.1413 31.2825 28.2825Z" fill="#727EFF"/>
</svg>
