<svg width="48" height="48" viewBox="0 0 48 48" fill="none" xmlns="http://www.w3.org/2000/svg">
<rect width="48" height="48" rx="4" fill="#727EFF" fill-opacity="0.15"/>
<path d="M33.4286 12H29.7962C29.3228 12 28.939 12.3838 28.939 12.8571C28.939 13.3305 29.3228 13.7143 29.7962 13.7143H33.4286C33.9011 13.7143 34.2857 14.0989 34.2857 14.5714V18.1862C34.2857 18.6596 34.6695 19.0434 35.1429 19.0434C35.6162 19.0434 36 18.6596 36 18.1862V14.5714C36 13.1535 34.8465 12 33.4286 12Z" fill="#727EFF"/>
<path d="M12.8571 19.0434C13.3305 19.0434 13.7143 18.6596 13.7143 18.1862V14.5714C13.7143 14.0989 14.0989 13.7143 14.5714 13.7143H18.1691C18.6424 13.7143 19.0262 13.3305 19.0262 12.8571C19.0262 12.3838 18.6424 12 18.1691 12H14.5714C13.1535 12 12 13.1535 12 14.5714V18.1862C12 18.6596 12.3838 19.0434 12.8571 19.0434Z" fill="#727EFF"/>
<path d="M35.1429 28.9566C34.6695 28.9566 34.2857 29.3404 34.2857 29.8138V33.4286C34.2857 33.9011 33.9011 34.2857 33.4286 34.2857H29.7962C29.3228 34.2857 28.939 34.6695 28.939 35.1429C28.939 35.6162 29.3228 36 29.7962 36H33.4286C34.8465 36 36 34.8465 36 33.4286V29.8138C36 29.3404 35.6162 28.9566 35.1429 28.9566Z" fill="#727EFF"/>
<path d="M14.5714 36H18.1691C18.6424 36 19.0262 35.6162 19.0262 35.1429C19.0262 34.6695 18.6424 34.2857 18.1691 34.2857H14.5714C14.0989 34.2857 13.7143 33.9011 13.7143 33.4286V29.8138C13.7143 29.3404 13.3305 28.9566 12.8571 28.9566C12.3838 28.9566 12 29.3404 12 29.8138V33.4286C12 34.8465 13.1535 36 14.5714 36Z" fill="#727EFF"/>
<path d="M32.0052 27.9831C32.34 27.6483 32.34 27.1055 32.0052 26.7711C31.6703 26.4362 31.1279 26.4362 30.7931 26.7711L28.523 29.0412L27.4926 28.0107C27.1578 27.6759 26.6154 27.6759 26.2806 28.0107C25.9457 28.3451 25.9457 28.888 26.2806 29.2228L27.917 30.8597C28.0777 31.0204 28.2958 31.1108 28.523 31.1108C28.7503 31.1108 28.9683 31.0204 29.129 30.8597L32.0052 27.9831Z" fill="#727EFF"/>
<path d="M17.2371 26.7085L16.6885 28.6371C16.5172 29.22 16.6371 29.8286 16.9972 30.3171C17.3657 30.7971 17.9228 31.0714 18.5314 31.0714H25.7057L25.0714 30.4372C24.06 29.4343 24.06 27.8057 25.0714 26.7943C26.0143 25.86 27.5057 25.8 28.5172 26.6229L29.58 25.56C29.7085 25.44 29.8457 25.3286 29.9828 25.2343C29.3314 24.4628 28.4057 23.9486 27.3771 23.82C27.9343 23.0914 28.2857 22.2 28.2857 21.2057C28.2857 18.8486 26.3657 16.9286 24 16.9286C21.6343 16.9286 19.7143 18.8486 19.7143 21.2057C19.7143 22.2 20.0657 23.0914 20.6229 23.82C19.0372 24.0172 17.6829 25.14 17.2371 26.7085Z" fill="#727EFF"/>
</svg>
