<svg width="48" height="48" viewBox="0 0 48 48" fill="none" xmlns="http://www.w3.org/2000/svg">
<rect width="48" height="48" rx="4" fill="#727EFF" fill-opacity="0.15"/>
<path d="M29.8105 18.0309C29.1526 15.4317 26.8007 13.5 24 13.5C21.1993 13.5 18.8474 15.4317 18.1895 18.0309C15.5576 18.3117 13.5 20.5446 13.5 23.25C13.5 26.0344 15.6808 28.3131 18.4228 28.4834C18.1551 27.5218 18 26.5229 18 25.5C18 25.0994 18.156 24.7229 18.4395 24.4395L19.9395 22.9395C20.2229 22.656 20.5994 22.5 21 22.5H27C27.4006 22.5 27.7771 22.656 28.0605 22.9395L29.5605 24.4395C29.844 24.7229 30 25.0994 30 25.5C30 26.5229 29.845 27.5218 29.5773 28.4834C32.3192 28.3131 34.5 26.0344 34.5 23.25C34.5 20.5446 32.4424 18.3117 29.8105 18.0309Z" fill="#727EFF"/>
<path d="M19.7704 31.5H17.8618C17.5512 30.6289 16.7265 30 15.75 30C14.5093 30 13.5 31.0093 13.5 32.25C13.5 33.4907 14.5093 34.5 15.75 34.5C16.7265 34.5 17.5512 33.8711 17.8618 33H20.9281C20.4974 32.5312 20.1112 32.0296 19.7704 31.5Z" fill="#727EFF"/>
<path d="M32.25 30C31.2736 30 30.4488 30.6289 30.1382 31.5H28.2297C27.8889 32.0296 27.5026 32.5312 27.0719 33H30.1383C30.4489 33.8711 31.2736 34.5 32.25 34.5C33.4908 34.5 34.5 33.4907 34.5 32.25C34.5 31.0093 33.4908 30 32.25 30Z" fill="#727EFF"/>
<path d="M29.0303 24.9697L27.5303 23.4697C27.3896 23.3291 27.1989 23.25 27 23.25H21C20.8011 23.25 20.6104 23.3291 20.4697 23.4697L18.9697 24.9697C18.8291 25.1104 18.75 25.3011 18.75 25.5C18.75 28.5831 20.1083 31.4835 22.4769 33.457L23.5199 34.326C23.6591 34.4421 23.8293 34.5 24 34.5C24.1707 34.5 24.3409 34.4421 24.4801 34.326L25.5231 33.457C27.8917 31.4835 29.25 28.5831 29.25 25.5C29.25 25.3011 29.1709 25.1104 29.0303 24.9697ZM26.8901 26.8901L23.8901 29.8901C23.8169 29.9634 23.7209 30 23.625 30C23.5291 30 23.4331 29.9634 23.3599 29.8901L21.8599 28.3901C21.7134 28.2437 21.7134 28.0063 21.8599 27.8599C22.0063 27.7134 22.2437 27.7134 22.3901 27.8599L23.625 29.0947L26.3599 26.3599C26.5063 26.2134 26.7437 26.2134 26.8901 26.3599C27.0366 26.5063 27.0366 26.7437 26.8901 26.8901Z" fill="#727EFF"/>
</svg>
