<svg width="48" height="48" viewBox="0 0 48 48" fill="none" xmlns="http://www.w3.org/2000/svg">
<rect width="48" height="48" rx="4" fill="#727EFF" fill-opacity="0.15"/>
<g clip-path="url(#clip0_10_831)">
<path d="M28.5381 22.4932C28.7712 22.4932 29.0094 22.5038 29.2212 22.5251V17.9645L22.4149 14.6221L15.6085 17.9539V24.8397C15.6085 26.1692 16.6148 28.0602 17.7112 28.8071L21.5781 31.4396C21.4349 30.8729 21.3556 30.2796 21.3556 29.6704C21.3607 25.7137 24.5814 22.4932 28.5381 22.4932Z" fill="#727EFF"/>
<path d="M28.5434 23.3408C25.0527 23.3408 22.2136 26.1799 22.2136 29.6704C22.2136 33.1611 25.0527 36.0002 28.5434 36.0002C32.0339 36.0002 34.873 33.1664 34.873 29.6757C34.873 26.1852 32.0339 23.3408 28.5434 23.3408ZM30.5508 29.4745C30.466 29.5646 30.3549 29.6069 30.2437 29.6069C30.1377 29.6069 30.0423 29.5699 29.9577 29.4957L29.0094 28.6058V31.662C29.0094 31.8951 28.8188 32.0859 28.5857 32.0859C28.3526 32.0859 28.162 31.8951 28.162 31.662V28.6058L27.1979 29.4957C27.0284 29.6547 26.753 29.644 26.5887 29.4745C26.4247 29.3049 26.4404 29.0348 26.61 28.8759L28.2784 27.3239C28.4427 27.1703 28.6917 27.1703 28.856 27.3239L30.5244 28.8759C30.6991 29.0348 30.7097 29.3049 30.5508 29.4745Z" fill="#727EFF"/>
<path d="M17.2346 29.5115C15.8998 28.5951 14.7609 26.4604 14.7609 24.8396V17.6889C14.7609 17.5247 14.8616 17.3817 15.0046 17.3075L22.2349 13.7692C22.3513 13.711 22.489 13.711 22.6056 13.7692L29.8304 17.3182C29.9734 17.387 30.0635 17.5353 30.0635 17.6994V22.6573C30.6462 22.7791 31.1759 22.9646 31.6525 23.2081V16.9421C31.6525 16.6401 31.4831 16.3592 31.2129 16.2268L22.775 12.0795C22.5579 11.9735 22.2931 11.9735 22.0759 12.0795L13.6221 16.2164C13.3521 16.3488 13.1719 16.6295 13.1719 16.9314V24.8449C13.1719 26.9901 14.5703 29.6173 16.3394 30.8251L21.9752 34.6654C22.1076 34.7553 22.2612 34.8031 22.4255 34.8031C22.5897 34.8031 22.738 34.7553 22.8704 34.6654L23.183 34.4535C22.7433 33.9608 22.3726 33.41 22.0812 32.8167L17.2346 29.5115Z" fill="#727EFF"/>
</g>
<defs>
<clipPath id="clip0_10_831">
<rect width="24" height="24" fill="white" transform="translate(12 12)"/>
</clipPath>
</defs>
</svg>
