<svg width="1440" height="1552" viewBox="0 0 1440 1552" fill="none" xmlns="http://www.w3.org/2000/svg">
<g opacity="0.2" clip-path="url(#clip0_10_1187)">
<rect width="1" height="2718.34" transform="matrix(0.707352 -0.706861 0.707352 0.706861 -1592.61 528.6)" fill="#242424"/>
<rect width="1" height="2718.34" transform="matrix(0.707352 -0.706861 0.707352 0.706861 -580.46 132.817)" fill="#242424"/>
<rect width="1" height="2718.34" transform="matrix(0.707352 -0.706861 0.707352 0.706861 579.922 -117.152)" fill="#242424"/>
<rect width="1" height="2718.34" transform="matrix(0.707352 -0.706861 0.707352 0.706861 -1589.57 517.269)" fill="#242424"/>
<rect width="1" height="2718.34" transform="matrix(0.707352 -0.706861 0.707352 0.706861 -577.426 121.486)" fill="#242424"/>
<rect width="1" height="2718.34" transform="matrix(0.707352 -0.706861 0.707352 0.706861 582.955 -128.482)" fill="#242424"/>
<rect width="1" height="2718.34" transform="matrix(0.707352 -0.706861 0.707352 0.706861 -1586.54 505.938)" fill="#242424"/>
<rect width="1" height="2718.34" transform="matrix(0.707352 -0.706861 0.707352 0.706861 -574.392 110.155)" fill="#242424"/>
<rect width="1" height="2718.34" transform="matrix(0.707352 -0.706861 0.707352 0.706861 585.99 -139.813)" fill="#242424"/>
<rect width="1" height="2718.34" transform="matrix(0.707352 -0.706861 0.707352 0.706861 -1583.51 494.606)" fill="#242424"/>
<rect width="1" height="2718.34" transform="matrix(0.707352 -0.706861 0.707352 0.706861 -571.358 98.8232)" fill="#242424"/>
<rect width="1" height="2718.34" transform="matrix(0.707352 -0.706861 0.707352 0.706861 589.023 -151.145)" fill="#242424"/>
<rect width="1" height="2718.34" transform="matrix(0.707352 -0.706861 0.707352 0.706861 -1580.47 483.275)" fill="#242424"/>
<rect width="1" height="2718.34" transform="matrix(0.707352 -0.706861 0.707352 0.706861 -568.324 87.4917)" fill="#242424"/>
<rect width="1" height="2718.34" transform="matrix(0.707352 -0.706861 0.707352 0.706861 592.057 -162.477)" fill="#242424"/>
<rect width="1" height="2718.34" transform="matrix(0.707352 -0.706861 0.707352 0.706861 -1577.44 471.944)" fill="#242424"/>
<rect width="1" height="2718.34" transform="matrix(0.707352 -0.706861 0.707352 0.706861 -565.29 76.1606)" fill="#242424"/>
<rect width="1" height="2718.34" transform="matrix(0.707352 -0.706861 0.707352 0.706861 595.091 -173.808)" fill="#242424"/>
<rect width="1" height="2718.34" transform="matrix(0.707352 -0.706861 0.707352 0.706861 -1574.41 460.613)" fill="#242424"/>
<rect width="1" height="2718.34" transform="matrix(0.707352 -0.706861 0.707352 0.706861 -562.256 64.8301)" fill="#242424"/>
<rect width="1" height="2718.34" transform="matrix(0.707352 -0.706861 0.707352 0.706861 598.125 -185.139)" fill="#242424"/>
<rect width="1" height="2718.34" transform="matrix(0.707352 -0.706861 0.707352 0.706861 -1571.37 449.282)" fill="#242424"/>
<rect width="1" height="2718.34" transform="matrix(0.707352 -0.706861 0.707352 0.706861 -559.223 53.499)" fill="#242424"/>
<rect width="1" height="2718.34" transform="matrix(0.707352 -0.706861 0.707352 0.706861 601.159 -196.469)" fill="#242424"/>
<rect width="1" height="2718.34" transform="matrix(0.707352 -0.706861 0.707352 0.706861 -1568.34 437.951)" fill="#242424"/>
<rect width="1" height="2718.34" transform="matrix(0.707352 -0.706861 0.707352 0.706861 -556.188 42.167)" fill="#242424"/>
<rect width="1" height="2718.34" transform="matrix(0.707352 -0.706861 0.707352 0.706861 604.193 -207.801)" fill="#242424"/>
<rect width="1" height="2718.34" transform="matrix(0.707352 -0.706861 0.707352 0.706861 -1565.3 426.619)" fill="#242424"/>
<rect width="1" height="2718.34" transform="matrix(0.707352 -0.706861 0.707352 0.706861 -553.155 30.8364)" fill="#242424"/>
<rect width="1" height="2718.34" transform="matrix(0.707352 -0.706861 0.707352 0.706861 607.227 -219.132)" fill="#242424"/>
<rect width="1" height="2718.34" transform="matrix(0.707352 -0.706861 0.707352 0.706861 -1562.27 415.289)" fill="#242424"/>
<rect width="1" height="2718.34" transform="matrix(0.707352 -0.706861 0.707352 0.706861 -550.12 19.5049)" fill="#242424"/>
<rect width="1" height="2718.34" transform="matrix(0.707352 -0.706861 0.707352 0.706861 610.261 -230.463)" fill="#242424"/>
<rect width="1" height="2718.34" transform="matrix(0.707352 -0.706861 0.707352 0.706861 -1559.24 403.957)" fill="#242424"/>
<rect width="1" height="2718.34" transform="matrix(0.707352 -0.706861 0.707352 0.706861 -547.087 8.17383)" fill="#242424"/>
<rect width="1" height="2718.34" transform="matrix(0.707352 -0.706861 0.707352 0.706861 613.294 -241.794)" fill="#242424"/>
<rect width="1" height="2718.34" transform="matrix(0.707352 -0.706861 0.707352 0.706861 -1556.2 392.625)" fill="#242424"/>
<rect width="1" height="2718.34" transform="matrix(0.707352 -0.706861 0.707352 0.706861 -544.053 -3.15771)" fill="#242424"/>
<rect width="1" height="2718.34" transform="matrix(0.707352 -0.706861 0.707352 0.706861 616.328 -253.125)" fill="#242424"/>
<rect width="1" height="2718.34" transform="matrix(0.707352 -0.706861 0.707352 0.706861 -1553.17 381.295)" fill="#242424"/>
<rect width="1" height="2718.34" transform="matrix(0.707352 -0.706861 0.707352 0.706861 -541.019 -14.4888)" fill="#242424"/>
<rect width="1" height="2718.34" transform="matrix(0.707352 -0.706861 0.707352 0.706861 619.362 -264.458)" fill="#242424"/>
<rect width="1" height="2718.34" transform="matrix(0.707352 -0.706861 0.707352 0.706861 -1550.13 369.964)" fill="#242424"/>
<rect width="1" height="2718.34" transform="matrix(0.707352 -0.706861 0.707352 0.706861 -537.985 -25.8198)" fill="#242424"/>
<rect width="1" height="2718.34" transform="matrix(0.707352 -0.706861 0.707352 0.706861 622.396 -275.788)" fill="#242424"/>
<rect width="1" height="2718.34" transform="matrix(0.707352 -0.706861 0.707352 0.706861 -1547.1 358.632)" fill="#242424"/>
<rect width="1" height="2718.34" transform="matrix(0.707352 -0.706861 0.707352 0.706861 -534.951 -37.1509)" fill="#242424"/>
<rect width="1" height="2718.34" transform="matrix(0.707352 -0.706861 0.707352 0.706861 625.43 -287.119)" fill="#242424"/>
<rect width="1" height="2718.34" transform="matrix(0.707352 -0.706861 0.707352 0.706861 -1544.07 347.301)" fill="#242424"/>
<rect width="1" height="2718.34" transform="matrix(0.707352 -0.706861 0.707352 0.706861 -531.917 -48.4819)" fill="#242424"/>
<rect width="1" height="2718.34" transform="matrix(0.707352 -0.706861 0.707352 0.706861 628.464 -298.45)" fill="#242424"/>
<rect width="1" height="2718.34" transform="matrix(0.707352 -0.706861 0.707352 0.706861 -1541.03 335.97)" fill="#242424"/>
<rect width="1" height="2718.34" transform="matrix(0.707352 -0.706861 0.707352 0.706861 -528.883 -59.8125)" fill="#242424"/>
<rect width="1" height="2718.34" transform="matrix(0.707352 -0.706861 0.707352 0.706861 631.498 -309.781)" fill="#242424"/>
<rect width="1" height="2718.34" transform="matrix(0.707352 -0.706861 0.707352 0.706861 -1538 324.639)" fill="#242424"/>
<rect width="1" height="2718.34" transform="matrix(0.707352 -0.706861 0.707352 0.706861 -525.85 -71.1445)" fill="#242424"/>
<rect width="1" height="2718.34" transform="matrix(0.707352 -0.706861 0.707352 0.706861 634.532 -321.113)" fill="#242424"/>
<rect width="1" height="2718.34" transform="matrix(0.707352 -0.706861 0.707352 0.706861 -1534.96 313.308)" fill="#242424"/>
<rect width="1" height="2718.34" transform="matrix(0.707352 -0.706861 0.707352 0.706861 -522.815 -82.4751)" fill="#242424"/>
<rect width="1" height="2718.34" transform="matrix(0.707352 -0.706861 0.707352 0.706861 637.566 -332.444)" fill="#242424"/>
<rect width="1" height="2718.34" transform="matrix(0.707352 -0.706861 0.707352 0.706861 -1531.93 301.976)" fill="#242424"/>
<rect width="1" height="2718.34" transform="matrix(0.707352 -0.706861 0.707352 0.706861 -519.782 -93.8066)" fill="#242424"/>
<rect width="1" height="2718.34" transform="matrix(0.707352 -0.706861 0.707352 0.706861 640.599 -343.775)" fill="#242424"/>
<rect width="1" height="2718.34" transform="matrix(0.707352 -0.706861 0.707352 0.706861 -1528.9 290.645)" fill="#242424"/>
<rect width="1" height="2718.34" transform="matrix(0.707352 -0.706861 0.707352 0.706861 -516.747 -105.138)" fill="#242424"/>
<rect width="1" height="2718.34" transform="matrix(0.707352 -0.706861 0.707352 0.706861 643.634 -355.106)" fill="#242424"/>
<rect width="1" height="2718.34" transform="matrix(0.707352 -0.706861 0.707352 0.706861 -1525.86 279.314)" fill="#242424"/>
<rect width="1" height="2718.34" transform="matrix(0.707352 -0.706861 0.707352 0.706861 -513.714 -116.469)" fill="#242424"/>
<rect width="1" height="2718.34" transform="matrix(0.707352 -0.706861 0.707352 0.706861 646.668 -366.437)" fill="#242424"/>
<rect width="1" height="2718.34" transform="matrix(0.707352 -0.706861 0.707352 0.706861 -1522.83 267.983)" fill="#242424"/>
<rect width="1" height="2718.34" transform="matrix(0.707352 -0.706861 0.707352 0.706861 -510.68 -127.8)" fill="#242424"/>
<rect width="1" height="2718.34" transform="matrix(0.707352 -0.706861 0.707352 0.706861 649.701 -377.769)" fill="#242424"/>
<rect width="1" height="2718.34" transform="matrix(0.707352 -0.706861 0.707352 0.706861 -1516.76 245.32)" fill="#242424"/>
<rect width="1" height="2718.34" transform="matrix(0.707352 -0.706861 0.707352 0.706861 -504.612 -150.463)" fill="#242424"/>
<rect width="1" height="2718.34" transform="matrix(0.707352 -0.706861 0.707352 0.706861 655.769 -400.431)" fill="#242424"/>
<rect width="1" height="2718.34" transform="matrix(0.707352 -0.706861 0.707352 0.706861 -1519.79 256.651)" fill="#242424"/>
<rect width="1" height="2718.34" transform="matrix(0.707352 -0.706861 0.707352 0.706861 -507.646 -139.131)" fill="#242424"/>
<rect width="1" height="2718.34" transform="matrix(0.707352 -0.706861 0.707352 0.706861 652.736 -389.1)" fill="#242424"/>
<rect width="1" height="2718.34" transform="matrix(0.707352 -0.706861 0.707352 0.706861 -1513.73 233.989)" fill="#242424"/>
<rect width="1" height="2718.34" transform="matrix(0.707352 -0.706861 0.707352 0.706861 -501.578 -161.795)" fill="#242424"/>
<rect width="1" height="2718.34" transform="matrix(0.707352 -0.706861 0.707352 0.706861 658.803 -411.762)" fill="#242424"/>
<rect width="1" height="2718.34" transform="matrix(0.707352 -0.706861 0.707352 0.706861 -1510.69 222.658)" fill="#242424"/>
<rect width="1" height="2718.34" transform="matrix(0.707352 -0.706861 0.707352 0.706861 -498.544 -173.126)" fill="#242424"/>
<rect width="1" height="2718.34" transform="matrix(0.707352 -0.706861 0.707352 0.706861 661.837 -423.094)" fill="#242424"/>
<rect width="1" height="2718.34" transform="matrix(0.707352 -0.706861 0.707352 0.706861 -1507.66 211.327)" fill="#242424"/>
<rect width="1" height="2718.34" transform="matrix(0.707352 -0.706861 0.707352 0.706861 -495.51 -184.457)" fill="#242424"/>
<rect width="1" height="2718.34" transform="matrix(0.707352 -0.706861 0.707352 0.706861 664.871 -434.425)" fill="#242424"/>
<rect width="1" height="2718.34" transform="matrix(0.707352 -0.706861 0.707352 0.706861 -1504.63 199.995)" fill="#242424"/>
<rect width="1" height="2718.34" transform="matrix(0.707352 -0.706861 0.707352 0.706861 -492.476 -195.788)" fill="#242424"/>
<rect width="1" height="2718.34" transform="matrix(0.707352 -0.706861 0.707352 0.706861 667.905 -445.756)" fill="#242424"/>
<rect width="1" height="2718.34" transform="matrix(0.707352 -0.706861 0.707352 0.706861 -1501.59 188.664)" fill="#242424"/>
<rect width="1" height="2718.34" transform="matrix(0.707352 -0.706861 0.707352 0.706861 -489.442 -207.119)" fill="#242424"/>
<rect width="1" height="2718.34" transform="matrix(0.707352 -0.706861 0.707352 0.706861 670.939 -457.087)" fill="#242424"/>
<rect width="1" height="2718.34" transform="matrix(0.707352 -0.706861 0.707352 0.706861 -1498.56 177.333)" fill="#242424"/>
<rect width="1" height="2718.34" transform="matrix(0.707352 -0.706861 0.707352 0.706861 -486.409 -218.45)" fill="#242424"/>
<rect width="1" height="2718.34" transform="matrix(0.707352 -0.706861 0.707352 0.706861 673.972 -468.418)" fill="#242424"/>
<rect width="1" height="2718.34" transform="matrix(0.707352 -0.706861 0.707352 0.706861 -1495.52 166.002)" fill="#242424"/>
<rect width="1" height="2718.34" transform="matrix(0.707352 -0.706861 0.707352 0.706861 -483.374 -229.781)" fill="#242424"/>
<rect width="1" height="2718.34" transform="matrix(0.707352 -0.706861 0.707352 0.706861 677.007 -479.749)" fill="#242424"/>
<rect width="1" height="2718.34" transform="matrix(0.707352 -0.706861 0.707352 0.706861 -1492.49 154.671)" fill="#242424"/>
<rect width="1" height="2718.34" transform="matrix(0.707352 -0.706861 0.707352 0.706861 -480.341 -241.112)" fill="#242424"/>
<rect width="1" height="2718.34" transform="matrix(0.707352 -0.706861 0.707352 0.706861 680.041 -491.081)" fill="#242424"/>
<rect width="1" height="2718.34" transform="matrix(0.707352 -0.706861 0.707352 0.706861 -1489.46 143.34)" fill="#242424"/>
<rect width="1" height="2718.34" transform="matrix(0.707352 -0.706861 0.707352 0.706861 -477.307 -252.444)" fill="#242424"/>
<rect width="1" height="2718.34" transform="matrix(0.707352 -0.706861 0.707352 0.706861 683.074 -502.412)" fill="#242424"/>
<rect width="1" height="2718.34" transform="matrix(0.707352 -0.706861 0.707352 0.706861 -1486.42 132.008)" fill="#242424"/>
<rect width="1" height="2718.34" transform="matrix(0.707352 -0.706861 0.707352 0.706861 -474.273 -263.775)" fill="#242424"/>
<rect width="1" height="2718.34" transform="matrix(0.707352 -0.706861 0.707352 0.706861 686.108 -513.743)" fill="#242424"/>
<rect width="1" height="2718.34" transform="matrix(0.707352 -0.706861 0.707352 0.706861 -1483.39 120.677)" fill="#242424"/>
<rect width="1" height="2718.34" transform="matrix(0.707352 -0.706861 0.707352 0.706861 -471.239 -275.106)" fill="#242424"/>
<rect width="1" height="2718.34" transform="matrix(0.707352 -0.706861 0.707352 0.706861 689.143 -525.075)" fill="#242424"/>
<rect width="1" height="2718.34" transform="matrix(0.707352 -0.706861 0.707352 0.706861 -1480.35 109.346)" fill="#242424"/>
<rect width="1" height="2718.34" transform="matrix(0.707352 -0.706861 0.707352 0.706861 -468.205 -286.438)" fill="#242424"/>
<rect width="1" height="2718.34" transform="matrix(0.707352 -0.706861 0.707352 0.706861 692.177 -536.406)" fill="#242424"/>
<rect width="1" height="2718.34" transform="matrix(0.707352 -0.706861 0.707352 0.706861 -1477.32 98.0142)" fill="#242424"/>
<rect width="1" height="2718.34" transform="matrix(0.707352 -0.706861 0.707352 0.706861 -465.171 -297.769)" fill="#242424"/>
<rect width="1" height="2718.34" transform="matrix(0.707352 -0.706861 0.707352 0.706861 695.211 -547.737)" fill="#242424"/>
<rect width="1" height="2718.34" transform="matrix(0.707352 -0.706861 0.707352 0.706861 -1474.29 86.6831)" fill="#242424"/>
<rect width="1" height="2718.34" transform="matrix(0.707352 -0.706861 0.707352 0.706861 -462.137 -309.1)" fill="#242424"/>
<rect width="1" height="2718.34" transform="matrix(0.707352 -0.706861 0.707352 0.706861 698.244 -559.068)" fill="#242424"/>
<rect width="1" height="2718.34" transform="matrix(0.707352 -0.706861 0.707352 0.706861 -1471.25 75.3521)" fill="#242424"/>
<rect width="1" height="2718.34" transform="matrix(0.707352 -0.706861 0.707352 0.706861 -459.103 -320.432)" fill="#242424"/>
<rect width="1" height="2718.34" transform="matrix(0.707352 -0.706861 0.707352 0.706861 701.279 -570.4)" fill="#242424"/>
<rect width="1" height="2718.34" transform="matrix(0.707352 -0.706861 0.707352 0.706861 -1468.22 64.0205)" fill="#242424"/>
<rect width="1" height="2718.34" transform="matrix(0.707352 -0.706861 0.707352 0.706861 -456.069 -331.763)" fill="#242424"/>
<rect width="1" height="2718.34" transform="matrix(0.707352 -0.706861 0.707352 0.706861 704.312 -581.73)" fill="#242424"/>
<rect width="1" height="2718.34" transform="matrix(0.707352 -0.706861 0.707352 0.706861 -1465.18 52.689)" fill="#242424"/>
<rect width="1" height="2718.34" transform="matrix(0.707352 -0.706861 0.707352 0.706861 -453.035 -343.094)" fill="#242424"/>
<rect width="1" height="2718.34" transform="matrix(0.707352 -0.706861 0.707352 0.706861 707.346 -593.062)" fill="#242424"/>
<rect width="1" height="2718.34" transform="matrix(0.707352 -0.706861 0.707352 0.706861 -1462.15 41.3579)" fill="#242424"/>
<rect width="1" height="2718.34" transform="matrix(0.707352 -0.706861 0.707352 0.706861 -450.002 -354.425)" fill="#242424"/>
<rect width="1" height="2718.34" transform="matrix(0.707352 -0.706861 0.707352 0.706861 710.38 -604.394)" fill="#242424"/>
<rect width="1" height="2718.34" transform="matrix(0.707352 -0.706861 0.707352 0.706861 -1459.12 30.0269)" fill="#242424"/>
<rect width="1" height="2718.34" transform="matrix(0.707352 -0.706861 0.707352 0.706861 -446.967 -365.756)" fill="#242424"/>
<rect width="1" height="2718.34" transform="matrix(0.707352 -0.706861 0.707352 0.706861 713.414 -615.725)" fill="#242424"/>
<rect width="1" height="2718.34" transform="matrix(0.707352 -0.706861 0.707352 0.706861 -1456.08 18.6958)" fill="#242424"/>
<rect width="1" height="2718.34" transform="matrix(0.707352 -0.706861 0.707352 0.706861 -443.934 -377.087)" fill="#242424"/>
<rect width="1" height="2718.34" transform="matrix(0.707352 -0.706861 0.707352 0.706861 716.448 -627.055)" fill="#242424"/>
<rect width="1" height="2718.34" transform="matrix(0.707352 -0.706861 0.707352 0.706861 -1453.05 7.36523)" fill="#242424"/>
<rect width="1" height="2718.34" transform="matrix(0.707352 -0.706861 0.707352 0.706861 -440.899 -388.418)" fill="#242424"/>
<rect width="1" height="2718.34" transform="matrix(0.707352 -0.706861 0.707352 0.706861 719.482 -638.387)" fill="#242424"/>
<rect width="1" height="2718.34" transform="matrix(0.707352 -0.706861 0.707352 0.706861 -1450.01 -3.9668)" fill="#242424"/>
<rect width="1" height="2718.34" transform="matrix(0.707352 -0.706861 0.707352 0.706861 -437.866 -399.75)" fill="#242424"/>
<rect width="1" height="2718.34" transform="matrix(0.707352 -0.706861 0.707352 0.706861 722.516 -649.718)" fill="#242424"/>
<rect width="1" height="2718.34" transform="matrix(0.707352 -0.706861 0.707352 0.706861 -1446.98 -15.2983)" fill="#242424"/>
<rect width="1" height="2718.34" transform="matrix(0.707352 -0.706861 0.707352 0.706861 -434.832 -411.081)" fill="#242424"/>
<rect width="1" height="2718.34" transform="matrix(0.707352 -0.706861 0.707352 0.706861 725.549 -661.049)" fill="#242424"/>
<rect width="1" height="2718.34" transform="matrix(0.707352 -0.706861 0.707352 0.706861 -1080.74 336.495)" fill="#242424"/>
<rect width="1" height="2718.34" transform="matrix(0.707352 -0.706861 0.707352 0.706861 -68.5949 -59.2886)" fill="#242424"/>
<rect width="1" height="2718.34" transform="matrix(0.707352 -0.706861 0.707352 0.706861 1091.79 -309.257)" fill="#242424"/>
<rect width="1" height="2718.34" transform="matrix(0.707352 -0.706861 0.707352 0.706861 -1077.71 325.164)" fill="#242424"/>
<rect width="1" height="2718.34" transform="matrix(0.707352 -0.706861 0.707352 0.706861 -65.5612 -70.6201)" fill="#242424"/>
<rect width="1" height="2718.34" transform="matrix(0.707352 -0.706861 0.707352 0.706861 1094.82 -320.588)" fill="#242424"/>
<rect width="1" height="2718.34" transform="matrix(0.707352 -0.706861 0.707352 0.706861 -1074.68 313.832)" fill="#242424"/>
<rect width="1" height="2718.34" transform="matrix(0.707352 -0.706861 0.707352 0.706861 -62.527 -81.9507)" fill="#242424"/>
<rect width="1" height="2718.34" transform="matrix(0.707352 -0.706861 0.707352 0.706861 1097.85 -331.919)" fill="#242424"/>
<rect width="1" height="2718.34" transform="matrix(0.707352 -0.706861 0.707352 0.706861 -1071.64 302.501)" fill="#242424"/>
<rect width="1" height="2718.34" transform="matrix(0.707352 -0.706861 0.707352 0.706861 -59.4933 -93.2817)" fill="#242424"/>
<rect width="1" height="2718.34" transform="matrix(0.707352 -0.706861 0.707352 0.706861 1100.89 -343.25)" fill="#242424"/>
<rect width="1" height="2718.34" transform="matrix(0.707352 -0.706861 0.707352 0.706861 -1068.61 291.17)" fill="#242424"/>
<rect width="1" height="2718.34" transform="matrix(0.707352 -0.706861 0.707352 0.706861 -56.4596 -104.613)" fill="#242424"/>
<rect width="1" height="2718.34" transform="matrix(0.707352 -0.706861 0.707352 0.706861 1103.92 -354.581)" fill="#242424"/>
<rect width="1" height="2718.34" transform="matrix(0.707352 -0.706861 0.707352 0.706861 -1065.57 279.839)" fill="#242424"/>
<rect width="1" height="2718.34" transform="matrix(0.707352 -0.706861 0.707352 0.706861 -53.4253 -115.945)" fill="#242424"/>
<rect width="1" height="2718.34" transform="matrix(0.707352 -0.706861 0.707352 0.706861 1106.96 -365.913)" fill="#242424"/>
<rect width="1" height="2718.34" transform="matrix(0.707352 -0.706861 0.707352 0.706861 -1062.54 268.507)" fill="#242424"/>
<rect width="1" height="2718.34" transform="matrix(0.707352 -0.706861 0.707352 0.706861 -50.3916 -127.275)" fill="#242424"/>
<rect width="1" height="2718.34" transform="matrix(0.707352 -0.706861 0.707352 0.706861 1109.99 -377.244)" fill="#242424"/>
<rect width="1" height="2718.34" transform="matrix(0.707352 -0.706861 0.707352 0.706861 -1059.51 257.177)" fill="#242424"/>
<rect width="1" height="2718.34" transform="matrix(0.707352 -0.706861 0.707352 0.706861 -47.3579 -138.606)" fill="#242424"/>
<rect width="1" height="2718.34" transform="matrix(0.707352 -0.706861 0.707352 0.706861 1113.02 -388.575)" fill="#242424"/>
<rect width="1" height="2718.34" transform="matrix(0.707352 -0.706861 0.707352 0.706861 -1056.47 245.845)" fill="#242424"/>
<rect width="1" height="2718.34" transform="matrix(0.707352 -0.706861 0.707352 0.706861 -44.3236 -149.938)" fill="#242424"/>
<rect width="1" height="2718.34" transform="matrix(0.707352 -0.706861 0.707352 0.706861 1116.06 -399.906)" fill="#242424"/>
<rect width="1" height="2718.34" transform="matrix(0.707352 -0.706861 0.707352 0.706861 -1053.44 234.514)" fill="#242424"/>
<rect width="1" height="2718.34" transform="matrix(0.707352 -0.706861 0.707352 0.706861 -41.2899 -161.27)" fill="#242424"/>
<rect width="1" height="2718.34" transform="matrix(0.707352 -0.706861 0.707352 0.706861 1119.09 -411.238)" fill="#242424"/>
<rect width="1" height="2718.34" transform="matrix(0.707352 -0.706861 0.707352 0.706861 -1050.4 223.183)" fill="#242424"/>
<rect width="1" height="2718.34" transform="matrix(0.707352 -0.706861 0.707352 0.706861 -38.2557 -172.6)" fill="#242424"/>
<rect width="1" height="2718.34" transform="matrix(0.707352 -0.706861 0.707352 0.706861 1122.13 -422.569)" fill="#242424"/>
<rect width="1" height="2718.34" transform="matrix(0.707352 -0.706861 0.707352 0.706861 -1047.37 211.853)" fill="#242424"/>
<rect width="1" height="2718.34" transform="matrix(0.707352 -0.706861 0.707352 0.706861 -35.222 -183.932)" fill="#242424"/>
<rect width="1" height="2718.34" transform="matrix(0.707352 -0.706861 0.707352 0.706861 1125.16 -433.9)" fill="#242424"/>
<rect width="1" height="2718.34" transform="matrix(0.707352 -0.706861 0.707352 0.706861 -1044.34 200.521)" fill="#242424"/>
<rect width="1" height="2718.34" transform="matrix(0.707352 -0.706861 0.707352 0.706861 -32.1882 -195.263)" fill="#242424"/>
<rect width="1" height="2718.34" transform="matrix(0.707352 -0.706861 0.707352 0.706861 1128.19 -445.231)" fill="#242424"/>
<rect width="1" height="2718.34" transform="matrix(0.707352 -0.706861 0.707352 0.706861 -1041.3 189.189)" fill="#242424"/>
<rect width="1" height="2718.34" transform="matrix(0.707352 -0.706861 0.707352 0.706861 -29.1545 -206.594)" fill="#242424"/>
<rect width="1" height="2718.34" transform="matrix(0.707352 -0.706861 0.707352 0.706861 1131.23 -456.562)" fill="#242424"/>
<rect width="1" height="2718.34" transform="matrix(0.707352 -0.706861 0.707352 0.706861 -1038.27 177.858)" fill="#242424"/>
<rect width="1" height="2718.34" transform="matrix(0.707352 -0.706861 0.707352 0.706861 -26.1203 -217.924)" fill="#242424"/>
<rect width="1" height="2718.34" transform="matrix(0.707352 -0.706861 0.707352 0.706861 1134.26 -467.894)" fill="#242424"/>
<rect width="1" height="2718.34" transform="matrix(0.707352 -0.706861 0.707352 0.706861 -1035.24 166.527)" fill="#242424"/>
<rect width="1" height="2718.34" transform="matrix(0.707352 -0.706861 0.707352 0.706861 -23.0866 -229.256)" fill="#242424"/>
<rect width="1" height="2718.34" transform="matrix(0.707352 -0.706861 0.707352 0.706861 1137.29 -479.225)" fill="#242424"/>
<rect width="1" height="2718.34" transform="matrix(0.707352 -0.706861 0.707352 0.706861 -1032.2 155.196)" fill="#242424"/>
<rect width="1" height="2718.34" transform="matrix(0.707352 -0.706861 0.707352 0.706861 -20.0523 -240.587)" fill="#242424"/>
<rect width="1" height="2718.34" transform="matrix(0.707352 -0.706861 0.707352 0.706861 1140.33 -490.556)" fill="#242424"/>
<rect width="1" height="2718.34" transform="matrix(0.707352 -0.706861 0.707352 0.706861 -1029.17 143.865)" fill="#242424"/>
<rect width="1" height="2718.34" transform="matrix(0.707352 -0.706861 0.707352 0.706861 -17.0186 -251.918)" fill="#242424"/>
<rect width="1" height="2718.34" transform="matrix(0.707352 -0.706861 0.707352 0.706861 1143.36 -501.887)" fill="#242424"/>
<rect width="1" height="2718.34" transform="matrix(0.707352 -0.706861 0.707352 0.706861 -1026.13 132.534)" fill="#242424"/>
<rect width="1" height="2718.34" transform="matrix(0.707352 -0.706861 0.707352 0.706861 -13.9849 -263.249)" fill="#242424"/>
<rect width="1" height="2718.34" transform="matrix(0.707352 -0.706861 0.707352 0.706861 1146.4 -513.218)" fill="#242424"/>
<rect width="1" height="2718.34" transform="matrix(0.707352 -0.706861 0.707352 0.706861 -1023.1 121.202)" fill="#242424"/>
<rect width="1" height="2718.34" transform="matrix(0.707352 -0.706861 0.707352 0.706861 -10.9507 -274.581)" fill="#242424"/>
<rect width="1" height="2718.34" transform="matrix(0.707352 -0.706861 0.707352 0.706861 1149.43 -524.549)" fill="#242424"/>
<rect width="1" height="2718.34" transform="matrix(0.707352 -0.706861 0.707352 0.706861 -1020.07 109.871)" fill="#242424"/>
<rect width="1" height="2718.34" transform="matrix(0.707352 -0.706861 0.707352 0.706861 -7.91695 -285.913)" fill="#242424"/>
<rect width="1" height="2718.34" transform="matrix(0.707352 -0.706861 0.707352 0.706861 1152.46 -535.881)" fill="#242424"/>
<rect width="1" height="2718.34" transform="matrix(0.707352 -0.706861 0.707352 0.706861 -1017.03 98.5396)" fill="#242424"/>
<rect width="1" height="2718.34" transform="matrix(0.707352 -0.706861 0.707352 0.706861 -4.88267 -297.243)" fill="#242424"/>
<rect width="1" height="2718.34" transform="matrix(0.707352 -0.706861 0.707352 0.706861 1155.5 -547.212)" fill="#242424"/>
<rect width="1" height="2718.34" transform="matrix(0.707352 -0.706861 0.707352 0.706861 -1014 87.209)" fill="#242424"/>
<rect width="1" height="2718.34" transform="matrix(0.707352 -0.706861 0.707352 0.706861 -1.84898 -308.574)" fill="#242424"/>
<rect width="1" height="2718.34" transform="matrix(0.707352 -0.706861 0.707352 0.706861 1158.53 -558.543)" fill="#242424"/>
<rect width="1" height="2718.34" transform="matrix(0.707352 -0.706861 0.707352 0.706861 -1010.96 75.8774)" fill="#242424"/>
<rect width="1" height="2718.34" transform="matrix(0.707352 -0.706861 0.707352 0.706861 1.18472 -319.905)" fill="#242424"/>
<rect width="1" height="2718.34" transform="matrix(0.707352 -0.706861 0.707352 0.706861 1161.57 -569.875)" fill="#242424"/>
<rect width="1" height="2718.34" transform="matrix(0.707352 -0.706861 0.707352 0.706861 -1004.9 53.2153)" fill="#242424"/>
<rect width="1" height="2718.34" transform="matrix(0.707352 -0.706861 0.707352 0.706861 7.2527 -342.568)" fill="#242424"/>
<rect width="1" height="2718.34" transform="matrix(0.707352 -0.706861 0.707352 0.706861 1167.63 -592.537)" fill="#242424"/>
<rect width="1" height="2718.34" transform="matrix(0.707352 -0.706861 0.707352 0.706861 -1007.93 64.5464)" fill="#242424"/>
<rect width="1" height="2718.34" transform="matrix(0.707352 -0.706861 0.707352 0.706861 4.21897 -331.237)" fill="#242424"/>
<rect width="1" height="2718.34" transform="matrix(0.707352 -0.706861 0.707352 0.706861 1164.6 -581.206)" fill="#242424"/>
<rect width="1" height="2718.34" transform="matrix(0.707352 -0.706861 0.707352 0.706861 -1001.86 41.8833)" fill="#242424"/>
<rect width="1" height="2718.34" transform="matrix(0.707352 -0.706861 0.707352 0.706861 10.2864 -353.899)" fill="#242424"/>
<rect width="1" height="2718.34" transform="matrix(0.707352 -0.706861 0.707352 0.706861 1170.67 -603.868)" fill="#242424"/>
<rect width="1" height="2718.34" transform="matrix(0.707352 -0.706861 0.707352 0.706861 -998.828 30.5522)" fill="#242424"/>
<rect width="1" height="2718.34" transform="matrix(0.707352 -0.706861 0.707352 0.706861 13.3206 -365.231)" fill="#242424"/>
<rect width="1" height="2718.34" transform="matrix(0.707352 -0.706861 0.707352 0.706861 1173.7 -615.199)" fill="#242424"/>
<rect width="1" height="2718.34" transform="matrix(0.707352 -0.706861 0.707352 0.706861 -995.794 19.2212)" fill="#242424"/>
<rect width="1" height="2718.34" transform="matrix(0.707352 -0.706861 0.707352 0.706861 16.3543 -376.562)" fill="#242424"/>
<rect width="1" height="2718.34" transform="matrix(0.707352 -0.706861 0.707352 0.706861 1176.74 -626.53)" fill="#242424"/>
<rect width="1" height="2718.34" transform="matrix(0.707352 -0.706861 0.707352 0.706861 -992.76 7.89062)" fill="#242424"/>
<rect width="1" height="2718.34" transform="matrix(0.707352 -0.706861 0.707352 0.706861 19.3886 -387.893)" fill="#242424"/>
<rect width="1" height="2718.34" transform="matrix(0.707352 -0.706861 0.707352 0.706861 1179.77 -637.862)" fill="#242424"/>
<rect width="1" height="2718.34" transform="matrix(0.707352 -0.706861 0.707352 0.706861 -989.727 -3.44141)" fill="#242424"/>
<rect width="1" height="2718.34" transform="matrix(0.707352 -0.706861 0.707352 0.706861 22.4223 -399.224)" fill="#242424"/>
<rect width="1" height="2718.34" transform="matrix(0.707352 -0.706861 0.707352 0.706861 1182.8 -649.193)" fill="#242424"/>
<rect width="1" height="2718.34" transform="matrix(0.707352 -0.706861 0.707352 0.706861 -986.693 -14.7725)" fill="#242424"/>
<rect width="1" height="2718.34" transform="matrix(0.707352 -0.706861 0.707352 0.706861 25.456 -410.556)" fill="#242424"/>
<rect width="1" height="2718.34" transform="matrix(0.707352 -0.706861 0.707352 0.706861 1185.84 -660.524)" fill="#242424"/>
<rect width="1" height="2718.34" transform="matrix(0.707352 -0.706861 0.707352 0.706861 -983.659 -26.103)" fill="#242424"/>
<rect width="1" height="2718.34" transform="matrix(0.707352 -0.706861 0.707352 0.706861 28.4903 -421.886)" fill="#242424"/>
<rect width="1" height="2718.34" transform="matrix(0.707352 -0.706861 0.707352 0.706861 1188.87 -671.854)" fill="#242424"/>
<rect width="1" height="2718.34" transform="matrix(0.707352 -0.706861 0.707352 0.706861 -980.625 -37.4341)" fill="#242424"/>
<rect width="1" height="2718.34" transform="matrix(0.707352 -0.706861 0.707352 0.706861 31.524 -433.218)" fill="#242424"/>
<rect width="1" height="2718.34" transform="matrix(0.707352 -0.706861 0.707352 0.706861 1191.91 -683.187)" fill="#242424"/>
<rect width="1" height="2718.34" transform="matrix(0.707352 -0.706861 0.707352 0.706861 -977.591 -48.7656)" fill="#242424"/>
<rect width="1" height="2718.34" transform="matrix(0.707352 -0.706861 0.707352 0.706861 34.5577 -444.549)" fill="#242424"/>
<rect width="1" height="2718.34" transform="matrix(0.707352 -0.706861 0.707352 0.706861 1194.94 -694.517)" fill="#242424"/>
<rect width="1" height="2718.34" transform="matrix(0.707352 -0.706861 0.707352 0.706861 -974.557 -60.0977)" fill="#242424"/>
<rect width="1" height="2718.34" transform="matrix(0.707352 -0.706861 0.707352 0.706861 37.592 -455.88)" fill="#242424"/>
<rect width="1" height="2718.34" transform="matrix(0.707352 -0.706861 0.707352 0.706861 1197.97 -705.849)" fill="#242424"/>
<rect width="1" height="2718.34" transform="matrix(0.707352 -0.706861 0.707352 0.706861 -971.523 -71.4287)" fill="#242424"/>
<rect width="1" height="2718.34" transform="matrix(0.707352 -0.706861 0.707352 0.706861 40.6263 -467.211)" fill="#242424"/>
<rect width="1" height="2718.34" transform="matrix(0.707352 -0.706861 0.707352 0.706861 1201.01 -717.18)" fill="#242424"/>
<rect width="1" height="2718.34" transform="matrix(0.707352 -0.706861 0.707352 0.706861 -968.489 -82.7598)" fill="#242424"/>
<rect width="1" height="2718.34" transform="matrix(0.707352 -0.706861 0.707352 0.706861 43.6599 -478.542)" fill="#242424"/>
<rect width="1" height="2718.34" transform="matrix(0.707352 -0.706861 0.707352 0.706861 1204.04 -728.511)" fill="#242424"/>
<rect width="1" height="2718.34" transform="matrix(0.707352 -0.706861 0.707352 0.706861 -965.455 -94.0908)" fill="#242424"/>
<rect width="1" height="2718.34" transform="matrix(0.707352 -0.706861 0.707352 0.706861 46.6942 -489.875)" fill="#242424"/>
<rect width="1" height="2718.34" transform="matrix(0.707352 -0.706861 0.707352 0.706861 1207.08 -739.843)" fill="#242424"/>
<rect width="1" height="2718.34" transform="matrix(0.707352 -0.706861 0.707352 0.706861 -962.422 -105.422)" fill="#242424"/>
<rect width="1" height="2718.34" transform="matrix(0.707352 -0.706861 0.707352 0.706861 49.7274 -501.206)" fill="#242424"/>
<rect width="1" height="2718.34" transform="matrix(0.707352 -0.706861 0.707352 0.706861 1210.11 -751.174)" fill="#242424"/>
<rect width="1" height="2718.34" transform="matrix(0.707352 -0.706861 0.707352 0.706861 -959.387 -116.754)" fill="#242424"/>
<rect width="1" height="2718.34" transform="matrix(0.707352 -0.706861 0.707352 0.706861 52.7622 -512.537)" fill="#242424"/>
<rect width="1" height="2718.34" transform="matrix(0.707352 -0.706861 0.707352 0.706861 1213.14 -762.505)" fill="#242424"/>
<rect width="1" height="2718.34" transform="matrix(0.707352 -0.706861 0.707352 0.706861 -956.353 -128.084)" fill="#242424"/>
<rect width="1" height="2718.34" transform="matrix(0.707352 -0.706861 0.707352 0.706861 55.7959 -523.868)" fill="#242424"/>
<rect width="1" height="2718.34" transform="matrix(0.707352 -0.706861 0.707352 0.706861 1216.18 -773.836)" fill="#242424"/>
<rect width="1" height="2718.34" transform="matrix(0.707352 -0.706861 0.707352 0.706861 -953.319 -139.416)" fill="#242424"/>
<rect width="1" height="2718.34" transform="matrix(0.707352 -0.706861 0.707352 0.706861 58.8296 -535.199)" fill="#242424"/>
<rect width="1" height="2718.34" transform="matrix(0.707352 -0.706861 0.707352 0.706861 1219.21 -785.167)" fill="#242424"/>
<rect width="1" height="2718.34" transform="matrix(0.707352 -0.706861 0.707352 0.706861 -950.286 -150.747)" fill="#242424"/>
<rect width="1" height="2718.34" transform="matrix(0.707352 -0.706861 0.707352 0.706861 61.8633 -546.531)" fill="#242424"/>
<rect width="1" height="2718.34" transform="matrix(0.707352 -0.706861 0.707352 0.706861 1222.24 -796.499)" fill="#242424"/>
<rect width="1" height="2718.34" transform="matrix(0.707352 -0.706861 0.707352 0.706861 -947.251 -162.079)" fill="#242424"/>
<rect width="1" height="2718.34" transform="matrix(0.707352 -0.706861 0.707352 0.706861 64.8976 -557.862)" fill="#242424"/>
<rect width="1" height="2718.34" transform="matrix(0.707352 -0.706861 0.707352 0.706861 1225.28 -807.83)" fill="#242424"/>
<rect width="1" height="2718.34" transform="matrix(0.707352 -0.706861 0.707352 0.706861 -944.218 -173.409)" fill="#242424"/>
<rect width="1" height="2718.34" transform="matrix(0.707352 -0.706861 0.707352 0.706861 67.9312 -569.192)" fill="#242424"/>
<rect width="1" height="2718.34" transform="matrix(0.707352 -0.706861 0.707352 0.706861 1228.31 -819.161)" fill="#242424"/>
<rect width="1" height="2718.34" transform="matrix(0.707352 -0.706861 0.707352 0.706861 -941.183 -184.741)" fill="#242424"/>
<rect width="1" height="2718.34" transform="matrix(0.707352 -0.706861 0.707352 0.706861 70.9655 -580.523)" fill="#242424"/>
<rect width="1" height="2718.34" transform="matrix(0.707352 -0.706861 0.707352 0.706861 1231.35 -830.492)" fill="#242424"/>
<rect width="1" height="2718.34" transform="matrix(0.707352 -0.706861 0.707352 0.706861 -938.15 -196.072)" fill="#242424"/>
<rect width="1" height="2718.34" transform="matrix(0.707352 -0.706861 0.707352 0.706861 73.9992 -591.855)" fill="#242424"/>
<rect width="1" height="2718.34" transform="matrix(0.707352 -0.706861 0.707352 0.706861 1234.38 -841.823)" fill="#242424"/>
<rect width="1" height="2718.34" transform="matrix(0.707352 -0.706861 0.707352 0.706861 -935.116 -207.404)" fill="#242424"/>
<rect width="1" height="2718.34" transform="matrix(0.707352 -0.706861 0.707352 0.706861 77.0329 -603.187)" fill="#242424"/>
<rect width="1" height="2718.34" transform="matrix(0.707352 -0.706861 0.707352 0.706861 1237.41 -853.155)" fill="#242424"/>
</g>
<defs>
<clipPath id="clip0_10_1187">
<rect width="1440" height="1552" fill="white"/>
</clipPath>
</defs>
</svg>
