<svg width="48" height="48" viewBox="0 0 48 48" fill="none" xmlns="http://www.w3.org/2000/svg">
<rect width="48" height="48" rx="4" fill="#72FFB1" fill-opacity="0.15"/>
<path d="M18.75 25.5C18.75 26.8924 19.3031 28.2277 20.2877 29.2123C21.2723 30.1969 22.6076 30.75 24 30.75C25.3924 30.75 26.7277 30.1969 27.7123 29.2123C28.6969 28.2277 29.25 26.8924 29.25 25.5V23.25C29.25 23.0511 29.171 22.8603 29.0303 22.7197C28.8897 22.579 28.6989 22.5 28.5 22.5H27.75V21C27.75 20.0054 27.3549 19.0516 26.6517 18.3483C25.9484 17.6451 24.9946 17.25 24 17.25C23.0054 17.25 22.0516 17.6451 21.3483 18.3483C20.6451 19.0516 20.25 20.0054 20.25 21V22.5H19.5C19.3011 22.5 19.1103 22.579 18.9697 22.7197C18.829 22.8603 18.75 23.0511 18.75 23.25V25.5ZM21.75 21C21.75 20.4033 21.9871 19.831 22.409 19.409C22.831 18.9871 23.4033 18.75 24 18.75C24.5967 18.75 25.169 18.9871 25.591 19.409C26.0129 19.831 26.25 20.4033 26.25 21V22.5H21.75V21Z" fill="#72FFB1"/>
<path d="M31.4246 16.5755C30.4518 15.5974 29.2948 14.822 28.0203 14.2941C26.7459 13.7662 25.3794 13.4963 24 13.5C23.8011 13.5 23.6103 13.5791 23.4697 13.7197C23.329 13.8604 23.25 14.0511 23.25 14.25C23.25 14.449 23.329 14.6397 23.4697 14.7804C23.6103 14.921 23.8011 15 24 15C26.0577 15.0003 28.0532 15.7057 29.6539 16.9988C31.2545 18.2919 32.3637 20.0945 32.7965 22.1062C33.2293 24.1179 32.9596 26.2171 32.0323 28.0541C31.1051 29.891 29.5762 31.3547 27.7007 32.2012C25.8251 33.0476 23.7161 33.2258 21.7252 32.7059C19.7342 32.1859 17.9816 30.9994 16.7594 29.344C15.5372 27.6886 14.9192 25.6643 15.0085 23.6085C15.0977 21.5527 15.8889 19.5896 17.25 18.0464V19.5C17.25 19.699 17.329 19.8897 17.4697 20.0304C17.6103 20.171 17.8011 20.25 18 20.25C18.1989 20.25 18.3897 20.171 18.5303 20.0304C18.671 19.8897 18.75 19.699 18.75 19.5V16.5C18.7501 16.4015 18.7307 16.304 18.693 16.213C18.6554 16.1219 18.6001 16.0392 18.5305 15.9696C18.4608 15.8999 18.3781 15.8447 18.2871 15.807C18.1961 15.7693 18.0985 15.75 18 15.75H15C14.8011 15.75 14.6103 15.8291 14.4697 15.9697C14.329 16.1104 14.25 16.3011 14.25 16.5C14.25 16.699 14.329 16.8897 14.4697 17.0304C14.6103 17.171 14.8011 17.25 15 17.25L15.9561 17.25C14.217 19.3226 13.3449 21.9864 13.5218 24.6863C13.6987 27.3861 14.9109 29.9134 16.9056 31.7413C18.9004 33.5692 21.5237 34.5566 24.2287 34.4976C26.9336 34.4386 29.5114 33.3377 31.4246 31.4246C32.3996 30.4496 33.173 29.2921 33.7007 28.0182C34.2284 26.7443 34.5 25.3789 34.5 24C34.5 22.6212 34.2284 21.2558 33.7007 19.9819C33.173 18.708 32.3996 17.5505 31.4246 16.5755Z" fill="#72FFB1"/>
</svg>
