<svg width="49" height="48" viewBox="0 0 49 48" fill="none" xmlns="http://www.w3.org/2000/svg">
<rect x="0.5" width="48" height="48" rx="4" fill="#72FFB1" fill-opacity="0.15"/>
<path d="M18.6735 20.4146L20.8701 18.2248L17.8216 17.7597L16.4434 14.9671L15.065 17.7597L12 18.2247L14.2132 20.4146L13.7075 23.4933L16.4434 22.0561L19.1792 23.4933L18.6735 20.4146Z" fill="#72FFB1"/>
<path d="M21.7642 20.5261L24.5 19.089L27.2358 20.5262L26.7302 17.4475L28.9267 15.2577L25.8783 14.7926L24.5 12L23.1217 14.7926L20.0732 15.2576L22.2698 17.4474L21.7642 20.5261Z" fill="#72FFB1"/>
<path d="M37 18.2247L33.935 17.7597L32.5566 14.9671L31.1783 17.7597L28.1299 18.2247L30.3264 20.4146L29.8208 23.4933L32.5566 22.0561L35.2925 23.4933L34.7868 20.4146L37 18.2247Z" fill="#72FFB1"/>
<path d="M24.5 21.1644C18.7113 21.1644 18.0366 27.0986 17.9082 27.0986V33.0329H22.3027V27.0986H19.4471C19.8063 24.5889 21.9241 22.6479 24.5 22.6479C27.0759 22.6479 29.1937 24.5889 29.5529 27.0986H26.6973V33.0329H29.627V34.5164H23.7676V36H31.0918V27.0986C30.9634 27.0986 30.2886 21.1644 24.5 21.1644Z" fill="#72FFB1"/>
</svg>
