<svg width="48" height="48" viewBox="0 0 48 48" fill="none" xmlns="http://www.w3.org/2000/svg">
<rect width="48" height="48" rx="4" fill="#72FFB1" fill-opacity="0.15"/>
<g clip-path="url(#clip0_10_817)">
<path d="M24 19.9165C23.1924 19.9165 22.4029 20.156 21.7314 20.6047C21.0599 21.0534 20.5365 21.6911 20.2275 22.4372C19.9184 23.1834 19.8375 24.0044 19.9951 24.7965C20.1526 25.5886 20.5416 26.3162 21.1126 26.8873C21.6837 27.4583 22.4113 27.8472 23.2034 28.0048C23.9955 28.1624 24.8165 28.0815 25.5626 27.7724C26.3088 27.4634 26.9465 26.94 27.3952 26.2685C27.8439 25.597 28.0834 24.8075 28.0834 23.9999C28.0821 22.9173 27.6515 21.8794 26.886 21.1139C26.1205 20.3483 25.0826 19.9177 24 19.9165ZM26.0144 23.2203L23.9658 25.2685C23.9117 25.3227 23.8474 25.3657 23.7766 25.3951C23.7058 25.4244 23.6299 25.4395 23.5533 25.4395C23.4767 25.4395 23.4008 25.4244 23.33 25.3951C23.2593 25.3657 23.195 25.3227 23.1408 25.2685L22.3217 24.4494C22.2123 24.34 22.1508 24.1916 22.1508 24.0369C22.1508 23.8821 22.2123 23.7338 22.3217 23.6244C22.4311 23.515 22.5794 23.4535 22.7342 23.4535C22.8889 23.4535 23.0373 23.515 23.1467 23.6244L23.5534 24.031L25.1894 22.3953C25.2988 22.2859 25.4472 22.2244 25.6019 22.2244C25.7566 22.2244 25.905 22.2859 26.0144 22.3953C26.1238 22.5047 26.1853 22.653 26.1853 22.8078C26.1853 22.9625 26.1238 23.1109 26.0144 23.2203Z" fill="#72FFB1"/>
<path d="M35.8242 23.5177C35.61 23.2617 30.4886 17.25 24 17.25C17.5115 17.25 12.3904 23.2617 12.1754 23.5177C12.0621 23.6528 11.9999 23.8236 11.9999 24C11.9999 24.1764 12.0621 24.3472 12.1754 24.4823C12.3904 24.7383 17.5118 30.75 24 30.75C30.4882 30.75 35.61 24.7383 35.8242 24.4823C35.9377 24.3472 35.9999 24.1764 35.9999 24C35.9999 23.8236 35.9377 23.6528 35.8242 23.5177ZM24 29.25C22.9617 29.25 21.9466 28.9421 21.0833 28.3652C20.2199 27.7883 19.547 26.9684 19.1496 26.0091C18.7523 25.0498 18.6483 23.9942 18.8509 22.9758C19.0535 21.9574 19.5535 21.0219 20.2877 20.2877C21.0219 19.5535 21.9574 19.0534 22.9758 18.8509C23.9942 18.6483 25.0498 18.7523 26.0091 19.1496C26.9684 19.547 27.7884 20.2199 28.3652 21.0833C28.9421 21.9466 29.25 22.9616 29.25 24C29.2484 25.3919 28.6947 26.7263 27.7105 27.7105C26.7263 28.6947 25.3919 29.2484 24 29.25Z" fill="#72FFB1"/>
<path d="M24 15.75C23.8011 15.75 23.6103 15.671 23.4697 15.5303C23.329 15.3897 23.25 15.1989 23.25 15V12.75C23.25 12.5511 23.329 12.3603 23.4697 12.2197C23.6103 12.079 23.8011 12 24 12C24.1989 12 24.3897 12.079 24.5303 12.2197C24.671 12.3603 24.75 12.5511 24.75 12.75V15C24.75 15.1989 24.671 15.3897 24.5303 15.5303C24.3897 15.671 24.1989 15.75 24 15.75Z" fill="#72FFB1"/>
<path d="M19.0258 16.5992C18.8705 16.5991 18.719 16.5508 18.5922 16.4609C18.4655 16.371 18.3698 16.2441 18.3183 16.0975L17.5725 13.9746C17.5372 13.8811 17.5209 13.7814 17.5246 13.6815C17.5284 13.5816 17.552 13.4835 17.5942 13.3929C17.6364 13.3022 17.6963 13.221 17.7704 13.1538C17.8444 13.0867 17.9312 13.035 18.0255 13.0019C18.1198 12.9687 18.2198 12.9548 18.3196 12.9609C18.4194 12.9669 18.5169 12.9929 18.6065 13.0372C18.6962 13.0815 18.776 13.1433 18.8414 13.2189C18.9068 13.2945 18.9564 13.3824 18.9873 13.4775L19.7333 15.6C19.7729 15.7131 19.7848 15.834 19.7681 15.9527C19.7514 16.0713 19.7065 16.1842 19.6373 16.282C19.5681 16.3798 19.4764 16.4596 19.37 16.5147C19.2637 16.5699 19.1456 16.599 19.0258 16.5992Z" fill="#72FFB1"/>
<path d="M28.9739 16.5994C28.854 16.5993 28.7359 16.5705 28.6295 16.5153C28.523 16.4602 28.4313 16.3804 28.3621 16.2825C28.2928 16.1847 28.248 16.0717 28.2313 15.953C28.2147 15.8343 28.2267 15.7133 28.2664 15.6002L29.0127 13.4777C29.0444 13.3836 29.0945 13.2968 29.1601 13.2222C29.2256 13.1476 29.3054 13.0867 29.3946 13.0432C29.4839 12.9997 29.5809 12.9743 29.68 12.9685C29.7791 12.9628 29.8784 12.9768 29.9721 13.0097C30.0658 13.0426 30.152 13.0938 30.2258 13.1604C30.2995 13.2269 30.3593 13.3074 30.4017 13.3972C30.4441 13.487 30.4682 13.5843 30.4727 13.6835C30.4772 13.7827 30.4619 13.8818 30.4278 13.975L29.6814 16.098C29.6299 16.2445 29.5341 16.3714 29.4074 16.4613C29.2807 16.5511 29.1292 16.5994 28.9739 16.5994Z" fill="#72FFB1"/>
<path d="M24 36C23.8011 36 23.6103 35.921 23.4697 35.7803C23.329 35.6397 23.25 35.4489 23.25 35.25V33C23.25 32.8011 23.329 32.6103 23.4697 32.4697C23.6103 32.329 23.8011 32.25 24 32.25C24.1989 32.25 24.3897 32.329 24.5303 32.4697C24.671 32.6103 24.75 32.8011 24.75 33V35.25C24.75 35.4489 24.671 35.6397 24.5303 35.7803C24.3897 35.921 24.1989 36 24 36Z" fill="#72FFB1"/>
<path d="M18.2798 35.0244C18.1599 35.0242 18.0419 34.9953 17.9355 34.9402C17.8292 34.885 17.7375 34.8053 17.6683 34.7075C17.599 34.6097 17.5542 34.4968 17.5375 34.3781C17.5208 34.2594 17.5327 34.1385 17.5723 34.0254L18.3182 31.9025C18.3503 31.8088 18.4006 31.7224 18.4663 31.6483C18.5319 31.5742 18.6116 31.5138 18.7006 31.4706C18.7897 31.4274 18.8865 31.4023 18.9853 31.3967C19.0842 31.3911 19.1832 31.4051 19.2766 31.438C19.37 31.4708 19.4559 31.5218 19.5295 31.5881C19.6031 31.6543 19.6628 31.7344 19.7053 31.8239C19.7478 31.9133 19.7721 32.0103 19.7769 32.1092C19.7817 32.208 19.7669 32.3069 19.7333 32.4L18.9873 34.5225C18.9358 34.6691 18.8401 34.7961 18.7134 34.886C18.5866 34.9759 18.4351 35.0243 18.2798 35.0244Z" fill="#72FFB1"/>
<path d="M29.7203 35.0243C29.5649 35.0242 29.4134 34.9759 29.2866 34.8861C29.1599 34.7962 29.0642 34.6692 29.0127 34.5226L28.2664 32.3999C28.2323 32.3066 28.217 32.2075 28.2215 32.1083C28.2259 32.0091 28.2501 31.9118 28.2925 31.822C28.3348 31.7322 28.3946 31.6517 28.4684 31.5852C28.5421 31.5186 28.6283 31.4674 28.722 31.4345C28.8157 31.4016 28.915 31.3876 29.0141 31.3933C29.1133 31.3991 29.2103 31.4245 29.2995 31.468C29.3888 31.5116 29.4685 31.5724 29.534 31.647C29.5996 31.7216 29.6497 31.8084 29.6814 31.9025L30.4277 34.0255C30.4674 34.1386 30.4794 34.2595 30.4627 34.3782C30.446 34.4969 30.4012 34.6098 30.3319 34.7076C30.2627 34.8054 30.171 34.8852 30.0646 34.9404C29.9582 34.9955 29.8401 35.0241 29.7203 35.0243Z" fill="#72FFB1"/>
</g>
<defs>
<clipPath id="clip0_10_817">
<rect width="24" height="24" fill="white" transform="translate(12 12)"/>
</clipPath>
</defs>
</svg>
