<svg width="49" height="48" viewBox="0 0 49 48" fill="none" xmlns="http://www.w3.org/2000/svg">
<rect x="0.5" width="48" height="48" rx="4" fill="#72FFB1" fill-opacity="0.15"/>
<path fill-rule="evenodd" clip-rule="evenodd" d="M21.6498 30.3892C21.8043 30.4621 21.8705 30.6466 21.7976 30.8011C21.7247 30.9557 21.5402 31.0218 21.3857 30.9489C18.9799 29.8139 17.2072 27.5971 16.6591 24.9764C16.6244 24.8092 16.7317 24.6454 16.899 24.6105C17.0662 24.5758 17.23 24.6832 17.2648 24.8504C17.7736 27.2829 19.4157 29.3356 21.6498 30.3892ZM25.03 21.7307C25.9941 21.7307 26.7755 20.9494 26.7755 19.9853C26.7755 19.0212 25.9941 18.2398 25.03 18.2398C24.0661 18.2398 23.2847 19.0212 23.2847 19.9853C23.2846 20.9494 24.0661 21.7307 25.03 21.7307ZM28.3171 25.6381C28.3171 23.8308 26.8373 22.351 25.03 22.351C23.2226 22.351 21.7429 23.8308 21.7429 25.6381V26.8674C21.7429 27.1117 21.9429 27.3118 22.1872 27.3118H27.8728C28.1172 27.3118 28.3171 27.1117 28.3171 26.8674V25.6381ZM25.2977 28.8877L27.6047 32.8846C27.7238 33.0915 27.5718 33.3476 27.3369 33.3473V33.3486H22.7231C22.4742 33.3486 22.3286 33.0705 22.4653 32.866C22.4658 32.8652 22.4663 32.8645 22.4668 32.8636L24.7623 28.8889C24.8822 28.6808 25.1799 28.685 25.2973 28.888L25.2977 28.8877ZM17.2333 18.0513C18.596 18.0513 19.7009 19.1562 19.7009 20.5189C19.7009 21.8817 18.596 22.9865 17.2333 22.9865C15.8705 22.9865 14.7657 21.8817 14.7657 20.5189C14.7657 19.1562 15.8706 18.0513 17.2333 18.0513ZM31.3013 18.0273H34.208C34.7731 18.0273 35.2343 18.4884 35.2343 19.0535V21.9602C35.2343 22.5253 34.7731 22.9865 34.208 22.9865H31.3013C30.7362 22.9865 30.275 22.5253 30.275 21.9602V19.0535C30.275 18.4885 30.7362 18.0273 31.3013 18.0273ZM19.9284 17.13C19.7972 17.2398 19.602 17.2224 19.4922 17.0913C19.3825 16.9601 19.3999 16.7649 19.531 16.6551C22.6233 14.0623 27.1029 13.9766 30.2809 16.4551C30.4154 16.5601 30.4393 16.7543 30.3342 16.8888C30.2292 17.0233 30.035 17.0472 29.9005 16.9421C26.9594 14.6483 22.7928 14.7233 19.9284 17.13ZM32.786 24.8901C32.8222 24.7228 32.987 24.6165 33.1543 24.6526C33.3215 24.6887 33.4278 24.8536 33.3917 25.0209C32.8291 27.6264 31.0708 29.8182 28.6743 30.9488C28.5197 31.0217 28.3353 30.9556 28.2624 30.801C28.1895 30.6465 28.2556 30.462 28.4102 30.3891C30.633 29.3405 32.2642 27.3077 32.786 24.8901Z" fill="#72FFB1"/>
</svg>
