<svg width="1110" height="150" viewBox="0 0 1110 150" fill="none" xmlns="http://www.w3.org/2000/svg">
<g clip-path="url(#clip0_10_486)">
<mask id="path-1-inside-1_10_486" fill="white">
<path d="M0 0H1110V150H0V0Z"/>
</mask>
<g opacity="0.5" clip-path="url(#clip1_10_486)">
<rect x="-438" y="-41.2993" width="1" height="1174.06" transform="rotate(-45 -438 -41.2993)" fill="#242424"/>
<rect x="-1" y="-212.299" width="1" height="1174.06" transform="rotate(-45 -1 -212.299)" fill="#242424"/>
<rect x="500" y="-320.299" width="1" height="1174.06" transform="rotate(-45 500 -320.299)" fill="#242424"/>
<rect x="-436.69" y="-46.1948" width="1" height="1174.06" transform="rotate(-45 -436.69 -46.1948)" fill="#242424"/>
<rect x="0.309814" y="-217.195" width="1" height="1174.06" transform="rotate(-45 0.309814 -217.195)" fill="#242424"/>
<rect x="501.31" y="-325.195" width="1" height="1174.06" transform="rotate(-45 501.31 -325.195)" fill="#242424"/>
<rect x="-435.38" y="-51.0908" width="1" height="1174.06" transform="rotate(-45 -435.38 -51.0908)" fill="#242424"/>
<rect x="1.61987" y="-222.091" width="1" height="1174.06" transform="rotate(-45 1.61987 -222.091)" fill="#242424"/>
<rect x="502.62" y="-330.091" width="1" height="1174.06" transform="rotate(-45 502.62 -330.091)" fill="#242424"/>
<rect x="-434.07" y="-55.9863" width="1" height="1174.06" transform="rotate(-45 -434.07 -55.9863)" fill="#242424"/>
<rect x="2.92969" y="-226.986" width="1" height="1174.06" transform="rotate(-45 2.92969 -226.986)" fill="#242424"/>
<rect x="503.93" y="-334.986" width="1" height="1174.06" transform="rotate(-45 503.93 -334.986)" fill="#242424"/>
<rect x="-432.76" y="-60.8818" width="1" height="1174.06" transform="rotate(-45 -432.76 -60.8818)" fill="#242424"/>
<rect x="4.2395" y="-231.882" width="1" height="1174.06" transform="rotate(-45 4.2395 -231.882)" fill="#242424"/>
<rect x="505.24" y="-339.882" width="1" height="1174.06" transform="rotate(-45 505.24 -339.882)" fill="#242424"/>
<rect x="-431.45" y="-65.7778" width="1" height="1174.06" transform="rotate(-45 -431.45 -65.7778)" fill="#242424"/>
<rect x="5.54956" y="-236.778" width="1" height="1174.06" transform="rotate(-45 5.54956 -236.778)" fill="#242424"/>
<rect x="506.55" y="-344.778" width="1" height="1174.06" transform="rotate(-45 506.55 -344.778)" fill="#242424"/>
<rect x="-430.141" y="-70.6733" width="1" height="1174.06" transform="rotate(-45 -430.141 -70.6733)" fill="#242424"/>
<rect x="6.85938" y="-241.673" width="1" height="1174.06" transform="rotate(-45 6.85938 -241.673)" fill="#242424"/>
<rect x="507.859" y="-349.673" width="1" height="1174.06" transform="rotate(-45 507.859 -349.673)" fill="#242424"/>
<rect x="-428.831" y="-75.5693" width="1" height="1174.06" transform="rotate(-45 -428.831 -75.5693)" fill="#242424"/>
<rect x="8.16919" y="-246.569" width="1" height="1174.06" transform="rotate(-45 8.16919 -246.569)" fill="#242424"/>
<rect x="509.169" y="-354.569" width="1" height="1174.06" transform="rotate(-45 509.169 -354.569)" fill="#242424"/>
<rect x="-427.521" y="-80.4648" width="1" height="1174.06" transform="rotate(-45 -427.521 -80.4648)" fill="#242424"/>
<rect x="9.47925" y="-251.465" width="1" height="1174.06" transform="rotate(-45 9.47925 -251.465)" fill="#242424"/>
<rect x="510.479" y="-359.465" width="1" height="1174.06" transform="rotate(-45 510.479 -359.465)" fill="#242424"/>
<rect x="-426.211" y="-85.3604" width="1" height="1174.06" transform="rotate(-45 -426.211 -85.3604)" fill="#242424"/>
<rect x="10.7891" y="-256.36" width="1" height="1174.06" transform="rotate(-45 10.7891 -256.36)" fill="#242424"/>
<rect x="511.789" y="-364.36" width="1" height="1174.06" transform="rotate(-45 511.789 -364.36)" fill="#242424"/>
<rect x="-424.901" y="-90.2563" width="1" height="1174.06" transform="rotate(-45 -424.901 -90.2563)" fill="#242424"/>
<rect x="12.0991" y="-261.256" width="1" height="1174.06" transform="rotate(-45 12.0991 -261.256)" fill="#242424"/>
<rect x="513.099" y="-369.256" width="1" height="1174.06" transform="rotate(-45 513.099 -369.256)" fill="#242424"/>
<rect x="-423.591" y="-95.1519" width="1" height="1174.06" transform="rotate(-45 -423.591 -95.1519)" fill="#242424"/>
<rect x="13.4089" y="-266.152" width="1" height="1174.06" transform="rotate(-45 13.4089 -266.152)" fill="#242424"/>
<rect x="514.409" y="-374.152" width="1" height="1174.06" transform="rotate(-45 514.409 -374.152)" fill="#242424"/>
<rect x="-422.281" y="-100.047" width="1" height="1174.06" transform="rotate(-45 -422.281 -100.047)" fill="#242424"/>
<rect x="14.7188" y="-271.047" width="1" height="1174.06" transform="rotate(-45 14.7188 -271.047)" fill="#242424"/>
<rect x="515.719" y="-379.047" width="1" height="1174.06" transform="rotate(-45 515.719 -379.047)" fill="#242424"/>
<rect x="-420.971" y="-104.943" width="1" height="1174.06" transform="rotate(-45 -420.971 -104.943)" fill="#242424"/>
<rect x="16.0286" y="-275.943" width="1" height="1174.06" transform="rotate(-45 16.0286 -275.943)" fill="#242424"/>
<rect x="517.029" y="-383.943" width="1" height="1174.06" transform="rotate(-45 517.029 -383.943)" fill="#242424"/>
<rect x="-419.661" y="-109.839" width="1" height="1174.06" transform="rotate(-45 -419.661 -109.839)" fill="#242424"/>
<rect x="17.3386" y="-280.839" width="1" height="1174.06" transform="rotate(-45 17.3386 -280.839)" fill="#242424"/>
<rect x="518.339" y="-388.839" width="1" height="1174.06" transform="rotate(-45 518.339 -388.839)" fill="#242424"/>
<rect x="-418.352" y="-114.735" width="1" height="1174.06" transform="rotate(-45 -418.352 -114.735)" fill="#242424"/>
<rect x="18.6484" y="-285.735" width="1" height="1174.06" transform="rotate(-45 18.6484 -285.735)" fill="#242424"/>
<rect x="519.648" y="-393.735" width="1" height="1174.06" transform="rotate(-45 519.648 -393.735)" fill="#242424"/>
<rect x="-417.042" y="-119.63" width="1" height="1174.06" transform="rotate(-45 -417.042 -119.63)" fill="#242424"/>
<rect x="19.9585" y="-290.63" width="1" height="1174.06" transform="rotate(-45 19.9585 -290.63)" fill="#242424"/>
<rect x="520.958" y="-398.63" width="1" height="1174.06" transform="rotate(-45 520.958 -398.63)" fill="#242424"/>
<rect x="-415.732" y="-124.526" width="1" height="1174.06" transform="rotate(-45 -415.732 -124.526)" fill="#242424"/>
<rect x="21.2683" y="-295.526" width="1" height="1174.06" transform="rotate(-45 21.2683 -295.526)" fill="#242424"/>
<rect x="522.268" y="-403.526" width="1" height="1174.06" transform="rotate(-45 522.268 -403.526)" fill="#242424"/>
<rect x="-414.422" y="-129.422" width="1" height="1174.06" transform="rotate(-45 -414.422 -129.422)" fill="#242424"/>
<rect x="22.5781" y="-300.422" width="1" height="1174.06" transform="rotate(-45 22.5781 -300.422)" fill="#242424"/>
<rect x="523.578" y="-408.422" width="1" height="1174.06" transform="rotate(-45 523.578 -408.422)" fill="#242424"/>
<rect x="-413.112" y="-134.317" width="1" height="1174.06" transform="rotate(-45 -413.112 -134.317)" fill="#242424"/>
<rect x="23.8882" y="-305.317" width="1" height="1174.06" transform="rotate(-45 23.8882 -305.317)" fill="#242424"/>
<rect x="524.888" y="-413.317" width="1" height="1174.06" transform="rotate(-45 524.888 -413.317)" fill="#242424"/>
<rect x="-411.802" y="-139.213" width="1" height="1174.06" transform="rotate(-45 -411.802 -139.213)" fill="#242424"/>
<rect x="25.198" y="-310.213" width="1" height="1174.06" transform="rotate(-45 25.198 -310.213)" fill="#242424"/>
<rect x="526.198" y="-418.213" width="1" height="1174.06" transform="rotate(-45 526.198 -418.213)" fill="#242424"/>
<rect x="-410.492" y="-144.109" width="1" height="1174.06" transform="rotate(-45 -410.492 -144.109)" fill="#242424"/>
<rect x="26.5081" y="-315.109" width="1" height="1174.06" transform="rotate(-45 26.5081 -315.109)" fill="#242424"/>
<rect x="527.508" y="-423.109" width="1" height="1174.06" transform="rotate(-45 527.508 -423.109)" fill="#242424"/>
<rect x="-409.182" y="-149.004" width="1" height="1174.06" transform="rotate(-45 -409.182 -149.004)" fill="#242424"/>
<rect x="27.8179" y="-320.004" width="1" height="1174.06" transform="rotate(-45 27.8179 -320.004)" fill="#242424"/>
<rect x="528.818" y="-428.004" width="1" height="1174.06" transform="rotate(-45 528.818 -428.004)" fill="#242424"/>
<rect x="-407.872" y="-153.9" width="1" height="1174.06" transform="rotate(-45 -407.872 -153.9)" fill="#242424"/>
<rect x="29.1277" y="-324.9" width="1" height="1174.06" transform="rotate(-45 29.1277 -324.9)" fill="#242424"/>
<rect x="530.128" y="-432.9" width="1" height="1174.06" transform="rotate(-45 530.128 -432.9)" fill="#242424"/>
<rect x="-405.252" y="-163.691" width="1" height="1174.06" transform="rotate(-45 -405.252 -163.691)" fill="#242424"/>
<rect x="31.7476" y="-334.691" width="1" height="1174.06" transform="rotate(-45 31.7476 -334.691)" fill="#242424"/>
<rect x="532.748" y="-442.691" width="1" height="1174.06" transform="rotate(-45 532.748 -442.691)" fill="#242424"/>
<rect x="-406.562" y="-158.796" width="1" height="1174.06" transform="rotate(-45 -406.562 -158.796)" fill="#242424"/>
<rect x="30.4377" y="-329.796" width="1" height="1174.06" transform="rotate(-45 30.4377 -329.796)" fill="#242424"/>
<rect x="531.438" y="-437.796" width="1" height="1174.06" transform="rotate(-45 531.438 -437.796)" fill="#242424"/>
<rect x="-403.943" y="-168.587" width="1" height="1174.06" transform="rotate(-45 -403.943 -168.587)" fill="#242424"/>
<rect x="33.0574" y="-339.587" width="1" height="1174.06" transform="rotate(-45 33.0574 -339.587)" fill="#242424"/>
<rect x="534.057" y="-447.587" width="1" height="1174.06" transform="rotate(-45 534.057 -447.587)" fill="#242424"/>
<rect x="-402.633" y="-173.483" width="1" height="1174.06" transform="rotate(-45 -402.633 -173.483)" fill="#242424"/>
<rect x="34.3674" y="-344.483" width="1" height="1174.06" transform="rotate(-45 34.3674 -344.483)" fill="#242424"/>
<rect x="535.367" y="-452.483" width="1" height="1174.06" transform="rotate(-45 535.367 -452.483)" fill="#242424"/>
<rect x="-401.323" y="-178.379" width="1" height="1174.06" transform="rotate(-45 -401.323 -178.379)" fill="#242424"/>
<rect x="35.6772" y="-349.379" width="1" height="1174.06" transform="rotate(-45 35.6772 -349.379)" fill="#242424"/>
<rect x="536.677" y="-457.379" width="1" height="1174.06" transform="rotate(-45 536.677 -457.379)" fill="#242424"/>
<rect x="-400.013" y="-183.274" width="1" height="1174.06" transform="rotate(-45 -400.013 -183.274)" fill="#242424"/>
<rect x="36.9873" y="-354.274" width="1" height="1174.06" transform="rotate(-45 36.9873 -354.274)" fill="#242424"/>
<rect x="537.987" y="-462.274" width="1" height="1174.06" transform="rotate(-45 537.987 -462.274)" fill="#242424"/>
<rect x="-398.703" y="-188.17" width="1" height="1174.06" transform="rotate(-45 -398.703 -188.17)" fill="#242424"/>
<rect x="38.2971" y="-359.17" width="1" height="1174.06" transform="rotate(-45 38.2971 -359.17)" fill="#242424"/>
<rect x="539.297" y="-467.17" width="1" height="1174.06" transform="rotate(-45 539.297 -467.17)" fill="#242424"/>
<rect x="-397.393" y="-193.066" width="1" height="1174.06" transform="rotate(-45 -397.393 -193.066)" fill="#242424"/>
<rect x="39.6069" y="-364.066" width="1" height="1174.06" transform="rotate(-45 39.6069 -364.066)" fill="#242424"/>
<rect x="540.607" y="-472.066" width="1" height="1174.06" transform="rotate(-45 540.607 -472.066)" fill="#242424"/>
<rect x="-396.083" y="-197.961" width="1" height="1174.06" transform="rotate(-45 -396.083 -197.961)" fill="#242424"/>
<rect x="40.917" y="-368.961" width="1" height="1174.06" transform="rotate(-45 40.917 -368.961)" fill="#242424"/>
<rect x="541.917" y="-476.961" width="1" height="1174.06" transform="rotate(-45 541.917 -476.961)" fill="#242424"/>
<rect x="-394.773" y="-202.857" width="1" height="1174.06" transform="rotate(-45 -394.773 -202.857)" fill="#242424"/>
<rect x="42.2268" y="-373.857" width="1" height="1174.06" transform="rotate(-45 42.2268 -373.857)" fill="#242424"/>
<rect x="543.227" y="-481.857" width="1" height="1174.06" transform="rotate(-45 543.227 -481.857)" fill="#242424"/>
<rect x="-393.463" y="-207.753" width="1" height="1174.06" transform="rotate(-45 -393.463 -207.753)" fill="#242424"/>
<rect x="43.5366" y="-378.753" width="1" height="1174.06" transform="rotate(-45 43.5366 -378.753)" fill="#242424"/>
<rect x="544.537" y="-486.753" width="1" height="1174.06" transform="rotate(-45 544.537 -486.753)" fill="#242424"/>
<rect x="-392.153" y="-212.649" width="1" height="1174.06" transform="rotate(-45 -392.153 -212.649)" fill="#242424"/>
<rect x="44.8467" y="-383.649" width="1" height="1174.06" transform="rotate(-45 44.8467 -383.649)" fill="#242424"/>
<rect x="545.847" y="-491.649" width="1" height="1174.06" transform="rotate(-45 545.847 -491.649)" fill="#242424"/>
<rect x="-390.843" y="-217.544" width="1" height="1174.06" transform="rotate(-45 -390.843 -217.544)" fill="#242424"/>
<rect x="46.1567" y="-388.544" width="1" height="1174.06" transform="rotate(-45 46.1567 -388.544)" fill="#242424"/>
<rect x="547.157" y="-496.544" width="1" height="1174.06" transform="rotate(-45 547.157 -496.544)" fill="#242424"/>
<rect x="-389.533" y="-222.44" width="1" height="1174.06" transform="rotate(-45 -389.533 -222.44)" fill="#242424"/>
<rect x="47.4666" y="-393.44" width="1" height="1174.06" transform="rotate(-45 47.4666 -393.44)" fill="#242424"/>
<rect x="548.467" y="-501.44" width="1" height="1174.06" transform="rotate(-45 548.467 -501.44)" fill="#242424"/>
<rect x="-388.223" y="-227.336" width="1" height="1174.06" transform="rotate(-45 -388.223 -227.336)" fill="#242424"/>
<rect x="48.7766" y="-398.336" width="1" height="1174.06" transform="rotate(-45 48.7766 -398.336)" fill="#242424"/>
<rect x="549.777" y="-506.336" width="1" height="1174.06" transform="rotate(-45 549.777 -506.336)" fill="#242424"/>
<rect x="-386.914" y="-232.231" width="1" height="1174.06" transform="rotate(-45 -386.914 -232.231)" fill="#242424"/>
<rect x="50.0862" y="-403.231" width="1" height="1174.06" transform="rotate(-45 50.0862 -403.231)" fill="#242424"/>
<rect x="551.086" y="-511.231" width="1" height="1174.06" transform="rotate(-45 551.086 -511.231)" fill="#242424"/>
<rect x="-385.604" y="-237.127" width="1" height="1174.06" transform="rotate(-45 -385.604 -237.127)" fill="#242424"/>
<rect x="51.3965" y="-408.127" width="1" height="1174.06" transform="rotate(-45 51.3965 -408.127)" fill="#242424"/>
<rect x="552.396" y="-516.127" width="1" height="1174.06" transform="rotate(-45 552.396 -516.127)" fill="#242424"/>
<rect x="-384.294" y="-242.023" width="1" height="1174.06" transform="rotate(-45 -384.294 -242.023)" fill="#242424"/>
<rect x="52.7063" y="-413.023" width="1" height="1174.06" transform="rotate(-45 52.7063 -413.023)" fill="#242424"/>
<rect x="553.706" y="-521.023" width="1" height="1174.06" transform="rotate(-45 553.706 -521.023)" fill="#242424"/>
<rect x="-382.984" y="-246.919" width="1" height="1174.06" transform="rotate(-45 -382.984 -246.919)" fill="#242424"/>
<rect x="54.0161" y="-417.919" width="1" height="1174.06" transform="rotate(-45 54.0161 -417.919)" fill="#242424"/>
<rect x="555.016" y="-525.919" width="1" height="1174.06" transform="rotate(-45 555.016 -525.919)" fill="#242424"/>
<rect x="-381.674" y="-251.814" width="1" height="1174.06" transform="rotate(-45 -381.674 -251.814)" fill="#242424"/>
<rect x="55.3259" y="-422.814" width="1" height="1174.06" transform="rotate(-45 55.3259 -422.814)" fill="#242424"/>
<rect x="556.326" y="-530.814" width="1" height="1174.06" transform="rotate(-45 556.326 -530.814)" fill="#242424"/>
<rect x="-380.364" y="-256.71" width="1" height="1174.06" transform="rotate(-45 -380.364 -256.71)" fill="#242424"/>
<rect x="56.636" y="-427.71" width="1" height="1174.06" transform="rotate(-45 56.636 -427.71)" fill="#242424"/>
<rect x="557.636" y="-535.71" width="1" height="1174.06" transform="rotate(-45 557.636 -535.71)" fill="#242424"/>
<rect x="-379.054" y="-261.606" width="1" height="1174.06" transform="rotate(-45 -379.054 -261.606)" fill="#242424"/>
<rect x="57.9458" y="-432.606" width="1" height="1174.06" transform="rotate(-45 57.9458 -432.606)" fill="#242424"/>
<rect x="558.946" y="-540.606" width="1" height="1174.06" transform="rotate(-45 558.946 -540.606)" fill="#242424"/>
<rect x="-377.744" y="-266.501" width="1" height="1174.06" transform="rotate(-45 -377.744 -266.501)" fill="#242424"/>
<rect x="59.2559" y="-437.501" width="1" height="1174.06" transform="rotate(-45 59.2559 -437.501)" fill="#242424"/>
<rect x="560.256" y="-545.501" width="1" height="1174.06" transform="rotate(-45 560.256 -545.501)" fill="#242424"/>
<rect x="-376.434" y="-271.397" width="1" height="1174.06" transform="rotate(-45 -376.434 -271.397)" fill="#242424"/>
<rect x="60.5657" y="-442.397" width="1" height="1174.06" transform="rotate(-45 60.5657 -442.397)" fill="#242424"/>
<rect x="561.566" y="-550.397" width="1" height="1174.06" transform="rotate(-45 561.566 -550.397)" fill="#242424"/>
<rect x="-375.125" y="-276.293" width="1" height="1174.06" transform="rotate(-45 -375.125 -276.293)" fill="#242424"/>
<rect x="61.8755" y="-447.293" width="1" height="1174.06" transform="rotate(-45 61.8755 -447.293)" fill="#242424"/>
<rect x="562.875" y="-555.293" width="1" height="1174.06" transform="rotate(-45 562.875 -555.293)" fill="#242424"/>
<rect x="-217" y="-124.299" width="1" height="1174.06" transform="rotate(-45 -217 -124.299)" fill="#242424"/>
<rect x="220" y="-295.299" width="1" height="1174.06" transform="rotate(-45 220 -295.299)" fill="#242424"/>
<rect x="721" y="-403.299" width="1" height="1174.06" transform="rotate(-45 721 -403.299)" fill="#242424"/>
<rect x="-215.69" y="-129.195" width="1" height="1174.06" transform="rotate(-45 -215.69 -129.195)" fill="#242424"/>
<rect x="221.31" y="-300.195" width="1" height="1174.06" transform="rotate(-45 221.31 -300.195)" fill="#242424"/>
<rect x="722.31" y="-408.195" width="1" height="1174.06" transform="rotate(-45 722.31 -408.195)" fill="#242424"/>
<rect x="-214.38" y="-134.091" width="1" height="1174.06" transform="rotate(-45 -214.38 -134.091)" fill="#242424"/>
<rect x="222.62" y="-305.091" width="1" height="1174.06" transform="rotate(-45 222.62 -305.091)" fill="#242424"/>
<rect x="723.62" y="-413.091" width="1" height="1174.06" transform="rotate(-45 723.62 -413.091)" fill="#242424"/>
<rect x="-213.07" y="-138.986" width="1" height="1174.06" transform="rotate(-45 -213.07 -138.986)" fill="#242424"/>
<rect x="223.93" y="-309.986" width="1" height="1174.06" transform="rotate(-45 223.93 -309.986)" fill="#242424"/>
<rect x="724.93" y="-417.986" width="1" height="1174.06" transform="rotate(-45 724.93 -417.986)" fill="#242424"/>
<rect x="-211.76" y="-143.882" width="1" height="1174.06" transform="rotate(-45 -211.76 -143.882)" fill="#242424"/>
<rect x="225.24" y="-314.882" width="1" height="1174.06" transform="rotate(-45 225.24 -314.882)" fill="#242424"/>
<rect x="726.24" y="-422.882" width="1" height="1174.06" transform="rotate(-45 726.24 -422.882)" fill="#242424"/>
<rect x="-210.45" y="-148.778" width="1" height="1174.06" transform="rotate(-45 -210.45 -148.778)" fill="#242424"/>
<rect x="226.55" y="-319.778" width="1" height="1174.06" transform="rotate(-45 226.55 -319.778)" fill="#242424"/>
<rect x="727.55" y="-427.778" width="1" height="1174.06" transform="rotate(-45 727.55 -427.778)" fill="#242424"/>
<rect x="-209.141" y="-153.673" width="1" height="1174.06" transform="rotate(-45 -209.141 -153.673)" fill="#242424"/>
<rect x="227.859" y="-324.673" width="1" height="1174.06" transform="rotate(-45 227.859 -324.673)" fill="#242424"/>
<rect x="728.859" y="-432.673" width="1" height="1174.06" transform="rotate(-45 728.859 -432.673)" fill="#242424"/>
<rect x="-207.831" y="-158.569" width="1" height="1174.06" transform="rotate(-45 -207.831 -158.569)" fill="#242424"/>
<rect x="229.169" y="-329.569" width="1" height="1174.06" transform="rotate(-45 229.169 -329.569)" fill="#242424"/>
<rect x="730.169" y="-437.569" width="1" height="1174.06" transform="rotate(-45 730.169 -437.569)" fill="#242424"/>
<rect x="-206.521" y="-163.465" width="1" height="1174.06" transform="rotate(-45 -206.521 -163.465)" fill="#242424"/>
<rect x="230.479" y="-334.465" width="1" height="1174.06" transform="rotate(-45 230.479 -334.465)" fill="#242424"/>
<rect x="731.479" y="-442.465" width="1" height="1174.06" transform="rotate(-45 731.479 -442.465)" fill="#242424"/>
<rect x="-205.211" y="-168.36" width="1" height="1174.06" transform="rotate(-45 -205.211 -168.36)" fill="#242424"/>
<rect x="231.789" y="-339.36" width="1" height="1174.06" transform="rotate(-45 231.789 -339.36)" fill="#242424"/>
<rect x="732.789" y="-447.36" width="1" height="1174.06" transform="rotate(-45 732.789 -447.36)" fill="#242424"/>
<rect x="-203.901" y="-173.256" width="1" height="1174.06" transform="rotate(-45 -203.901 -173.256)" fill="#242424"/>
<rect x="233.099" y="-344.256" width="1" height="1174.06" transform="rotate(-45 233.099 -344.256)" fill="#242424"/>
<rect x="734.099" y="-452.256" width="1" height="1174.06" transform="rotate(-45 734.099 -452.256)" fill="#242424"/>
<rect x="-202.591" y="-178.152" width="1" height="1174.06" transform="rotate(-45 -202.591 -178.152)" fill="#242424"/>
<rect x="234.409" y="-349.152" width="1" height="1174.06" transform="rotate(-45 234.409 -349.152)" fill="#242424"/>
<rect x="735.409" y="-457.152" width="1" height="1174.06" transform="rotate(-45 735.409 -457.152)" fill="#242424"/>
<rect x="-201.281" y="-183.047" width="1" height="1174.06" transform="rotate(-45 -201.281 -183.047)" fill="#242424"/>
<rect x="235.719" y="-354.047" width="1" height="1174.06" transform="rotate(-45 235.719 -354.047)" fill="#242424"/>
<rect x="736.719" y="-462.048" width="1" height="1174.06" transform="rotate(-45 736.719 -462.048)" fill="#242424"/>
<rect x="-199.971" y="-187.943" width="1" height="1174.06" transform="rotate(-45 -199.971 -187.943)" fill="#242424"/>
<rect x="237.029" y="-358.943" width="1" height="1174.06" transform="rotate(-45 237.029 -358.943)" fill="#242424"/>
<rect x="738.029" y="-466.943" width="1" height="1174.06" transform="rotate(-45 738.029 -466.943)" fill="#242424"/>
<rect x="-198.661" y="-192.839" width="1" height="1174.06" transform="rotate(-45 -198.661 -192.839)" fill="#242424"/>
<rect x="238.339" y="-363.839" width="1" height="1174.06" transform="rotate(-45 238.339 -363.839)" fill="#242424"/>
<rect x="739.339" y="-471.839" width="1" height="1174.06" transform="rotate(-45 739.339 -471.839)" fill="#242424"/>
<rect x="-197.352" y="-197.735" width="1" height="1174.06" transform="rotate(-45 -197.352 -197.735)" fill="#242424"/>
<rect x="239.648" y="-368.735" width="1" height="1174.06" transform="rotate(-45 239.648 -368.735)" fill="#242424"/>
<rect x="740.648" y="-476.735" width="1" height="1174.06" transform="rotate(-45 740.648 -476.735)" fill="#242424"/>
<rect x="-196.042" y="-202.63" width="1" height="1174.06" transform="rotate(-45 -196.042 -202.63)" fill="#242424"/>
<rect x="240.958" y="-373.63" width="1" height="1174.06" transform="rotate(-45 240.958 -373.63)" fill="#242424"/>
<rect x="741.958" y="-481.63" width="1" height="1174.06" transform="rotate(-45 741.958 -481.63)" fill="#242424"/>
<rect x="-194.732" y="-207.526" width="1" height="1174.06" transform="rotate(-45 -194.732 -207.526)" fill="#242424"/>
<rect x="242.268" y="-378.526" width="1" height="1174.06" transform="rotate(-45 242.268 -378.526)" fill="#242424"/>
<rect x="743.268" y="-486.526" width="1" height="1174.06" transform="rotate(-45 743.268 -486.526)" fill="#242424"/>
<rect x="-193.422" y="-212.422" width="1" height="1174.06" transform="rotate(-45 -193.422 -212.422)" fill="#242424"/>
<rect x="243.578" y="-383.422" width="1" height="1174.06" transform="rotate(-45 243.578 -383.422)" fill="#242424"/>
<rect x="744.578" y="-491.422" width="1" height="1174.06" transform="rotate(-45 744.578 -491.422)" fill="#242424"/>
<rect x="-192.112" y="-217.317" width="1" height="1174.06" transform="rotate(-45 -192.112 -217.317)" fill="#242424"/>
<rect x="244.888" y="-388.317" width="1" height="1174.06" transform="rotate(-45 244.888 -388.317)" fill="#242424"/>
<rect x="745.888" y="-496.317" width="1" height="1174.06" transform="rotate(-45 745.888 -496.317)" fill="#242424"/>
<rect x="-190.802" y="-222.213" width="1" height="1174.06" transform="rotate(-45 -190.802 -222.213)" fill="#242424"/>
<rect x="246.198" y="-393.213" width="1" height="1174.06" transform="rotate(-45 246.198 -393.213)" fill="#242424"/>
<rect x="747.198" y="-501.213" width="1" height="1174.06" transform="rotate(-45 747.198 -501.213)" fill="#242424"/>
<rect x="-189.492" y="-227.109" width="1" height="1174.06" transform="rotate(-45 -189.492 -227.109)" fill="#242424"/>
<rect x="247.508" y="-398.109" width="1" height="1174.06" transform="rotate(-45 247.508 -398.109)" fill="#242424"/>
<rect x="748.508" y="-506.109" width="1" height="1174.06" transform="rotate(-45 748.508 -506.109)" fill="#242424"/>
<rect x="-188.182" y="-232.004" width="1" height="1174.06" transform="rotate(-45 -188.182 -232.004)" fill="#242424"/>
<rect x="248.818" y="-403.004" width="1" height="1174.06" transform="rotate(-45 248.818 -403.004)" fill="#242424"/>
<rect x="749.818" y="-511.004" width="1" height="1174.06" transform="rotate(-45 749.818 -511.004)" fill="#242424"/>
<rect x="-186.872" y="-236.9" width="1" height="1174.06" transform="rotate(-45 -186.872 -236.9)" fill="#242424"/>
<rect x="250.128" y="-407.9" width="1" height="1174.06" transform="rotate(-45 250.128 -407.9)" fill="#242424"/>
<rect x="751.128" y="-515.9" width="1" height="1174.06" transform="rotate(-45 751.128 -515.9)" fill="#242424"/>
<rect x="-184.252" y="-246.691" width="1" height="1174.06" transform="rotate(-45 -184.252 -246.691)" fill="#242424"/>
<rect x="252.748" y="-417.691" width="1" height="1174.06" transform="rotate(-45 252.748 -417.691)" fill="#242424"/>
<rect x="753.748" y="-525.691" width="1" height="1174.06" transform="rotate(-45 753.748 -525.691)" fill="#242424"/>
<rect x="-185.562" y="-241.796" width="1" height="1174.06" transform="rotate(-45 -185.562 -241.796)" fill="#242424"/>
<rect x="251.438" y="-412.796" width="1" height="1174.06" transform="rotate(-45 251.438 -412.796)" fill="#242424"/>
<rect x="752.438" y="-520.796" width="1" height="1174.06" transform="rotate(-45 752.438 -520.796)" fill="#242424"/>
<rect x="-182.943" y="-251.587" width="1" height="1174.06" transform="rotate(-45 -182.943 -251.587)" fill="#242424"/>
<rect x="254.057" y="-422.587" width="1" height="1174.06" transform="rotate(-45 254.057 -422.587)" fill="#242424"/>
<rect x="755.057" y="-530.587" width="1" height="1174.06" transform="rotate(-45 755.057 -530.587)" fill="#242424"/>
<rect x="-181.633" y="-256.483" width="1" height="1174.06" transform="rotate(-45 -181.633 -256.483)" fill="#242424"/>
<rect x="255.367" y="-427.483" width="1" height="1174.06" transform="rotate(-45 255.367 -427.483)" fill="#242424"/>
<rect x="756.367" y="-535.483" width="1" height="1174.06" transform="rotate(-45 756.367 -535.483)" fill="#242424"/>
<rect x="-180.323" y="-261.379" width="1" height="1174.06" transform="rotate(-45 -180.323 -261.379)" fill="#242424"/>
<rect x="256.677" y="-432.379" width="1" height="1174.06" transform="rotate(-45 256.677 -432.379)" fill="#242424"/>
<rect x="757.677" y="-540.379" width="1" height="1174.06" transform="rotate(-45 757.677 -540.379)" fill="#242424"/>
<rect x="-179.013" y="-266.274" width="1" height="1174.06" transform="rotate(-45 -179.013 -266.274)" fill="#242424"/>
<rect x="257.987" y="-437.274" width="1" height="1174.06" transform="rotate(-45 257.987 -437.274)" fill="#242424"/>
<rect x="758.987" y="-545.274" width="1" height="1174.06" transform="rotate(-45 758.987 -545.274)" fill="#242424"/>
<rect x="-177.703" y="-271.17" width="1" height="1174.06" transform="rotate(-45 -177.703 -271.17)" fill="#242424"/>
<rect x="259.297" y="-442.17" width="1" height="1174.06" transform="rotate(-45 259.297 -442.17)" fill="#242424"/>
<rect x="760.297" y="-550.17" width="1" height="1174.06" transform="rotate(-45 760.297 -550.17)" fill="#242424"/>
<rect x="-176.393" y="-276.066" width="1" height="1174.06" transform="rotate(-45 -176.393 -276.066)" fill="#242424"/>
<rect x="260.607" y="-447.066" width="1" height="1174.06" transform="rotate(-45 260.607 -447.066)" fill="#242424"/>
<rect x="761.607" y="-555.066" width="1" height="1174.06" transform="rotate(-45 761.607 -555.066)" fill="#242424"/>
<rect x="-175.083" y="-280.961" width="1" height="1174.06" transform="rotate(-45 -175.083 -280.961)" fill="#242424"/>
<rect x="261.917" y="-451.961" width="1" height="1174.06" transform="rotate(-45 261.917 -451.961)" fill="#242424"/>
<rect x="762.917" y="-559.961" width="1" height="1174.06" transform="rotate(-45 762.917 -559.961)" fill="#242424"/>
<rect x="-173.773" y="-285.857" width="1" height="1174.06" transform="rotate(-45 -173.773 -285.857)" fill="#242424"/>
<rect x="263.227" y="-456.857" width="1" height="1174.06" transform="rotate(-45 263.227 -456.857)" fill="#242424"/>
<rect x="764.227" y="-564.857" width="1" height="1174.06" transform="rotate(-45 764.227 -564.857)" fill="#242424"/>
<rect x="-172.463" y="-290.753" width="1" height="1174.06" transform="rotate(-45 -172.463 -290.753)" fill="#242424"/>
<rect x="264.537" y="-461.753" width="1" height="1174.06" transform="rotate(-45 264.537 -461.753)" fill="#242424"/>
<rect x="765.537" y="-569.753" width="1" height="1174.06" transform="rotate(-45 765.537 -569.753)" fill="#242424"/>
<rect x="-171.153" y="-295.649" width="1" height="1174.06" transform="rotate(-45 -171.153 -295.649)" fill="#242424"/>
<rect x="265.847" y="-466.649" width="1" height="1174.06" transform="rotate(-45 265.847 -466.649)" fill="#242424"/>
<rect x="766.847" y="-574.649" width="1" height="1174.06" transform="rotate(-45 766.847 -574.649)" fill="#242424"/>
<rect x="-169.843" y="-300.544" width="1" height="1174.06" transform="rotate(-45 -169.843 -300.544)" fill="#242424"/>
<rect x="267.157" y="-471.544" width="1" height="1174.06" transform="rotate(-45 267.157 -471.544)" fill="#242424"/>
<rect x="768.157" y="-579.544" width="1" height="1174.06" transform="rotate(-45 768.157 -579.544)" fill="#242424"/>
<rect x="-168.533" y="-305.44" width="1" height="1174.06" transform="rotate(-45 -168.533 -305.44)" fill="#242424"/>
<rect x="268.467" y="-476.44" width="1" height="1174.06" transform="rotate(-45 268.467 -476.44)" fill="#242424"/>
<rect x="769.467" y="-584.44" width="1" height="1174.06" transform="rotate(-45 769.467 -584.44)" fill="#242424"/>
<rect x="-167.223" y="-310.336" width="1" height="1174.06" transform="rotate(-45 -167.223 -310.336)" fill="#242424"/>
<rect x="269.777" y="-481.336" width="1" height="1174.06" transform="rotate(-45 269.777 -481.336)" fill="#242424"/>
<rect x="770.777" y="-589.336" width="1" height="1174.06" transform="rotate(-45 770.777 -589.336)" fill="#242424"/>
<rect x="-165.914" y="-315.231" width="1" height="1174.06" transform="rotate(-45 -165.914 -315.231)" fill="#242424"/>
<rect x="271.086" y="-486.231" width="1" height="1174.06" transform="rotate(-45 271.086 -486.231)" fill="#242424"/>
<rect x="772.086" y="-594.231" width="1" height="1174.06" transform="rotate(-45 772.086 -594.231)" fill="#242424"/>
<rect x="-164.604" y="-320.127" width="1" height="1174.06" transform="rotate(-45 -164.604 -320.127)" fill="#242424"/>
<rect x="272.396" y="-491.127" width="1" height="1174.06" transform="rotate(-45 272.396 -491.127)" fill="#242424"/>
<rect x="773.396" y="-599.127" width="1" height="1174.06" transform="rotate(-45 773.396 -599.127)" fill="#242424"/>
<rect x="-163.294" y="-325.023" width="1" height="1174.06" transform="rotate(-45 -163.294 -325.023)" fill="#242424"/>
<rect x="273.706" y="-496.023" width="1" height="1174.06" transform="rotate(-45 273.706 -496.023)" fill="#242424"/>
<rect x="774.706" y="-604.023" width="1" height="1174.06" transform="rotate(-45 774.706 -604.023)" fill="#242424"/>
<rect x="-161.984" y="-329.919" width="1" height="1174.06" transform="rotate(-45 -161.984 -329.919)" fill="#242424"/>
<rect x="275.016" y="-500.919" width="1" height="1174.06" transform="rotate(-45 275.016 -500.919)" fill="#242424"/>
<rect x="776.016" y="-608.919" width="1" height="1174.06" transform="rotate(-45 776.016 -608.919)" fill="#242424"/>
<rect x="-160.674" y="-334.814" width="1" height="1174.06" transform="rotate(-45 -160.674 -334.814)" fill="#242424"/>
<rect x="276.326" y="-505.814" width="1" height="1174.06" transform="rotate(-45 276.326 -505.814)" fill="#242424"/>
<rect x="777.326" y="-613.814" width="1" height="1174.06" transform="rotate(-45 777.326 -613.814)" fill="#242424"/>
<rect x="-159.364" y="-339.71" width="1" height="1174.06" transform="rotate(-45 -159.364 -339.71)" fill="#242424"/>
<rect x="277.636" y="-510.71" width="1" height="1174.06" transform="rotate(-45 277.636 -510.71)" fill="#242424"/>
<rect x="778.636" y="-618.71" width="1" height="1174.06" transform="rotate(-45 778.636 -618.71)" fill="#242424"/>
<rect x="-158.054" y="-344.606" width="1" height="1174.06" transform="rotate(-45 -158.054 -344.606)" fill="#242424"/>
<rect x="278.946" y="-515.606" width="1" height="1174.06" transform="rotate(-45 278.946 -515.606)" fill="#242424"/>
<rect x="779.946" y="-623.606" width="1" height="1174.06" transform="rotate(-45 779.946 -623.606)" fill="#242424"/>
<rect x="-156.744" y="-349.501" width="1" height="1174.06" transform="rotate(-45 -156.744 -349.501)" fill="#242424"/>
<rect x="280.256" y="-520.501" width="1" height="1174.06" transform="rotate(-45 280.256 -520.501)" fill="#242424"/>
<rect x="781.256" y="-628.501" width="1" height="1174.06" transform="rotate(-45 781.256 -628.501)" fill="#242424"/>
<rect x="-155.434" y="-354.397" width="1" height="1174.06" transform="rotate(-45 -155.434 -354.397)" fill="#242424"/>
<rect x="281.566" y="-525.397" width="1" height="1174.06" transform="rotate(-45 281.566 -525.397)" fill="#242424"/>
<rect x="782.566" y="-633.397" width="1" height="1174.06" transform="rotate(-45 782.566 -633.397)" fill="#242424"/>
<rect x="-154.125" y="-359.293" width="1" height="1174.06" transform="rotate(-45 -154.125 -359.293)" fill="#242424"/>
<rect x="282.875" y="-530.293" width="1" height="1174.06" transform="rotate(-45 282.875 -530.293)" fill="#242424"/>
<rect x="783.875" y="-638.293" width="1" height="1174.06" transform="rotate(-45 783.875 -638.293)" fill="#242424"/>
</g>
</g>
<path d="M0 0V-1H-1V0H0ZM1110 0H1111V-1H1110V0ZM0 1H1110V-1H0V1ZM1109 0V150H1111V0H1109ZM1 150V0H-1V150H1Z" fill="#242424" mask="url(#path-1-inside-1_10_486)"/>
<defs>
<clipPath id="clip0_10_486">
<path d="M0 0H1110V150H0V0Z" fill="white"/>
</clipPath>
<clipPath id="clip1_10_486">
<rect width="1110" height="500" fill="white" transform="translate(0 -175)"/>
</clipPath>
</defs>
</svg>
