<svg width="358" height="100" viewBox="0 0 358 100" fill="none" xmlns="http://www.w3.org/2000/svg">
<g clip-path="url(#clip0_10_9151)">
<mask id="path-1-inside-1_10_9151" fill="white">
<path d="M0 0H358V100H0V0Z"/>
</mask>
<g opacity="0.5" clip-path="url(#clip1_10_9151)">
<rect x="-814" y="-66.2993" width="1" height="1174.06" transform="rotate(-45 -814 -66.2993)" fill="#242424"/>
<rect x="-377" y="-237.299" width="1" height="1174.06" transform="rotate(-45 -377 -237.299)" fill="#242424"/>
<rect x="124" y="-345.299" width="1" height="1174.06" transform="rotate(-45 124 -345.299)" fill="#242424"/>
<rect x="-812.69" y="-71.1948" width="1" height="1174.06" transform="rotate(-45 -812.69 -71.1948)" fill="#242424"/>
<rect x="-375.69" y="-242.195" width="1" height="1174.06" transform="rotate(-45 -375.69 -242.195)" fill="#242424"/>
<rect x="125.31" y="-350.195" width="1" height="1174.06" transform="rotate(-45 125.31 -350.195)" fill="#242424"/>
<rect x="-811.38" y="-76.0908" width="1" height="1174.06" transform="rotate(-45 -811.38 -76.0908)" fill="#242424"/>
<rect x="-374.38" y="-247.091" width="1" height="1174.06" transform="rotate(-45 -374.38 -247.091)" fill="#242424"/>
<rect x="126.62" y="-355.091" width="1" height="1174.06" transform="rotate(-45 126.62 -355.091)" fill="#242424"/>
<rect x="-810.07" y="-80.9863" width="1" height="1174.06" transform="rotate(-45 -810.07 -80.9863)" fill="#242424"/>
<rect x="-373.07" y="-251.986" width="1" height="1174.06" transform="rotate(-45 -373.07 -251.986)" fill="#242424"/>
<rect x="127.93" y="-359.986" width="1" height="1174.06" transform="rotate(-45 127.93 -359.986)" fill="#242424"/>
<rect x="-808.76" y="-85.8818" width="1" height="1174.06" transform="rotate(-45 -808.76 -85.8818)" fill="#242424"/>
<rect x="-371.76" y="-256.882" width="1" height="1174.06" transform="rotate(-45 -371.76 -256.882)" fill="#242424"/>
<rect x="129.24" y="-364.882" width="1" height="1174.06" transform="rotate(-45 129.24 -364.882)" fill="#242424"/>
<rect x="-807.45" y="-90.7778" width="1" height="1174.06" transform="rotate(-45 -807.45 -90.7778)" fill="#242424"/>
<rect x="-370.45" y="-261.778" width="1" height="1174.06" transform="rotate(-45 -370.45 -261.778)" fill="#242424"/>
<rect x="130.55" y="-369.778" width="1" height="1174.06" transform="rotate(-45 130.55 -369.778)" fill="#242424"/>
<rect x="-806.141" y="-95.6733" width="1" height="1174.06" transform="rotate(-45 -806.141 -95.6733)" fill="#242424"/>
<rect x="-369.141" y="-266.673" width="1" height="1174.06" transform="rotate(-45 -369.141 -266.673)" fill="#242424"/>
<rect x="131.859" y="-374.673" width="1" height="1174.06" transform="rotate(-45 131.859 -374.673)" fill="#242424"/>
<rect x="-804.831" y="-100.569" width="1" height="1174.06" transform="rotate(-45 -804.831 -100.569)" fill="#242424"/>
<rect x="-367.831" y="-271.569" width="1" height="1174.06" transform="rotate(-45 -367.831 -271.569)" fill="#242424"/>
<rect x="133.169" y="-379.569" width="1" height="1174.06" transform="rotate(-45 133.169 -379.569)" fill="#242424"/>
<rect x="-803.521" y="-105.465" width="1" height="1174.06" transform="rotate(-45 -803.521 -105.465)" fill="#242424"/>
<rect x="-366.521" y="-276.465" width="1" height="1174.06" transform="rotate(-45 -366.521 -276.465)" fill="#242424"/>
<rect x="134.479" y="-384.465" width="1" height="1174.06" transform="rotate(-45 134.479 -384.465)" fill="#242424"/>
<rect x="-802.211" y="-110.36" width="1" height="1174.06" transform="rotate(-45 -802.211 -110.36)" fill="#242424"/>
<rect x="-365.211" y="-281.36" width="1" height="1174.06" transform="rotate(-45 -365.211 -281.36)" fill="#242424"/>
<rect x="135.789" y="-389.36" width="1" height="1174.06" transform="rotate(-45 135.789 -389.36)" fill="#242424"/>
<rect x="-800.901" y="-115.256" width="1" height="1174.06" transform="rotate(-45 -800.901 -115.256)" fill="#242424"/>
<rect x="-363.901" y="-286.256" width="1" height="1174.06" transform="rotate(-45 -363.901 -286.256)" fill="#242424"/>
<rect x="137.099" y="-394.256" width="1" height="1174.06" transform="rotate(-45 137.099 -394.256)" fill="#242424"/>
<rect x="-799.591" y="-120.152" width="1" height="1174.06" transform="rotate(-45 -799.591 -120.152)" fill="#242424"/>
<rect x="-362.591" y="-291.152" width="1" height="1174.06" transform="rotate(-45 -362.591 -291.152)" fill="#242424"/>
<rect x="138.409" y="-399.152" width="1" height="1174.06" transform="rotate(-45 138.409 -399.152)" fill="#242424"/>
<rect x="-798.281" y="-125.047" width="1" height="1174.06" transform="rotate(-45 -798.281 -125.047)" fill="#242424"/>
<rect x="-361.281" y="-296.047" width="1" height="1174.06" transform="rotate(-45 -361.281 -296.047)" fill="#242424"/>
<rect x="139.719" y="-404.047" width="1" height="1174.06" transform="rotate(-45 139.719 -404.047)" fill="#242424"/>
<rect x="-796.971" y="-129.943" width="1" height="1174.06" transform="rotate(-45 -796.971 -129.943)" fill="#242424"/>
<rect x="-359.971" y="-300.943" width="1" height="1174.06" transform="rotate(-45 -359.971 -300.943)" fill="#242424"/>
<rect x="141.029" y="-408.943" width="1" height="1174.06" transform="rotate(-45 141.029 -408.943)" fill="#242424"/>
<rect x="-795.661" y="-134.839" width="1" height="1174.06" transform="rotate(-45 -795.661 -134.839)" fill="#242424"/>
<rect x="-358.661" y="-305.839" width="1" height="1174.06" transform="rotate(-45 -358.661 -305.839)" fill="#242424"/>
<rect x="142.339" y="-413.839" width="1" height="1174.06" transform="rotate(-45 142.339 -413.839)" fill="#242424"/>
<rect x="-794.352" y="-139.735" width="1" height="1174.06" transform="rotate(-45 -794.352 -139.735)" fill="#242424"/>
<rect x="-357.352" y="-310.735" width="1" height="1174.06" transform="rotate(-45 -357.352 -310.735)" fill="#242424"/>
<rect x="143.648" y="-418.735" width="1" height="1174.06" transform="rotate(-45 143.648 -418.735)" fill="#242424"/>
<rect x="-793.042" y="-144.63" width="1" height="1174.06" transform="rotate(-45 -793.042 -144.63)" fill="#242424"/>
<rect x="-356.042" y="-315.63" width="1" height="1174.06" transform="rotate(-45 -356.042 -315.63)" fill="#242424"/>
<rect x="144.958" y="-423.63" width="1" height="1174.06" transform="rotate(-45 144.958 -423.63)" fill="#242424"/>
<rect x="-791.732" y="-149.526" width="1" height="1174.06" transform="rotate(-45 -791.732 -149.526)" fill="#242424"/>
<rect x="-354.732" y="-320.526" width="1" height="1174.06" transform="rotate(-45 -354.732 -320.526)" fill="#242424"/>
<rect x="146.268" y="-428.526" width="1" height="1174.06" transform="rotate(-45 146.268 -428.526)" fill="#242424"/>
<rect x="-790.422" y="-154.422" width="1" height="1174.06" transform="rotate(-45 -790.422 -154.422)" fill="#242424"/>
<rect x="-353.422" y="-325.422" width="1" height="1174.06" transform="rotate(-45 -353.422 -325.422)" fill="#242424"/>
<rect x="147.578" y="-433.422" width="1" height="1174.06" transform="rotate(-45 147.578 -433.422)" fill="#242424"/>
<rect x="-789.112" y="-159.317" width="1" height="1174.06" transform="rotate(-45 -789.112 -159.317)" fill="#242424"/>
<rect x="-352.112" y="-330.317" width="1" height="1174.06" transform="rotate(-45 -352.112 -330.317)" fill="#242424"/>
<rect x="148.888" y="-438.317" width="1" height="1174.06" transform="rotate(-45 148.888 -438.317)" fill="#242424"/>
<rect x="-787.802" y="-164.213" width="1" height="1174.06" transform="rotate(-45 -787.802 -164.213)" fill="#242424"/>
<rect x="-350.802" y="-335.213" width="1" height="1174.06" transform="rotate(-45 -350.802 -335.213)" fill="#242424"/>
<rect x="150.198" y="-443.213" width="1" height="1174.06" transform="rotate(-45 150.198 -443.213)" fill="#242424"/>
<rect x="-786.492" y="-169.109" width="1" height="1174.06" transform="rotate(-45 -786.492 -169.109)" fill="#242424"/>
<rect x="-349.492" y="-340.109" width="1" height="1174.06" transform="rotate(-45 -349.492 -340.109)" fill="#242424"/>
<rect x="151.508" y="-448.109" width="1" height="1174.06" transform="rotate(-45 151.508 -448.109)" fill="#242424"/>
<rect x="-785.182" y="-174.004" width="1" height="1174.06" transform="rotate(-45 -785.182 -174.004)" fill="#242424"/>
<rect x="-348.182" y="-345.004" width="1" height="1174.06" transform="rotate(-45 -348.182 -345.004)" fill="#242424"/>
<rect x="152.818" y="-453.004" width="1" height="1174.06" transform="rotate(-45 152.818 -453.004)" fill="#242424"/>
<rect x="-783.872" y="-178.9" width="1" height="1174.06" transform="rotate(-45 -783.872 -178.9)" fill="#242424"/>
<rect x="-346.872" y="-349.9" width="1" height="1174.06" transform="rotate(-45 -346.872 -349.9)" fill="#242424"/>
<rect x="154.128" y="-457.9" width="1" height="1174.06" transform="rotate(-45 154.128 -457.9)" fill="#242424"/>
<rect x="-781.252" y="-188.691" width="1" height="1174.06" transform="rotate(-45 -781.252 -188.691)" fill="#242424"/>
<rect x="-344.252" y="-359.691" width="1" height="1174.06" transform="rotate(-45 -344.252 -359.691)" fill="#242424"/>
<rect x="156.748" y="-467.691" width="1" height="1174.06" transform="rotate(-45 156.748 -467.691)" fill="#242424"/>
<rect x="-782.562" y="-183.796" width="1" height="1174.06" transform="rotate(-45 -782.562 -183.796)" fill="#242424"/>
<rect x="-345.562" y="-354.796" width="1" height="1174.06" transform="rotate(-45 -345.562 -354.796)" fill="#242424"/>
<rect x="155.438" y="-462.796" width="1" height="1174.06" transform="rotate(-45 155.438 -462.796)" fill="#242424"/>
<rect x="-779.943" y="-193.587" width="1" height="1174.06" transform="rotate(-45 -779.943 -193.587)" fill="#242424"/>
<rect x="-342.943" y="-364.587" width="1" height="1174.06" transform="rotate(-45 -342.943 -364.587)" fill="#242424"/>
<rect x="158.057" y="-472.587" width="1" height="1174.06" transform="rotate(-45 158.057 -472.587)" fill="#242424"/>
<rect x="-778.633" y="-198.483" width="1" height="1174.06" transform="rotate(-45 -778.633 -198.483)" fill="#242424"/>
<rect x="-341.633" y="-369.483" width="1" height="1174.06" transform="rotate(-45 -341.633 -369.483)" fill="#242424"/>
<rect x="159.367" y="-477.483" width="1" height="1174.06" transform="rotate(-45 159.367 -477.483)" fill="#242424"/>
<rect x="-777.323" y="-203.379" width="1" height="1174.06" transform="rotate(-45 -777.323 -203.379)" fill="#242424"/>
<rect x="-340.323" y="-374.379" width="1" height="1174.06" transform="rotate(-45 -340.323 -374.379)" fill="#242424"/>
<rect x="160.677" y="-482.379" width="1" height="1174.06" transform="rotate(-45 160.677 -482.379)" fill="#242424"/>
<rect x="-776.013" y="-208.274" width="1" height="1174.06" transform="rotate(-45 -776.013 -208.274)" fill="#242424"/>
<rect x="-339.013" y="-379.274" width="1" height="1174.06" transform="rotate(-45 -339.013 -379.274)" fill="#242424"/>
<rect x="161.987" y="-487.274" width="1" height="1174.06" transform="rotate(-45 161.987 -487.274)" fill="#242424"/>
<rect x="-774.703" y="-213.17" width="1" height="1174.06" transform="rotate(-45 -774.703 -213.17)" fill="#242424"/>
<rect x="-337.703" y="-384.17" width="1" height="1174.06" transform="rotate(-45 -337.703 -384.17)" fill="#242424"/>
<rect x="163.297" y="-492.17" width="1" height="1174.06" transform="rotate(-45 163.297 -492.17)" fill="#242424"/>
<rect x="-773.393" y="-218.066" width="1" height="1174.06" transform="rotate(-45 -773.393 -218.066)" fill="#242424"/>
<rect x="-336.393" y="-389.066" width="1" height="1174.06" transform="rotate(-45 -336.393 -389.066)" fill="#242424"/>
<rect x="164.607" y="-497.066" width="1" height="1174.06" transform="rotate(-45 164.607 -497.066)" fill="#242424"/>
<rect x="-772.083" y="-222.961" width="1" height="1174.06" transform="rotate(-45 -772.083 -222.961)" fill="#242424"/>
<rect x="-335.083" y="-393.961" width="1" height="1174.06" transform="rotate(-45 -335.083 -393.961)" fill="#242424"/>
<rect x="165.917" y="-501.961" width="1" height="1174.06" transform="rotate(-45 165.917 -501.961)" fill="#242424"/>
<rect x="-770.773" y="-227.857" width="1" height="1174.06" transform="rotate(-45 -770.773 -227.857)" fill="#242424"/>
<rect x="-333.773" y="-398.857" width="1" height="1174.06" transform="rotate(-45 -333.773 -398.857)" fill="#242424"/>
<rect x="167.227" y="-506.857" width="1" height="1174.06" transform="rotate(-45 167.227 -506.857)" fill="#242424"/>
<rect x="-769.463" y="-232.753" width="1" height="1174.06" transform="rotate(-45 -769.463 -232.753)" fill="#242424"/>
<rect x="-332.463" y="-403.753" width="1" height="1174.06" transform="rotate(-45 -332.463 -403.753)" fill="#242424"/>
<rect x="168.537" y="-511.753" width="1" height="1174.06" transform="rotate(-45 168.537 -511.753)" fill="#242424"/>
<rect x="-768.153" y="-237.649" width="1" height="1174.06" transform="rotate(-45 -768.153 -237.649)" fill="#242424"/>
<rect x="-331.153" y="-408.649" width="1" height="1174.06" transform="rotate(-45 -331.153 -408.649)" fill="#242424"/>
<rect x="169.847" y="-516.649" width="1" height="1174.06" transform="rotate(-45 169.847 -516.649)" fill="#242424"/>
<rect x="-766.843" y="-242.544" width="1" height="1174.06" transform="rotate(-45 -766.843 -242.544)" fill="#242424"/>
<rect x="-329.843" y="-413.544" width="1" height="1174.06" transform="rotate(-45 -329.843 -413.544)" fill="#242424"/>
<rect x="171.157" y="-521.544" width="1" height="1174.06" transform="rotate(-45 171.157 -521.544)" fill="#242424"/>
<rect x="-765.533" y="-247.44" width="1" height="1174.06" transform="rotate(-45 -765.533 -247.44)" fill="#242424"/>
<rect x="-328.533" y="-418.44" width="1" height="1174.06" transform="rotate(-45 -328.533 -418.44)" fill="#242424"/>
<rect x="172.467" y="-526.44" width="1" height="1174.06" transform="rotate(-45 172.467 -526.44)" fill="#242424"/>
<rect x="-764.223" y="-252.336" width="1" height="1174.06" transform="rotate(-45 -764.223 -252.336)" fill="#242424"/>
<rect x="-327.223" y="-423.336" width="1" height="1174.06" transform="rotate(-45 -327.223 -423.336)" fill="#242424"/>
<rect x="173.777" y="-531.336" width="1" height="1174.06" transform="rotate(-45 173.777 -531.336)" fill="#242424"/>
<rect x="-762.914" y="-257.231" width="1" height="1174.06" transform="rotate(-45 -762.914 -257.231)" fill="#242424"/>
<rect x="-325.914" y="-428.231" width="1" height="1174.06" transform="rotate(-45 -325.914 -428.231)" fill="#242424"/>
<rect x="175.086" y="-536.231" width="1" height="1174.06" transform="rotate(-45 175.086 -536.231)" fill="#242424"/>
<rect x="-761.604" y="-262.127" width="1" height="1174.06" transform="rotate(-45 -761.604 -262.127)" fill="#242424"/>
<rect x="-324.604" y="-433.127" width="1" height="1174.06" transform="rotate(-45 -324.604 -433.127)" fill="#242424"/>
<rect x="176.396" y="-541.127" width="1" height="1174.06" transform="rotate(-45 176.396 -541.127)" fill="#242424"/>
<rect x="-760.294" y="-267.023" width="1" height="1174.06" transform="rotate(-45 -760.294 -267.023)" fill="#242424"/>
<rect x="-323.294" y="-438.023" width="1" height="1174.06" transform="rotate(-45 -323.294 -438.023)" fill="#242424"/>
<rect x="177.706" y="-546.023" width="1" height="1174.06" transform="rotate(-45 177.706 -546.023)" fill="#242424"/>
<rect x="-758.984" y="-271.919" width="1" height="1174.06" transform="rotate(-45 -758.984 -271.919)" fill="#242424"/>
<rect x="-321.984" y="-442.919" width="1" height="1174.06" transform="rotate(-45 -321.984 -442.919)" fill="#242424"/>
<rect x="179.016" y="-550.919" width="1" height="1174.06" transform="rotate(-45 179.016 -550.919)" fill="#242424"/>
<rect x="-757.674" y="-276.814" width="1" height="1174.06" transform="rotate(-45 -757.674 -276.814)" fill="#242424"/>
<rect x="-320.674" y="-447.814" width="1" height="1174.06" transform="rotate(-45 -320.674 -447.814)" fill="#242424"/>
<rect x="180.326" y="-555.814" width="1" height="1174.06" transform="rotate(-45 180.326 -555.814)" fill="#242424"/>
<rect x="-756.364" y="-281.71" width="1" height="1174.06" transform="rotate(-45 -756.364 -281.71)" fill="#242424"/>
<rect x="-319.364" y="-452.71" width="1" height="1174.06" transform="rotate(-45 -319.364 -452.71)" fill="#242424"/>
<rect x="181.636" y="-560.71" width="1" height="1174.06" transform="rotate(-45 181.636 -560.71)" fill="#242424"/>
<rect x="-755.054" y="-286.606" width="1" height="1174.06" transform="rotate(-45 -755.054 -286.606)" fill="#242424"/>
<rect x="-318.054" y="-457.606" width="1" height="1174.06" transform="rotate(-45 -318.054 -457.606)" fill="#242424"/>
<rect x="182.946" y="-565.606" width="1" height="1174.06" transform="rotate(-45 182.946 -565.606)" fill="#242424"/>
<rect x="-753.744" y="-291.501" width="1" height="1174.06" transform="rotate(-45 -753.744 -291.501)" fill="#242424"/>
<rect x="-316.744" y="-462.501" width="1" height="1174.06" transform="rotate(-45 -316.744 -462.501)" fill="#242424"/>
<rect x="184.256" y="-570.501" width="1" height="1174.06" transform="rotate(-45 184.256 -570.501)" fill="#242424"/>
<rect x="-752.434" y="-296.397" width="1" height="1174.06" transform="rotate(-45 -752.434 -296.397)" fill="#242424"/>
<rect x="-315.434" y="-467.397" width="1" height="1174.06" transform="rotate(-45 -315.434 -467.397)" fill="#242424"/>
<rect x="185.566" y="-575.397" width="1" height="1174.06" transform="rotate(-45 185.566 -575.397)" fill="#242424"/>
<rect x="-751.125" y="-301.293" width="1" height="1174.06" transform="rotate(-45 -751.125 -301.293)" fill="#242424"/>
<rect x="-314.125" y="-472.293" width="1" height="1174.06" transform="rotate(-45 -314.125 -472.293)" fill="#242424"/>
<rect x="186.875" y="-580.293" width="1" height="1174.06" transform="rotate(-45 186.875 -580.293)" fill="#242424"/>
<rect x="-593" y="-149.299" width="1" height="1174.06" transform="rotate(-45 -593 -149.299)" fill="#242424"/>
<rect x="-156" y="-320.299" width="1" height="1174.06" transform="rotate(-45 -156 -320.299)" fill="#242424"/>
<rect x="345" y="-428.299" width="1" height="1174.06" transform="rotate(-45 345 -428.299)" fill="#242424"/>
<rect x="-591.69" y="-154.195" width="1" height="1174.06" transform="rotate(-45 -591.69 -154.195)" fill="#242424"/>
<rect x="-154.69" y="-325.195" width="1" height="1174.06" transform="rotate(-45 -154.69 -325.195)" fill="#242424"/>
<rect x="346.31" y="-433.195" width="1" height="1174.06" transform="rotate(-45 346.31 -433.195)" fill="#242424"/>
<rect x="-590.38" y="-159.091" width="1" height="1174.06" transform="rotate(-45 -590.38 -159.091)" fill="#242424"/>
<rect x="-153.38" y="-330.091" width="1" height="1174.06" transform="rotate(-45 -153.38 -330.091)" fill="#242424"/>
<rect x="347.62" y="-438.091" width="1" height="1174.06" transform="rotate(-45 347.62 -438.091)" fill="#242424"/>
<rect x="-589.07" y="-163.986" width="1" height="1174.06" transform="rotate(-45 -589.07 -163.986)" fill="#242424"/>
<rect x="-152.07" y="-334.986" width="1" height="1174.06" transform="rotate(-45 -152.07 -334.986)" fill="#242424"/>
<rect x="348.93" y="-442.986" width="1" height="1174.06" transform="rotate(-45 348.93 -442.986)" fill="#242424"/>
<rect x="-587.76" y="-168.882" width="1" height="1174.06" transform="rotate(-45 -587.76 -168.882)" fill="#242424"/>
<rect x="-150.76" y="-339.882" width="1" height="1174.06" transform="rotate(-45 -150.76 -339.882)" fill="#242424"/>
<rect x="350.24" y="-447.882" width="1" height="1174.06" transform="rotate(-45 350.24 -447.882)" fill="#242424"/>
<rect x="-586.45" y="-173.778" width="1" height="1174.06" transform="rotate(-45 -586.45 -173.778)" fill="#242424"/>
<rect x="-149.45" y="-344.778" width="1" height="1174.06" transform="rotate(-45 -149.45 -344.778)" fill="#242424"/>
<rect x="351.55" y="-452.778" width="1" height="1174.06" transform="rotate(-45 351.55 -452.778)" fill="#242424"/>
<rect x="-585.141" y="-178.673" width="1" height="1174.06" transform="rotate(-45 -585.141 -178.673)" fill="#242424"/>
<rect x="-148.141" y="-349.673" width="1" height="1174.06" transform="rotate(-45 -148.141 -349.673)" fill="#242424"/>
<rect x="352.859" y="-457.673" width="1" height="1174.06" transform="rotate(-45 352.859 -457.673)" fill="#242424"/>
<rect x="-583.831" y="-183.569" width="1" height="1174.06" transform="rotate(-45 -583.831 -183.569)" fill="#242424"/>
<rect x="-146.831" y="-354.569" width="1" height="1174.06" transform="rotate(-45 -146.831 -354.569)" fill="#242424"/>
<rect x="354.169" y="-462.569" width="1" height="1174.06" transform="rotate(-45 354.169 -462.569)" fill="#242424"/>
<rect x="-582.521" y="-188.465" width="1" height="1174.06" transform="rotate(-45 -582.521 -188.465)" fill="#242424"/>
<rect x="-145.521" y="-359.465" width="1" height="1174.06" transform="rotate(-45 -145.521 -359.465)" fill="#242424"/>
<rect x="355.479" y="-467.465" width="1" height="1174.06" transform="rotate(-45 355.479 -467.465)" fill="#242424"/>
<rect x="-581.211" y="-193.36" width="1" height="1174.06" transform="rotate(-45 -581.211 -193.36)" fill="#242424"/>
<rect x="-144.211" y="-364.36" width="1" height="1174.06" transform="rotate(-45 -144.211 -364.36)" fill="#242424"/>
<rect x="356.789" y="-472.36" width="1" height="1174.06" transform="rotate(-45 356.789 -472.36)" fill="#242424"/>
<rect x="-579.901" y="-198.256" width="1" height="1174.06" transform="rotate(-45 -579.901 -198.256)" fill="#242424"/>
<rect x="-142.901" y="-369.256" width="1" height="1174.06" transform="rotate(-45 -142.901 -369.256)" fill="#242424"/>
<rect x="-578.591" y="-203.152" width="1" height="1174.06" transform="rotate(-45 -578.591 -203.152)" fill="#242424"/>
<rect x="-141.591" y="-374.152" width="1" height="1174.06" transform="rotate(-45 -141.591 -374.152)" fill="#242424"/>
<rect x="-577.281" y="-208.047" width="1" height="1174.06" transform="rotate(-45 -577.281 -208.047)" fill="#242424"/>
<rect x="-140.281" y="-379.047" width="1" height="1174.06" transform="rotate(-45 -140.281 -379.047)" fill="#242424"/>
<rect x="-575.971" y="-212.943" width="1" height="1174.06" transform="rotate(-45 -575.971 -212.943)" fill="#242424"/>
<rect x="-138.971" y="-383.943" width="1" height="1174.06" transform="rotate(-45 -138.971 -383.943)" fill="#242424"/>
<rect x="-574.661" y="-217.839" width="1" height="1174.06" transform="rotate(-45 -574.661 -217.839)" fill="#242424"/>
<rect x="-137.661" y="-388.839" width="1" height="1174.06" transform="rotate(-45 -137.661 -388.839)" fill="#242424"/>
<rect x="-573.352" y="-222.735" width="1" height="1174.06" transform="rotate(-45 -573.352 -222.735)" fill="#242424"/>
<rect x="-136.352" y="-393.735" width="1" height="1174.06" transform="rotate(-45 -136.352 -393.735)" fill="#242424"/>
<rect x="-572.042" y="-227.63" width="1" height="1174.06" transform="rotate(-45 -572.042 -227.63)" fill="#242424"/>
<rect x="-135.042" y="-398.63" width="1" height="1174.06" transform="rotate(-45 -135.042 -398.63)" fill="#242424"/>
<rect x="-570.732" y="-232.526" width="1" height="1174.06" transform="rotate(-45 -570.732 -232.526)" fill="#242424"/>
<rect x="-133.732" y="-403.526" width="1" height="1174.06" transform="rotate(-45 -133.732 -403.526)" fill="#242424"/>
<rect x="-569.422" y="-237.422" width="1" height="1174.06" transform="rotate(-45 -569.422 -237.422)" fill="#242424"/>
<rect x="-132.422" y="-408.422" width="1" height="1174.06" transform="rotate(-45 -132.422 -408.422)" fill="#242424"/>
<rect x="-568.112" y="-242.317" width="1" height="1174.06" transform="rotate(-45 -568.112 -242.317)" fill="#242424"/>
<rect x="-131.112" y="-413.317" width="1" height="1174.06" transform="rotate(-45 -131.112 -413.317)" fill="#242424"/>
<rect x="-566.802" y="-247.213" width="1" height="1174.06" transform="rotate(-45 -566.802 -247.213)" fill="#242424"/>
<rect x="-129.802" y="-418.213" width="1" height="1174.06" transform="rotate(-45 -129.802 -418.213)" fill="#242424"/>
<rect x="-565.492" y="-252.109" width="1" height="1174.06" transform="rotate(-45 -565.492 -252.109)" fill="#242424"/>
<rect x="-128.492" y="-423.109" width="1" height="1174.06" transform="rotate(-45 -128.492 -423.109)" fill="#242424"/>
<rect x="-564.182" y="-257.004" width="1" height="1174.06" transform="rotate(-45 -564.182 -257.004)" fill="#242424"/>
<rect x="-127.182" y="-428.004" width="1" height="1174.06" transform="rotate(-45 -127.182 -428.004)" fill="#242424"/>
<rect x="-562.872" y="-261.9" width="1" height="1174.06" transform="rotate(-45 -562.872 -261.9)" fill="#242424"/>
<rect x="-125.872" y="-432.9" width="1" height="1174.06" transform="rotate(-45 -125.872 -432.9)" fill="#242424"/>
<rect x="-560.252" y="-271.691" width="1" height="1174.06" transform="rotate(-45 -560.252 -271.691)" fill="#242424"/>
<rect x="-123.252" y="-442.691" width="1" height="1174.06" transform="rotate(-45 -123.252 -442.691)" fill="#242424"/>
<rect x="-561.562" y="-266.796" width="1" height="1174.06" transform="rotate(-45 -561.562 -266.796)" fill="#242424"/>
<rect x="-124.562" y="-437.796" width="1" height="1174.06" transform="rotate(-45 -124.562 -437.796)" fill="#242424"/>
<rect x="-558.943" y="-276.587" width="1" height="1174.06" transform="rotate(-45 -558.943 -276.587)" fill="#242424"/>
<rect x="-121.943" y="-447.587" width="1" height="1174.06" transform="rotate(-45 -121.943 -447.587)" fill="#242424"/>
<rect x="-557.633" y="-281.483" width="1" height="1174.06" transform="rotate(-45 -557.633 -281.483)" fill="#242424"/>
<rect x="-120.633" y="-452.483" width="1" height="1174.06" transform="rotate(-45 -120.633 -452.483)" fill="#242424"/>
<rect x="-556.323" y="-286.379" width="1" height="1174.06" transform="rotate(-45 -556.323 -286.379)" fill="#242424"/>
<rect x="-119.323" y="-457.379" width="1" height="1174.06" transform="rotate(-45 -119.323 -457.379)" fill="#242424"/>
<rect x="-555.013" y="-291.274" width="1" height="1174.06" transform="rotate(-45 -555.013 -291.274)" fill="#242424"/>
<rect x="-118.013" y="-462.274" width="1" height="1174.06" transform="rotate(-45 -118.013 -462.274)" fill="#242424"/>
<rect x="-553.703" y="-296.17" width="1" height="1174.06" transform="rotate(-45 -553.703 -296.17)" fill="#242424"/>
<rect x="-116.703" y="-467.17" width="1" height="1174.06" transform="rotate(-45 -116.703 -467.17)" fill="#242424"/>
<rect x="-552.393" y="-301.066" width="1" height="1174.06" transform="rotate(-45 -552.393 -301.066)" fill="#242424"/>
<rect x="-115.393" y="-472.066" width="1" height="1174.06" transform="rotate(-45 -115.393 -472.066)" fill="#242424"/>
<rect x="-551.083" y="-305.961" width="1" height="1174.06" transform="rotate(-45 -551.083 -305.961)" fill="#242424"/>
<rect x="-114.083" y="-476.961" width="1" height="1174.06" transform="rotate(-45 -114.083 -476.961)" fill="#242424"/>
<rect x="-549.773" y="-310.857" width="1" height="1174.06" transform="rotate(-45 -549.773 -310.857)" fill="#242424"/>
<rect x="-112.773" y="-481.857" width="1" height="1174.06" transform="rotate(-45 -112.773 -481.857)" fill="#242424"/>
<rect x="-548.463" y="-315.753" width="1" height="1174.06" transform="rotate(-45 -548.463 -315.753)" fill="#242424"/>
<rect x="-111.463" y="-486.753" width="1" height="1174.06" transform="rotate(-45 -111.463 -486.753)" fill="#242424"/>
<rect x="-547.153" y="-320.649" width="1" height="1174.06" transform="rotate(-45 -547.153 -320.649)" fill="#242424"/>
<rect x="-110.153" y="-491.649" width="1" height="1174.06" transform="rotate(-45 -110.153 -491.649)" fill="#242424"/>
<rect x="-545.843" y="-325.544" width="1" height="1174.06" transform="rotate(-45 -545.843 -325.544)" fill="#242424"/>
<rect x="-108.843" y="-496.544" width="1" height="1174.06" transform="rotate(-45 -108.843 -496.544)" fill="#242424"/>
<rect x="-544.533" y="-330.44" width="1" height="1174.06" transform="rotate(-45 -544.533 -330.44)" fill="#242424"/>
<rect x="-107.533" y="-501.44" width="1" height="1174.06" transform="rotate(-45 -107.533 -501.44)" fill="#242424"/>
<rect x="-543.223" y="-335.336" width="1" height="1174.06" transform="rotate(-45 -543.223 -335.336)" fill="#242424"/>
<rect x="-106.223" y="-506.336" width="1" height="1174.06" transform="rotate(-45 -106.223 -506.336)" fill="#242424"/>
<rect x="-541.914" y="-340.231" width="1" height="1174.06" transform="rotate(-45 -541.914 -340.231)" fill="#242424"/>
<rect x="-104.914" y="-511.231" width="1" height="1174.06" transform="rotate(-45 -104.914 -511.231)" fill="#242424"/>
<rect x="-540.604" y="-345.127" width="1" height="1174.06" transform="rotate(-45 -540.604 -345.127)" fill="#242424"/>
<rect x="-103.604" y="-516.127" width="1" height="1174.06" transform="rotate(-45 -103.604 -516.127)" fill="#242424"/>
<rect x="-539.294" y="-350.023" width="1" height="1174.06" transform="rotate(-45 -539.294 -350.023)" fill="#242424"/>
<rect x="-102.294" y="-521.023" width="1" height="1174.06" transform="rotate(-45 -102.294 -521.023)" fill="#242424"/>
<rect x="-537.984" y="-354.919" width="1" height="1174.06" transform="rotate(-45 -537.984 -354.919)" fill="#242424"/>
<rect x="-100.984" y="-525.919" width="1" height="1174.06" transform="rotate(-45 -100.984 -525.919)" fill="#242424"/>
<rect x="-536.674" y="-359.814" width="1" height="1174.06" transform="rotate(-45 -536.674 -359.814)" fill="#242424"/>
<rect x="-99.6741" y="-530.814" width="1" height="1174.06" transform="rotate(-45 -99.6741 -530.814)" fill="#242424"/>
<rect x="-535.364" y="-364.71" width="1" height="1174.06" transform="rotate(-45 -535.364 -364.71)" fill="#242424"/>
<rect x="-98.364" y="-535.71" width="1" height="1174.06" transform="rotate(-45 -98.364 -535.71)" fill="#242424"/>
<rect x="-534.054" y="-369.606" width="1" height="1174.06" transform="rotate(-45 -534.054 -369.606)" fill="#242424"/>
<rect x="-97.0542" y="-540.606" width="1" height="1174.06" transform="rotate(-45 -97.0542 -540.606)" fill="#242424"/>
<rect x="-532.744" y="-374.501" width="1" height="1174.06" transform="rotate(-45 -532.744 -374.501)" fill="#242424"/>
<rect x="-95.7441" y="-545.501" width="1" height="1174.06" transform="rotate(-45 -95.7441 -545.501)" fill="#242424"/>
<rect x="-531.434" y="-379.397" width="1" height="1174.06" transform="rotate(-45 -531.434 -379.397)" fill="#242424"/>
<rect x="-94.4343" y="-550.397" width="1" height="1174.06" transform="rotate(-45 -94.4343 -550.397)" fill="#242424"/>
<rect x="-530.125" y="-384.293" width="1" height="1174.06" transform="rotate(-45 -530.125 -384.293)" fill="#242424"/>
<rect x="-93.1245" y="-555.293" width="1" height="1174.06" transform="rotate(-45 -93.1245 -555.293)" fill="#242424"/>
</g>
</g>
<path d="M0 0V-1H-1V0H0ZM358 0H359V-1H358V0ZM0 1H358V-1H0V1ZM357 0V100H359V0H357ZM1 100V0H-1V100H1Z" fill="#242424" mask="url(#path-1-inside-1_10_9151)"/>
<defs>
<clipPath id="clip0_10_9151">
<path d="M0 0H358V100H0V0Z" fill="white"/>
</clipPath>
<clipPath id="clip1_10_9151">
<rect width="1110" height="500" fill="white" transform="translate(-376 -200)"/>
</clipPath>
</defs>
</svg>
