<svg width="48" height="48" viewBox="0 0 48 48" fill="none" xmlns="http://www.w3.org/2000/svg">
<rect width="48" height="48" rx="4" fill="#72FFB1" fill-opacity="0.15"/>
<g clip-path="url(#clip0_10_18)">
<path d="M27.2812 13.0247V16.0314H30.288L27.2812 13.0247Z" fill="#72FFB1"/>
<path d="M21.6927 24.7483C21.4057 24.2938 21.4057 23.7063 21.6927 23.2516C23.2497 20.7851 25.9186 19.3125 28.832 19.3125C29.4213 19.3125 30.0003 19.3738 30.5625 19.4903V16.9688H26.8125C26.5536 16.9688 26.3438 16.7589 26.3438 16.5V12.75H15.0938C14.8349 12.75 14.625 12.9599 14.625 13.2188V32.9062C14.625 33.1651 14.8349 33.375 15.0938 33.375H30.0938C30.3526 33.375 30.5625 33.1651 30.5625 32.9062V28.5097C30.0003 28.6262 29.4213 28.6875 28.832 28.6875C25.9186 28.6875 23.2497 27.2149 21.6927 24.7483ZM16.9688 16.0312H23.5312C23.7901 16.0312 24 16.2411 24 16.5C24 16.7589 23.7901 16.9688 23.5312 16.9688H16.9688C16.7099 16.9688 16.5 16.7589 16.5 16.5C16.5 16.2411 16.7099 16.0312 16.9688 16.0312ZM16.9688 17.9062H23.5312C23.7901 17.9062 24 18.1161 24 18.375C24 18.6339 23.7901 18.8438 23.5312 18.8438H16.9688C16.7099 18.8438 16.5 18.6339 16.5 18.375C16.5 18.1161 16.7099 17.9062 16.9688 17.9062ZM16.9688 19.7812H21.6562C21.9151 19.7812 22.125 19.9911 22.125 20.25C22.125 20.5089 21.9151 20.7188 21.6562 20.7188H16.9688C16.7099 20.7188 16.5 20.5089 16.5 20.25C16.5 19.9911 16.7099 19.7812 16.9688 19.7812ZM17.8965 27.4375H18.2676C19.0376 27.4375 19.6641 28.0639 19.6641 28.834C19.6641 29.507 19.1855 30.0703 18.5508 30.2016V30.875C18.5508 31.1339 18.341 31.3438 18.0821 31.3438C17.8232 31.3438 17.6133 31.1339 17.6133 30.875V30.2305H16.9688C16.7099 30.2305 16.5 30.0206 16.5 29.7617C16.5 29.5029 16.7099 29.293 16.9688 29.293H18.2676C18.5206 29.293 18.7266 29.0871 18.7266 28.834C18.7266 28.5809 18.5206 28.375 18.2676 28.375H17.8965C17.1264 28.375 16.5 27.7485 16.5 26.9785C16.5 26.3055 16.9786 25.7422 17.6133 25.611V24.9375C17.6133 24.6786 17.8231 24.4688 18.082 24.4688C18.3409 24.4688 18.5508 24.6786 18.5508 24.9375V25.582H19.1953C19.4542 25.582 19.6641 25.7919 19.6641 26.0508C19.6641 26.3096 19.4542 26.5195 19.1953 26.5195H17.8965C17.6434 26.5195 17.4375 26.7255 17.4375 26.9785C17.4375 27.2316 17.6434 27.4375 17.8965 27.4375Z" fill="#72FFB1"/>
<path d="M13.6875 33.8438V14.625H13.2188C12.9599 14.625 12.75 14.8349 12.75 15.0938V34.7812C12.75 35.0401 12.9599 35.25 13.2188 35.25H28.2188C28.4776 35.25 28.6875 35.0401 28.6875 34.7812V34.3125H14.1562C13.8974 34.3125 13.6875 34.1026 13.6875 33.8438Z" fill="#72FFB1"/>
<path d="M35.1785 23.7521C33.8502 21.6478 31.5044 20.25 28.832 20.25C26.1596 20.25 23.8138 21.6478 22.4854 23.7521C22.3901 23.9032 22.3901 24.0968 22.4854 24.2479C23.8138 26.3522 26.1596 27.75 28.832 27.75C31.5044 27.75 33.8502 26.3522 35.1785 24.2479C35.2739 24.0968 35.2739 23.9032 35.1785 23.7521ZM28.832 25.875C27.7981 25.875 26.957 25.0339 26.957 24C26.957 22.9661 27.7981 22.125 28.832 22.125C29.8659 22.125 30.707 22.9661 30.707 24C30.707 25.0339 29.8659 25.875 28.832 25.875Z" fill="#72FFB1"/>
<path d="M28.832 24.9375C29.3497 24.9375 29.7695 24.5178 29.7695 24C29.7695 23.4822 29.3497 23.0625 28.832 23.0625C28.3142 23.0625 27.8945 23.4822 27.8945 24C27.8945 24.5178 28.3142 24.9375 28.832 24.9375Z" fill="#72FFB1"/>
</g>
<defs>
<clipPath id="clip0_10_18">
<rect width="24" height="24" fill="white" transform="translate(12 12)"/>
</clipPath>
</defs>
</svg>
