<svg width="48" height="48" viewBox="0 0 48 48" fill="none" xmlns="http://www.w3.org/2000/svg">
<rect width="48" height="48" rx="4" fill="#72FFB1" fill-opacity="0.15"/>
<g clip-path="url(#clip0_10_17)">
<path d="M17.6717 24.6873C16.1206 24.6873 14.8592 25.9486 14.8592 27.4998C14.8592 29.0509 16.1206 30.3123 17.6717 30.3123C19.2229 30.3123 20.4842 29.0509 20.4842 27.4998C20.4842 25.9486 19.2229 24.6873 17.6717 24.6873Z" fill="#72FFB1"/>
<path d="M28.172 15.0627C28.089 14.8079 27.8692 14.6225 27.6042 14.5841L25.5498 14.2854L24.6303 12.3764C24.3941 11.8957 23.6058 11.8957 23.3695 12.3764L22.4501 14.2854L20.3957 14.5841C20.1307 14.6226 19.9109 14.808 19.8279 15.0627C19.7454 15.3168 19.8141 15.5963 20.0057 15.783L21.493 17.2325L21.1421 19.2787C21.0968 19.5423 21.2053 19.8088 21.4216 19.966C21.6392 20.1239 21.9276 20.1452 22.1618 20.0196L23.9999 19.0541L25.8381 20.0196C26.0712 20.1432 26.3606 20.125 26.5783 19.966C26.7946 19.8088 26.9031 19.5423 26.8578 19.2787L26.5069 17.2325L27.9942 15.783C28.1858 15.5962 28.2544 15.3167 28.172 15.0627Z" fill="#72FFB1"/>
<path d="M20.4253 17.875C20.3422 17.6202 20.1225 17.4348 19.8574 17.3964L17.803 17.0977L16.8836 15.2355C16.6474 14.7548 15.8591 14.7548 15.6229 15.2355L14.7035 17.0977L12.6022 17.3964C12.3371 17.4348 12.1174 17.6202 12.0343 17.875C11.9519 18.129 12.0206 18.4085 12.2122 18.5953L13.7462 20.0448L13.3953 22.091C13.35 22.3546 13.4585 22.6211 13.6748 22.7783C13.8925 22.9369 14.1809 22.9569 14.415 22.8319L16.2532 21.8664L18.0913 22.8319C18.3245 22.9555 18.6138 22.9374 18.8315 22.7783C19.0478 22.6211 19.1563 22.3546 19.111 22.091L18.7601 20.0448L20.2474 18.5953C20.439 18.4085 20.5077 18.129 20.4253 17.875Z" fill="#72FFB1"/>
<path d="M35.9657 17.8752C35.8826 17.6204 35.6629 17.435 35.3978 17.3966L33.2965 17.0979L32.377 15.2357C32.1408 14.7551 31.3525 14.7551 31.1163 15.2357L30.1969 17.0979L28.1424 17.3966C27.8774 17.4351 27.6577 17.6205 27.5746 17.8752C27.4922 18.1292 27.5608 18.4087 27.7524 18.5955L29.2397 20.045L28.8889 22.0912C28.8435 22.3548 28.952 22.6213 29.1683 22.7785C29.386 22.9371 29.6744 22.957 29.9085 22.8321L31.7467 21.8666L33.5849 22.8321C33.818 22.9557 34.1073 22.9375 34.3251 22.7785C34.5413 22.6213 34.6499 22.3548 34.6045 22.0912L34.2537 20.045L35.7878 18.5955C35.9794 18.4087 36.0481 18.1292 35.9657 17.8752Z" fill="#72FFB1"/>
<path d="M23.2362 35.1575C22.9615 33.3004 21.7647 31.7082 20.1383 30.907C19.4429 31.4119 18.5951 31.7187 17.6718 31.7187C16.7485 31.7187 15.9007 31.4119 15.2053 30.907C13.5788 31.7082 12.3352 33.3004 12.0605 35.1575C11.9965 35.5897 12.3232 35.9844 12.7601 35.9844H22.5366C22.9735 35.9844 23.3001 35.5897 23.2362 35.1575Z" fill="#72FFB1"/>
<path d="M30.328 24.6873C28.7769 24.6873 27.5155 25.9486 27.5155 27.4998C27.5155 29.0509 28.7769 30.3123 30.328 30.3123C31.8792 30.3123 33.1405 29.0509 33.1405 27.4998C33.1405 25.9486 31.8792 24.6873 30.328 24.6873Z" fill="#72FFB1"/>
<path d="M35.9394 35.1575C35.6646 33.3004 34.421 31.7082 32.7946 30.907C32.0992 31.4119 31.2514 31.7187 30.3281 31.7187C29.4048 31.7187 28.5569 31.4119 27.8616 30.907C26.2351 31.7082 25.0384 33.3004 24.7637 35.1575C24.6997 35.5897 25.0264 35.9844 25.4633 35.9844H35.2398C35.6766 35.9843 36.0033 35.5897 35.9394 35.1575Z" fill="#72FFB1"/>
</g>
<defs>
<clipPath id="clip0_10_17">
<rect width="24" height="24" fill="white" transform="translate(12 12)"/>
</clipPath>
</defs>
</svg>
