<svg width="48" height="48" viewBox="0 0 48 48" fill="none" xmlns="http://www.w3.org/2000/svg">
<rect width="48" height="48" rx="4" fill="#72FFB1" fill-opacity="0.15"/>
<path fill-rule="evenodd" clip-rule="evenodd" d="M23.8855 12.0061C21.5516 11.9299 19.1933 12.5648 17.1575 13.9255C14.8714 15.4537 13.2731 17.7095 12.5375 20.2295C12.3339 20.2065 12.0905 20.2182 11.8019 20.2999C10.7221 20.6057 9.91061 21.4895 9.54571 22.2685C9.07244 23.2818 8.87284 24.625 9.08375 26.0087C9.29284 27.3924 9.87631 28.5309 10.6061 29.2377C11.3377 29.9427 12.1646 30.1744 12.9856 29.9996C14.208 29.7413 14.8141 29.5457 14.643 28.4072L13.8143 22.8863C13.9814 19.8967 15.5282 17.0837 18.115 15.3563C21.5775 13.0439 26.1183 13.1917 29.421 15.7252C31.7187 17.4887 33.0546 20.1288 33.2068 22.8994L32.627 26.7597C31.3349 30.2981 28.1307 32.7484 24.4226 33.0958H21.9537C21.3173 33.0958 20.8043 33.6074 20.8043 34.2437V34.8502C20.8043 35.4866 21.3173 36 21.9537 36H25.0667C25.7034 36 26.2146 35.4866 26.2146 34.8502V34.5346C29.0112 33.8504 31.4531 32.1324 33.0404 29.7376L34.038 30C34.8496 30.2109 35.6859 29.9431 36.4175 29.2381C37.1473 28.5313 37.7308 27.3928 37.9399 26.0091C38.1508 24.6254 37.9457 23.2855 37.4779 22.2689C37.0087 21.2505 36.3092 20.6046 35.5013 20.3743C35.163 20.2773 34.7963 20.2397 34.4807 20.2317C33.8158 17.9507 32.4453 15.8773 30.4708 14.3612C28.5284 12.8728 26.219 12.0842 23.8855 12.0061Z" fill="#72FFB1"/>
<path fill-rule="evenodd" clip-rule="evenodd" d="M25.8866 20.5378H27.6389V23.831H28.4409V25.072H27.6389V26.3247H26.0691V25.072H23.7388V23.831L25.8866 20.5378ZM20.8521 20.5378C21.4717 20.5378 21.9753 20.7031 22.365 21.0337C22.7565 21.3665 22.9521 21.8073 22.9521 22.3586C22.9521 23.0045 22.6481 23.5237 22.1938 23.862L20.7649 24.926H22.9864V26.3247H18.5814V25.0136L20.3431 23.708C20.7496 23.4055 20.9948 23.1413 21.1032 22.9647C21.4225 22.4422 21.3159 21.8186 20.7229 21.8186C20.3048 21.8186 20.0712 22.147 20.0216 22.8049L18.5814 22.5235C18.6875 21.8525 18.9481 21.3562 19.3659 21.03C19.7862 20.7012 20.2821 20.5378 20.8521 20.5378ZM23.5111 15.5317C19.1364 15.5317 15.6111 18.9392 15.6111 23.4321C15.6111 25.5894 16.4263 27.4935 17.7549 28.8925L17.2834 31.0074C17.1276 31.7033 17.6104 32.1707 18.2354 31.8208L20.2993 30.6692C21.2801 31.095 22.365 31.3304 23.5111 31.3304C27.8881 31.3304 31.4115 27.9233 31.4115 23.4318C31.4115 18.9395 27.8881 15.5317 23.5111 15.5317Z" fill="#72FFB1"/>
<path fill-rule="evenodd" clip-rule="evenodd" d="M26.069 22.1282L24.9875 23.8312H26.069V22.1282Z" fill="#72FFB1"/>
</svg>
