<svg width="48" height="48" viewBox="0 0 48 48" fill="none" xmlns="http://www.w3.org/2000/svg">
<rect width="48" height="48" rx="4" fill="#72FFB1" fill-opacity="0.15"/>
<g clip-path="url(#clip0_59_447)">
<path d="M17.4107 34.7751C17.6821 34.5036 17.8975 34.1813 18.0445 33.8266C18.1914 33.4719 18.2671 33.0918 18.2671 32.7078C18.2671 32.3239 18.1915 31.9437 18.0446 31.589C17.8977 31.2343 17.6824 30.912 17.4109 30.6405C17.1394 30.369 16.8171 30.1536 16.4624 30.0067C16.1077 29.8597 15.7276 29.7841 15.3436 29.7841C14.9597 29.784 14.5795 29.8596 14.2248 30.0065C13.8701 30.1534 13.5478 30.3688 13.2763 30.6402C12.463 31.4531 12.1414 32.7135 12.0407 33.8549C11.9829 34.5007 11.9867 35.1505 12.0519 35.7956C12.0692 35.9573 12.2249 35.9938 12.2516 35.9985H12.2596C12.3247 35.9985 13.2589 36.0196 13.5467 35.1079C13.5984 34.9379 13.6744 34.7762 13.7722 34.6279C13.8128 34.5694 13.8719 34.5263 13.94 34.5056C14.0081 34.485 14.0812 34.4879 14.1474 34.5139C14.2137 34.5399 14.2692 34.5876 14.305 34.6491C14.3407 34.7106 14.3547 34.7825 14.3446 34.8529C14.2978 35.1992 14.3697 35.5511 14.5485 35.8513C14.568 35.8848 14.5971 35.9116 14.632 35.9283C14.667 35.945 14.7061 35.9508 14.7444 35.9451C15.7232 35.7951 16.7253 35.4604 17.4107 34.7751Z" fill="#72FFB1"/>
<path d="M35.9779 14.1927C35.9071 12.9698 35.031 12.0937 33.808 12.0229C29.654 11.7754 25.0246 13.537 21.4143 17.1473L20.4515 18.1101C20.1043 18.457 19.7746 18.8129 19.4624 19.1779H16.4268C15.7823 19.2027 15.2123 19.5745 14.8898 20.1201L13.1052 23.6896C13.0576 23.8177 13.0242 23.9507 13.0059 24.0862C13.0087 24.3158 13.1013 24.5353 13.2639 24.6974C13.4265 24.8596 13.6462 24.9517 13.8759 24.9538H16.1296C15.8371 25.9382 16.0321 26.9071 16.6579 27.532L20.4684 31.3424C21.0937 31.9682 22.0621 32.1632 23.0465 31.8707V34.1268C23.0493 34.3561 23.1416 34.5751 23.3037 34.7372C23.4658 34.8994 23.6849 34.9917 23.9141 34.9945C24.0496 34.9761 24.1826 34.9427 24.3107 34.8951L27.8802 33.1106C28.4259 32.7881 28.7976 32.2199 28.8224 31.5735V28.5384C29.1865 28.2259 29.5424 27.8962 29.8902 27.5493L30.853 26.5865C34.4638 22.9762 36.2254 18.3468 35.9779 14.1927ZM30.9201 21.426C30.4904 21.8558 29.9429 22.1484 29.3468 22.267C28.7508 22.3856 28.133 22.3247 27.5715 22.0921C27.0101 21.8596 26.5302 21.4658 26.1925 20.9605C25.8549 20.4552 25.6747 19.8611 25.6747 19.2534C25.6747 18.6457 25.8549 18.0516 26.1925 17.5463C26.5302 17.041 27.0101 16.6472 27.5715 16.4146C28.133 16.182 28.7508 16.1212 29.3468 16.2398C29.9429 16.3583 30.4904 16.651 30.9201 17.0807C31.4963 17.6569 31.82 18.4385 31.82 19.2534C31.82 20.0683 31.4963 20.8498 30.9201 21.426Z" fill="#72FFB1"/>
<path d="M15.7088 16.7915C15.5414 16.624 15.4473 16.3968 15.4473 16.1599C15.4473 15.923 15.5414 15.6958 15.7088 15.5283L18.0226 13.2145C18.1904 13.0467 18.418 12.9524 18.6554 12.9524C18.8927 12.9524 19.1204 13.0467 19.2882 13.2145C19.456 13.3823 19.5503 13.61 19.5503 13.8473C19.5503 14.0847 19.456 14.3123 19.2882 14.4801L16.9745 16.7939C16.8913 16.877 16.7926 16.9429 16.6839 16.9878C16.5752 17.0327 16.4587 17.0557 16.3412 17.0555C16.2236 17.0552 16.1072 17.0318 15.9987 16.9865C15.8902 16.9412 15.7917 16.875 15.7088 16.7915Z" fill="#72FFB1"/>
<path d="M12.3563 16.2613C12.1894 16.0939 12.0957 15.8671 12.0957 15.6306C12.0957 15.3942 12.1894 15.1674 12.3563 14.9999L13.5427 13.8116C13.7113 13.6494 13.9369 13.5597 14.1708 13.5619C14.4048 13.5642 14.6286 13.6581 14.7941 13.8236C14.9595 13.989 15.0535 14.2128 15.0557 14.4468C15.058 14.6808 14.9683 14.9063 14.806 15.0749L13.6196 16.2613C13.5368 16.3446 13.4384 16.4107 13.33 16.4557C13.2216 16.5008 13.1054 16.5241 12.988 16.5241C12.8706 16.5241 12.7543 16.5008 12.6459 16.4557C12.5375 16.4107 12.4391 16.3446 12.3563 16.2613Z" fill="#72FFB1"/>
<path d="M31.1338 32.2152C31.0506 32.1324 30.9845 32.034 30.9394 31.9256C30.8943 31.8172 30.8711 31.701 30.8711 31.5836C30.8711 31.4662 30.8943 31.3499 30.9394 31.2415C30.9845 31.1331 31.0506 31.0347 31.1338 30.9519L33.4471 28.6405C33.6146 28.4727 33.842 28.3783 34.0791 28.3781C34.3162 28.3778 34.5437 28.4718 34.7116 28.6393C34.8794 28.8069 34.9738 29.0342 34.974 29.2713C34.9742 29.5085 34.8803 29.736 34.7127 29.9038L32.3995 32.2175C32.3163 32.3007 32.2176 32.3666 32.1089 32.4115C32.0002 32.4563 31.8837 32.4793 31.7662 32.4791C31.6486 32.4789 31.5322 32.4555 31.4237 32.4102C31.3152 32.3649 31.2167 32.2986 31.1338 32.2152Z" fill="#72FFB1"/>
<path d="M31.6639 35.5692C31.4964 35.4017 31.4023 35.1745 31.4023 34.9376C31.4023 34.7007 31.4964 34.4735 31.6639 34.3059L32.8503 33.1195C32.9333 33.0364 33.0318 32.9705 33.1402 32.9254C33.2486 32.8804 33.3649 32.8572 33.4823 32.8571C33.5997 32.8569 33.716 32.88 33.8245 32.9248C33.933 32.9696 34.0317 33.0354 34.1148 33.1183C34.1979 33.2013 34.2638 33.2998 34.3089 33.4082C34.3539 33.5167 34.3771 33.6329 34.3772 33.7503C34.3773 33.8677 34.3543 33.984 34.3095 34.0926C34.2647 34.2011 34.1989 34.2997 34.1159 34.3828L32.9295 35.5692C32.8466 35.6525 32.748 35.7187 32.6394 35.7638C32.5308 35.8089 32.4143 35.8321 32.2967 35.8321C32.1791 35.8321 32.0627 35.8089 31.9541 35.7638C31.8455 35.7187 31.7469 35.6525 31.6639 35.5692Z" fill="#72FFB1"/>
</g>
<defs>
<clipPath id="clip0_59_447">
<rect width="24" height="24" fill="white" transform="translate(12 12)"/>
</clipPath>
</defs>
</svg>
