<svg width="19" height="19" viewBox="0 0 19 19" fill="none" xmlns="http://www.w3.org/2000/svg">
<path d="M4.79922 3C4.10966 3 3.44834 3.27393 2.96074 3.76152C2.47315 4.24912 2.19922 4.91044 2.19922 5.6V5.8613L9.99922 10.0616L17.7992 5.8626V5.6C17.7992 4.91044 17.5253 4.24912 17.0377 3.76152C16.5501 3.27393 15.8888 3 15.1992 3H4.79922ZM17.7992 7.3381L10.3073 11.372C10.2126 11.423 10.1068 11.4497 9.99922 11.4497C9.89168 11.4497 9.78581 11.423 9.69112 11.372L2.19922 7.3381V13.4C2.19922 14.0896 2.47315 14.7509 2.96074 15.2385C3.44834 15.7261 4.10966 16 4.79922 16H15.1992C15.8888 16 16.5501 15.7261 17.0377 15.2385C17.5253 14.7509 17.7992 14.0896 17.7992 13.4V7.3381Z" fill="#72FFB1"/>
</svg>
