<svg width="1440" height="1655" viewBox="0 0 1440 1655" fill="none" xmlns="http://www.w3.org/2000/svg">
<g opacity="0.2" clip-path="url(#clip0_98_96834)">
<rect width="1.31653" height="2992.47" transform="matrix(0.53747 -0.843283 0.53747 0.843283 -1203.89 406.405)" fill="#242424"/>
<rect width="1.31653" height="2992.47" transform="matrix(0.53747 -0.843283 0.53747 0.843283 -357.273 -113.377)" fill="#242424"/>
<rect width="1.31653" height="2992.47" transform="matrix(0.53747 -0.843283 0.53747 0.843283 613.336 -441.662)" fill="#242424"/>
<rect width="1.31653" height="2992.47" transform="matrix(0.53747 -0.843283 0.53747 0.843283 -1201.36 391.524)" fill="#242424"/>
<rect width="1.31653" height="2992.47" transform="matrix(0.53747 -0.843283 0.53747 0.843283 -354.736 -128.259)" fill="#242424"/>
<rect width="1.31653" height="2992.47" transform="matrix(0.53747 -0.843283 0.53747 0.843283 615.873 -456.543)" fill="#242424"/>
<rect width="1.31653" height="2992.47" transform="matrix(0.53747 -0.843283 0.53747 0.843283 -1198.82 376.643)" fill="#242424"/>
<rect width="1.31653" height="2992.47" transform="matrix(0.53747 -0.843283 0.53747 0.843283 -352.199 -143.139)" fill="#242424"/>
<rect width="1.31653" height="2992.47" transform="matrix(0.53747 -0.843283 0.53747 0.843283 618.412 -471.424)" fill="#242424"/>
<rect width="1.31653" height="2992.47" transform="matrix(0.53747 -0.843283 0.53747 0.843283 -1196.28 361.762)" fill="#242424"/>
<rect width="1.31653" height="2992.47" transform="matrix(0.53747 -0.843283 0.53747 0.843283 -349.66 -158.021)" fill="#242424"/>
<rect width="1.31653" height="2992.47" transform="matrix(0.53747 -0.843283 0.53747 0.843283 620.949 -486.305)" fill="#242424"/>
<rect width="1.31653" height="2992.47" transform="matrix(0.53747 -0.843283 0.53747 0.843283 -1193.74 346.88)" fill="#242424"/>
<rect width="1.31653" height="2992.47" transform="matrix(0.53747 -0.843283 0.53747 0.843283 -347.123 -172.903)" fill="#242424"/>
<rect width="1.31653" height="2992.47" transform="matrix(0.53747 -0.843283 0.53747 0.843283 623.486 -501.186)" fill="#242424"/>
<rect width="1.31653" height="2992.47" transform="matrix(0.53747 -0.843283 0.53747 0.843283 -1191.21 331.999)" fill="#242424"/>
<rect width="1.31653" height="2992.47" transform="matrix(0.53747 -0.843283 0.53747 0.843283 -344.586 -187.784)" fill="#242424"/>
<rect width="1.31653" height="2992.47" transform="matrix(0.53747 -0.843283 0.53747 0.843283 626.025 -516.068)" fill="#242424"/>
<rect width="1.31653" height="2992.47" transform="matrix(0.53747 -0.843283 0.53747 0.843283 -1188.67 317.118)" fill="#242424"/>
<rect width="1.31653" height="2992.47" transform="matrix(0.53747 -0.843283 0.53747 0.843283 -342.047 -202.665)" fill="#242424"/>
<rect width="1.31653" height="2992.47" transform="matrix(0.53747 -0.843283 0.53747 0.843283 628.562 -530.949)" fill="#242424"/>
<rect width="1.31653" height="2992.47" transform="matrix(0.53747 -0.843283 0.53747 0.843283 -1186.13 302.237)" fill="#242424"/>
<rect width="1.31653" height="2992.47" transform="matrix(0.53747 -0.843283 0.53747 0.843283 -339.51 -217.546)" fill="#242424"/>
<rect width="1.31653" height="2992.47" transform="matrix(0.53747 -0.843283 0.53747 0.843283 631.1 -545.83)" fill="#242424"/>
<rect width="1.31653" height="2992.47" transform="matrix(0.53747 -0.843283 0.53747 0.843283 -1183.59 287.355)" fill="#242424"/>
<rect width="1.31653" height="2992.47" transform="matrix(0.53747 -0.843283 0.53747 0.843283 -336.973 -232.428)" fill="#242424"/>
<rect width="1.31653" height="2992.47" transform="matrix(0.53747 -0.843283 0.53747 0.843283 633.639 -560.711)" fill="#242424"/>
<rect width="1.31653" height="2992.47" transform="matrix(0.53747 -0.843283 0.53747 0.843283 -1181.05 272.474)" fill="#242424"/>
<rect width="1.31653" height="2992.47" transform="matrix(0.53747 -0.843283 0.53747 0.843283 -334.436 -247.309)" fill="#242424"/>
<rect width="1.31653" height="2992.47" transform="matrix(0.53747 -0.843283 0.53747 0.843283 636.176 -575.593)" fill="#242424"/>
<rect width="1.31653" height="2992.47" transform="matrix(0.53747 -0.843283 0.53747 0.843283 -1178.52 257.593)" fill="#242424"/>
<rect width="1.31653" height="2992.47" transform="matrix(0.53747 -0.843283 0.53747 0.843283 -331.896 -262.19)" fill="#242424"/>
<rect width="1.31653" height="2992.47" transform="matrix(0.53747 -0.843283 0.53747 0.843283 638.713 -590.474)" fill="#242424"/>
<rect width="1.31653" height="2992.47" transform="matrix(0.53747 -0.843283 0.53747 0.843283 -1175.98 242.712)" fill="#242424"/>
<rect width="1.31653" height="2992.47" transform="matrix(0.53747 -0.843283 0.53747 0.843283 -329.359 -277.072)" fill="#242424"/>
<rect width="1.31653" height="2992.47" transform="matrix(0.53747 -0.843283 0.53747 0.843283 641.25 -605.355)" fill="#242424"/>
<rect width="1.31653" height="2992.47" transform="matrix(0.53747 -0.843283 0.53747 0.843283 -1173.44 227.83)" fill="#242424"/>
<rect width="1.31653" height="2992.47" transform="matrix(0.53747 -0.843283 0.53747 0.843283 -326.822 -291.952)" fill="#242424"/>
<rect width="1.31653" height="2992.47" transform="matrix(0.53747 -0.843283 0.53747 0.843283 643.789 -620.237)" fill="#242424"/>
<rect width="1.31653" height="2992.47" transform="matrix(0.53747 -0.843283 0.53747 0.843283 -1170.9 212.949)" fill="#242424"/>
<rect width="1.31653" height="2992.47" transform="matrix(0.53747 -0.843283 0.53747 0.843283 -324.283 -306.834)" fill="#242424"/>
<rect width="1.31653" height="2992.47" transform="matrix(0.53747 -0.843283 0.53747 0.843283 646.326 -635.118)" fill="#242424"/>
<rect width="1.31653" height="2992.47" transform="matrix(0.53747 -0.843283 0.53747 0.843283 -1168.37 198.068)" fill="#242424"/>
<rect width="1.31653" height="2992.47" transform="matrix(0.53747 -0.843283 0.53747 0.843283 -321.746 -321.715)" fill="#242424"/>
<rect width="1.31653" height="2992.47" transform="matrix(0.53747 -0.843283 0.53747 0.843283 648.863 -649.999)" fill="#242424"/>
<rect width="1.31653" height="2992.47" transform="matrix(0.53747 -0.843283 0.53747 0.843283 -1165.83 183.186)" fill="#242424"/>
<rect width="1.31653" height="2992.47" transform="matrix(0.53747 -0.843283 0.53747 0.843283 -319.209 -336.596)" fill="#242424"/>
<rect width="1.31653" height="2992.47" transform="matrix(0.53747 -0.843283 0.53747 0.843283 651.402 -664.88)" fill="#242424"/>
<rect width="1.31653" height="2992.47" transform="matrix(0.53747 -0.843283 0.53747 0.843283 -1163.29 168.306)" fill="#242424"/>
<rect width="1.31653" height="2992.47" transform="matrix(0.53747 -0.843283 0.53747 0.843283 -316.67 -351.478)" fill="#242424"/>
<rect width="1.31653" height="2992.47" transform="matrix(0.53747 -0.843283 0.53747 0.843283 653.939 -679.762)" fill="#242424"/>
<rect width="1.31653" height="2992.47" transform="matrix(0.53747 -0.843283 0.53747 0.843283 -1160.75 153.424)" fill="#242424"/>
<rect width="1.31653" height="2992.47" transform="matrix(0.53747 -0.843283 0.53747 0.843283 -314.133 -366.359)" fill="#242424"/>
<rect width="1.31653" height="2992.47" transform="matrix(0.53747 -0.843283 0.53747 0.843283 656.477 -694.642)" fill="#242424"/>
<rect width="1.31653" height="2992.47" transform="matrix(0.53747 -0.843283 0.53747 0.843283 -1158.21 138.543)" fill="#242424"/>
<rect width="1.31653" height="2992.47" transform="matrix(0.53747 -0.843283 0.53747 0.843283 -311.596 -381.24)" fill="#242424"/>
<rect width="1.31653" height="2992.47" transform="matrix(0.53747 -0.843283 0.53747 0.843283 659.016 -709.524)" fill="#242424"/>
<rect width="1.31653" height="2992.47" transform="matrix(0.53747 -0.843283 0.53747 0.843283 -1155.68 123.662)" fill="#242424"/>
<rect width="1.31653" height="2992.47" transform="matrix(0.53747 -0.843283 0.53747 0.843283 -309.057 -396.121)" fill="#242424"/>
<rect width="1.31653" height="2992.47" transform="matrix(0.53747 -0.843283 0.53747 0.843283 661.553 -724.405)" fill="#242424"/>
<rect width="1.31653" height="2992.47" transform="matrix(0.53747 -0.843283 0.53747 0.843283 -1153.14 108.78)" fill="#242424"/>
<rect width="1.31653" height="2992.47" transform="matrix(0.53747 -0.843283 0.53747 0.843283 -306.52 -411.003)" fill="#242424"/>
<rect width="1.31653" height="2992.47" transform="matrix(0.53747 -0.843283 0.53747 0.843283 664.09 -739.287)" fill="#242424"/>
<rect width="1.31653" height="2992.47" transform="matrix(0.53747 -0.843283 0.53747 0.843283 -1150.6 93.8987)" fill="#242424"/>
<rect width="1.31653" height="2992.47" transform="matrix(0.53747 -0.843283 0.53747 0.843283 -303.982 -425.884)" fill="#242424"/>
<rect width="1.31653" height="2992.47" transform="matrix(0.53747 -0.843283 0.53747 0.843283 666.629 -754.168)" fill="#242424"/>
<rect width="1.31653" height="2992.47" transform="matrix(0.53747 -0.843283 0.53747 0.843283 -1148.06 79.0178)" fill="#242424"/>
<rect width="1.31653" height="2992.47" transform="matrix(0.53747 -0.843283 0.53747 0.843283 -301.443 -440.765)" fill="#242424"/>
<rect width="1.31653" height="2992.47" transform="matrix(0.53747 -0.843283 0.53747 0.843283 669.166 -769.049)" fill="#242424"/>
<rect width="1.31653" height="2992.47" transform="matrix(0.53747 -0.843283 0.53747 0.843283 -1145.53 64.1366)" fill="#242424"/>
<rect width="1.31653" height="2992.47" transform="matrix(0.53747 -0.843283 0.53747 0.843283 -298.906 -455.646)" fill="#242424"/>
<rect width="1.31653" height="2992.47" transform="matrix(0.53747 -0.843283 0.53747 0.843283 671.703 -783.931)" fill="#242424"/>
<rect width="1.31653" height="2992.47" transform="matrix(0.53747 -0.843283 0.53747 0.843283 -1140.45 34.3734)" fill="#242424"/>
<rect width="1.31653" height="2992.47" transform="matrix(0.53747 -0.843283 0.53747 0.843283 -293.83 -485.409)" fill="#242424"/>
<rect width="1.31653" height="2992.47" transform="matrix(0.53747 -0.843283 0.53747 0.843283 676.779 -813.694)" fill="#242424"/>
<rect width="1.31653" height="2992.47" transform="matrix(0.53747 -0.843283 0.53747 0.843283 -1142.99 49.255)" fill="#242424"/>
<rect width="1.31653" height="2992.47" transform="matrix(0.53747 -0.843283 0.53747 0.843283 -296.369 -470.528)" fill="#242424"/>
<rect width="1.31653" height="2992.47" transform="matrix(0.53747 -0.843283 0.53747 0.843283 674.242 -798.812)" fill="#242424"/>
<rect width="1.31653" height="2992.47" transform="matrix(0.53747 -0.843283 0.53747 0.843283 -1137.91 19.4922)" fill="#242424"/>
<rect width="1.31653" height="2992.47" transform="matrix(0.53747 -0.843283 0.53747 0.843283 -291.293 -500.291)" fill="#242424"/>
<rect width="1.31653" height="2992.47" transform="matrix(0.53747 -0.843283 0.53747 0.843283 679.316 -828.575)" fill="#242424"/>
<rect width="1.31653" height="2992.47" transform="matrix(0.53747 -0.843283 0.53747 0.843283 -1135.38 4.61057)" fill="#242424"/>
<rect width="1.31653" height="2992.47" transform="matrix(0.53747 -0.843283 0.53747 0.843283 -288.756 -515.173)" fill="#242424"/>
<rect width="1.31653" height="2992.47" transform="matrix(0.53747 -0.843283 0.53747 0.843283 681.855 -843.456)" fill="#242424"/>
<rect width="1.31653" height="2992.47" transform="matrix(0.53747 -0.843283 0.53747 0.843283 -1132.84 -10.2699)" fill="#242424"/>
<rect width="1.31653" height="2992.47" transform="matrix(0.53747 -0.843283 0.53747 0.843283 -286.217 -530.053)" fill="#242424"/>
<rect width="1.31653" height="2992.47" transform="matrix(0.53747 -0.843283 0.53747 0.843283 684.393 -858.338)" fill="#242424"/>
<rect width="1.31653" height="2992.47" transform="matrix(0.53747 -0.843283 0.53747 0.843283 -1130.3 -25.1515)" fill="#242424"/>
<rect width="1.31653" height="2992.47" transform="matrix(0.53747 -0.843283 0.53747 0.843283 -283.68 -544.935)" fill="#242424"/>
<rect width="1.31653" height="2992.47" transform="matrix(0.53747 -0.843283 0.53747 0.843283 686.93 -873.219)" fill="#242424"/>
<rect width="1.31653" height="2992.47" transform="matrix(0.53747 -0.843283 0.53747 0.843283 -1127.76 -40.0331)" fill="#242424"/>
<rect width="1.31653" height="2992.47" transform="matrix(0.53747 -0.843283 0.53747 0.843283 -281.143 -559.816)" fill="#242424"/>
<rect width="1.31653" height="2992.47" transform="matrix(0.53747 -0.843283 0.53747 0.843283 689.469 -888.1)" fill="#242424"/>
<rect width="1.31653" height="2992.47" transform="matrix(0.53747 -0.843283 0.53747 0.843283 -1125.22 -54.9143)" fill="#242424"/>
<rect width="1.31653" height="2992.47" transform="matrix(0.53747 -0.843283 0.53747 0.843283 -278.604 -574.697)" fill="#242424"/>
<rect width="1.31653" height="2992.47" transform="matrix(0.53747 -0.843283 0.53747 0.843283 692.006 -902.981)" fill="#242424"/>
<rect width="1.31653" height="2992.47" transform="matrix(0.53747 -0.843283 0.53747 0.843283 -1122.69 -69.7952)" fill="#242424"/>
<rect width="1.31653" height="2992.47" transform="matrix(0.53747 -0.843283 0.53747 0.843283 -276.066 -589.578)" fill="#242424"/>
<rect width="1.31653" height="2992.47" transform="matrix(0.53747 -0.843283 0.53747 0.843283 694.543 -917.862)" fill="#242424"/>
<rect width="1.31653" height="2992.47" transform="matrix(0.53747 -0.843283 0.53747 0.843283 -1120.15 -84.6768)" fill="#242424"/>
<rect width="1.31653" height="2992.47" transform="matrix(0.53747 -0.843283 0.53747 0.843283 -273.529 -604.46)" fill="#242424"/>
<rect width="1.31653" height="2992.47" transform="matrix(0.53747 -0.843283 0.53747 0.843283 697.082 -932.743)" fill="#242424"/>
<rect width="1.31653" height="2992.47" transform="matrix(0.53747 -0.843283 0.53747 0.843283 -1117.61 -99.5576)" fill="#242424"/>
<rect width="1.31653" height="2992.47" transform="matrix(0.53747 -0.843283 0.53747 0.843283 -270.992 -619.341)" fill="#242424"/>
<rect width="1.31653" height="2992.47" transform="matrix(0.53747 -0.843283 0.53747 0.843283 699.619 -947.625)" fill="#242424"/>
<rect width="1.31653" height="2992.47" transform="matrix(0.53747 -0.843283 0.53747 0.843283 -1115.07 -114.439)" fill="#242424"/>
<rect width="1.31653" height="2992.47" transform="matrix(0.53747 -0.843283 0.53747 0.843283 -268.453 -634.222)" fill="#242424"/>
<rect width="1.31653" height="2992.47" transform="matrix(0.53747 -0.843283 0.53747 0.843283 702.156 -962.506)" fill="#242424"/>
<rect width="1.31653" height="2992.47" transform="matrix(0.53747 -0.843283 0.53747 0.843283 -1112.54 -129.321)" fill="#242424"/>
<rect width="1.31653" height="2992.47" transform="matrix(0.53747 -0.843283 0.53747 0.843283 -265.916 -649.104)" fill="#242424"/>
<rect width="1.31653" height="2992.47" transform="matrix(0.53747 -0.843283 0.53747 0.843283 704.695 -977.388)" fill="#242424"/>
<rect width="1.31653" height="2992.47" transform="matrix(0.53747 -0.843283 0.53747 0.843283 -1110 -144.202)" fill="#242424"/>
<rect width="1.31653" height="2992.47" transform="matrix(0.53747 -0.843283 0.53747 0.843283 -263.377 -663.986)" fill="#242424"/>
<rect width="1.31653" height="2992.47" transform="matrix(0.53747 -0.843283 0.53747 0.843283 707.232 -992.269)" fill="#242424"/>
<rect width="1.31653" height="2992.47" transform="matrix(0.53747 -0.843283 0.53747 0.843283 -1107.46 -159.084)" fill="#242424"/>
<rect width="1.31653" height="2992.47" transform="matrix(0.53747 -0.843283 0.53747 0.843283 -260.84 -678.867)" fill="#242424"/>
<rect width="1.31653" height="2992.47" transform="matrix(0.53747 -0.843283 0.53747 0.843283 709.77 -1007.15)" fill="#242424"/>
<rect width="1.31653" height="2992.47" transform="matrix(0.53747 -0.843283 0.53747 0.843283 -1104.92 -173.965)" fill="#242424"/>
<rect width="1.31653" height="2992.47" transform="matrix(0.53747 -0.843283 0.53747 0.843283 -258.303 -693.748)" fill="#242424"/>
<rect width="1.31653" height="2992.47" transform="matrix(0.53747 -0.843283 0.53747 0.843283 712.307 -1022.03)" fill="#242424"/>
<rect width="1.31653" height="2992.47" transform="matrix(0.53747 -0.843283 0.53747 0.843283 -1102.38 -188.846)" fill="#242424"/>
<rect width="1.31653" height="2992.47" transform="matrix(0.53747 -0.843283 0.53747 0.843283 -255.764 -708.63)" fill="#242424"/>
<rect width="1.31653" height="2992.47" transform="matrix(0.53747 -0.843283 0.53747 0.843283 714.846 -1036.91)" fill="#242424"/>
<rect width="1.31653" height="2992.47" transform="matrix(0.53747 -0.843283 0.53747 0.843283 -1099.85 -203.728)" fill="#242424"/>
<rect width="1.31653" height="2992.47" transform="matrix(0.53747 -0.843283 0.53747 0.843283 -253.227 -723.511)" fill="#242424"/>
<rect width="1.31653" height="2992.47" transform="matrix(0.53747 -0.843283 0.53747 0.843283 717.383 -1051.79)" fill="#242424"/>
<rect width="1.31653" height="2992.47" transform="matrix(0.53747 -0.843283 0.53747 0.843283 -1097.31 -218.609)" fill="#242424"/>
<rect width="1.31653" height="2992.47" transform="matrix(0.53747 -0.843283 0.53747 0.843283 -250.689 -738.392)" fill="#242424"/>
<rect width="1.31653" height="2992.47" transform="matrix(0.53747 -0.843283 0.53747 0.843283 719.922 -1066.68)" fill="#242424"/>
<rect width="1.31653" height="2992.47" transform="matrix(0.53747 -0.843283 0.53747 0.843283 -1094.77 -233.49)" fill="#242424"/>
<rect width="1.31653" height="2992.47" transform="matrix(0.53747 -0.843283 0.53747 0.843283 -248.15 -753.273)" fill="#242424"/>
<rect width="1.31653" height="2992.47" transform="matrix(0.53747 -0.843283 0.53747 0.843283 722.459 -1081.56)" fill="#242424"/>
<rect width="1.31653" height="2992.47" transform="matrix(0.53747 -0.843283 0.53747 0.843283 -1092.23 -248.372)" fill="#242424"/>
<rect width="1.31653" height="2992.47" transform="matrix(0.53747 -0.843283 0.53747 0.843283 -245.613 -768.155)" fill="#242424"/>
<rect width="1.31653" height="2992.47" transform="matrix(0.53747 -0.843283 0.53747 0.843283 724.996 -1096.44)" fill="#242424"/>
<rect width="1.31653" height="2992.47" transform="matrix(0.53747 -0.843283 0.53747 0.843283 -1089.7 -263.253)" fill="#242424"/>
<rect width="1.31653" height="2992.47" transform="matrix(0.53747 -0.843283 0.53747 0.843283 -243.076 -783.036)" fill="#242424"/>
<rect width="1.31653" height="2992.47" transform="matrix(0.53747 -0.843283 0.53747 0.843283 727.535 -1111.32)" fill="#242424"/>
<rect width="1.31653" height="2992.47" transform="matrix(0.53747 -0.843283 0.53747 0.843283 -1087.16 -278.134)" fill="#242424"/>
<rect width="1.31653" height="2992.47" transform="matrix(0.53747 -0.843283 0.53747 0.843283 -240.537 -797.917)" fill="#242424"/>
<rect width="1.31653" height="2992.47" transform="matrix(0.53747 -0.843283 0.53747 0.843283 730.072 -1126.2)" fill="#242424"/>
<rect width="1.31653" height="2992.47" transform="matrix(0.53747 -0.843283 0.53747 0.843283 -1084.62 -293.015)" fill="#242424"/>
<rect width="1.31653" height="2992.47" transform="matrix(0.53747 -0.843283 0.53747 0.843283 -238 -812.798)" fill="#242424"/>
<rect width="1.31653" height="2992.47" transform="matrix(0.53747 -0.843283 0.53747 0.843283 732.609 -1141.08)" fill="#242424"/>
<rect width="1.31653" height="2992.47" transform="matrix(0.53747 -0.843283 0.53747 0.843283 -1082.08 -307.897)" fill="#242424"/>
<rect width="1.31653" height="2992.47" transform="matrix(0.53747 -0.843283 0.53747 0.843283 -235.463 -827.68)" fill="#242424"/>
<rect width="1.31653" height="2992.47" transform="matrix(0.53747 -0.843283 0.53747 0.843283 735.148 -1155.96)" fill="#242424"/>
<rect width="1.31653" height="2992.47" transform="matrix(0.53747 -0.843283 0.53747 0.843283 -775.74 154.114)" fill="#242424"/>
<rect width="1.31653" height="2992.47" transform="matrix(0.53747 -0.843283 0.53747 0.843283 70.8789 -365.67)" fill="#242424"/>
<rect width="1.31653" height="2992.47" transform="matrix(0.53747 -0.843283 0.53747 0.843283 1041.49 -693.954)" fill="#242424"/>
<rect width="1.31653" height="2992.47" transform="matrix(0.53747 -0.843283 0.53747 0.843283 -773.203 139.232)" fill="#242424"/>
<rect width="1.31653" height="2992.47" transform="matrix(0.53747 -0.843283 0.53747 0.843283 73.416 -380.551)" fill="#242424"/>
<rect width="1.31653" height="2992.47" transform="matrix(0.53747 -0.843283 0.53747 0.843283 1044.03 -708.836)" fill="#242424"/>
<rect width="1.31653" height="2992.47" transform="matrix(0.53747 -0.843283 0.53747 0.843283 -770.666 124.351)" fill="#242424"/>
<rect width="1.31653" height="2992.47" transform="matrix(0.53747 -0.843283 0.53747 0.843283 75.9551 -395.432)" fill="#242424"/>
<rect width="1.31653" height="2992.47" transform="matrix(0.53747 -0.843283 0.53747 0.843283 1046.56 -723.716)" fill="#242424"/>
<rect width="1.31653" height="2992.47" transform="matrix(0.53747 -0.843283 0.53747 0.843283 -768.127 109.47)" fill="#242424"/>
<rect width="1.31653" height="2992.47" transform="matrix(0.53747 -0.843283 0.53747 0.843283 78.4922 -410.313)" fill="#242424"/>
<rect width="1.31653" height="2992.47" transform="matrix(0.53747 -0.843283 0.53747 0.843283 1049.1 -738.597)" fill="#242424"/>
<rect width="1.31653" height="2992.47" transform="matrix(0.53747 -0.843283 0.53747 0.843283 -765.59 94.5883)" fill="#242424"/>
<rect width="1.31653" height="2992.47" transform="matrix(0.53747 -0.843283 0.53747 0.843283 81.0293 -425.195)" fill="#242424"/>
<rect width="1.31653" height="2992.47" transform="matrix(0.53747 -0.843283 0.53747 0.843283 1051.64 -753.479)" fill="#242424"/>
<rect width="1.31653" height="2992.47" transform="matrix(0.53747 -0.843283 0.53747 0.843283 -763.053 79.7066)" fill="#242424"/>
<rect width="1.31653" height="2992.47" transform="matrix(0.53747 -0.843283 0.53747 0.843283 83.5684 -440.076)" fill="#242424"/>
<rect width="1.31653" height="2992.47" transform="matrix(0.53747 -0.843283 0.53747 0.843283 1054.18 -768.36)" fill="#242424"/>
<rect width="1.31653" height="2992.47" transform="matrix(0.53747 -0.843283 0.53747 0.843283 -760.514 64.8258)" fill="#242424"/>
<rect width="1.31653" height="2992.47" transform="matrix(0.53747 -0.843283 0.53747 0.843283 86.1055 -454.957)" fill="#242424"/>
<rect width="1.31653" height="2992.47" transform="matrix(0.53747 -0.843283 0.53747 0.843283 1056.71 -783.241)" fill="#242424"/>
<rect width="1.31653" height="2992.47" transform="matrix(0.53747 -0.843283 0.53747 0.843283 -757.977 49.9446)" fill="#242424"/>
<rect width="1.31653" height="2992.47" transform="matrix(0.53747 -0.843283 0.53747 0.843283 88.6426 -469.838)" fill="#242424"/>
<rect width="1.31653" height="2992.47" transform="matrix(0.53747 -0.843283 0.53747 0.843283 1059.25 -798.122)" fill="#242424"/>
<rect width="1.31653" height="2992.47" transform="matrix(0.53747 -0.843283 0.53747 0.843283 -755.439 35.063)" fill="#242424"/>
<rect width="1.31653" height="2992.47" transform="matrix(0.53747 -0.843283 0.53747 0.843283 91.1816 -484.72)" fill="#242424"/>
<rect width="1.31653" height="2992.47" transform="matrix(0.53747 -0.843283 0.53747 0.843283 1061.79 -813.004)" fill="#242424"/>
<rect width="1.31653" height="2992.47" transform="matrix(0.53747 -0.843283 0.53747 0.843283 -752.9 20.1814)" fill="#242424"/>
<rect width="1.31653" height="2992.47" transform="matrix(0.53747 -0.843283 0.53747 0.843283 93.7188 -499.601)" fill="#242424"/>
<rect width="1.31653" height="2992.47" transform="matrix(0.53747 -0.843283 0.53747 0.843283 1064.33 -827.885)" fill="#242424"/>
<rect width="1.31653" height="2992.47" transform="matrix(0.53747 -0.843283 0.53747 0.843283 -750.363 5.30092)" fill="#242424"/>
<rect width="1.31653" height="2992.47" transform="matrix(0.53747 -0.843283 0.53747 0.843283 96.2559 -514.482)" fill="#242424"/>
<rect width="1.31653" height="2992.47" transform="matrix(0.53747 -0.843283 0.53747 0.843283 1066.87 -842.767)" fill="#242424"/>
<rect width="1.31653" height="2992.47" transform="matrix(0.53747 -0.843283 0.53747 0.843283 -747.826 -9.5803)" fill="#242424"/>
<rect width="1.31653" height="2992.47" transform="matrix(0.53747 -0.843283 0.53747 0.843283 98.7949 -529.364)" fill="#242424"/>
<rect width="1.31653" height="2992.47" transform="matrix(0.53747 -0.843283 0.53747 0.843283 1069.4 -857.648)" fill="#242424"/>
<rect width="1.31653" height="2992.47" transform="matrix(0.53747 -0.843283 0.53747 0.843283 -745.289 -24.4619)" fill="#242424"/>
<rect width="1.31653" height="2992.47" transform="matrix(0.53747 -0.843283 0.53747 0.843283 101.332 -544.245)" fill="#242424"/>
<rect width="1.31653" height="2992.47" transform="matrix(0.53747 -0.843283 0.53747 0.843283 1071.94 -872.529)" fill="#242424"/>
<rect width="1.31653" height="2992.47" transform="matrix(0.53747 -0.843283 0.53747 0.843283 -742.75 -39.3435)" fill="#242424"/>
<rect width="1.31653" height="2992.47" transform="matrix(0.53747 -0.843283 0.53747 0.843283 103.869 -559.127)" fill="#242424"/>
<rect width="1.31653" height="2992.47" transform="matrix(0.53747 -0.843283 0.53747 0.843283 1074.48 -887.41)" fill="#242424"/>
<rect width="1.31653" height="2992.47" transform="matrix(0.53747 -0.843283 0.53747 0.843283 -740.213 -54.224)" fill="#242424"/>
<rect width="1.31653" height="2992.47" transform="matrix(0.53747 -0.843283 0.53747 0.843283 106.408 -574.007)" fill="#242424"/>
<rect width="1.31653" height="2992.47" transform="matrix(0.53747 -0.843283 0.53747 0.843283 1077.02 -902.291)" fill="#242424"/>
<rect width="1.31653" height="2992.47" transform="matrix(0.53747 -0.843283 0.53747 0.843283 -737.676 -69.1056)" fill="#242424"/>
<rect width="1.31653" height="2992.47" transform="matrix(0.53747 -0.843283 0.53747 0.843283 108.945 -588.889)" fill="#242424"/>
<rect width="1.31653" height="2992.47" transform="matrix(0.53747 -0.843283 0.53747 0.843283 1079.55 -917.173)" fill="#242424"/>
<rect width="1.31653" height="2992.47" transform="matrix(0.53747 -0.843283 0.53747 0.843283 -735.137 -83.9872)" fill="#242424"/>
<rect width="1.31653" height="2992.47" transform="matrix(0.53747 -0.843283 0.53747 0.843283 111.482 -603.77)" fill="#242424"/>
<rect width="1.31653" height="2992.47" transform="matrix(0.53747 -0.843283 0.53747 0.843283 1082.09 -932.055)" fill="#242424"/>
<rect width="1.31653" height="2992.47" transform="matrix(0.53747 -0.843283 0.53747 0.843283 -732.6 -98.8676)" fill="#242424"/>
<rect width="1.31653" height="2992.47" transform="matrix(0.53747 -0.843283 0.53747 0.843283 114.021 -618.65)" fill="#242424"/>
<rect width="1.31653" height="2992.47" transform="matrix(0.53747 -0.843283 0.53747 0.843283 1084.63 -946.935)" fill="#242424"/>
<rect width="1.31653" height="2992.47" transform="matrix(0.53747 -0.843283 0.53747 0.843283 -730.062 -113.749)" fill="#242424"/>
<rect width="1.31653" height="2992.47" transform="matrix(0.53747 -0.843283 0.53747 0.843283 116.559 -633.532)" fill="#242424"/>
<rect width="1.31653" height="2992.47" transform="matrix(0.53747 -0.843283 0.53747 0.843283 1087.17 -961.816)" fill="#242424"/>
<rect width="1.31653" height="2992.47" transform="matrix(0.53747 -0.843283 0.53747 0.843283 -727.523 -128.631)" fill="#242424"/>
<rect width="1.31653" height="2992.47" transform="matrix(0.53747 -0.843283 0.53747 0.843283 119.096 -648.414)" fill="#242424"/>
<rect width="1.31653" height="2992.47" transform="matrix(0.53747 -0.843283 0.53747 0.843283 1089.71 -976.698)" fill="#242424"/>
<rect width="1.31653" height="2992.47" transform="matrix(0.53747 -0.843283 0.53747 0.843283 -724.986 -143.512)" fill="#242424"/>
<rect width="1.31653" height="2992.47" transform="matrix(0.53747 -0.843283 0.53747 0.843283 121.633 -663.295)" fill="#242424"/>
<rect width="1.31653" height="2992.47" transform="matrix(0.53747 -0.843283 0.53747 0.843283 1092.24 -991.579)" fill="#242424"/>
<rect width="1.31653" height="2992.47" transform="matrix(0.53747 -0.843283 0.53747 0.843283 -722.447 -158.394)" fill="#242424"/>
<rect width="1.31653" height="2992.47" transform="matrix(0.53747 -0.843283 0.53747 0.843283 124.172 -678.177)" fill="#242424"/>
<rect width="1.31653" height="2992.47" transform="matrix(0.53747 -0.843283 0.53747 0.843283 1094.78 -1006.46)" fill="#242424"/>
<rect width="1.31653" height="2992.47" transform="matrix(0.53747 -0.843283 0.53747 0.843283 -719.91 -173.274)" fill="#242424"/>
<rect width="1.31653" height="2992.47" transform="matrix(0.53747 -0.843283 0.53747 0.843283 126.709 -693.057)" fill="#242424"/>
<rect width="1.31653" height="2992.47" transform="matrix(0.53747 -0.843283 0.53747 0.843283 1097.32 -1021.34)" fill="#242424"/>
<rect width="1.31653" height="2992.47" transform="matrix(0.53747 -0.843283 0.53747 0.843283 -717.373 -188.156)" fill="#242424"/>
<rect width="1.31653" height="2992.47" transform="matrix(0.53747 -0.843283 0.53747 0.843283 129.246 -707.939)" fill="#242424"/>
<rect width="1.31653" height="2992.47" transform="matrix(0.53747 -0.843283 0.53747 0.843283 1099.86 -1036.22)" fill="#242424"/>
<rect width="1.31653" height="2992.47" transform="matrix(0.53747 -0.843283 0.53747 0.843283 -712.297 -217.919)" fill="#242424"/>
<rect width="1.31653" height="2992.47" transform="matrix(0.53747 -0.843283 0.53747 0.843283 134.322 -737.701)" fill="#242424"/>
<rect width="1.31653" height="2992.47" transform="matrix(0.53747 -0.843283 0.53747 0.843283 1104.93 -1065.99)" fill="#242424"/>
<rect width="1.31653" height="2992.47" transform="matrix(0.53747 -0.843283 0.53747 0.843283 -714.834 -203.037)" fill="#242424"/>
<rect width="1.31653" height="2992.47" transform="matrix(0.53747 -0.843283 0.53747 0.843283 131.785 -722.821)" fill="#242424"/>
<rect width="1.31653" height="2992.47" transform="matrix(0.53747 -0.843283 0.53747 0.843283 1102.39 -1051.1)" fill="#242424"/>
<rect width="1.31653" height="2992.47" transform="matrix(0.53747 -0.843283 0.53747 0.843283 -709.76 -232.8)" fill="#242424"/>
<rect width="1.31653" height="2992.47" transform="matrix(0.53747 -0.843283 0.53747 0.843283 136.859 -752.583)" fill="#242424"/>
<rect width="1.31653" height="2992.47" transform="matrix(0.53747 -0.843283 0.53747 0.843283 1107.47 -1080.87)" fill="#242424"/>
<rect width="1.31653" height="2992.47" transform="matrix(0.53747 -0.843283 0.53747 0.843283 -707.223 -247.682)" fill="#242424"/>
<rect width="1.31653" height="2992.47" transform="matrix(0.53747 -0.843283 0.53747 0.843283 139.398 -767.465)" fill="#242424"/>
<rect width="1.31653" height="2992.47" transform="matrix(0.53747 -0.843283 0.53747 0.843283 1110.01 -1095.75)" fill="#242424"/>
<rect width="1.31653" height="2992.47" transform="matrix(0.53747 -0.843283 0.53747 0.843283 -704.684 -262.563)" fill="#242424"/>
<rect width="1.31653" height="2992.47" transform="matrix(0.53747 -0.843283 0.53747 0.843283 141.936 -782.346)" fill="#242424"/>
<rect width="1.31653" height="2992.47" transform="matrix(0.53747 -0.843283 0.53747 0.843283 1112.54 -1110.63)" fill="#242424"/>
<rect width="1.31653" height="2992.47" transform="matrix(0.53747 -0.843283 0.53747 0.843283 -702.146 -277.444)" fill="#242424"/>
<rect width="1.31653" height="2992.47" transform="matrix(0.53747 -0.843283 0.53747 0.843283 144.475 -797.227)" fill="#242424"/>
<rect width="1.31653" height="2992.47" transform="matrix(0.53747 -0.843283 0.53747 0.843283 1115.08 -1125.51)" fill="#242424"/>
<rect width="1.31653" height="2992.47" transform="matrix(0.53747 -0.843283 0.53747 0.843283 -699.609 -292.325)" fill="#242424"/>
<rect width="1.31653" height="2992.47" transform="matrix(0.53747 -0.843283 0.53747 0.843283 147.012 -812.108)" fill="#242424"/>
<rect width="1.31653" height="2992.47" transform="matrix(0.53747 -0.843283 0.53747 0.843283 1117.62 -1140.39)" fill="#242424"/>
<rect width="1.31653" height="2992.47" transform="matrix(0.53747 -0.843283 0.53747 0.843283 -697.07 -307.207)" fill="#242424"/>
<rect width="1.31653" height="2992.47" transform="matrix(0.53747 -0.843283 0.53747 0.843283 149.549 -826.99)" fill="#242424"/>
<rect width="1.31653" height="2992.47" transform="matrix(0.53747 -0.843283 0.53747 0.843283 1120.16 -1155.27)" fill="#242424"/>
<rect width="1.31653" height="2992.47" transform="matrix(0.53747 -0.843283 0.53747 0.843283 -694.533 -322.087)" fill="#242424"/>
<rect width="1.31653" height="2992.47" transform="matrix(0.53747 -0.843283 0.53747 0.843283 152.086 -841.87)" fill="#242424"/>
<rect width="1.31653" height="2992.47" transform="matrix(0.53747 -0.843283 0.53747 0.843283 1122.7 -1170.15)" fill="#242424"/>
<rect width="1.31653" height="2992.47" transform="matrix(0.53747 -0.843283 0.53747 0.843283 -691.996 -336.969)" fill="#242424"/>
<rect width="1.31653" height="2992.47" transform="matrix(0.53747 -0.843283 0.53747 0.843283 154.625 -856.752)" fill="#242424"/>
<rect width="1.31653" height="2992.47" transform="matrix(0.53747 -0.843283 0.53747 0.843283 1125.23 -1185.04)" fill="#242424"/>
<rect width="1.31653" height="2992.47" transform="matrix(0.53747 -0.843283 0.53747 0.843283 -689.457 -351.85)" fill="#242424"/>
<rect width="1.31653" height="2992.47" transform="matrix(0.53747 -0.843283 0.53747 0.843283 157.162 -871.634)" fill="#242424"/>
<rect width="1.31653" height="2992.47" transform="matrix(0.53747 -0.843283 0.53747 0.843283 1127.77 -1199.92)" fill="#242424"/>
<rect width="1.31653" height="2992.47" transform="matrix(0.53747 -0.843283 0.53747 0.843283 -686.92 -366.732)" fill="#242424"/>
<rect width="1.31653" height="2992.47" transform="matrix(0.53747 -0.843283 0.53747 0.843283 159.699 -886.515)" fill="#242424"/>
<rect width="1.31653" height="2992.47" transform="matrix(0.53747 -0.843283 0.53747 0.843283 1130.31 -1214.8)" fill="#242424"/>
<rect width="1.31653" height="2992.47" transform="matrix(0.53747 -0.843283 0.53747 0.843283 -684.383 -381.613)" fill="#242424"/>
<rect width="1.31653" height="2992.47" transform="matrix(0.53747 -0.843283 0.53747 0.843283 162.238 -901.396)" fill="#242424"/>
<rect width="1.31653" height="2992.47" transform="matrix(0.53747 -0.843283 0.53747 0.843283 1132.85 -1229.68)" fill="#242424"/>
<rect width="1.31653" height="2992.47" transform="matrix(0.53747 -0.843283 0.53747 0.843283 -681.844 -396.494)" fill="#242424"/>
<rect width="1.31653" height="2992.47" transform="matrix(0.53747 -0.843283 0.53747 0.843283 164.775 -916.278)" fill="#242424"/>
<rect width="1.31653" height="2992.47" transform="matrix(0.53747 -0.843283 0.53747 0.843283 1135.39 -1244.56)" fill="#242424"/>
<rect width="1.31653" height="2992.47" transform="matrix(0.53747 -0.843283 0.53747 0.843283 -679.307 -411.376)" fill="#242424"/>
<rect width="1.31653" height="2992.47" transform="matrix(0.53747 -0.843283 0.53747 0.843283 167.314 -931.159)" fill="#242424"/>
<rect width="1.31653" height="2992.47" transform="matrix(0.53747 -0.843283 0.53747 0.843283 1137.92 -1259.44)" fill="#242424"/>
<rect width="1.31653" height="2992.47" transform="matrix(0.53747 -0.843283 0.53747 0.843283 -676.77 -426.258)" fill="#242424"/>
<rect width="1.31653" height="2992.47" transform="matrix(0.53747 -0.843283 0.53747 0.843283 169.852 -946.041)" fill="#242424"/>
<rect width="1.31653" height="2992.47" transform="matrix(0.53747 -0.843283 0.53747 0.843283 1140.46 -1274.32)" fill="#242424"/>
<rect width="1.31653" height="2992.47" transform="matrix(0.53747 -0.843283 0.53747 0.843283 -674.23 -441.139)" fill="#242424"/>
<rect width="1.31653" height="2992.47" transform="matrix(0.53747 -0.843283 0.53747 0.843283 172.389 -960.922)" fill="#242424"/>
<rect width="1.31653" height="2992.47" transform="matrix(0.53747 -0.843283 0.53747 0.843283 1143 -1289.21)" fill="#242424"/>
<rect width="1.31653" height="2992.47" transform="matrix(0.53747 -0.843283 0.53747 0.843283 -671.693 -456.02)" fill="#242424"/>
<rect width="1.31653" height="2992.47" transform="matrix(0.53747 -0.843283 0.53747 0.843283 174.928 -975.803)" fill="#242424"/>
<rect width="1.31653" height="2992.47" transform="matrix(0.53747 -0.843283 0.53747 0.843283 1145.54 -1304.09)" fill="#242424"/>
<rect width="1.31653" height="2992.47" transform="matrix(0.53747 -0.843283 0.53747 0.843283 -669.156 -470.901)" fill="#242424"/>
<rect width="1.31653" height="2992.47" transform="matrix(0.53747 -0.843283 0.53747 0.843283 177.465 -990.684)" fill="#242424"/>
<rect width="1.31653" height="2992.47" transform="matrix(0.53747 -0.843283 0.53747 0.843283 1148.07 -1318.97)" fill="#242424"/>
<rect width="1.31653" height="2992.47" transform="matrix(0.53747 -0.843283 0.53747 0.843283 -666.617 -485.783)" fill="#242424"/>
<rect width="1.31653" height="2992.47" transform="matrix(0.53747 -0.843283 0.53747 0.843283 180.002 -1005.57)" fill="#242424"/>
<rect width="1.31653" height="2992.47" transform="matrix(0.53747 -0.843283 0.53747 0.843283 1150.61 -1333.85)" fill="#242424"/>
<rect width="1.31653" height="2992.47" transform="matrix(0.53747 -0.843283 0.53747 0.843283 -664.08 -500.664)" fill="#242424"/>
<rect width="1.31653" height="2992.47" transform="matrix(0.53747 -0.843283 0.53747 0.843283 182.541 -1020.45)" fill="#242424"/>
<rect width="1.31653" height="2992.47" transform="matrix(0.53747 -0.843283 0.53747 0.843283 1153.15 -1348.73)" fill="#242424"/>
<rect width="1.31653" height="2992.47" transform="matrix(0.53747 -0.843283 0.53747 0.843283 -661.543 -515.545)" fill="#242424"/>
<rect width="1.31653" height="2992.47" transform="matrix(0.53747 -0.843283 0.53747 0.843283 185.078 -1035.33)" fill="#242424"/>
<rect width="1.31653" height="2992.47" transform="matrix(0.53747 -0.843283 0.53747 0.843283 1155.69 -1363.61)" fill="#242424"/>
<rect width="1.31653" height="2992.47" transform="matrix(0.53747 -0.843283 0.53747 0.843283 -659.004 -530.426)" fill="#242424"/>
<rect width="1.31653" height="2992.47" transform="matrix(0.53747 -0.843283 0.53747 0.843283 187.615 -1050.21)" fill="#242424"/>
<rect width="1.31653" height="2992.47" transform="matrix(0.53747 -0.843283 0.53747 0.843283 1158.23 -1378.49)" fill="#242424"/>
<rect width="1.31653" height="2992.47" transform="matrix(0.53747 -0.843283 0.53747 0.843283 -656.467 -545.308)" fill="#242424"/>
<rect width="1.31653" height="2992.47" transform="matrix(0.53747 -0.843283 0.53747 0.843283 190.152 -1065.09)" fill="#242424"/>
<rect width="1.31653" height="2992.47" transform="matrix(0.53747 -0.843283 0.53747 0.843283 1160.76 -1393.37)" fill="#242424"/>
<rect width="1.31653" height="2992.47" transform="matrix(0.53747 -0.843283 0.53747 0.843283 -653.93 -560.19)" fill="#242424"/>
<rect width="1.31653" height="2992.47" transform="matrix(0.53747 -0.843283 0.53747 0.843283 192.691 -1079.97)" fill="#242424"/>
<rect width="1.31653" height="2992.47" transform="matrix(0.53747 -0.843283 0.53747 0.843283 1163.3 -1408.26)" fill="#242424"/>
</g>
<defs>
<clipPath id="clip0_98_96834">
<rect width="1440" height="1658" fill="white"/>
</clipPath>
</defs>
</svg>
