<svg width="19" height="19" viewBox="0 0 19 19" fill="none" xmlns="http://www.w3.org/2000/svg">
<path d="M15.2244 12.0809L13.2136 11.8513C12.9771 11.8235 12.7375 11.8497 12.5126 11.9278C12.2877 12.006 12.0835 12.1341 11.9152 12.3025L10.4586 13.7592C8.21133 12.616 6.38469 10.7893 5.24148 8.5421L6.70606 7.07752C7.04648 6.7371 7.21273 6.2621 7.15731 5.77919L6.92773 3.78419C6.88301 3.39792 6.69772 3.04162 6.40718 2.7832C6.11663 2.52477 5.74115 2.3823 5.35231 2.38294H3.98273C3.08814 2.38294 2.34398 3.1271 2.39939 4.02169C2.81898 10.7825 8.22606 16.1817 14.979 16.6013C15.8736 16.6567 16.6177 15.9125 16.6177 15.0179V13.6484C16.6256 12.8488 16.024 12.1759 15.2244 12.0809Z" fill="#72FFB1"/>
</svg>
